<svg xmlns="http://www.w3.org/2000/svg" xmlns:xlink="http://www.w3.org/1999/xlink" width="35" height="35" viewBox="0 0 35 35" fill="none">
<path d="M27.0268 8.30377L26.283 8.30377C25.7877 6.84953 24.4122 5.80127 22.79 5.80127L6.74426 5.80127C4.70377 5.80127 3.05176 7.45502 3.05176 9.49377L3.05176 20.1618C3.05176 22.0378 4.57252 23.5567 6.44676 23.5567C7.41801 23.5567 8.20725 24.3442 8.20725 25.3172L8.20725 26.1905C8.20725 27.3892 9.6335 28.0158 10.5155 27.2038L13.9752 24.0222C14.3007 23.723 14.726 23.5567 15.167 23.5567L22.79 23.5567C24.8305 23.5567 26.4825 21.903 26.4825 19.8643L26.4825 11.1983L27.025 11.1983C28.124 11.1983 29.0165 12.0925 29.0165 13.1897L29.0165 23.1245C29.0165 24.0695 28.2465 24.8395 27.3015 24.8395C25.5988 24.8395 24.2145 26.2238 24.2145 27.9265L24.2145 28.3622L21.271 25.655C20.7005 25.13 19.9568 24.8395 19.1815 24.8395L15.405 24.8395C14.607 24.8395 13.9577 25.4888 13.9577 26.2867C13.9577 27.0847 14.607 27.734 15.405 27.734L19.1815 27.734C19.2288 27.734 19.276 27.7515 19.311 27.7847L22.5327 30.7475C23.042 31.2147 23.6947 31.4737 24.3702 31.4737C24.75 31.4737 25.1227 31.395 25.478 31.2392C26.486 30.7983 27.1107 29.8392 27.1107 28.7403L27.1107 27.9265C27.1107 27.8215 27.1965 27.7358 27.3015 27.7358C29.8443 27.7358 31.9127 25.6673 31.9127 23.1263L31.9127 13.1915C31.9145 10.4948 29.7218 8.30377 27.0268 8.30377ZM17.5365 18.8947L9.36399 18.8947C8.61676 18.8947 8.00949 18.2893 8.00949 17.5403C8.00949 16.7913 8.61501 16.1858 9.36399 16.1858L17.5365 16.1858C18.2838 16.1858 18.891 16.7913 18.891 17.5403C18.891 18.2893 18.2838 18.8947 17.5365 18.8947ZM20.277 13.6133L9.36399 13.6133C9.34184 13.6133 9.3197 13.6127 9.29755 13.6116C9.2754 13.6105 9.25332 13.6089 9.23124 13.6067C9.20919 13.6046 9.18718 13.6019 9.16524 13.5986C9.14333 13.5954 9.12149 13.5916 9.09975 13.5872C9.07801 13.5829 9.05641 13.5781 9.03488 13.5727C9.01338 13.5673 8.99202 13.5614 8.97083 13.5549C8.94963 13.5485 8.92858 13.5416 8.90769 13.5341C8.88684 13.5266 8.86617 13.5187 8.84566 13.5101C8.82518 13.5017 8.80492 13.4927 8.78489 13.4832C8.76486 13.4737 8.74503 13.4638 8.72548 13.4533C8.70593 13.4429 8.68666 13.4319 8.66765 13.4206C8.64865 13.4092 8.62992 13.3973 8.61149 13.385C8.59307 13.3727 8.57495 13.3599 8.55711 13.3467C8.53934 13.3335 8.52187 13.3199 8.50472 13.3058C8.48759 13.2917 8.47081 13.2772 8.45437 13.2624C8.43796 13.2475 8.4219 13.2322 8.40621 13.2165C8.39056 13.2009 8.37528 13.1848 8.36038 13.1684C8.34551 13.1519 8.33105 13.1352 8.31697 13.118C8.30292 13.1009 8.28928 13.0835 8.27605 13.0656C8.26286 13.0478 8.25011 13.0297 8.23777 13.0113C8.22547 12.9929 8.21361 12.9741 8.20219 12.9551C8.19081 12.9361 8.17991 12.9168 8.16945 12.8973C8.15899 12.8777 8.14904 12.8579 8.13954 12.8379C8.13007 12.8178 8.12108 12.7976 8.11261 12.7771C8.10413 12.7566 8.09617 12.7359 8.08868 12.7151C8.08123 12.6942 8.07426 12.6732 8.06783 12.652C8.06141 12.6307 8.05549 12.6094 8.05009 12.5879C8.04473 12.5664 8.03987 12.5447 8.03553 12.523C8.03123 12.5013 8.02743 12.4794 8.02415 12.4575C8.02094 12.4356 8.0182 12.4136 8.01602 12.3915C8.01386 12.3695 8.01222 12.3474 8.01113 12.3252C8.01003 12.3031 8.00949 12.2809 8.00949 12.2588C8.00949 12.2366 8.01003 12.2144 8.01113 12.1923C8.01222 12.1702 8.01386 12.1481 8.01602 12.126C8.0182 12.104 8.02094 12.082 8.02415 12.06C8.02743 12.0381 8.03123 12.0163 8.03553 11.9945C8.03987 11.9728 8.04473 11.9511 8.05009 11.9296C8.05549 11.9081 8.06141 11.8868 8.06783 11.8656C8.07426 11.8443 8.08123 11.8233 8.08868 11.8024C8.09617 11.7815 8.10413 11.7609 8.11261 11.7404C8.12108 11.72 8.13007 11.6997 8.13954 11.6797C8.14904 11.6596 8.15899 11.6398 8.16945 11.6203C8.17991 11.6007 8.19081 11.5814 8.20219 11.5624C8.21361 11.5434 8.22547 11.5247 8.23777 11.5062C8.25011 11.4878 8.26286 11.4697 8.27605 11.4519C8.28928 11.4341 8.30292 11.4166 8.31697 11.3995C8.33105 11.3824 8.34551 11.3656 8.36038 11.3491C8.37528 11.3327 8.39056 11.3167 8.40621 11.301C8.4219 11.2853 8.43796 11.27 8.45437 11.2551C8.47081 11.2403 8.48759 11.2258 8.50472 11.2117C8.52187 11.1977 8.53934 11.184 8.55711 11.1708C8.57495 11.1576 8.59307 11.1448 8.61149 11.1325C8.62992 11.1202 8.64865 11.1083 8.66765 11.097C8.68666 11.0856 8.70593 11.0746 8.72548 11.0642C8.74503 11.0538 8.76486 11.0438 8.78489 11.0343C8.80492 11.0248 8.82518 11.0159 8.84566 11.0074C8.86617 10.9989 8.88684 10.9909 8.90769 10.9835C8.92858 10.976 8.94963 10.969 8.97083 10.9626C8.99202 10.9561 9.01338 10.9502 9.03488 10.9449C9.05641 10.9395 9.07801 10.9346 9.09975 10.9303C9.12149 10.926 9.14333 10.9222 9.16524 10.9189C9.18718 10.9157 9.20919 10.9129 9.23124 10.9108C9.25332 10.9086 9.2754 10.907 9.29755 10.9059C9.3197 10.9048 9.34184 10.9043 9.36399 10.9043L20.277 10.9043C20.2992 10.9043 20.3213 10.9048 20.3435 10.9059C20.3656 10.907 20.3877 10.9086 20.4098 10.9108C20.4319 10.9129 20.4538 10.9157 20.4757 10.9189C20.4977 10.9222 20.5195 10.926 20.5412 10.9303C20.563 10.9346 20.5846 10.9395 20.6061 10.9449C20.6276 10.9502 20.649 10.9561 20.6702 10.9626C20.6914 10.969 20.7125 10.976 20.7333 10.9835C20.7542 10.9909 20.7749 10.9989 20.7954 11.0074C20.8158 11.0159 20.8361 11.0248 20.8561 11.0343C20.8762 11.0438 20.8959 11.0538 20.9155 11.0642C20.935 11.0746 20.9544 11.0856 20.9734 11.097C20.9924 11.1083 21.0111 11.1202 21.0295 11.1325C21.048 11.1448 21.0661 11.1576 21.0839 11.1708C21.1017 11.184 21.1192 11.1977 21.1363 11.2117C21.1535 11.2258 21.1702 11.2403 21.1866 11.2551C21.2031 11.27 21.2191 11.2853 21.2348 11.301C21.2505 11.3167 21.2657 11.3327 21.2806 11.3491C21.2955 11.3656 21.31 11.3824 21.324 11.3995C21.3381 11.4166 21.3518 11.4341 21.365 11.4519C21.3782 11.4697 21.3909 11.4878 21.4032 11.5062C21.4155 11.5247 21.4274 11.5434 21.4388 11.5624C21.4502 11.5814 21.4611 11.6007 21.4716 11.6203C21.482 11.6398 21.492 11.6596 21.5014 11.6796C21.5109 11.6997 21.5199 11.72 21.5284 11.7404C21.5369 11.7609 21.5449 11.7815 21.5523 11.8024C21.5598 11.8233 21.5668 11.8443 21.5732 11.8656C21.5796 11.8868 21.5855 11.9081 21.5909 11.9296C21.5963 11.9511 21.6012 11.9728 21.6055 11.9945C21.6098 12.0163 21.6136 12.0381 21.6168 12.06C21.6201 12.082 21.6228 12.104 21.625 12.126C21.6272 12.1481 21.6288 12.1702 21.6299 12.1923C21.6309 12.2144 21.6315 12.2366 21.6315 12.2588C21.6315 12.2809 21.6309 12.3031 21.6299 12.3252C21.6288 12.3474 21.6272 12.3695 21.625 12.3915C21.6228 12.4136 21.6201 12.4356 21.6168 12.4575C21.6136 12.4794 21.6098 12.5013 21.6055 12.523C21.6012 12.5447 21.5963 12.5664 21.5909 12.5879C21.5855 12.6094 21.5796 12.6307 21.5732 12.652C21.5668 12.6732 21.5598 12.6942 21.5523 12.7151C21.5449 12.736 21.5369 12.7566 21.5284 12.7771C21.5199 12.7976 21.5109 12.8178 21.5014 12.8379C21.492 12.8579 21.482 12.8777 21.4716 12.8973C21.4611 12.9168 21.4502 12.9361 21.4388 12.9551C21.4274 12.9741 21.4155 12.9929 21.4032 13.0113C21.3909 13.0297 21.3782 13.0478 21.3649 13.0656C21.3517 13.0835 21.3381 13.1009 21.324 13.118C21.31 13.1352 21.2955 13.1519 21.2806 13.1684C21.2657 13.1848 21.2505 13.2009 21.2348 13.2165C21.2191 13.2322 21.2031 13.2475 21.1866 13.2624C21.1702 13.2772 21.1535 13.2917 21.1363 13.3058C21.1192 13.3199 21.1017 13.3335 21.0839 13.3467C21.0661 13.3599 21.048 13.3727 21.0295 13.385C21.0111 13.3973 20.9924 13.4092 20.9734 13.4206C20.9544 13.4319 20.935 13.4429 20.9155 13.4533C20.8959 13.4638 20.8762 13.4737 20.8561 13.4832C20.8361 13.4927 20.8158 13.5017 20.7954 13.5101C20.7749 13.5187 20.7542 13.5266 20.7333 13.5341C20.7125 13.5416 20.6914 13.5485 20.6702 13.5549C20.649 13.5614 20.6276 13.5673 20.6061 13.5727C20.5846 13.5781 20.563 13.5829 20.5413 13.5872C20.5195 13.5916 20.4977 13.5954 20.4757 13.5986C20.4538 13.6019 20.4319 13.6046 20.4098 13.6067C20.3877 13.6089 20.3656 13.6105 20.3435 13.6116C20.3213 13.6127 20.2992 13.6133 20.277 13.6133Z"   fill="#FF8205" >
</path>
<path d="M21.273 25.6548C20.7025 25.1298 19.9588 24.8394 19.1835 24.8394L15.4053 24.8394C14.6073 24.8394 13.958 25.4886 13.958 26.2866C13.958 27.0058 14.4865 27.6026 15.176 27.7146C15.4422 27.6715 15.7075 27.6231 15.9717 27.5692C16.236 27.5153 16.499 27.456 16.7608 27.3913C17.0226 27.3267 17.283 27.2567 17.542 27.1814C17.8009 27.106 18.0582 27.0255 18.3139 26.9396C18.5695 26.8538 18.8233 26.7627 19.0753 26.6665C19.3272 26.5702 19.577 26.4689 19.8248 26.3624C20.0726 26.2559 20.3181 26.1444 20.5613 26.0279C20.8045 25.9114 21.0453 25.79 21.2835 25.6636L21.273 25.6548Z"   fill="#FF7E3E" >
</path>
<path d="M31.575 11.4048C30.861 9.59002 29.0917 8.30377 27.0268 8.30377L26.283 8.30377C25.7877 6.84953 24.4122 5.80127 22.79 5.80127L6.74426 5.80127C4.70377 5.80127 3.05176 7.45502 3.05176 9.49377L3.05176 20.1618C3.05176 22.0378 4.57252 23.5568 6.44676 23.5568C7.41801 23.5568 8.20725 24.3443 8.20725 25.3172L8.20725 26.1905C8.20725 27.3893 9.6335 28.0158 10.5155 27.2038L13.9752 24.0222C14.3007 23.723 14.726 23.5568 15.167 23.5568L22.79 23.5568C24.8305 23.5568 26.4825 21.903 26.4825 19.8643L26.4825 11.1983L27.025 11.1983C28.124 11.1983 29.0165 12.0925 29.0165 13.1898L29.0165 18.3295C30.2747 16.2418 31.1567 13.902 31.575 11.4048ZM17.5365 18.8948L9.36399 18.8948C8.61676 18.8948 8.00949 18.2893 8.00949 17.5403C8.00949 16.7913 8.61501 16.1858 9.36399 16.1858L17.5365 16.1858C18.2838 16.1858 18.891 16.7913 18.891 17.5403C18.891 18.2893 18.2838 18.8948 17.5365 18.8948ZM20.277 13.6133L9.36399 13.6133C9.34184 13.6133 9.3197 13.6127 9.29755 13.6116C9.2754 13.6105 9.25332 13.6089 9.23124 13.6067C9.20919 13.6046 9.18718 13.6019 9.16524 13.5986C9.14333 13.5954 9.12149 13.5916 9.09975 13.5872C9.07801 13.5829 9.05641 13.5781 9.03488 13.5727C9.01338 13.5673 8.99201 13.5614 8.97082 13.5549C8.94963 13.5485 8.92858 13.5416 8.90769 13.5341C8.88684 13.5266 8.86617 13.5187 8.84566 13.5102C8.82518 13.5017 8.80492 13.4927 8.78489 13.4832C8.76486 13.4738 8.74503 13.4638 8.72548 13.4533C8.70593 13.4429 8.68665 13.4319 8.66765 13.4206C8.64865 13.4092 8.62992 13.3973 8.61149 13.385C8.59307 13.3727 8.57495 13.3599 8.55711 13.3467C8.53934 13.3335 8.52187 13.3199 8.50471 13.3058C8.48759 13.2917 8.47081 13.2773 8.45437 13.2624C8.43796 13.2475 8.4219 13.2322 8.40621 13.2165C8.39055 13.2009 8.37528 13.1848 8.36037 13.1684C8.34551 13.1519 8.33105 13.1352 8.31697 13.118C8.30292 13.1009 8.28928 13.0835 8.27605 13.0656C8.26286 13.0478 8.25011 13.0297 8.23777 13.0113C8.22547 12.9929 8.21361 12.9741 8.20219 12.9551C8.19081 12.9361 8.17991 12.9168 8.16945 12.8973C8.15899 12.8777 8.14904 12.8579 8.13954 12.8379C8.13007 12.8178 8.12108 12.7976 8.11261 12.7771C8.10413 12.7566 8.09617 12.7359 8.08868 12.7151C8.08123 12.6942 8.07426 12.6732 8.06783 12.652C8.06141 12.6307 8.05549 12.6094 8.05009 12.5879C8.04473 12.5664 8.03987 12.5447 8.03553 12.523C8.03122 12.5013 8.02743 12.4794 8.02415 12.4575C8.02094 12.4356 8.0182 12.4136 8.01601 12.3915C8.01386 12.3695 8.01222 12.3474 8.01113 12.3252C8.01003 12.3031 8.00949 12.2809 8.00949 12.2588C8.00949 12.2366 8.01003 12.2144 8.01113 12.1923C8.01222 12.1702 8.01386 12.1481 8.01601 12.126C8.0182 12.104 8.02094 12.082 8.02415 12.06C8.02743 12.0381 8.03122 12.0163 8.03553 11.9945C8.03987 11.9728 8.04473 11.9511 8.05009 11.9297C8.05549 11.9082 8.06141 11.8868 8.06783 11.8656C8.07426 11.8443 8.08123 11.8233 8.08868 11.8024C8.09617 11.7815 8.10413 11.7609 8.11261 11.7404C8.12108 11.72 8.13007 11.6997 8.13954 11.6797C8.14904 11.6596 8.15899 11.6398 8.16945 11.6203C8.17991 11.6007 8.19081 11.5814 8.20219 11.5624C8.21361 11.5434 8.22547 11.5247 8.23777 11.5062C8.25011 11.4878 8.26286 11.4697 8.27605 11.4519C8.28928 11.4341 8.30292 11.4166 8.31697 11.3995C8.33105 11.3824 8.34551 11.3656 8.36037 11.3491C8.37528 11.3327 8.39055 11.3167 8.40621 11.301C8.4219 11.2853 8.43796 11.27 8.45437 11.2551C8.47081 11.2403 8.48759 11.2258 8.50471 11.2117C8.52187 11.1977 8.53934 11.184 8.55711 11.1708C8.57495 11.1576 8.59307 11.1449 8.61149 11.1325C8.62992 11.1202 8.64865 11.1083 8.66765 11.097C8.68665 11.0856 8.70593 11.0746 8.72548 11.0642C8.74503 11.0538 8.76486 11.0438 8.78489 11.0343C8.80492 11.0248 8.82518 11.0159 8.84566 11.0074C8.86617 10.9989 8.88684 10.9909 8.90769 10.9835C8.92858 10.976 8.94963 10.969 8.97082 10.9626C8.99201 10.9561 9.01338 10.9502 9.03488 10.9449C9.05641 10.9395 9.07801 10.9346 9.09975 10.9303C9.12149 10.926 9.14333 10.9222 9.16524 10.9189C9.18718 10.9157 9.20919 10.9129 9.23124 10.9108C9.25332 10.9086 9.2754 10.907 9.29755 10.9059C9.3197 10.9048 9.34184 10.9043 9.36399 10.9043L20.277 10.9043C20.2992 10.9043 20.3213 10.9048 20.3435 10.9059C20.3656 10.907 20.3877 10.9086 20.4098 10.9108C20.4319 10.9129 20.4538 10.9157 20.4757 10.9189C20.4977 10.9222 20.5195 10.926 20.5412 10.9303C20.563 10.9346 20.5846 10.9395 20.6061 10.9449C20.6276 10.9502 20.649 10.9561 20.6702 10.9626C20.6914 10.969 20.7125 10.976 20.7333 10.9835C20.7542 10.9909 20.7749 10.9989 20.7954 11.0074C20.8158 11.0159 20.8361 11.0248 20.8561 11.0343C20.8762 11.0438 20.8959 11.0538 20.9155 11.0642C20.935 11.0746 20.9544 11.0856 20.9734 11.097C20.9924 11.1083 21.0111 11.1202 21.0295 11.1325C21.048 11.1449 21.0661 11.1576 21.0839 11.1708C21.1017 11.184 21.1192 11.1977 21.1363 11.2117C21.1535 11.2258 21.1702 11.2403 21.1866 11.2551C21.203 11.27 21.2191 11.2853 21.2348 11.301C21.2505 11.3167 21.2657 11.3327 21.2806 11.3491C21.2955 11.3656 21.31 11.3824 21.324 11.3995C21.3381 11.4166 21.3518 11.4341 21.365 11.4519C21.3781 11.4697 21.3909 11.4878 21.4032 11.5062C21.4155 11.5247 21.4274 11.5434 21.4388 11.5624C21.4502 11.5814 21.4611 11.6007 21.4716 11.6203C21.482 11.6398 21.492 11.6596 21.5014 11.6796C21.5109 11.6997 21.5199 11.72 21.5284 11.7404C21.5369 11.7609 21.5449 11.7815 21.5523 11.8024C21.5598 11.8233 21.5668 11.8443 21.5732 11.8656C21.5796 11.8868 21.5855 11.9082 21.5909 11.9297C21.5963 11.9511 21.6012 11.9728 21.6055 11.9945C21.6098 12.0163 21.6136 12.0381 21.6168 12.06C21.6201 12.082 21.6228 12.104 21.625 12.126C21.6271 12.1481 21.6288 12.1702 21.6298 12.1923C21.6309 12.2144 21.6315 12.2366 21.6315 12.2588C21.6315 12.2809 21.6309 12.3031 21.6298 12.3252C21.6288 12.3474 21.6271 12.3695 21.625 12.3915C21.6228 12.4136 21.6201 12.4356 21.6168 12.4575C21.6136 12.4794 21.6098 12.5013 21.6055 12.523C21.6012 12.5447 21.5963 12.5664 21.5909 12.5879C21.5855 12.6094 21.5796 12.6307 21.5732 12.652C21.5668 12.6732 21.5598 12.6942 21.5523 12.7151C21.5449 12.736 21.5369 12.7566 21.5284 12.7771C21.5199 12.7976 21.5109 12.8178 21.5014 12.8379C21.492 12.8579 21.482 12.8777 21.4716 12.8973C21.4611 12.9168 21.4502 12.9361 21.4388 12.9551C21.4274 12.9741 21.4155 12.9929 21.4032 13.0113C21.3909 13.0297 21.3781 13.0478 21.3649 13.0656C21.3517 13.0835 21.3381 13.1009 21.324 13.118C21.31 13.1352 21.2955 13.1519 21.2806 13.1684C21.2657 13.1848 21.2505 13.2009 21.2348 13.2165C21.2191 13.2322 21.203 13.2475 21.1866 13.2624C21.1702 13.2773 21.1535 13.2917 21.1363 13.3058C21.1192 13.3199 21.1017 13.3335 21.0839 13.3467C21.0661 13.3599 21.048 13.3727 21.0295 13.385C21.0111 13.3973 20.9924 13.4092 20.9734 13.4206C20.9544 13.4319 20.935 13.4429 20.9155 13.4533C20.8959 13.4638 20.8762 13.4738 20.8561 13.4832C20.8361 13.4927 20.8158 13.5017 20.7954 13.5102C20.7749 13.5187 20.7542 13.5266 20.7333 13.5341C20.7125 13.5416 20.6914 13.5485 20.6702 13.5549C20.649 13.5614 20.6276 13.5673 20.6061 13.5727C20.5846 13.5781 20.563 13.5829 20.5413 13.5872C20.5195 13.5916 20.4977 13.5954 20.4757 13.5986C20.4538 13.6019 20.4319 13.6046 20.4098 13.6067C20.3877 13.6089 20.3656 13.6105 20.3435 13.6116C20.3213 13.6127 20.2992 13.6133 20.277 13.6133Z"   fill="#FF7E3E" >
</path>
</svg>
