<svg xmlns="http://www.w3.org/2000/svg" xmlns:xlink="http://www.w3.org/1999/xlink" width="27.999176025390625" height="28" viewBox="0 0 27.999176025390625 28" fill="none">
<path d="M25.082 10.4997C26.692 10.4997 27.9992 11.7737 27.9992 13.3469L27.9992 27.287C27.9992 27.2987 27.9989 27.3104 27.9984 27.3221C27.9975 27.3338 27.9967 27.3454 27.9956 27.3571C27.9945 27.3689 27.9932 27.3804 27.9912 27.3919C27.9893 27.4036 27.9874 27.4151 27.985 27.4266C27.9828 27.4381 27.9803 27.4496 27.9773 27.4608C27.9743 27.472 27.9713 27.4835 27.9677 27.4947C27.9642 27.5059 27.9603 27.5168 27.9562 27.5278C27.9521 27.539 27.948 27.5499 27.9434 27.5606C27.9387 27.5712 27.9341 27.5819 27.9289 27.5926C27.9237 27.6032 27.9185 27.6136 27.9128 27.6237C27.9073 27.6341 27.9016 27.6442 27.8953 27.6541C27.889 27.6642 27.8827 27.674 27.8761 27.6836C27.8696 27.6932 27.8627 27.7028 27.8556 27.7121C27.8485 27.7214 27.8411 27.7306 27.8335 27.7397C27.8261 27.7487 27.8182 27.7574 27.8102 27.7659C27.8023 27.7744 27.7941 27.7829 27.7856 27.7911C27.7771 27.7993 27.7684 27.8072 27.7594 27.8151C27.7503 27.8231 27.7413 27.8307 27.732 27.8381C27.7227 27.8455 27.7132 27.8529 27.7036 27.8597C27.694 27.8665 27.6844 27.8734 27.6743 27.8799C27.6642 27.8862 27.6541 27.8925 27.644 27.8985C27.6339 27.9046 27.6235 27.9103 27.6128 27.9158C27.6021 27.9212 27.5915 27.9264 27.5808 27.9316C27.5699 27.9365 27.5589 27.9412 27.548 27.9458C27.5368 27.9502 27.5259 27.9543 27.5146 27.9584C27.5034 27.9623 27.4919 27.9658 27.4807 27.9694C27.4693 27.9726 27.4578 27.9757 27.4463 27.9787C27.4345 27.9814 27.423 27.9839 27.4113 27.9863C27.3995 27.9885 27.388 27.9904 27.3763 27.9923C27.3645 27.994 27.3525 27.9953 27.3407 27.9964C27.3289 27.9978 27.317 27.9986 27.3051 27.9992C27.2933 27.9997 27.2814 28 27.2695 28C27.2576 28 27.2457 27.9997 27.2338 27.9992C27.2219 27.9986 27.2101 27.9978 27.1982 27.9964C27.1864 27.9953 27.1746 27.994 27.1628 27.9923C27.151 27.9904 27.1393 27.9885 27.1276 27.9863C27.1159 27.9839 27.1044 27.9814 27.0928 27.9787C27.0812 27.9757 27.0697 27.9726 27.0583 27.9694C27.0469 27.9658 27.0356 27.9623 27.0244 27.9584C27.0132 27.9543 27.002 27.9502 26.991 27.9458C26.98 27.9412 26.9691 27.9365 26.9583 27.9316C26.9475 27.9264 26.9368 27.9212 26.9262 27.9158C26.9157 27.9103 26.9053 27.9046 26.895 27.8985C26.8848 27.8925 26.8746 27.8862 26.8647 27.8799C26.8547 27.8734 26.8449 27.8665 26.8352 27.8597C26.8256 27.8529 26.8161 27.8455 26.8068 27.8381C26.7975 27.8307 26.7884 27.8231 26.7795 27.8151C26.7705 27.8072 26.7618 27.7993 26.7532 27.7911L24.4993 25.3743C23.9516 24.8405 23.5228 24.4993 22.7494 24.4993L13.1246 24.4993C11.5147 24.4993 10.4997 23.4598 10.4997 21.8884L10.4997 19.2494L19.2494 19.2494C22.5691 19.2494 24.4993 17.4995 24.4993 13.9996L24.4993 10.4997L25.082 10.4997ZM18.9572 0C21.0519 0 22.7494 1.6572 22.7494 3.70114L22.7494 13.9996C22.7494 16.0435 21.3441 17.4995 19.2494 17.4995L6.99981 17.4995C5.99358 17.4995 5.09236 18.0122 4.38186 18.707L1.61695 21.6539C1.60586 21.6646 1.59451 21.675 1.58291 21.6852C1.57132 21.6953 1.55948 21.7052 1.54741 21.7148C1.53534 21.7244 1.52305 21.7337 1.51053 21.7427C1.49802 21.7517 1.48529 21.7604 1.47236 21.7688C1.45943 21.7772 1.4463 21.7852 1.43298 21.793C1.41966 21.8008 1.40616 21.8082 1.39248 21.8153C1.3788 21.8224 1.36496 21.8292 1.35096 21.8356C1.33696 21.8421 1.32281 21.8482 1.30851 21.854C1.29422 21.8597 1.27979 21.8652 1.26524 21.8702C1.25068 21.8753 1.23601 21.88 1.22123 21.8844C1.20644 21.8888 1.19157 21.8928 1.17659 21.8965C1.16161 21.9001 1.14656 21.9035 1.13143 21.9064C1.11629 21.9093 1.1011 21.9119 1.08584 21.9141C1.07058 21.9163 1.05528 21.9182 1.03994 21.9196C1.02459 21.9211 1.00922 21.9222 0.993822 21.923C0.978422 21.9237 0.963014 21.9241 0.947598 21.9241C0.932181 21.9241 0.916773 21.9237 0.901376 21.923C0.885978 21.9222 0.870606 21.9211 0.85526 21.9196C0.839912 21.9182 0.824611 21.9163 0.809356 21.9141C0.794098 21.9119 0.778903 21.9093 0.763768 21.9064C0.748633 21.9035 0.733581 21.9001 0.718605 21.8965C0.703628 21.8928 0.688751 21.8888 0.673969 21.8844C0.659187 21.88 0.644517 21.8753 0.629962 21.8702C0.615407 21.8652 0.60098 21.8597 0.586685 21.854C0.572387 21.8482 0.558239 21.8421 0.544236 21.8356C0.530234 21.8292 0.516392 21.8224 0.502715 21.8153C0.489037 21.8082 0.475538 21.8008 0.462219 21.793C0.4489 21.7852 0.435772 21.7772 0.422838 21.7688C0.409905 21.7604 0.397179 21.7517 0.384664 21.7427C0.372148 21.7337 0.359855 21.7244 0.347782 21.7148C0.335713 21.7052 0.323878 21.6953 0.312282 21.6852C0.300685 21.675 0.289338 21.6646 0.278242 21.6539C0.267303 21.6433 0.256636 21.6325 0.24624 21.6213C0.235844 21.6102 0.225732 21.5988 0.215905 21.5872C0.206077 21.5756 0.196546 21.5637 0.187311 21.5516C0.178077 21.5395 0.16915 21.5272 0.160532 21.5147C0.151913 21.5021 0.143613 21.4894 0.135632 21.4764C0.127651 21.4634 0.119999 21.4503 0.112675 21.4369C0.105352 21.4236 0.0983661 21.4101 0.0917186 21.3964C0.0850708 21.3827 0.0787691 21.3688 0.0728139 21.3548C0.0668587 21.3408 0.0612568 21.3267 0.0560087 21.3124C0.0507607 21.2981 0.045873 21.2837 0.0413451 21.2692C0.0368175 21.2546 0.0326558 21.24 0.0288597 21.2252C0.0250636 21.2105 0.0216382 21.1957 0.0185833 21.1808C0.0155285 21.1659 0.012848 21.1509 0.0105419 21.1358C0.00823588 21.1208 0.00630708 21.1057 0.00475557 21.0906C0.00320406 21.0754 0.00203176 21.0602 0.00123867 21.045C0.000445577 21.0298 3.26873e-05 21.0146 0 20.9994L0 3.70114C0 1.6572 1.69745 0 3.79214 0L18.9572 0ZM11.1752 13.2086C10.3282 13.2086 9.68423 13.8141 9.68423 14.6541C9.68423 15.4941 10.3282 16.0995 11.1752 16.0995C12.0134 16.0995 12.6679 15.4906 12.6679 14.6541C12.6679 13.8176 12.0134 13.2086 11.1752 13.2086ZM11.5602 2.79992C10.2039 2.79992 9.1575 3.13417 8.3665 3.79389C8.32863 3.82588 8.29133 3.85853 8.25461 3.89186C8.21789 3.92517 8.18177 3.95913 8.14625 3.99374C8.11073 4.02833 8.07587 4.06358 8.0416 4.09943C8.00734 4.13528 7.97374 4.17172 7.94079 4.20878C7.90784 4.24583 7.87555 4.28345 7.84394 4.32165C7.81233 4.35985 7.7814 4.39862 7.75119 4.43792C7.72097 4.47721 7.69144 4.51705 7.66262 4.55741C7.63383 4.59777 7.60574 4.63862 7.57837 4.67999C7.55103 4.72133 7.52442 4.76317 7.49858 4.80547C7.47272 4.84777 7.44762 4.89054 7.42328 4.93374C7.39894 4.97694 7.3754 5.02056 7.35262 5.06461C7.32985 5.10866 7.30786 5.15309 7.28667 5.19794C7.26548 5.24275 7.24508 5.28795 7.2255 5.33351C7.20592 5.37906 7.18717 5.42494 7.16923 5.47118C7.15126 5.51739 7.13415 5.5639 7.11788 5.61074C7.10161 5.65758 7.08616 5.7047 7.07156 5.75208C7.05994 5.78673 7.04974 5.82178 7.0409 5.85725C7.03207 5.89271 7.02464 5.92845 7.01865 5.96449C7.01263 6.00053 7.00807 6.03676 7.00492 6.07315C7.00178 6.10955 7.00005 6.14602 6.99981 6.18258C6.99981 6.78981 7.42328 7.18006 7.99028 7.33053L8.20028 7.36553L8.34375 7.37778L8.40675 7.37778C8.42108 7.37805 8.43541 7.37808 8.44974 7.37783C8.46406 7.37759 8.47839 7.37709 8.49272 7.37633C8.50702 7.37556 8.52132 7.37455 8.5356 7.37327C8.54987 7.37198 8.56412 7.37045 8.57833 7.36867C8.59255 7.36689 8.60674 7.36484 8.62088 7.36252C8.63502 7.36022 8.64913 7.35765 8.66315 7.35484C8.67721 7.35202 8.69121 7.34896 8.70515 7.34565C8.7191 7.34234 8.73299 7.33876 8.7468 7.33493C8.76061 7.33113 8.77433 7.32705 8.78801 7.32273C8.80168 7.31841 8.81527 7.31385 8.82875 7.30904C8.84226 7.30422 8.85565 7.29916 8.86897 7.29389C8.88229 7.28861 8.89552 7.28306 8.90865 7.27729C8.92174 7.27152 8.93476 7.26553 8.94767 7.25927C8.96057 7.25304 8.97337 7.24656 8.98603 7.23986C8.99869 7.23316 9.01124 7.22624 9.02365 7.21907C9.03607 7.21194 9.04835 7.20456 9.06049 7.19695C9.07265 7.18935 9.08466 7.18153 9.09653 7.17349C9.10839 7.16548 9.12012 7.15722 9.13169 7.14877C9.14326 7.14032 9.15469 7.13166 9.16592 7.12277C9.17719 7.11391 9.18829 7.10483 9.1992 7.09556C9.21014 7.08629 9.22091 7.07683 9.23149 7.06718C9.24208 7.05753 9.25247 7.04768 9.26272 7.03765C9.27295 7.02761 9.28298 7.01739 9.29285 7.007C9.30272 6.99661 9.31238 6.98602 9.32187 6.97528C9.33135 6.96453 9.34062 6.95362 9.34973 6.94255C9.35881 6.93147 9.36769 6.92021 9.37639 6.90881C9.38506 6.8974 9.39353 6.88586 9.40179 6.87413C9.41005 6.86243 9.41809 6.85059 9.42594 6.83859C9.43378 6.82658 9.44139 6.81444 9.4488 6.80216C9.45618 6.78989 9.46334 6.7775 9.47029 6.76495C9.47726 6.7524 9.48399 6.73974 9.49047 6.72697C9.49695 6.7142 9.50321 6.70129 9.50922 6.68831L9.67898 6.26483C9.99222 5.55783 10.5644 5.19386 11.4849 5.19386C12.5786 5.19386 13.1421 5.64708 13.1421 6.38906C13.1421 6.87906 12.9619 7.11531 11.9732 7.80828L11.5322 8.11278C11.0124 8.48025 10.8059 8.67275 10.5119 9.05425C10.057 9.62647 9.86797 10.2057 9.84347 11.1104L9.84347 11.2907C9.84476 11.3105 9.84651 11.3304 9.84872 11.3502C9.85094 11.37 9.85365 11.3897 9.85682 11.4094C9.85996 11.4291 9.8636 11.4487 9.86773 11.4682C9.87183 11.4877 9.8764 11.507 9.88143 11.5263C9.88643 11.5456 9.89193 11.5647 9.89786 11.5837C9.9038 11.6027 9.91019 11.6216 9.91706 11.6403C9.92389 11.659 9.93117 11.6776 9.9389 11.696C9.94664 11.7143 9.95482 11.7325 9.9634 11.7505C9.97202 11.7684 9.98104 11.7862 9.99047 11.8037C9.99991 11.8212 10.0098 11.8386 10.0201 11.8556C10.0303 11.8727 10.041 11.8895 10.0521 11.9061C10.0632 11.9226 10.0746 11.9389 10.0865 11.9549C10.0983 11.971 10.1105 11.9867 10.1231 12.0021C10.1358 12.0175 10.1487 12.0326 10.1621 12.0475C10.1754 12.0623 10.189 12.0767 10.2031 12.0909C10.2171 12.105 10.2314 12.1189 10.2461 12.1323C10.2608 12.1458 10.2758 12.1589 10.2911 12.1717C10.3064 12.1844 10.322 12.1968 10.3379 12.2088C10.3538 12.2208 10.37 12.2324 10.3864 12.2437C10.4029 12.2549 10.4196 12.2658 10.4366 12.2762C10.4535 12.2866 10.4707 12.2967 10.4882 12.3063C10.5056 12.3159 10.5233 12.3251 10.5412 12.3339C10.5591 12.3426 10.5772 12.351 10.5955 12.3589C10.6137 12.3668 10.6322 12.3743 10.6508 12.3813C10.6695 12.3883 10.6883 12.3949 10.7072 12.401C10.7262 12.4071 10.7453 12.4128 10.7645 12.418C10.7837 12.4233 10.8031 12.428 10.8225 12.4323C10.842 12.4366 10.8615 12.4404 10.8812 12.4438C10.9008 12.4471 10.9205 12.45 10.9403 12.4524C10.9601 12.4549 10.9799 12.4568 10.9998 12.4583C11.0196 12.4597 11.0395 12.4607 11.0594 12.4613C11.0794 12.4618 11.0993 12.4618 11.1192 12.4614C11.8192 12.4614 12.3616 12.0117 12.3616 11.2942L12.3616 11.1769C12.3844 10.5837 12.5541 10.3649 13.4781 9.70697L14.0609 9.29047C15.2508 8.3945 15.7496 7.58078 15.7496 6.32958C15.7496 4.17714 14.0591 2.79992 11.5602 2.79992Z"   fill="#FF8D1A" >
</path>
</svg>
