<svg xmlns="http://www.w3.org/2000/svg" xmlns:xlink="http://www.w3.org/1999/xlink" width="365.85791015625" height="385.88330078125" viewBox="0 0 365.85791015625 385.88330078125" fill="none">
<path d="M248.201 43.0317L254.155 41.9284L287.662 222.72L281.709 223.823L248.201 43.0317Z"   fill="#E4EBED" >
</path>
<path d="M269.243 96.7587L292.911 224.462C292.925 224.546 292.935 224.63 292.941 224.715C292.948 224.799 292.95 224.884 292.95 224.969C292.949 225.054 292.945 225.138 292.936 225.222C292.928 225.307 292.917 225.39 292.902 225.473C292.886 225.556 292.868 225.637 292.846 225.718C292.824 225.799 292.798 225.878 292.77 225.956C292.741 226.035 292.708 226.111 292.673 226.186C292.637 226.261 292.599 226.333 292.557 226.404L245.11 301.515C245.065 301.586 245.017 301.654 244.965 301.719C244.913 301.785 244.859 301.847 244.802 301.906C244.744 301.966 244.684 302.022 244.622 302.074C244.559 302.127 244.494 302.176 244.426 302.222C244.358 302.267 244.289 302.309 244.217 302.347C244.146 302.385 244.072 302.419 243.998 302.449C243.923 302.479 243.846 302.505 243.769 302.527C243.691 302.549 243.613 302.566 243.533 302.58L114.013 326.585L122.326 349.705C122.378 349.849 122.433 349.991 122.491 350.132C122.548 350.273 122.609 350.413 122.672 350.551C122.736 350.69 122.802 350.827 122.87 350.962C122.939 351.098 123.011 351.232 123.085 351.364C123.159 351.497 123.236 351.627 123.315 351.756C123.394 351.885 123.476 352.012 123.56 352.138C123.645 352.263 123.731 352.386 123.821 352.508C123.91 352.629 124.001 352.748 124.095 352.865C124.189 352.983 124.285 353.097 124.384 353.21C124.482 353.323 124.583 353.434 124.686 353.542C124.789 353.651 124.893 353.756 125 353.86C125.107 353.964 125.216 354.065 125.327 354.163C125.438 354.262 125.551 354.358 125.665 354.451C125.78 354.545 125.896 354.635 126.014 354.723C126.133 354.812 126.253 354.897 126.374 354.979C126.495 355.062 126.618 355.142 126.743 355.219C126.867 355.296 126.993 355.37 127.121 355.441C127.248 355.513 127.377 355.581 127.507 355.646C127.637 355.711 127.768 355.773 127.9 355.832C128.033 355.892 128.166 355.948 128.3 356.001C128.435 356.054 128.57 356.104 128.707 356.151C128.843 356.197 128.98 356.241 129.118 356.282C129.256 356.322 129.394 356.359 129.534 356.393C129.673 356.427 129.812 356.458 129.953 356.486C130.093 356.513 130.234 356.537 130.375 356.558C130.516 356.579 130.657 356.597 130.799 356.611C130.941 356.626 131.082 356.637 131.224 356.645C131.366 356.653 131.508 356.657 131.65 356.658C131.792 356.66 131.934 356.657 132.076 356.652C132.217 356.646 132.359 356.638 132.5 356.626C132.641 356.614 132.782 356.598 132.922 356.58C133.063 356.561 133.202 356.539 133.342 356.514C133.91 356.407 134.463 356.247 135.001 356.033L326.106 280.368C326.256 280.31 326.403 280.247 326.549 280.181C326.696 280.115 326.84 280.044 326.983 279.97C327.126 279.896 327.266 279.818 327.406 279.737C327.545 279.655 327.682 279.57 327.817 279.481C327.952 279.392 328.084 279.3 328.215 279.204C328.346 279.107 328.474 279.008 328.6 278.905C328.726 278.802 328.849 278.696 328.97 278.586C329.091 278.477 329.209 278.364 329.325 278.248C329.44 278.132 329.553 278.013 329.663 277.891C329.773 277.769 329.88 277.644 329.984 277.516C330.088 277.388 330.189 277.258 330.287 277.124C330.386 276.991 330.48 276.855 330.572 276.716C330.664 276.578 330.752 276.437 330.838 276.293C330.923 276.15 331.005 276.004 331.083 275.856C331.161 275.708 331.237 275.558 331.308 275.406C331.379 275.254 331.448 275.1 331.512 274.944C331.576 274.788 331.637 274.631 331.694 274.472C331.751 274.312 331.805 274.152 331.855 273.989C331.904 273.827 331.95 273.664 331.992 273.498C332.035 273.333 332.073 273.167 332.108 273C332.143 272.833 332.173 272.665 332.2 272.496C332.227 272.327 332.25 272.157 332.269 271.986C332.288 271.816 332.303 271.645 332.315 271.474C332.326 271.302 332.334 271.13 332.337 270.958C332.341 270.786 332.34 270.614 332.336 270.441C332.331 270.269 332.323 270.097 332.311 269.924C332.299 269.752 332.283 269.581 332.263 269.409C332.243 269.237 332.219 269.067 332.191 268.896C332.164 268.725 332.132 268.556 332.096 268.386C332.061 268.217 332.022 268.049 331.979 267.882C331.936 267.715 331.889 267.549 331.838 267.384C331.788 267.218 331.733 267.055 331.675 266.892L270.4 96.4245L269.243 96.7587Z"   fill="#7948EA" >
</path>
<path d="M244.317 293.318L285.261 228.502L234.063 237.991L244.317 293.318Z"   fill="#EFFAFE" >
</path>
<path d="M331.675 266.893L270.4 96.4246L269.231 96.7611L274.628 125.879L325.708 267.985C325.766 268.148 325.82 268.311 325.871 268.477C325.921 268.642 325.968 268.808 326.011 268.975C326.054 269.142 326.093 269.31 326.129 269.479C326.164 269.649 326.196 269.818 326.224 269.989C326.251 270.16 326.275 270.33 326.295 270.502C326.315 270.674 326.331 270.845 326.343 271.018C326.355 271.19 326.364 271.362 326.368 271.534C326.373 271.707 326.373 271.879 326.37 272.051C326.366 272.223 326.358 272.395 326.347 272.567C326.336 272.738 326.321 272.909 326.302 273.08C326.282 273.25 326.259 273.42 326.232 273.589C326.206 273.758 326.175 273.926 326.14 274.093C326.106 274.26 326.067 274.426 326.025 274.591C325.983 274.757 325.937 274.92 325.887 275.082C325.837 275.245 325.784 275.405 325.727 275.565C325.669 275.724 325.609 275.882 325.544 276.037C325.48 276.193 325.412 276.347 325.34 276.499C325.269 276.651 325.194 276.801 325.115 276.949C325.037 277.097 324.955 277.243 324.87 277.386C324.785 277.53 324.696 277.671 324.604 277.809C324.513 277.948 324.418 278.084 324.32 278.217C324.222 278.351 324.121 278.481 324.016 278.609C323.912 278.737 323.805 278.862 323.695 278.984C323.585 279.106 323.472 279.225 323.357 279.341C323.241 279.457 323.123 279.57 323.002 279.679C322.881 279.789 322.758 279.895 322.632 279.998C322.506 280.101 322.378 280.201 322.247 280.297C322.117 280.393 321.984 280.485 321.849 280.574C321.714 280.663 321.577 280.748 321.438 280.83C321.299 280.911 321.158 280.989 321.015 281.063C320.872 281.137 320.728 281.208 320.582 281.274C320.436 281.34 320.288 281.403 320.139 281.461L130.477 356.539C130.954 356.605 131.432 356.632 131.911 356.621C132.39 356.611 132.864 356.562 133.335 356.476C133.902 356.368 134.456 356.208 134.994 355.995L326.106 280.369C326.255 280.31 326.403 280.248 326.549 280.181C326.696 280.115 326.84 280.045 326.983 279.971C327.126 279.897 327.266 279.819 327.406 279.737C327.545 279.656 327.682 279.57 327.817 279.481C327.952 279.392 328.084 279.3 328.215 279.204C328.346 279.108 328.474 279.008 328.6 278.905C328.726 278.802 328.849 278.696 328.97 278.587C329.091 278.477 329.209 278.364 329.324 278.248C329.44 278.132 329.553 278.013 329.663 277.891C329.773 277.769 329.88 277.644 329.984 277.516C330.088 277.388 330.189 277.258 330.287 277.124C330.386 276.991 330.48 276.855 330.572 276.716C330.664 276.578 330.752 276.437 330.838 276.294C330.923 276.15 331.004 276.004 331.083 275.857C331.161 275.709 331.236 275.559 331.308 275.407C331.379 275.255 331.447 275.101 331.512 274.945C331.576 274.789 331.637 274.631 331.694 274.472C331.751 274.313 331.805 274.152 331.855 273.99C331.904 273.827 331.95 273.664 331.992 273.499C332.035 273.334 332.073 273.168 332.108 273C332.142 272.833 332.173 272.665 332.2 272.496C332.227 272.327 332.25 272.157 332.269 271.987C332.288 271.816 332.303 271.645 332.315 271.474C332.326 271.302 332.334 271.13 332.337 270.958C332.341 270.786 332.34 270.614 332.336 270.442C332.331 270.269 332.323 270.097 332.311 269.925C332.299 269.753 332.283 269.581 332.263 269.409C332.243 269.238 332.219 269.067 332.191 268.896C332.163 268.726 332.132 268.556 332.096 268.387C332.061 268.218 332.022 268.05 331.979 267.882C331.935 267.715 331.889 267.549 331.838 267.384C331.787 267.219 331.733 267.055 331.675 266.893Z"   fill="#2197F7" >
</path>
<path d="M279.308 229.605L243.125 286.885L244.317 293.318L285.261 228.502L279.308 229.605Z"   fill="#E4EBED" >
</path>
<path d="M81.6594 348.669L100.889 345.105L109.315 368.577C109.396 368.802 109.481 369.025 109.571 369.245C109.66 369.466 109.754 369.685 109.852 369.902C109.951 370.118 110.053 370.332 110.16 370.545C110.267 370.757 110.378 370.966 110.493 371.173C110.609 371.38 110.728 371.585 110.851 371.787C110.975 371.989 111.102 372.188 111.233 372.384C111.365 372.579 111.5 372.773 111.639 372.963C111.778 373.152 111.92 373.339 112.067 373.523C112.213 373.706 112.363 373.886 112.517 374.063C112.671 374.24 112.827 374.413 112.988 374.582C113.148 374.752 113.312 374.917 113.478 375.079C113.645 375.241 113.815 375.4 113.988 375.554C114.161 375.708 114.338 375.859 114.516 376.005C114.695 376.151 114.877 376.293 115.062 376.431C115.246 376.569 115.433 376.702 115.623 376.831C115.813 376.961 116.005 377.086 116.199 377.206C116.394 377.326 116.59 377.442 116.789 377.553C116.988 377.665 117.189 377.771 117.393 377.873C117.596 377.976 117.801 378.073 118.007 378.165C118.214 378.258 118.423 378.345 118.633 378.428C118.843 378.511 119.054 378.589 119.267 378.662C119.48 378.735 119.694 378.803 119.91 378.866C120.125 378.929 120.342 378.987 120.559 379.04C120.777 379.093 120.995 379.141 121.215 379.184C121.434 379.227 121.654 379.265 121.874 379.297C122.095 379.329 122.316 379.357 122.537 379.379C122.759 379.401 122.98 379.418 123.202 379.43C123.423 379.442 123.645 379.449 123.867 379.45C124.089 379.452 124.311 379.448 124.532 379.439C124.753 379.43 124.974 379.416 125.195 379.396C125.415 379.377 125.635 379.353 125.854 379.323C126.074 379.293 126.292 379.258 126.51 379.219C127.394 379.056 128.255 378.812 129.096 378.486L326.139 301.707C326.372 301.616 326.602 301.519 326.83 301.416C327.057 301.313 327.283 301.204 327.505 301.088C327.728 300.973 327.947 300.852 328.164 300.725C328.38 300.598 328.594 300.466 328.804 300.327C329.014 300.189 329.221 300.045 329.425 299.895C329.628 299.746 329.828 299.591 330.024 299.431C330.22 299.27 330.412 299.105 330.601 298.934C330.789 298.763 330.973 298.588 331.153 298.407C331.333 298.227 331.509 298.042 331.68 297.852C331.852 297.661 332.019 297.467 332.181 297.268C332.343 297.069 332.501 296.865 332.653 296.657C332.806 296.45 332.954 296.238 333.097 296.022C333.24 295.807 333.378 295.587 333.51 295.364C333.643 295.141 333.771 294.914 333.893 294.683C334.015 294.453 334.132 294.219 334.243 293.982C334.355 293.746 334.46 293.506 334.561 293.263C334.661 293.02 334.756 292.775 334.845 292.527C334.934 292.279 335.017 292.028 335.094 291.776C335.172 291.523 335.244 291.268 335.309 291.011C335.375 290.754 335.435 290.495 335.489 290.235C335.543 289.975 335.591 289.713 335.632 289.449C335.674 289.186 335.71 288.922 335.74 288.656C335.77 288.391 335.793 288.124 335.811 287.857C335.828 287.59 335.84 287.322 335.845 287.054C335.851 286.786 335.85 286.518 335.843 286.249C335.836 285.981 335.823 285.712 335.804 285.444C335.785 285.176 335.76 284.909 335.729 284.641C335.697 284.374 335.66 284.108 335.617 283.842C335.573 283.577 335.524 283.312 335.469 283.049C335.414 282.786 335.352 282.524 335.285 282.263C335.218 282.003 335.145 281.744 335.066 281.487C334.987 281.23 334.902 280.975 334.812 280.722L261.03 75.4675L257.084 54.1731C257.074 54.1204 257.063 54.068 257.051 54.0159C257.039 53.9637 257.025 53.9119 257.011 53.8604C256.996 53.8089 256.981 53.7578 256.964 53.707C256.947 53.6563 256.929 53.606 256.91 53.5561C256.891 53.5062 256.871 53.4569 256.85 53.408C256.828 53.3591 256.806 53.3108 256.782 53.2631C256.759 53.2153 256.734 53.1682 256.709 53.1217C256.683 53.0751 256.657 53.0292 256.629 52.9841C256.601 52.9389 256.573 52.8944 256.543 52.8507C256.513 52.807 256.483 52.764 256.451 52.7219C256.42 52.6797 256.387 52.6384 256.354 52.5979C256.32 52.5573 256.286 52.5177 256.251 52.4789C256.216 52.4402 256.179 52.4024 256.143 52.3654C256.106 52.3285 256.068 52.2926 256.03 52.2577C255.991 52.2227 255.952 52.1887 255.912 52.1558C255.872 52.1228 255.832 52.0909 255.79 52.0601C255.749 52.0293 255.707 51.9995 255.664 51.9708C255.622 51.9421 255.579 51.9146 255.535 51.8882C255.491 51.8618 255.446 51.8366 255.401 51.8124C255.357 51.7883 255.311 51.7654 255.265 51.7436C255.219 51.7219 255.173 51.7013 255.126 51.6821C255.079 51.6628 255.032 51.6447 254.984 51.6278C254.937 51.611 254.889 51.5954 254.841 51.581C254.793 51.5666 254.744 51.5536 254.695 51.5418C254.647 51.53 254.598 51.5195 254.549 51.5102C254.499 51.501 254.45 51.493 254.401 51.4864C254.351 51.4798 254.302 51.4744 254.252 51.4704C254.202 51.4664 254.153 51.4636 254.103 51.4622C254.053 51.4608 254.004 51.4607 253.954 51.4619C253.904 51.4631 253.855 51.4656 253.805 51.4695C253.756 51.4733 253.707 51.4784 253.658 51.4848C253.608 51.4913 253.559 51.4991 253.511 51.508L81.3177 83.4221C81.2229 83.1532 81.1227 82.8864 81.0173 82.6218C80.9116 82.3573 80.8008 82.0952 80.6847 81.8355C80.5685 81.5759 80.4473 81.3189 80.321 81.0646C80.1945 80.8104 80.0629 80.5591 79.9264 80.3107C79.7898 80.0624 79.6483 79.8172 79.5022 79.5752C79.3557 79.3332 79.2047 79.0946 79.0487 78.8595C78.8927 78.6243 78.7322 78.3928 78.5671 78.1649C78.4021 77.937 78.2322 77.7131 78.0581 77.493C77.8839 77.2728 77.7056 77.0567 77.5229 76.8447C77.3404 76.6327 77.1535 76.425 76.9625 76.2216C76.7717 76.0181 76.5769 75.8192 76.378 75.6247C76.1791 75.4302 75.9764 75.2404 75.77 75.0553C75.5636 74.8701 75.3537 74.6898 75.1405 74.5143C74.9272 74.3388 74.7103 74.1683 74.4902 74.0028C74.2702 73.8373 74.0468 73.677 73.8204 73.5219C73.594 73.3668 73.3646 73.217 73.1324 73.0725C72.9003 72.9279 72.6655 72.7889 72.4279 72.6553C72.1904 72.5216 71.9503 72.3937 71.7077 72.2712C71.4652 72.1488 71.2204 72.032 70.9732 71.9211C70.7263 71.81 70.4771 71.7048 70.2262 71.6054C69.9753 71.5059 69.7225 71.4124 69.4679 71.3248C69.2137 71.2372 68.9575 71.1556 68.6999 71.0799C68.4424 71.0043 68.1838 70.9347 67.9238 70.8711C67.6636 70.8077 67.4026 70.7502 67.1407 70.6989C66.8784 70.6477 66.6157 70.6025 66.352 70.5636C66.0883 70.5247 65.8242 70.492 65.5598 70.4654C65.2953 70.4389 65.0305 70.4186 64.7652 70.4045C64.5 70.3905 64.235 70.3826 63.9699 70.3811C63.7048 70.3795 63.44 70.3842 63.1754 70.3951C62.9108 70.406 62.6467 70.4232 62.3832 70.4466C62.1196 70.47 61.857 70.4996 61.5948 70.5354C61.3327 70.5713 61.0717 70.6133 60.8118 70.6615C60.552 70.7096 60.2932 70.7639 60.0357 70.8244C59.7781 70.8849 59.5222 70.9514 59.2678 71.024C59.0134 71.0966 58.7607 71.1752 58.5098 71.2598C58.2588 71.3445 58.0099 71.435 57.763 71.5315C57.5161 71.6279 57.2715 71.7302 57.0289 71.8384C56.7863 71.9465 56.5463 72.0604 56.309 72.1799C56.0716 72.2995 55.8368 72.4247 55.6045 72.5555C55.3723 72.6864 55.1432 72.8227 54.9168 72.9645C54.6906 73.1063 54.4675 73.2534 54.2473 73.4059C54.0274 73.5584 53.8109 73.7161 53.5976 73.879C53.3843 74.0419 53.1743 74.2099 52.9681 74.3829C52.7621 74.5558 52.5596 74.7337 52.361 74.9165C52.1624 75.0992 51.9675 75.2867 51.7768 75.4789C51.5858 75.6711 51.399 75.8678 51.2165 76.069C51.034 76.2703 50.8556 76.4758 50.6817 76.6857C50.5079 76.8955 50.3385 77.1095 50.1735 77.3276C50.0086 77.5458 49.8481 77.7678 49.6923 77.9938C49.5365 78.2197 49.3854 78.4494 49.2393 78.6828C49.0932 78.9161 48.9518 79.153 48.8156 79.3933C48.6791 79.6337 48.5478 79.8772 48.4217 80.124C48.2954 80.3708 48.1742 80.6206 48.0582 80.8735C47.9422 81.1263 47.8316 81.3819 47.7264 81.6402C47.621 81.8985 47.521 82.1594 47.4266 82.4228C47.3319 82.6862 47.2428 82.9518 47.1593 83.2197C47.0755 83.4876 46.9973 83.7575 46.9248 84.0295C46.8522 84.3014 46.7853 84.5751 46.7241 84.8505C46.6629 85.1259 46.6072 85.4027 46.5572 85.6811C46.5074 85.9595 46.4633 86.2391 46.4248 86.5199C46.3863 86.8007 46.3536 87.0824 46.3265 87.3651C46.2997 87.6478 46.2786 87.9311 46.2633 88.2151C46.248 88.4992 46.2384 88.7836 46.2346 89.0684C46.2309 89.3532 46.233 89.6382 46.2409 89.9233L34.12 92.1697C33.8752 92.2153 33.6316 92.2674 33.3894 92.3259C33.1474 92.3844 32.9069 92.4493 32.6681 92.5206C32.4292 92.5919 32.1923 92.6695 31.9573 92.7534C31.7223 92.8372 31.4895 92.9273 31.259 93.0236C31.0284 93.1199 30.8004 93.2223 30.5748 93.3308C30.3492 93.4392 30.1264 93.5536 29.9064 93.674C29.6863 93.7944 29.4693 93.9206 29.2553 94.0526C29.0413 94.1846 28.8306 94.3222 28.6232 94.4655C28.4158 94.6088 28.2119 94.7576 28.0115 94.9118C27.8112 95.0661 27.6146 95.2256 27.4218 95.3905C27.229 95.5553 27.0402 95.7252 26.8554 95.9003C26.6706 96.0753 26.4901 96.2552 26.3138 96.44C26.1374 96.6248 25.9655 96.8143 25.7981 97.0084C25.6306 97.2025 25.4678 97.4011 25.3096 97.6041C25.1515 97.807 24.9982 98.0142 24.8497 98.2256C24.7012 98.4369 24.5577 98.6522 24.4192 98.8714C24.2807 99.0906 24.1474 99.3135 24.0193 99.5401C23.8912 99.7666 23.7684 99.9966 23.6509 100.23C23.5334 100.463 23.4214 100.7 23.3149 100.939C23.2084 101.179 23.1075 101.421 23.0122 101.666C22.9169 101.912 22.8273 102.159 22.7434 102.41C22.6595 102.66 22.5814 102.913 22.5092 103.167C22.4369 103.422 22.3706 103.679 22.3101 103.938C22.2497 104.196 22.1952 104.456 22.1467 104.718C22.0982 104.98 22.0558 105.243 22.0193 105.508C21.9829 105.772 21.9525 106.037 21.9283 106.304C21.904 106.57 21.8858 106.837 21.8738 107.105C21.8617 107.373 21.8557 107.641 21.8559 107.909C21.8561 108.178 21.8624 108.446 21.8748 108.714C21.8872 108.983 21.9058 109.251 21.9304 109.519C21.9551 109.787 21.9858 110.054 22.0225 110.32C22.0593 110.587 22.1022 110.853 22.151 111.117L63.6952 335.27C63.7445 335.534 63.7997 335.798 63.8609 336.06C63.9221 336.322 63.9892 336.582 64.0621 336.841C64.1351 337.1 64.2139 337.357 64.2985 337.612C64.3831 337.867 64.4734 338.12 64.5694 338.37C64.6655 338.621 64.7671 338.869 64.8743 339.115C64.9815 339.361 65.0941 339.603 65.2122 339.843C65.3304 340.083 65.4539 340.32 65.5826 340.554C65.7114 340.788 65.8453 341.018 65.9844 341.245C66.1235 341.472 66.2677 341.696 66.4168 341.916C66.5659 342.136 66.7198 342.351 66.8786 342.563C67.0374 342.775 67.2007 342.983 67.3687 343.186C67.5367 343.39 67.7092 343.589 67.886 343.784C68.0629 343.979 68.244 344.169 68.4293 344.355C68.6146 344.54 68.8039 344.721 68.9972 344.896C69.1905 345.072 69.3875 345.243 69.5883 345.408C69.7891 345.574 69.9934 345.734 70.2013 345.889C70.4091 346.044 70.6202 346.194 70.8346 346.338C71.049 346.482 71.2664 346.621 71.4868 346.753C71.7072 346.886 71.9303 347.013 72.1562 347.134C72.3821 347.256 72.6105 347.371 72.8413 347.48C73.0722 347.59 73.3052 347.693 73.5405 347.79C73.7757 347.887 74.0128 347.978 74.2519 348.063C74.491 348.148 74.7317 348.226 74.974 348.298C75.2163 348.371 75.46 348.437 75.705 348.496C75.95 348.556 76.196 348.609 76.4431 348.655C76.6902 348.702 76.938 348.742 77.1866 348.775C77.4352 348.809 77.6841 348.835 77.9336 348.856C78.1831 348.876 78.4327 348.89 78.6824 348.897C78.9322 348.905 79.1818 348.906 79.4312 348.9C79.6807 348.894 79.9297 348.881 80.1781 348.862C80.4267 348.843 80.6744 348.818 80.9214 348.785C81.1685 348.753 81.4145 348.715 81.6594 348.669ZM291.065 242.569C291.117 242.482 291.164 242.392 291.208 242.3C291.252 242.208 291.292 242.114 291.327 242.018C291.363 241.921 291.394 241.823 291.421 241.724C291.449 241.624 291.471 241.523 291.49 241.421C291.508 241.319 291.522 241.216 291.532 241.112C291.541 241.008 291.546 240.904 291.546 240.799C291.547 240.694 291.543 240.59 291.534 240.485C291.526 240.381 291.513 240.277 291.495 240.174L267.827 112.471L329.09 282.941C329.144 283.093 329.196 283.247 329.243 283.401C329.291 283.556 329.335 283.713 329.375 283.869C329.416 284.026 329.453 284.184 329.486 284.343C329.52 284.502 329.549 284.661 329.575 284.821C329.602 284.981 329.624 285.142 329.643 285.302C329.662 285.464 329.677 285.625 329.688 285.786C329.7 285.948 329.708 286.11 329.712 286.271C329.716 286.433 329.716 286.595 329.713 286.757C329.71 286.918 329.703 287.079 329.692 287.24C329.682 287.401 329.667 287.562 329.649 287.722C329.631 287.882 329.61 288.041 329.585 288.2C329.559 288.359 329.53 288.517 329.498 288.673C329.465 288.831 329.429 288.986 329.39 289.141C329.35 289.296 329.307 289.45 329.26 289.602C329.214 289.754 329.163 289.905 329.109 290.054C329.056 290.204 328.999 290.352 328.938 290.498C328.877 290.644 328.814 290.789 328.746 290.931C328.679 291.074 328.609 291.215 328.535 291.354C328.462 291.493 328.384 291.629 328.304 291.764C328.224 291.898 328.141 292.031 328.055 292.161C327.969 292.291 327.88 292.418 327.787 292.543C327.695 292.668 327.6 292.791 327.502 292.911C327.405 293.031 327.304 293.148 327.2 293.262C327.097 293.377 326.991 293.488 326.883 293.597C326.774 293.706 326.663 293.811 326.549 293.914C326.435 294.017 326.32 294.116 326.201 294.213C326.083 294.309 325.963 294.402 325.84 294.492C325.717 294.583 325.593 294.669 325.466 294.752C325.339 294.836 325.21 294.915 325.079 294.992C324.949 295.068 324.816 295.141 324.682 295.21C324.548 295.28 324.412 295.345 324.275 295.407C324.138 295.469 323.999 295.528 323.859 295.582L126.884 372.335C126.744 372.39 126.602 372.44 126.46 372.487C126.317 372.535 126.174 372.578 126.029 372.617C125.884 372.657 125.738 372.692 125.592 372.724C125.445 372.756 125.297 372.784 125.149 372.807C125.001 372.831 124.853 372.851 124.703 372.867C124.554 372.883 124.404 372.895 124.254 372.903C124.104 372.911 123.954 372.916 123.804 372.916C123.654 372.916 123.503 372.912 123.353 372.904C123.202 372.896 123.052 372.885 122.902 372.869C122.752 372.853 122.602 372.833 122.453 372.81C122.303 372.786 122.155 372.759 122.006 372.727C121.858 372.696 121.71 372.661 121.563 372.621C121.417 372.582 121.27 372.539 121.125 372.492C120.98 372.446 120.836 372.395 120.693 372.341C120.55 372.286 120.408 372.228 120.267 372.167C120.127 372.105 119.988 372.039 119.85 371.97C119.712 371.901 119.576 371.829 119.441 371.752C119.307 371.676 119.174 371.597 119.043 371.514C118.911 371.431 118.782 371.345 118.655 371.255C118.527 371.165 118.402 371.072 118.278 370.976C118.155 370.879 118.034 370.78 117.915 370.677C117.796 370.575 117.679 370.47 117.565 370.361C117.451 370.252 117.339 370.141 117.229 370.027C117.12 369.913 117.013 369.796 116.909 369.676C116.805 369.556 116.703 369.434 116.605 369.309C116.506 369.184 116.41 369.056 116.317 368.927C116.224 368.797 116.134 368.665 116.047 368.53C115.96 368.396 115.876 368.26 115.795 368.121C115.714 367.982 115.636 367.841 115.561 367.699C115.486 367.556 115.415 367.412 115.347 367.266C115.279 367.12 115.214 366.972 115.152 366.823C115.091 366.673 115.032 366.522 114.978 366.37L106.937 343.984L241.72 319.004C241.817 318.986 241.913 318.963 242.009 318.934C242.104 318.906 242.198 318.873 242.289 318.835C242.381 318.797 242.471 318.754 242.559 318.706C242.646 318.658 242.732 318.606 242.814 318.549C242.897 318.492 242.977 318.431 243.054 318.365C243.131 318.3 243.204 318.23 243.275 318.157C243.345 318.083 243.412 318.007 243.475 317.926C243.538 317.845 243.598 317.761 243.653 317.674L291.065 242.569ZM242.619 307.445L232.77 254.305L281.945 245.191L242.619 307.445ZM62.0027 77.0869C62.1657 77.0579 62.3291 77.0324 62.4932 77.0106C62.6573 76.9888 62.8217 76.9706 62.9868 76.9561C63.1519 76.9415 63.3171 76.9306 63.4826 76.9234C63.6481 76.9162 63.814 76.9125 63.98 76.9126C64.146 76.9127 64.3117 76.9164 64.4778 76.9238C64.6435 76.9312 64.8094 76.9422 64.9753 76.9569C65.1409 76.9715 65.3065 76.9898 65.4716 77.0118C65.6367 77.0338 65.8016 77.0594 65.9659 77.0886C66.1304 77.1177 66.2942 77.1506 66.4576 77.1869C66.6211 77.2233 66.7837 77.2632 66.9457 77.3068C67.1077 77.3503 67.2688 77.3974 67.4294 77.4479C67.5899 77.4984 67.7492 77.5525 67.9077 77.6101C68.0661 77.6676 68.2237 77.7286 68.38 77.793C68.5364 77.8574 68.6918 77.9252 68.8457 77.9964C68.9996 78.0675 69.152 78.1421 69.3034 78.2199C69.4548 78.2977 69.6047 78.3788 69.753 78.4631C69.9014 78.5474 70.0481 78.635 70.1933 78.7257C70.3385 78.8164 70.4822 78.9102 70.6239 79.0072C70.7656 79.1041 70.9055 79.2041 71.0437 79.3071C71.182 79.41 71.318 79.516 71.4524 79.6248C71.5868 79.7337 71.7189 79.8454 71.8489 79.96C71.9791 80.0746 72.1071 80.1919 72.2328 80.312C72.3588 80.4321 72.4822 80.5548 72.6034 80.6802C72.7248 80.8056 72.8437 80.9335 72.9602 81.064C73.0765 81.1946 73.1907 81.3275 73.3023 81.4628C73.4139 81.5982 73.5229 81.7359 73.6292 81.876C73.7355 82.016 73.8394 82.1582 73.9407 82.3026C74.0417 82.4471 74.1403 82.5936 74.2359 82.7422C74.3315 82.8908 74.4243 83.0414 74.5145 83.1938C74.6046 83.3464 74.6917 83.5007 74.7758 83.657C74.8599 83.8132 74.9412 83.9711 75.0197 84.1306C75.0979 84.2902 75.173 84.4514 75.2454 84.6141L52.3252 88.8621C52.3344 88.6842 52.3468 88.5067 52.3629 88.3294C52.3787 88.1523 52.398 87.9756 52.4207 87.7994C52.4432 87.6234 52.4695 87.4478 52.499 87.273C52.5285 87.0983 52.5612 86.9243 52.5972 86.7512C52.6331 86.5781 52.6726 86.4058 52.7154 86.2346C52.7582 86.0634 52.8042 85.8933 52.8533 85.7244C52.9026 85.5554 52.9553 85.3876 53.011 85.2212C53.0666 85.0547 53.1256 84.8896 53.1876 84.7259C53.2497 84.5623 53.3148 84.4001 53.3832 84.2395C53.4517 84.0788 53.5232 83.9199 53.5978 83.7626C53.6724 83.6053 53.7498 83.4498 53.8303 83.2961C53.9108 83.1424 53.9941 82.9907 54.0806 82.8409C54.1671 82.691 54.2564 82.5433 54.3485 82.3975C54.4407 82.2518 54.5357 82.1083 54.6335 81.9669C54.7314 81.8255 54.8319 81.6864 54.9349 81.5497C55.038 81.4129 55.1439 81.2786 55.2525 81.1466C55.3607 81.0147 55.4719 80.8852 55.5854 80.7583C55.6989 80.6314 55.815 80.5071 55.9332 80.3855C56.0516 80.2638 56.1725 80.1449 56.2953 80.0288C56.4185 79.9125 56.5437 79.7992 56.6713 79.6887C56.7989 79.5781 56.9286 79.4705 57.0604 79.3659C57.1922 79.2612 57.3258 79.1596 57.4617 79.0609C57.5977 78.9622 57.7355 78.8666 57.875 78.7742C58.0146 78.6817 58.156 78.5925 58.2992 78.5063C58.4424 78.4202 58.5875 78.3372 58.7338 78.2577C58.8803 78.178 59.0284 78.1017 59.1781 78.0287C59.3277 77.9557 59.4786 77.886 59.6311 77.8198C59.7835 77.7535 59.9375 77.6906 60.0924 77.6312C60.2474 77.5718 60.4036 77.5159 60.5611 77.4634C60.7185 77.4109 60.8766 77.362 61.036 77.3166C61.1954 77.2712 61.3557 77.2293 61.5171 77.191C61.6781 77.1528 61.8401 77.118 62.0027 77.0869ZM28.0995 109.988C28.0717 109.829 28.0475 109.67 28.0269 109.51C28.0062 109.351 27.9892 109.19 27.9759 109.03C27.9625 108.87 27.9527 108.709 27.9466 108.548C27.9405 108.388 27.938 108.227 27.9391 108.066C27.9403 107.906 27.9451 107.745 27.9535 107.585C27.962 107.425 27.9741 107.265 27.9898 107.106C28.0055 106.947 28.0248 106.788 28.0477 106.63C28.0706 106.472 28.0971 106.315 28.1272 106.158C28.1573 106.002 28.1909 105.846 28.2281 105.692C28.2653 105.537 28.306 105.384 28.3501 105.232C28.3943 105.08 28.442 104.929 28.4931 104.779C28.5442 104.63 28.5987 104.482 28.6565 104.335C28.7144 104.189 28.7756 104.044 28.8401 103.901C28.9047 103.758 28.9724 103.617 29.0434 103.478C29.1144 103.339 29.1886 103.201 29.2659 103.066C29.3433 102.931 29.4237 102.798 29.5071 102.667C29.5906 102.536 29.677 102.408 29.7665 102.282C29.8559 102.156 29.9482 102.032 30.0433 101.911C30.1384 101.79 30.2363 101.672 30.337 101.556C30.4376 101.44 30.5409 101.327 30.6468 101.217C30.7527 101.107 30.8611 100.999 30.9721 100.895C31.083 100.79 31.1963 100.689 31.3119 100.591C31.4276 100.492 31.5456 100.397 31.6657 100.305C31.7858 100.213 31.9081 100.124 32.0324 100.039C32.1568 99.9535 32.2831 99.8714 32.4113 99.7926C32.5395 99.7139 32.6696 99.6385 32.8014 99.5666C32.9332 99.4947 33.0666 99.4264 33.2018 99.3616C33.3369 99.2969 33.4734 99.2358 33.6115 99.1782C33.7495 99.1207 33.889 99.0669 34.0297 99.0169C34.1703 98.9666 34.3121 98.9203 34.4553 98.8778C34.5983 98.8351 34.7421 98.7962 34.8869 98.7612C35.0319 98.7261 35.1777 98.6949 35.3243 98.6675L47.2309 96.4607L52.5655 125.244C52.6042 125.577 52.6508 125.91 52.7055 126.242C52.7603 126.574 52.8227 126.904 52.8928 127.233C52.9633 127.561 53.0413 127.888 53.1272 128.213C53.2131 128.538 53.3066 128.861 53.4075 129.181C53.5088 129.501 53.6175 129.818 53.7336 130.133C53.8497 130.448 53.9732 130.759 54.1042 131.067C54.235 131.376 54.373 131.68 54.518 131.981C54.6633 132.282 54.8156 132.579 54.9748 132.872C55.134 133.165 55.3 133.454 55.4727 133.738C55.6455 134.023 55.8249 134.302 56.0109 134.577C56.1967 134.852 56.3888 135.121 56.5872 135.386C56.7859 135.65 56.9906 135.91 57.2011 136.163C57.4117 136.417 57.6281 136.665 57.8501 136.907C58.0722 137.149 58.2998 137.385 58.5329 137.614C58.7661 137.844 59.0043 138.068 59.2477 138.284C59.4911 138.502 59.7395 138.712 59.9927 138.915C60.2456 139.119 60.5034 139.315 60.7654 139.505C61.0275 139.694 61.2941 139.877 61.5645 140.052C61.835 140.227 62.1093 140.395 62.3874 140.555C62.6656 140.715 62.9469 140.868 63.2321 141.012C63.5172 141.157 63.8053 141.294 64.0962 141.423C64.3873 141.552 64.6813 141.674 64.9779 141.787C65.2744 141.9 65.5731 142.005 65.8743 142.101C66.1754 142.198 66.4785 142.286 66.7833 142.366C67.0882 142.447 67.3946 142.518 67.7025 142.581C68.0101 142.645 68.3192 142.7 68.6292 142.746C68.9392 142.792 69.2501 142.83 69.5615 142.859C69.873 142.888 70.1847 142.908 70.4966 142.921C70.8086 142.933 71.1205 142.936 71.432 142.931C71.7436 142.925 72.0547 142.911 72.3652 142.889C72.676 142.866 72.9855 142.835 73.2941 142.796C73.6029 142.756 73.9102 142.708 74.2159 142.651C74.5216 142.594 74.8257 142.529 75.1283 142.456C75.4305 142.382 75.7306 142.3 76.0288 142.21C76.3268 142.119 76.6223 142.021 76.915 141.914C77.2077 141.807 77.4977 141.693 77.7847 141.57C78.0716 141.447 78.3552 141.316 78.6355 141.177C78.9159 141.038 79.1926 140.892 79.4654 140.737C79.7383 140.583 80.0072 140.421 80.2717 140.252C80.5365 140.083 80.7969 139.906 81.0528 139.722C81.3087 139.538 81.5599 139.347 81.8065 139.148C82.053 138.95 82.2943 138.745 82.5305 138.534C82.7669 138.322 82.9979 138.103 83.2235 137.878C83.4488 137.654 83.6685 137.422 83.8829 137.185C84.0972 136.948 84.3052 136.704 84.5075 136.455C84.7098 136.206 84.9058 135.951 85.0955 135.69C85.2853 135.43 85.4687 135.164 85.6454 134.894C85.8222 134.623 85.9924 134.347 86.1556 134.066C86.3192 133.786 86.4756 133.5 86.6251 133.21C86.7746 132.921 86.9169 132.627 87.0522 132.329C87.1876 132.031 87.3154 131.729 87.4361 131.423C87.5566 131.118 87.6699 130.809 87.7755 130.497C87.8811 130.184 87.9794 129.869 88.07 129.551C88.1604 129.233 88.2433 128.913 88.3182 128.589C88.3935 128.266 88.4607 127.941 88.52 127.613C88.5795 127.286 88.6309 126.957 88.6746 126.626C88.7183 126.296 88.7538 125.964 88.7816 125.631C88.8092 125.298 88.8289 124.964 88.8405 124.629C88.8523 124.295 88.8561 123.96 88.8515 123.624C88.8473 123.289 88.835 122.954 88.8148 122.618C88.7943 122.283 88.7661 121.949 88.7297 121.614C88.6933 121.28 88.6492 120.947 88.5971 120.615C88.5448 120.283 88.4848 119.953 88.417 119.623C88.3489 119.294 88.2734 118.967 88.19 118.641L85.221 102.622C85.2113 102.569 85.2003 102.517 85.1882 102.465C85.1761 102.413 85.1628 102.361 85.1483 102.309C85.1339 102.258 85.1182 102.207 85.1014 102.156C85.0846 102.105 85.0667 102.055 85.0476 102.005C85.0285 101.955 85.0082 101.906 84.9868 101.857C84.9658 101.808 84.9433 101.76 84.9197 101.712C84.8964 101.664 84.8716 101.617 84.846 101.57C84.8205 101.524 84.7942 101.478 84.7663 101.433C84.7386 101.388 84.71 101.343 84.6803 101.299C84.6507 101.256 84.62 101.213 84.5884 101.171C84.5569 101.129 84.5244 101.087 84.4909 101.047C84.4576 101.006 84.4234 100.966 84.3882 100.928C84.353 100.889 84.3168 100.851 84.2801 100.814C84.2434 100.777 84.2056 100.742 84.1671 100.706C84.1286 100.672 84.0894 100.638 84.0494 100.604C84.0098 100.572 83.969 100.54 83.9276 100.509C83.8862 100.478 83.8443 100.448 83.8017 100.419C83.7592 100.391 83.7159 100.363 83.6719 100.337C83.6279 100.311 83.5835 100.286 83.5387 100.261C83.4939 100.237 83.4484 100.214 83.4025 100.192C83.3566 100.171 83.3103 100.15 83.2633 100.131C83.2163 100.112 83.1693 100.094 83.1218 100.077C83.074 100.06 83.0262 100.044 82.9782 100.03C82.93 100.015 82.8814 100.002 82.8327 99.9905C82.7841 99.9789 82.735 99.9683 82.6859 99.9591C82.6368 99.95 82.5876 99.9421 82.538 99.9353C82.4884 99.9285 82.4391 99.9233 82.3894 99.9194C82.3397 99.9153 82.2902 99.9125 82.2404 99.9111C82.1906 99.9097 82.141 99.9095 82.0913 99.9108C82.0417 99.912 81.9923 99.9145 81.9428 99.9183C81.8933 99.9222 81.8441 99.9273 81.7951 99.9337C81.7458 99.9402 81.6967 99.948 81.6482 99.957C81.5997 99.966 81.5511 99.9763 81.5028 99.9879C81.4547 99.9995 81.4069 100.012 81.3594 100.026C81.3118 100.041 81.2648 100.056 81.218 100.073C81.1712 100.089 81.1249 100.107 81.0789 100.126C81.0329 100.146 80.9877 100.166 80.9428 100.188C80.8978 100.209 80.8536 100.232 80.8098 100.256C80.7659 100.28 80.7228 100.305 80.6802 100.331C80.6377 100.357 80.5956 100.384 80.5544 100.413C80.5132 100.441 80.4725 100.471 80.4326 100.502C80.393 100.532 80.354 100.564 80.3154 100.597C80.2772 100.63 80.2397 100.663 80.2027 100.698C80.1658 100.733 80.1299 100.769 80.0948 100.805C80.0598 100.842 80.0255 100.88 79.9923 100.919C79.9592 100.957 79.9267 100.997 79.8951 101.037C79.8635 101.077 79.833 101.119 79.8035 101.16C79.774 101.203 79.7456 101.245 79.718 101.289C79.6904 101.333 79.6639 101.377 79.6383 101.422C79.6131 101.467 79.5887 101.513 79.5652 101.559C79.5418 101.606 79.5194 101.653 79.4984 101.7C79.4774 101.748 79.457 101.796 79.438 101.845C79.4191 101.894 79.4015 101.943 79.3848 101.993C79.3679 102.043 79.3526 102.093 79.3382 102.144C79.324 102.195 79.3106 102.246 79.2986 102.297C79.2865 102.348 79.2758 102.4 79.2661 102.452C79.2564 102.505 79.2482 102.557 79.241 102.609C79.2338 102.662 79.2276 102.715 79.2229 102.768C79.218 102.821 79.2143 102.874 79.2122 102.927C79.2097 102.98 79.2085 103.034 79.2086 103.087C79.2086 103.141 79.2099 103.194 79.2124 103.247C79.2149 103.301 79.2187 103.354 79.2236 103.407C79.2285 103.461 79.2347 103.514 79.242 103.567C79.2494 103.62 79.258 103.673 79.2677 103.725L82.2367 119.744C82.2963 119.963 82.3505 120.182 82.3995 120.403C82.4485 120.624 82.492 120.846 82.5303 121.069C82.5686 121.293 82.6015 121.516 82.6289 121.741C82.6567 121.966 82.6787 122.191 82.6956 122.416C82.7121 122.642 82.7234 122.867 82.7293 123.093C82.7351 123.319 82.7354 123.545 82.7304 123.77C82.7254 123.996 82.7147 124.221 82.6988 124.445C82.6829 124.67 82.6613 124.894 82.6345 125.117C82.6078 125.34 82.5757 125.562 82.5381 125.783C82.5006 126.004 82.4576 126.224 82.4093 126.442C82.3611 126.66 82.3076 126.877 82.249 127.092C82.1901 127.307 82.126 127.52 82.057 127.731C81.9878 127.942 81.9136 128.151 81.8342 128.358C81.7549 128.564 81.6705 128.768 81.5813 128.97C81.4922 129.172 81.3979 129.37 81.2987 129.566C81.1996 129.762 81.0959 129.956 80.9873 130.146C80.8788 130.336 80.7656 130.522 80.6478 130.706C80.53 130.889 80.4079 131.069 80.2814 131.246C80.1549 131.422 80.024 131.594 79.889 131.763C79.7538 131.932 79.6147 132.097 79.4714 132.258C79.3282 132.419 79.1811 132.575 79.0302 132.728C78.8789 132.88 78.7243 133.028 78.5659 133.171C78.4075 133.315 78.2454 133.454 78.0803 133.588C77.9149 133.722 77.7462 133.852 77.5744 133.977C77.4026 134.101 77.2277 134.221 77.0498 134.336C76.8719 134.45 76.6915 134.56 76.5079 134.665C76.3244 134.769 76.1387 134.868 75.9501 134.962C75.7616 135.056 75.5708 135.145 75.3777 135.228C75.1847 135.311 74.9895 135.389 74.7926 135.461C74.5957 135.534 74.3968 135.6 74.1959 135.661C73.9954 135.722 73.7933 135.778 73.5897 135.827C73.3861 135.877 73.1815 135.921 72.9755 135.959C72.7695 135.997 72.5628 136.029 72.355 136.056C72.1472 136.083 71.9386 136.103 71.7295 136.118C71.5202 136.133 71.3107 136.143 71.1009 136.146C70.8912 136.149 70.6811 136.146 70.471 136.137C70.261 136.129 70.0512 136.115 69.8414 136.094C69.6317 136.074 69.4228 136.048 69.214 136.016C69.0052 135.985 68.7974 135.947 68.5902 135.903C68.3829 135.86 68.1768 135.811 67.9717 135.756C67.7667 135.701 67.5628 135.641 67.3602 135.575C67.158 135.509 66.9569 135.437 66.7575 135.36C66.5582 135.283 66.3609 135.2 66.1654 135.112C65.9695 135.024 65.7761 134.93 65.5848 134.832C65.3935 134.733 65.2045 134.629 65.0177 134.519C64.8312 134.41 64.6472 134.296 64.4659 134.177C64.2846 134.058 64.1061 133.933 63.9304 133.804C63.7546 133.675 63.5821 133.541 63.4126 133.403C63.2432 133.265 63.0772 133.121 62.9144 132.974C62.7515 132.826 62.5923 132.674 62.4367 132.518C62.2812 132.362 62.1293 132.202 61.9812 132.037C61.8331 131.873 61.6888 131.704 61.5485 131.532C61.4086 131.36 61.2726 131.184 61.1404 131.004C61.0085 130.824 60.881 130.641 60.7578 130.455C60.6346 130.268 60.5157 130.079 60.4014 129.886C60.2872 129.693 60.1776 129.497 60.0727 129.299C59.9679 129.1 59.8675 128.899 59.772 128.694C59.6767 128.491 59.5861 128.284 59.5006 128.076C59.4151 127.867 59.3345 127.656 59.259 127.443C59.1835 127.23 59.1133 127.016 59.0479 126.799C58.9828 126.583 58.9227 126.364 58.8681 126.145C58.8133 125.925 58.7637 125.705 58.7195 125.482C58.6753 125.26 58.6365 125.038 58.603 124.814C58.5695 124.59 58.5415 124.366 58.5188 124.14L53.1842 95.3573L251.738 58.5575L284.998 238.011L228.656 248.453C228.607 248.462 228.559 248.472 228.511 248.484C228.463 248.496 228.415 248.508 228.367 248.523C228.32 248.537 228.272 248.552 228.226 248.569C228.179 248.585 228.133 248.603 228.087 248.622C228.041 248.642 227.996 248.662 227.951 248.684C227.906 248.705 227.862 248.728 227.818 248.752C227.774 248.776 227.731 248.801 227.688 248.827C227.646 248.853 227.604 248.881 227.562 248.909C227.521 248.938 227.48 248.967 227.441 248.998C227.401 249.028 227.362 249.06 227.323 249.093C227.285 249.126 227.247 249.16 227.211 249.194C227.174 249.229 227.138 249.265 227.103 249.302C227.068 249.339 227.034 249.376 227 249.415C226.967 249.453 226.935 249.493 226.903 249.533C226.872 249.574 226.841 249.615 226.812 249.657C226.782 249.699 226.753 249.742 226.726 249.785C226.698 249.829 226.672 249.874 226.646 249.918C226.621 249.963 226.597 250.009 226.573 250.055C226.55 250.102 226.527 250.149 226.506 250.197C226.485 250.244 226.465 250.292 226.446 250.341C226.427 250.39 226.409 250.44 226.393 250.489C226.376 250.539 226.361 250.589 226.346 250.64C226.332 250.691 226.319 250.742 226.307 250.793C226.295 250.844 226.284 250.896 226.274 250.948C226.264 251.001 226.256 251.053 226.249 251.105C226.242 251.158 226.236 251.211 226.231 251.264C226.226 251.317 226.222 251.37 226.22 251.423C226.218 251.477 226.217 251.53 226.217 251.583C226.217 251.637 226.218 251.69 226.22 251.744C226.223 251.797 226.227 251.851 226.232 251.904C226.237 251.957 226.243 252.01 226.25 252.063C226.257 252.116 226.266 252.169 226.276 252.221L237.563 313.12L80.467 342.236C80.3196 342.263 80.1715 342.286 80.0227 342.306C79.874 342.325 79.7247 342.34 79.575 342.352C79.4254 342.363 79.2755 342.371 79.1253 342.374C78.975 342.377 78.8248 342.377 78.6744 342.373C78.524 342.368 78.3737 342.36 78.2235 342.347C78.0733 342.335 77.9234 342.319 77.7737 342.298C77.624 342.278 77.4748 342.254 77.326 342.226C77.1773 342.198 77.0291 342.166 76.8816 342.13C76.7341 342.094 76.5874 342.055 76.4414 342.011C76.2955 341.967 76.1506 341.92 76.0067 341.869C75.8627 341.818 75.72 341.763 75.5783 341.705C75.4367 341.646 75.2964 341.584 75.1574 341.518C75.0184 341.452 74.8809 341.383 74.7448 341.31C74.6088 341.237 74.4745 341.16 74.3418 341.08C74.2091 341 74.0782 340.917 73.9491 340.83C73.82 340.744 73.6929 340.653 73.5677 340.56C73.4426 340.467 73.3195 340.37 73.1986 340.27C73.0777 340.171 72.9591 340.068 72.8427 339.962C72.7263 339.856 72.6123 339.748 72.5007 339.636C72.3891 339.524 72.2801 339.41 72.1735 339.292C72.067 339.175 71.9632 339.055 71.862 338.932C71.7608 338.81 71.6624 338.685 71.5668 338.557C71.4712 338.43 71.3785 338.3 71.2886 338.167C71.1989 338.035 71.1121 337.901 71.0282 337.764C70.9444 337.627 70.8638 337.488 70.7862 337.348C70.7086 337.207 70.6342 337.064 70.563 336.92C70.4919 336.775 70.424 336.629 70.3594 336.481C70.2948 336.334 70.2336 336.184 70.1757 336.033C70.1178 335.882 70.0634 335.73 70.0124 335.576C69.9614 335.423 69.9139 335.268 69.8699 335.112C69.8259 334.957 69.7854 334.8 69.7485 334.642C69.7116 334.484 69.6783 334.326 69.6485 334.166L28.0995 109.988Z"   fill="#263238" >
</path>
<path d="M89.8901 347.266L85.1274 348.149L84.1736 343.002C84.1657 342.96 84.1561 342.918 84.1445 342.877C84.1328 342.836 84.1193 342.795 84.1041 342.755C84.0889 342.715 84.0719 342.676 84.0531 342.638C84.0344 342.6 84.0139 342.563 83.9918 342.526C83.9695 342.49 83.9458 342.455 83.9206 342.421C83.8953 342.388 83.8686 342.355 83.8405 342.324C83.8123 342.293 83.7828 342.264 83.752 342.236C83.7212 342.208 83.6893 342.181 83.6562 342.157C83.6231 342.132 83.589 342.109 83.5539 342.088C83.5188 342.067 83.4828 342.048 83.4461 342.03C83.4094 342.013 83.3719 341.997 83.3338 341.984C83.2958 341.97 83.2572 341.959 83.2182 341.949C83.1792 341.94 83.1399 341.933 83.1003 341.927C83.0607 341.922 83.021 341.919 82.9813 341.918C82.9415 341.917 82.9018 341.918 82.8623 341.92C82.8227 341.924 82.7834 341.929 82.7444 341.936C82.7054 341.943 82.6669 341.952 82.6288 341.964C82.5909 341.975 82.5535 341.989 82.5167 342.004C82.48 342.019 82.4441 342.036 82.4091 342.055C82.374 342.074 82.3399 342.095 82.3069 342.118C82.2739 342.141 82.242 342.166 82.2113 342.192C82.1806 342.218 82.1512 342.246 82.1231 342.275C82.095 342.305 82.0684 342.336 82.0432 342.368C82.018 342.4 81.9944 342.434 81.9724 342.469C81.9503 342.504 81.9299 342.54 81.9112 342.577C81.8925 342.614 81.8756 342.652 81.8604 342.691C81.8452 342.73 81.8319 342.77 81.8204 342.811C81.8089 342.851 81.7993 342.892 81.7916 342.934C81.7839 342.976 81.7781 343.018 81.7743 343.06C81.7704 343.103 81.7685 343.145 81.7686 343.188C81.7686 343.231 81.7706 343.273 81.7746 343.316C81.7785 343.359 81.7844 343.401 81.7922 343.443L82.7461 348.59L77.9835 349.473C77.9445 349.48 77.906 349.489 77.8679 349.5C77.8299 349.512 77.7925 349.525 77.7558 349.541C77.719 349.556 77.6832 349.573 77.6481 349.592C77.6131 349.611 77.579 349.632 77.546 349.655C77.513 349.678 77.4811 349.702 77.4503 349.729C77.4197 349.755 77.3903 349.783 77.3622 349.812C77.3341 349.842 77.3074 349.872 77.2823 349.905C77.2571 349.937 77.2335 349.971 77.2114 350.006C77.1894 350.041 77.169 350.077 77.1503 350.114C77.1316 350.151 77.1146 350.189 77.0995 350.228C77.0843 350.267 77.0709 350.307 77.0594 350.347C77.048 350.388 77.0384 350.429 77.0307 350.471C77.023 350.513 77.0172 350.555 77.0133 350.597C77.0095 350.64 77.0076 350.682 77.0077 350.725C77.0077 350.768 77.0097 350.81 77.0137 350.853C77.0176 350.896 77.0235 350.938 77.0313 350.98C77.0391 351.022 77.0488 351.064 77.0604 351.105C77.072 351.146 77.0854 351.187 77.1007 351.227C77.116 351.267 77.133 351.306 77.1518 351.344C77.1706 351.382 77.1911 351.42 77.2132 351.456C77.2353 351.492 77.259 351.527 77.2843 351.561C77.3096 351.594 77.3363 351.627 77.3644 351.658C77.3926 351.689 77.4221 351.718 77.4529 351.746C77.4836 351.774 77.5155 351.8 77.5486 351.825C77.5817 351.85 77.6158 351.873 77.6509 351.894C77.6861 351.915 77.722 351.935 77.7587 351.952C77.7955 351.969 77.8329 351.985 77.871 351.998C77.9091 352.012 77.9476 352.023 77.9866 352.032C78.0257 352.042 78.065 352.05 78.1046 352.055C78.1441 352.06 78.1838 352.063 78.2235 352.064C78.2634 352.066 78.303 352.065 78.3426 352.062C78.3822 352.059 78.4214 352.053 78.4604 352.046L83.2231 351.163L84.177 356.31C84.1848 356.352 84.1945 356.394 84.2061 356.435C84.2177 356.476 84.2311 356.517 84.2463 356.557C84.2616 356.597 84.2786 356.636 84.2974 356.674C84.3162 356.712 84.3367 356.75 84.3589 356.786C84.381 356.822 84.4047 356.857 84.43 356.891C84.4552 356.924 84.4819 356.957 84.5101 356.988C84.5383 357.019 84.5677 357.048 84.5985 357.076C84.6293 357.104 84.6612 357.13 84.6943 357.155C84.7274 357.18 84.7615 357.203 84.7966 357.224C84.8317 357.245 84.8677 357.265 84.9044 357.282C84.9412 357.299 84.9786 357.315 85.0167 357.328C85.0547 357.342 85.0932 357.353 85.1323 357.362C85.1713 357.372 85.2106 357.38 85.2502 357.385C85.2898 357.39 85.3294 357.393 85.3692 357.394C85.409 357.395 85.4487 357.395 85.4882 357.392C85.5278 357.389 85.5671 357.383 85.6061 357.376C85.6451 357.369 85.6836 357.36 85.7217 357.348C85.7597 357.337 85.797 357.324 85.8338 357.308C85.8705 357.293 85.9064 357.276 85.9415 357.257C85.9765 357.238 86.0105 357.217 86.0435 357.194C86.0766 357.171 86.1085 357.146 86.1392 357.12C86.1699 357.094 86.1993 357.066 86.2274 357.037C86.2555 357.007 86.2821 356.976 86.3073 356.944C86.3325 356.912 86.3561 356.878 86.3781 356.843C86.4002 356.808 86.4206 356.772 86.4393 356.735C86.4581 356.698 86.475 356.66 86.4901 356.621C86.5053 356.582 86.5186 356.542 86.5302 356.501C86.5415 356.461 86.5512 356.42 86.5591 356.378C86.5667 356.336 86.5724 356.294 86.5763 356.252C86.5801 356.209 86.582 356.167 86.5819 356.124C86.5818 356.081 86.5798 356.039 86.576 355.996C86.572 355.953 86.5661 355.911 86.5583 355.869L85.6044 350.722L90.367 349.839C90.4061 349.832 90.4446 349.823 90.4826 349.812C90.5207 349.8 90.5581 349.787 90.5946 349.772C90.6314 349.756 90.6673 349.739 90.7024 349.72C90.7374 349.701 90.7715 349.68 90.8046 349.657C90.8375 349.634 90.8694 349.61 90.9003 349.583C90.9309 349.557 90.9602 349.529 90.9883 349.5C91.0165 349.471 91.0432 349.44 91.0684 349.407C91.0934 349.375 91.1169 349.341 91.1389 349.306C91.161 349.271 91.1814 349.235 91.2002 349.198C91.219 349.161 91.2359 349.123 91.2511 349.084C91.2662 349.045 91.2796 349.005 91.2912 348.965C91.3025 348.924 91.3121 348.883 91.32 348.841C91.3276 348.799 91.3334 348.757 91.3372 348.715C91.3411 348.673 91.3429 348.63 91.3428 348.587C91.3427 348.545 91.3408 348.502 91.3369 348.459C91.333 348.417 91.327 348.374 91.3192 348.332C91.3114 348.29 91.3018 348.248 91.2902 348.207C91.2784 348.166 91.2649 348.125 91.2498 348.085C91.2346 348.045 91.2176 348.006 91.1988 347.968C91.18 347.93 91.1596 347.893 91.1374 347.856C91.1152 347.82 91.0914 347.785 91.0663 347.751C91.0409 347.718 91.0142 347.685 90.9861 347.654C90.9579 347.623 90.9285 347.594 90.8976 347.566C90.8668 347.538 90.8349 347.512 90.8017 347.487C90.7686 347.462 90.7346 347.439 90.6997 347.418C90.6646 347.397 90.6285 347.378 90.5917 347.36C90.555 347.343 90.5176 347.327 90.4796 347.314C90.4414 347.3 90.4029 347.289 90.3639 347.279C90.3248 347.27 90.2855 347.263 90.2459 347.257C90.2064 347.252 90.1667 347.249 90.1268 347.248C90.0872 347.247 90.0476 347.248 90.0079 347.25C89.9684 347.254 89.9292 347.259 89.8901 347.266Z"   fill="#FFDD00" >
</path>
<path d="M311.114 133.69L306.351 134.572L305.397 129.426C305.389 129.384 305.38 129.342 305.368 129.3C305.356 129.259 305.343 129.219 305.328 129.179C305.312 129.139 305.295 129.1 305.277 129.062C305.258 129.023 305.237 128.986 305.215 128.95C305.193 128.914 305.169 128.879 305.144 128.845C305.119 128.811 305.092 128.779 305.064 128.748C305.036 128.717 305.006 128.687 304.975 128.659C304.945 128.631 304.913 128.605 304.88 128.581C304.846 128.556 304.812 128.533 304.778 128.512C304.742 128.49 304.706 128.471 304.67 128.454C304.633 128.436 304.595 128.421 304.557 128.407C304.519 128.394 304.481 128.382 304.442 128.373C304.403 128.363 304.363 128.356 304.324 128.351C304.284 128.346 304.245 128.342 304.205 128.341C304.165 128.34 304.125 128.341 304.086 128.344C304.046 128.347 304.007 128.352 303.968 128.36C303.929 128.367 303.891 128.376 303.852 128.387C303.814 128.399 303.777 128.412 303.74 128.427C303.704 128.443 303.668 128.46 303.633 128.479C303.598 128.498 303.563 128.519 303.53 128.542C303.497 128.565 303.466 128.589 303.435 128.615C303.404 128.642 303.375 128.67 303.347 128.699C303.318 128.728 303.292 128.759 303.267 128.792C303.242 128.824 303.218 128.858 303.196 128.893C303.174 128.927 303.153 128.963 303.135 129C303.116 129.038 303.099 129.076 303.084 129.115C303.069 129.154 303.055 129.194 303.044 129.234C303.032 129.275 303.023 129.316 303.015 129.358C303.007 129.399 303.002 129.442 302.998 129.484C302.994 129.526 302.992 129.569 302.992 129.612C302.992 129.654 302.994 129.697 302.998 129.74C303.002 129.782 303.008 129.825 303.016 129.867L303.97 135.014L299.207 135.896C299.168 135.904 299.13 135.913 299.091 135.924C299.053 135.936 299.016 135.949 298.979 135.964C298.943 135.979 298.907 135.997 298.872 136.016C298.837 136.035 298.803 136.056 298.769 136.079C298.736 136.102 298.705 136.126 298.674 136.152C298.643 136.179 298.614 136.206 298.586 136.236C298.558 136.265 298.531 136.296 298.506 136.328C298.481 136.361 298.457 136.394 298.435 136.429C298.413 136.464 298.393 136.5 298.374 136.537C298.355 136.574 298.338 136.613 298.323 136.652C298.308 136.691 298.294 136.73 298.283 136.771C298.272 136.812 298.262 136.853 298.254 136.894C298.246 136.936 298.241 136.978 298.237 137.021C298.233 137.063 298.231 137.106 298.231 137.149C298.231 137.191 298.233 137.234 298.237 137.277C298.241 137.319 298.247 137.362 298.255 137.404C298.263 137.446 298.272 137.488 298.284 137.529C298.295 137.57 298.309 137.611 298.324 137.65C298.339 137.69 298.356 137.729 298.375 137.768C298.394 137.806 298.414 137.843 298.437 137.879C298.459 137.915 298.483 137.95 298.508 137.984C298.533 138.018 298.56 138.05 298.588 138.081C298.616 138.112 298.646 138.142 298.676 138.17C298.707 138.198 298.739 138.224 298.772 138.249C298.805 138.273 298.839 138.296 298.874 138.318C298.909 138.339 298.945 138.358 298.982 138.375C299.019 138.393 299.056 138.408 299.094 138.422C299.133 138.435 299.171 138.447 299.21 138.456C299.249 138.466 299.289 138.473 299.328 138.478C299.368 138.484 299.407 138.487 299.447 138.488C299.487 138.489 299.526 138.488 299.566 138.485C299.606 138.482 299.645 138.477 299.684 138.47L304.447 137.587L305.4 142.734C305.408 142.776 305.418 142.818 305.43 142.859C305.441 142.9 305.455 142.941 305.47 142.98C305.485 143.02 305.502 143.059 305.521 143.098C305.54 143.136 305.56 143.173 305.582 143.209C305.605 143.245 305.628 143.28 305.653 143.314C305.679 143.348 305.705 143.38 305.734 143.411C305.762 143.442 305.791 143.472 305.822 143.5C305.853 143.528 305.885 143.554 305.918 143.579C305.951 143.603 305.985 143.626 306.02 143.648C306.055 143.669 306.091 143.688 306.128 143.705C306.165 143.723 306.202 143.738 306.24 143.752C306.278 143.765 306.317 143.777 306.356 143.786C306.395 143.796 306.434 143.803 306.474 143.808C306.513 143.814 306.553 143.817 306.593 143.818C306.632 143.819 306.672 143.818 306.712 143.815C306.751 143.812 306.791 143.807 306.83 143.8C306.869 143.792 306.907 143.783 306.945 143.772C306.983 143.76 307.021 143.747 307.057 143.732C307.094 143.717 307.13 143.699 307.165 143.68C307.2 143.661 307.234 143.64 307.267 143.617C307.3 143.594 307.332 143.57 307.363 143.544C307.393 143.518 307.423 143.49 307.451 143.46C307.479 143.431 307.506 143.4 307.531 143.368C307.556 143.335 307.579 143.302 307.602 143.267C307.624 143.232 307.644 143.196 307.663 143.159C307.682 143.122 307.699 143.083 307.714 143.044C307.729 143.005 307.742 142.966 307.754 142.925C307.765 142.884 307.775 142.843 307.782 142.802C307.79 142.76 307.796 142.718 307.8 142.675C307.804 142.633 307.805 142.59 307.805 142.548C307.805 142.505 307.803 142.462 307.799 142.419C307.796 142.377 307.79 142.335 307.782 142.292L306.828 137.146L311.591 136.263C311.63 136.256 311.668 136.246 311.706 136.235C311.744 136.224 311.782 136.21 311.818 136.195C311.855 136.18 311.891 136.163 311.926 136.144C311.961 136.124 311.995 136.103 312.028 136.08C312.061 136.058 312.093 136.033 312.124 136.007C312.154 135.981 312.184 135.953 312.212 135.924C312.24 135.894 312.267 135.863 312.292 135.831C312.317 135.798 312.34 135.765 312.362 135.73C312.385 135.695 312.405 135.659 312.424 135.622C312.443 135.585 312.459 135.547 312.475 135.508C312.49 135.469 312.503 135.429 312.515 135.388C312.526 135.348 312.536 135.306 312.543 135.265C312.551 135.223 312.557 135.181 312.561 135.139C312.565 135.096 312.566 135.054 312.566 135.011C312.566 134.968 312.564 134.925 312.56 134.883C312.556 134.84 312.551 134.798 312.543 134.756C312.535 134.714 312.525 134.672 312.514 134.631C312.502 134.589 312.489 134.549 312.473 134.509C312.458 134.469 312.441 134.43 312.422 134.392C312.404 134.353 312.383 134.316 312.361 134.28C312.339 134.244 312.315 134.209 312.29 134.175C312.264 134.141 312.238 134.109 312.21 134.078C312.181 134.047 312.152 134.017 312.121 133.989C312.09 133.961 312.058 133.935 312.025 133.911C311.992 133.886 311.958 133.863 311.923 133.842C311.888 133.82 311.852 133.801 311.815 133.784C311.779 133.766 311.741 133.751 311.703 133.737C311.665 133.724 311.626 133.713 311.587 133.703C311.548 133.693 311.509 133.686 311.469 133.681C311.43 133.676 311.39 133.672 311.35 133.671C311.311 133.67 311.271 133.671 311.231 133.674C311.192 133.677 311.153 133.682 311.114 133.69Z"   fill="#40BDFF" >
</path>
<path d="M334.238 314.076C334.121 314.098 334.004 314.116 333.886 314.132C333.768 314.147 333.65 314.16 333.531 314.169C333.412 314.178 333.293 314.184 333.174 314.187C333.055 314.19 332.936 314.19 332.817 314.186C332.698 314.183 332.578 314.176 332.459 314.167C332.34 314.157 332.221 314.144 332.103 314.128C331.984 314.112 331.866 314.093 331.748 314.071C331.63 314.049 331.512 314.023 331.395 313.995C331.278 313.967 331.162 313.935 331.046 313.901C330.931 313.867 330.816 313.829 330.702 313.789C330.587 313.748 330.474 313.705 330.362 313.658C330.249 313.612 330.138 313.563 330.028 313.511C329.918 313.459 329.809 313.404 329.701 313.346C329.593 313.288 329.486 313.227 329.381 313.164C329.276 313.1 329.172 313.034 329.07 312.966C328.968 312.897 328.867 312.825 328.767 312.751C328.668 312.677 328.571 312.601 328.475 312.522C328.379 312.443 328.285 312.361 328.193 312.277C328.1 312.193 328.01 312.107 327.922 312.019C327.833 311.93 327.747 311.839 327.662 311.746C327.578 311.653 327.495 311.558 327.415 311.461C327.335 311.363 327.257 311.264 327.181 311.163C327.106 311.062 327.032 310.959 326.961 310.854C326.89 310.749 326.821 310.642 326.755 310.534C326.688 310.425 326.624 310.315 326.563 310.204C326.501 310.092 326.443 309.979 326.386 309.864C326.33 309.75 326.276 309.633 326.225 309.516C326.174 309.399 326.125 309.28 326.08 309.161C326.034 309.041 325.991 308.92 325.951 308.798C325.91 308.677 325.873 308.554 325.838 308.43C325.803 308.307 325.771 308.183 325.742 308.057C325.713 307.932 325.687 307.807 325.663 307.68C325.64 307.554 325.619 307.427 325.602 307.3C325.584 307.173 325.569 307.045 325.558 306.917C325.546 306.789 325.537 306.661 325.531 306.533C325.525 306.405 325.522 306.277 325.521 306.149C325.521 306.021 325.524 305.892 325.53 305.765C325.535 305.637 325.544 305.509 325.555 305.382C325.567 305.255 325.581 305.128 325.599 305.002C325.616 304.876 325.636 304.75 325.66 304.625C325.683 304.5 325.709 304.376 325.737 304.252C325.766 304.129 325.798 304.006 325.832 303.884C325.867 303.763 325.904 303.642 325.944 303.523C325.984 303.403 326.027 303.285 326.072 303.168C326.118 303.051 326.166 302.935 326.217 302.821C326.268 302.706 326.321 302.593 326.377 302.482C326.433 302.371 326.492 302.261 326.553 302.153C326.614 302.045 326.678 301.938 326.744 301.833C326.81 301.729 326.879 301.626 326.95 301.525C327.02 301.424 327.094 301.325 327.169 301.228C327.245 301.132 327.322 301.037 327.402 300.944C327.482 300.851 327.564 300.761 327.649 300.673C327.733 300.584 327.819 300.499 327.907 300.415C327.996 300.332 328.086 300.25 328.178 300.172C328.27 300.093 328.364 300.017 328.459 299.943C328.555 299.87 328.652 299.799 328.752 299.73C328.851 299.662 328.951 299.596 329.053 299.533C329.155 299.47 329.259 299.41 329.364 299.353C329.469 299.295 329.576 299.241 329.683 299.189C329.791 299.137 329.9 299.089 330.01 299.043C330.12 298.997 330.232 298.954 330.344 298.914C330.456 298.874 330.569 298.837 330.683 298.803C330.797 298.769 330.912 298.738 331.028 298.71C331.143 298.683 331.26 298.658 331.376 298.636C331.493 298.614 331.611 298.596 331.729 298.58C331.847 298.565 331.965 298.553 332.083 298.544C332.202 298.534 332.321 298.528 332.44 298.525C332.559 298.522 332.678 298.523 332.798 298.526C332.917 298.53 333.036 298.536 333.155 298.546C333.274 298.555 333.393 298.568 333.512 298.584C333.631 298.6 333.749 298.619 333.867 298.641C333.985 298.663 334.102 298.688 334.219 298.717C334.336 298.745 334.453 298.777 334.568 298.811C334.684 298.845 334.799 298.883 334.913 298.924C335.027 298.964 335.14 299.007 335.253 299.054C335.365 299.1 335.476 299.149 335.587 299.202C335.697 299.254 335.806 299.309 335.914 299.367C336.022 299.424 336.128 299.485 336.233 299.549C336.339 299.612 336.442 299.678 336.545 299.747C336.647 299.816 336.748 299.887 336.847 299.961C336.946 300.035 337.044 300.111 337.14 300.19C337.235 300.269 337.33 300.351 337.422 300.435C337.514 300.519 337.605 300.605 337.693 300.694C337.781 300.782 337.868 300.873 337.952 300.966C338.037 301.059 338.119 301.154 338.199 301.251C338.279 301.349 338.357 301.448 338.433 301.549C338.509 301.65 338.582 301.754 338.654 301.859C338.725 301.963 338.794 302.07 338.86 302.178C338.926 302.287 338.99 302.397 339.052 302.509C339.113 302.62 339.172 302.733 339.228 302.848C339.285 302.963 339.338 303.078 339.39 303.196C339.441 303.313 339.489 303.432 339.535 303.551C339.581 303.671 339.624 303.792 339.664 303.914C339.704 304.035 339.742 304.158 339.776 304.282C339.811 304.406 339.843 304.53 339.872 304.655C339.902 304.78 339.928 304.906 339.951 305.032C339.975 305.158 339.995 305.285 340.013 305.413C340.03 305.54 340.045 305.667 340.057 305.795C340.069 305.923 340.078 306.051 340.084 306.179C340.09 306.307 340.093 306.435 340.093 306.564C340.093 306.692 340.09 306.82 340.085 306.947C340.079 307.075 340.071 307.203 340.059 307.33C340.048 307.457 340.033 307.584 340.016 307.71C339.998 307.836 339.978 307.962 339.955 308.087C339.932 308.212 339.906 308.336 339.877 308.46C339.848 308.583 339.817 308.706 339.782 308.827C339.748 308.949 339.71 309.07 339.67 309.189C339.63 309.309 339.588 309.427 339.542 309.544C339.497 309.661 339.449 309.777 339.398 309.892C339.347 310.006 339.293 310.119 339.237 310.23C339.181 310.342 339.123 310.451 339.062 310.559C339 310.668 338.937 310.774 338.87 310.879C338.804 310.983 338.736 311.086 338.665 311.187C338.594 311.288 338.521 311.387 338.445 311.484C338.37 311.581 338.292 311.676 338.212 311.768C338.132 311.861 338.05 311.951 337.966 312.039C337.882 312.128 337.795 312.213 337.707 312.297C337.619 312.381 337.529 312.462 337.437 312.54C337.345 312.619 337.251 312.695 337.155 312.769C337.06 312.843 336.962 312.914 336.863 312.982C336.764 313.05 336.663 313.116 336.561 313.179C336.459 313.242 336.355 313.302 336.25 313.36C336.145 313.417 336.039 313.472 335.931 313.523C335.823 313.575 335.714 313.624 335.604 313.67C335.494 313.716 335.383 313.759 335.271 313.798C335.159 313.838 335.046 313.875 334.931 313.909C334.817 313.943 334.703 313.974 334.587 314.002C334.471 314.03 334.355 314.055 334.238 314.076ZM331.853 301.209C331.775 301.224 331.698 301.24 331.621 301.259C331.544 301.277 331.467 301.298 331.391 301.321C331.315 301.343 331.24 301.368 331.165 301.395C331.09 301.421 331.016 301.45 330.943 301.48C330.869 301.511 330.796 301.544 330.725 301.578C330.653 301.613 330.582 301.649 330.512 301.687C330.442 301.726 330.373 301.766 330.305 301.808C330.237 301.85 330.169 301.893 330.103 301.939C330.037 301.984 329.972 302.032 329.909 302.081C329.845 302.13 329.782 302.181 329.721 302.233C329.659 302.285 329.599 302.34 329.54 302.395C329.482 302.451 329.424 302.508 329.368 302.567C329.312 302.626 329.257 302.686 329.204 302.748C329.151 302.81 329.099 302.873 329.049 302.938C328.998 303.002 328.949 303.068 328.902 303.136C328.855 303.203 328.809 303.271 328.765 303.341C328.721 303.411 328.679 303.482 328.638 303.554C328.597 303.626 328.558 303.699 328.521 303.773C328.483 303.848 328.448 303.923 328.414 303.999C328.38 304.075 328.348 304.153 328.317 304.231C328.287 304.309 328.258 304.387 328.232 304.467C328.205 304.547 328.18 304.627 328.157 304.709C328.134 304.79 328.113 304.871 328.094 304.954C328.075 305.036 328.057 305.119 328.042 305.202C328.027 305.285 328.013 305.369 328.002 305.453C327.99 305.537 327.98 305.622 327.973 305.707C327.965 305.792 327.959 305.876 327.956 305.962C327.952 306.047 327.95 306.132 327.95 306.218C327.95 306.303 327.952 306.389 327.956 306.474C327.96 306.559 327.966 306.645 327.974 306.73C327.982 306.816 327.992 306.901 328.003 306.985C328.015 307.07 328.029 307.155 328.045 307.239C328.06 307.323 328.078 307.407 328.097 307.49C328.117 307.574 328.138 307.656 328.161 307.739C328.184 307.821 328.209 307.903 328.236 307.985C328.263 308.066 328.292 308.146 328.322 308.226C328.353 308.306 328.385 308.385 328.419 308.463C328.453 308.541 328.489 308.618 328.527 308.695C328.564 308.771 328.603 308.846 328.644 308.921C328.685 308.996 328.728 309.069 328.772 309.141C328.816 309.214 328.862 309.285 328.91 309.355C328.957 309.425 329.006 309.493 329.057 309.561C329.107 309.628 329.159 309.694 329.213 309.759C329.266 309.824 329.321 309.887 329.377 309.949C329.434 310.011 329.491 310.072 329.55 310.131C329.609 310.19 329.669 310.248 329.731 310.303C329.792 310.36 329.855 310.414 329.919 310.466C329.983 310.519 330.048 310.57 330.114 310.62C330.18 310.669 330.247 310.716 330.316 310.762C330.384 310.808 330.453 310.852 330.523 310.895C330.593 310.937 330.664 310.977 330.736 311.016C330.808 311.054 330.881 311.091 330.954 311.126C331.028 311.161 331.102 311.194 331.177 311.225C331.252 311.256 331.327 311.285 331.404 311.311C331.48 311.338 331.556 311.363 331.633 311.386C331.71 311.409 331.788 311.43 331.866 311.449C331.944 311.468 332.022 311.484 332.101 311.499C332.18 311.514 332.258 311.527 332.337 311.537C332.417 311.548 332.496 311.557 332.575 311.563C332.655 311.57 332.734 311.574 332.814 311.576C332.893 311.578 332.973 311.578 333.052 311.577C333.131 311.575 333.211 311.571 333.29 311.565C333.369 311.558 333.448 311.55 333.526 311.54C333.605 311.53 333.683 311.517 333.761 311.503C333.839 311.488 333.917 311.472 333.994 311.453C334.071 311.435 334.147 311.414 334.223 311.392C334.299 311.369 334.375 311.344 334.45 311.318C334.524 311.291 334.598 311.262 334.672 311.232C334.745 311.201 334.818 311.169 334.89 311.134C334.962 311.1 335.033 311.063 335.103 311.025C335.173 310.987 335.242 310.947 335.31 310.905C335.378 310.862 335.445 310.819 335.511 310.773C335.577 310.728 335.642 310.68 335.706 310.631C335.77 310.582 335.832 310.531 335.894 310.479C335.955 310.427 336.015 310.373 336.074 310.317C336.133 310.261 336.19 310.204 336.246 310.145C336.303 310.086 336.357 310.026 336.41 309.964C336.464 309.902 336.516 309.839 336.566 309.775C336.616 309.71 336.665 309.644 336.712 309.577C336.76 309.509 336.805 309.441 336.85 309.371C336.894 309.302 336.936 309.231 336.977 309.158C337.018 309.086 337.057 309.013 337.094 308.939C337.131 308.865 337.167 308.789 337.201 308.713C337.235 308.637 337.267 308.56 337.297 308.482C337.328 308.403 337.356 308.325 337.383 308.245C337.409 308.165 337.434 308.085 337.457 308.004C337.48 307.923 337.501 307.841 337.521 307.759C337.54 307.676 337.557 307.594 337.572 307.51C337.588 307.427 337.601 307.343 337.613 307.259C337.624 307.174 337.634 307.09 337.642 307.006C337.649 306.921 337.655 306.836 337.659 306.751C337.663 306.665 337.665 306.58 337.665 306.494C337.664 306.409 337.662 306.324 337.658 306.238C337.654 306.153 337.648 306.067 337.64 305.982C337.633 305.897 337.623 305.812 337.611 305.727C337.599 305.642 337.586 305.558 337.57 305.473C337.554 305.389 337.537 305.305 337.517 305.222C337.498 305.139 337.477 305.056 337.453 304.973C337.43 304.891 337.405 304.809 337.378 304.728C337.351 304.647 337.323 304.566 337.292 304.486C337.262 304.406 337.229 304.327 337.195 304.249C337.161 304.171 337.125 304.094 337.088 304.017C337.05 303.941 337.011 303.865 336.97 303.791C336.929 303.717 336.887 303.643 336.842 303.571C336.798 303.499 336.752 303.428 336.705 303.358C336.657 303.288 336.608 303.219 336.558 303.152C336.507 303.084 336.455 303.018 336.402 302.953C336.349 302.888 336.294 302.825 336.237 302.763C336.181 302.701 336.123 302.64 336.064 302.581C336.005 302.522 335.945 302.465 335.884 302.409C335.822 302.353 335.759 302.298 335.695 302.246C335.632 302.193 335.567 302.142 335.501 302.093C335.434 302.043 335.367 301.996 335.299 301.95C335.231 301.904 335.161 301.86 335.091 301.818C335.021 301.776 334.95 301.735 334.878 301.697C334.806 301.658 334.734 301.621 334.66 301.586C334.587 301.552 334.512 301.519 334.437 301.488C334.363 301.457 334.287 301.428 334.211 301.401C334.135 301.374 334.058 301.349 333.981 301.326C333.904 301.303 333.827 301.282 333.749 301.263C333.671 301.244 333.592 301.227 333.514 301.213C333.435 301.198 333.356 301.185 333.277 301.175C333.198 301.164 333.119 301.156 333.039 301.149C332.96 301.143 332.88 301.138 332.801 301.136C332.721 301.134 332.642 301.134 332.563 301.136C332.483 301.138 332.404 301.142 332.325 301.148C332.246 301.154 332.167 301.162 332.088 301.172C332.01 301.182 331.931 301.195 331.853 301.209ZM283.724 48.1728C283.607 48.1944 283.49 48.213 283.372 48.2284C283.254 48.2438 283.136 48.2561 283.017 48.2652C282.898 48.2746 282.78 48.2806 282.66 48.2834C282.541 48.2864 282.422 48.2862 282.303 48.2828C282.184 48.2794 282.065 48.2728 281.945 48.2632C281.826 48.2536 281.708 48.2408 281.589 48.2248C281.47 48.2089 281.352 48.1898 281.234 48.1675C281.116 48.1454 280.999 48.1202 280.882 48.0917C280.764 48.0635 280.648 48.0322 280.533 47.9977C280.417 47.9633 280.302 47.9258 280.188 47.8853C280.073 47.8448 279.96 47.8013 279.848 47.755C279.736 47.7088 279.624 47.6595 279.514 47.6072C279.404 47.5551 279.295 47.5001 279.187 47.4423C279.079 47.3844 278.973 47.3237 278.867 47.2602C278.762 47.1968 278.658 47.1307 278.556 47.0621C278.454 46.9932 278.353 46.9219 278.254 46.848C278.154 46.7739 278.057 46.6972 277.961 46.6181C277.865 46.5392 277.771 46.4577 277.679 46.3736C277.587 46.2898 277.496 46.2036 277.408 46.1151C277.319 46.0266 277.233 45.9358 277.148 45.8427C277.064 45.7497 276.981 45.6545 276.901 45.5571C276.821 45.4599 276.743 45.3608 276.668 45.2598C276.592 45.1585 276.518 45.0553 276.447 44.9503C276.376 44.8454 276.307 44.7387 276.241 44.6301C276.174 44.5218 276.11 44.4118 276.049 44.3C275.988 44.1886 275.929 44.0755 275.872 43.9608C275.816 43.8462 275.762 43.7302 275.711 43.613C275.66 43.4956 275.612 43.3771 275.566 43.2574C275.52 43.1376 275.477 43.0169 275.437 42.8953C275.396 42.7735 275.359 42.6507 275.324 42.5269C275.289 42.4033 275.257 42.2791 275.228 42.1541C275.199 42.0288 275.173 41.903 275.149 41.7767C275.126 41.6504 275.105 41.5236 275.088 41.3962C275.07 41.269 275.056 41.1416 275.044 41.0138C275.032 40.8858 275.023 40.7577 275.017 40.6295C275.011 40.5015 275.008 40.3734 275.008 40.2452C275.007 40.1171 275.01 39.989 275.016 39.8611C275.021 39.7334 275.03 39.6059 275.042 39.4787C275.053 39.3514 275.068 39.2247 275.085 39.0986C275.102 38.9723 275.123 38.8466 275.146 38.7216C275.169 38.5966 275.195 38.4724 275.224 38.3489C275.252 38.2254 275.284 38.1028 275.319 37.9812C275.353 37.8595 275.39 37.7389 275.43 37.6194C275.47 37.4999 275.513 37.3816 275.559 37.2645C275.604 37.1474 275.652 37.0317 275.703 36.9173C275.754 36.8029 275.807 36.69 275.863 36.5786C275.919 36.4672 275.978 36.3574 276.039 36.2493C276.1 36.1411 276.164 36.0346 276.23 35.93C276.296 35.8253 276.365 35.7225 276.436 35.6216C276.507 35.5207 276.58 35.4218 276.655 35.3249C276.731 35.228 276.809 35.1333 276.888 35.0406C276.968 34.9479 277.05 34.8575 277.135 34.7693C277.219 34.6811 277.305 34.5952 277.394 34.5116C277.482 34.4281 277.572 34.347 277.664 34.2683C277.756 34.1897 277.85 34.1135 277.946 34.0399C278.041 33.9663 278.139 33.8953 278.238 33.8269C278.337 33.7586 278.437 33.6929 278.54 33.6299C278.642 33.567 278.745 33.5068 278.85 33.4494C278.955 33.3919 279.062 33.3374 279.169 33.2857C279.277 33.234 279.386 33.1851 279.496 33.1392C279.607 33.0933 279.718 33.0504 279.83 33.0105C279.942 32.9705 280.055 32.9335 280.169 32.8995C280.283 32.8656 280.398 32.8347 280.514 32.8069C280.629 32.779 280.746 32.7542 280.863 32.7326C280.979 32.7109 281.097 32.6924 281.215 32.6769C281.333 32.6615 281.451 32.6492 281.57 32.64C281.688 32.6308 281.807 32.6247 281.926 32.6218C282.045 32.619 282.164 32.6192 282.284 32.6226C282.403 32.626 282.522 32.6325 282.641 32.6422C282.76 32.6519 282.879 32.6647 282.998 32.6806C283.117 32.6966 283.235 32.7156 283.353 32.7378C283.471 32.76 283.588 32.7852 283.705 32.8136C283.822 32.8419 283.939 32.8732 284.054 32.9077C284.17 32.9421 284.285 32.9796 284.399 33.02C284.513 33.0605 284.626 33.1039 284.739 33.1503C284.851 33.1966 284.963 33.2459 285.073 33.298C285.183 33.3502 285.292 33.4052 285.4 33.4631C285.508 33.521 285.614 33.5816 285.719 33.645C285.825 33.7084 285.928 33.7745 286.031 33.8433C286.133 33.9121 286.234 33.9835 286.333 34.0575C286.432 34.1315 286.53 34.208 286.626 34.2871C286.722 34.3662 286.816 34.4477 286.908 34.5316C287 34.6155 287.091 34.7018 287.179 34.7903C287.268 34.8789 287.354 34.9697 287.438 35.0627C287.523 35.1557 287.605 35.2508 287.686 35.348C287.766 35.4453 287.844 35.5445 287.919 35.6457C287.995 35.747 288.069 35.85 288.14 35.955C288.211 36.0599 288.28 36.1666 288.346 36.2751C288.412 36.3835 288.476 36.4936 288.538 36.6053C288.599 36.7168 288.658 36.8299 288.715 36.9445C288.771 37.0592 288.825 37.1751 288.876 37.2923C288.927 37.4097 288.975 37.5283 289.021 37.648C289.067 37.7677 289.11 37.8884 289.15 38.01C289.19 38.1319 289.228 38.2547 289.263 38.3784C289.297 38.502 289.329 38.6263 289.359 38.7513C289.388 38.8765 289.414 39.0023 289.437 39.1286C289.461 39.2549 289.481 39.3818 289.499 39.5091C289.517 39.6363 289.531 39.7638 289.543 39.8916C289.555 40.0195 289.564 40.1476 289.57 40.2759C289.576 40.4039 289.579 40.5319 289.579 40.6601C289.579 40.7883 289.577 40.9162 289.571 41.0439C289.565 41.1719 289.557 41.2994 289.545 41.4267C289.534 41.5539 289.519 41.6806 289.502 41.8067C289.485 41.933 289.464 42.0586 289.441 42.1836C289.418 42.3088 289.392 42.433 289.363 42.5564C289.334 42.6799 289.303 42.8026 289.268 42.9243C289.234 43.0459 289.196 43.1663 289.156 43.2858C289.117 43.4054 289.074 43.5238 289.028 43.6409C288.983 43.758 288.935 43.8738 288.884 43.9881C288.833 44.1024 288.78 44.2153 288.723 44.3266C288.667 44.4381 288.609 44.5479 288.548 44.656C288.486 44.7642 288.423 44.8707 288.357 44.9755C288.291 45.08 288.222 45.1828 288.151 45.2838C288.08 45.3845 288.007 45.4834 287.931 45.5803C287.856 45.6773 287.778 45.7721 287.698 45.8648C287.618 45.9574 287.536 46.0478 287.452 46.136C287.368 46.2243 287.282 46.3102 287.193 46.3936C287.105 46.4771 287.015 46.5583 286.923 46.637C286.831 46.7157 286.737 46.7919 286.641 46.8655C286.546 46.9391 286.448 47.0101 286.349 47.0784C286.25 47.1469 286.15 47.2125 286.047 47.2754C285.945 47.3385 285.842 47.3987 285.737 47.4561C285.631 47.5135 285.525 47.5681 285.417 47.6198C285.309 47.6714 285.201 47.7202 285.09 47.7662C284.98 47.8121 284.869 47.855 284.757 47.8948C284.645 47.9349 284.532 47.9719 284.417 48.0057C284.303 48.0397 284.189 48.0706 284.073 48.0984C283.957 48.1263 283.841 48.1511 283.724 48.1728ZM281.34 35.3059C281.262 35.3204 281.184 35.3369 281.107 35.3555C281.03 35.374 280.953 35.3946 280.877 35.4172C280.801 35.4399 280.726 35.4645 280.651 35.4912C280.576 35.5178 280.502 35.5464 280.429 35.577C280.355 35.6077 280.283 35.6402 280.211 35.6747C280.139 35.7092 280.068 35.7455 279.998 35.7838C279.928 35.8221 279.859 35.8622 279.791 35.9042C279.723 35.9461 279.656 35.9899 279.59 36.0355C279.523 36.0811 279.459 36.1284 279.395 36.1775C279.331 36.2266 279.268 36.2773 279.207 36.3297C279.146 36.3822 279.086 36.4363 279.027 36.492C278.968 36.5477 278.91 36.6049 278.854 36.6637C278.798 36.7226 278.743 36.7828 278.69 36.8446C278.637 36.9064 278.585 36.9696 278.535 37.0342C278.484 37.0988 278.435 37.1647 278.388 37.232C278.341 37.2992 278.295 37.3678 278.251 37.4376C278.207 37.5073 278.165 37.5782 278.124 37.6504C278.083 37.7225 278.044 37.7957 278.007 37.8699C277.969 37.9442 277.934 38.0195 277.9 38.0957C277.866 38.172 277.834 38.2492 277.803 38.3273C277.773 38.4052 277.745 38.484 277.718 38.5638C277.691 38.6435 277.666 38.7239 277.643 38.8051C277.62 38.8861 277.599 38.9678 277.58 39.0501C277.561 39.1324 277.544 39.2152 277.528 39.2986C277.513 39.382 277.499 39.4657 277.488 39.55C277.476 39.6342 277.467 39.7186 277.459 39.8032C277.451 39.888 277.445 39.9731 277.442 40.0583C277.438 40.1435 277.436 40.2289 277.436 40.3145C277.436 40.3999 277.438 40.4852 277.442 40.5705C277.446 40.6561 277.452 40.7415 277.46 40.8267C277.468 40.912 277.478 40.997 277.49 41.0818C277.501 41.1666 277.515 41.2511 277.531 41.3354C277.546 41.4197 277.564 41.5035 277.583 41.5868C277.603 41.6702 277.624 41.753 277.647 41.8355C277.67 41.9179 277.695 41.9998 277.722 42.0811C277.749 42.1622 277.778 42.2426 277.808 42.3224C277.839 42.4023 277.871 42.4814 277.905 42.5595C277.939 42.6378 277.975 42.7151 278.013 42.7915C278.05 42.8677 278.09 42.9431 278.13 43.0176C278.172 43.0921 278.214 43.1654 278.258 43.2378C278.303 43.3101 278.348 43.3812 278.396 43.4512C278.443 43.5211 278.492 43.5898 278.543 43.6572C278.593 43.7248 278.645 43.791 278.699 43.8559C278.752 43.9207 278.807 43.9841 278.863 44.046C278.92 44.108 278.977 44.1685 279.036 44.2275C279.095 44.2867 279.156 44.3441 279.217 44.3999C279.279 44.456 279.341 44.5103 279.405 44.563C279.469 44.6157 279.534 44.6668 279.6 44.7162C279.666 44.7654 279.734 44.813 279.802 44.8589C279.87 44.9048 279.939 44.9488 280.009 44.9911C280.079 45.0333 280.151 45.0737 280.223 45.1123C280.294 45.1509 280.367 45.1875 280.441 45.2222C280.514 45.2572 280.588 45.2902 280.663 45.3211C280.738 45.352 280.813 45.3809 280.89 45.4078C280.966 45.4348 281.042 45.4597 281.119 45.4827C281.197 45.5057 281.274 45.5266 281.352 45.5454C281.43 45.5642 281.508 45.5811 281.587 45.596C281.666 45.6107 281.745 45.6234 281.824 45.634C281.903 45.6446 281.982 45.6532 282.061 45.6598C282.141 45.6662 282.22 45.6705 282.3 45.6728C282.379 45.675 282.459 45.6751 282.538 45.6733C282.618 45.6712 282.697 45.6671 282.776 45.6611C282.855 45.6549 282.934 45.6467 283.013 45.6366C283.091 45.6263 283.169 45.6138 283.247 45.5994C283.325 45.5849 283.403 45.5685 283.48 45.55C283.557 45.5313 283.633 45.5106 283.709 45.4881C283.785 45.4654 283.861 45.4407 283.936 45.4142C284.011 45.3875 284.085 45.3589 284.158 45.3285C284.232 45.2978 284.304 45.2651 284.376 45.2305C284.448 45.1961 284.519 45.1598 284.589 45.1215C284.659 45.0833 284.728 45.0432 284.796 45.0013C284.864 44.9591 284.931 44.9153 284.997 44.8698C285.063 44.8243 285.128 44.777 285.192 44.7279C285.256 44.6788 285.318 44.6281 285.38 44.5757C285.441 44.5233 285.501 44.4692 285.56 44.4135C285.619 44.3578 285.676 44.3004 285.732 44.2415C285.789 44.1827 285.843 44.1224 285.897 44.0606C285.95 43.9988 286.002 43.9357 286.052 43.8711C286.103 43.8065 286.151 43.7406 286.199 43.6733C286.246 43.606 286.292 43.5375 286.336 43.4679C286.38 43.3981 286.422 43.3271 286.463 43.255C286.504 43.1829 286.543 43.1097 286.58 43.0353C286.617 42.9612 286.653 42.8859 286.687 42.8095C286.721 42.7334 286.753 42.6562 286.783 42.5781C286.814 42.5001 286.842 42.4213 286.869 42.3416C286.896 42.2619 286.921 42.1814 286.943 42.1002C286.966 42.0192 286.987 41.9376 287.007 41.8553C287.026 41.7729 287.043 41.6901 287.059 41.6067C287.074 41.5234 287.087 41.4396 287.099 41.3554C287.111 41.2711 287.12 41.1867 287.128 41.1021C287.136 41.0173 287.141 40.9323 287.145 40.8471C287.149 40.7619 287.151 40.6764 287.151 40.5908C287.151 40.5055 287.148 40.4201 287.145 40.3348C287.14 40.2493 287.134 40.1639 287.127 40.0786C287.119 39.9933 287.109 39.9083 287.097 39.8235C287.085 39.7388 287.072 39.6542 287.056 39.57C287.04 39.4857 287.023 39.4019 287.004 39.3185C286.984 39.2352 286.963 39.1523 286.94 39.0698C286.917 38.9874 286.892 38.9055 286.865 38.8242C286.838 38.7431 286.809 38.6627 286.779 38.583C286.748 38.503 286.716 38.424 286.682 38.3457C286.647 38.2676 286.612 38.1903 286.574 38.1138C286.536 38.0376 286.497 37.9622 286.456 37.8877C286.415 37.8133 286.373 37.7399 286.328 37.6676C286.284 37.5952 286.238 37.5241 286.191 37.4542C286.144 37.3842 286.095 37.3156 286.044 37.2481C285.994 37.1805 285.942 37.1143 285.888 37.0495C285.835 36.9846 285.78 36.9213 285.723 36.8594C285.667 36.7974 285.609 36.7368 285.55 36.6778C285.492 36.6188 285.431 36.5612 285.37 36.5053C285.308 36.4493 285.246 36.395 285.182 36.3423C285.118 36.2896 285.053 36.2386 284.987 36.1892C284.921 36.1399 284.853 36.0923 284.785 36.0464C284.717 36.0005 284.648 35.9565 284.577 35.9142C284.507 35.8719 284.436 35.8315 284.364 35.793C284.292 35.7544 284.22 35.7177 284.146 35.6829C284.073 35.6482 283.999 35.6153 283.924 35.5843C283.849 35.5534 283.773 35.5245 283.697 35.4976C283.621 35.4706 283.545 35.4456 283.467 35.4227C283.39 35.3997 283.313 35.3788 283.235 35.3599C283.157 35.341 283.078 35.3242 283 35.3094C282.921 35.2947 282.842 35.282 282.763 35.2713C282.684 35.2607 282.605 35.2521 282.525 35.2457C282.446 35.2392 282.367 35.2349 282.287 35.2326C282.207 35.2304 282.128 35.2302 282.049 35.2321C281.969 35.2341 281.89 35.2381 281.811 35.2442C281.732 35.2503 281.653 35.2585 281.574 35.2688C281.496 35.2791 281.418 35.2915 281.34 35.3059Z"   fill="#FFDD00" >
</path>
</svg>
