<svg xmlns="http://www.w3.org/2000/svg" xmlns:xlink="http://www.w3.org/1999/xlink" width="372.8760986328125" height="392.132080078125" viewBox="0 0 372.8760986328125 392.132080078125" fill="none">
<path d="M304.11 82.5457L310.032 83.8045L271.804 263.657L265.881 262.398L304.11 82.5457Z"   fill="#E4EBED" >
</path>
<path d="M302.99 140.235L275.986 267.275C275.967 267.358 275.944 267.44 275.917 267.52C275.891 267.601 275.861 267.68 275.827 267.758C275.794 267.837 275.758 267.913 275.718 267.987C275.679 268.062 275.636 268.135 275.59 268.206C275.545 268.276 275.496 268.344 275.445 268.411C275.394 268.477 275.34 268.541 275.283 268.602C275.227 268.663 275.167 268.721 275.106 268.777C275.045 268.832 274.981 268.885 274.916 268.934L202.336 320.17C202.267 320.218 202.197 320.263 202.124 320.303C202.052 320.344 201.978 320.381 201.902 320.414C201.826 320.446 201.749 320.475 201.671 320.5C201.593 320.525 201.514 320.545 201.434 320.561C201.354 320.577 201.274 320.59 201.193 320.597C201.113 320.605 201.032 320.608 200.951 320.607C200.871 320.607 200.79 320.601 200.71 320.592C200.63 320.582 200.551 320.568 200.473 320.55L71.6255 293.163L70.4572 317.705C70.4504 317.857 70.4467 318.009 70.446 318.162C70.4454 318.314 70.4479 318.467 70.4535 318.619C70.459 318.771 70.4675 318.923 70.4792 319.075C70.491 319.226 70.5057 319.377 70.5234 319.528C70.5413 319.678 70.5622 319.829 70.5862 319.978C70.6101 320.127 70.637 320.276 70.6668 320.424C70.6969 320.572 70.7299 320.719 70.7658 320.866C70.8018 321.012 70.8408 321.157 70.8828 321.301C70.9245 321.445 70.9693 321.588 71.0172 321.73C71.065 321.872 71.1156 322.013 71.1691 322.153C71.2226 322.292 71.279 322.43 71.338 322.567C71.3973 322.703 71.4593 322.838 71.524 322.972C71.5887 323.105 71.6561 323.237 71.7262 323.367C71.7963 323.497 71.8691 323.626 71.9445 323.752C72.0201 323.879 72.0982 324.004 72.1788 324.127C72.2594 324.249 72.3425 324.37 72.428 324.489C72.5135 324.608 72.6016 324.724 72.6922 324.839C72.7826 324.954 72.8753 325.066 72.9703 325.176C73.0654 325.286 73.1628 325.394 73.2626 325.499C73.3621 325.604 73.4638 325.707 73.5677 325.807C73.6716 325.908 73.7776 326.006 73.8856 326.101C73.9937 326.197 74.1037 326.289 74.2155 326.38C74.3274 326.47 74.4412 326.557 74.5569 326.642C74.6723 326.727 74.7897 326.808 74.9088 326.887C75.028 326.967 75.1487 327.043 75.2709 327.116C75.3933 327.19 75.5172 327.26 75.6426 327.328C75.7679 327.395 75.8946 327.46 76.0226 327.521C76.1509 327.583 76.2803 327.641 76.4109 327.697C76.5417 327.752 76.6736 327.804 76.8065 327.854C76.9395 327.903 77.0735 327.949 77.2086 327.992C77.3435 328.035 77.4794 328.074 77.6163 328.111C77.7532 328.147 77.8907 328.181 78.029 328.211C78.5946 328.329 79.167 328.393 79.7463 328.402L285.26 331.629C285.42 331.632 285.58 331.631 285.741 331.626C285.901 331.62 286.062 331.611 286.222 331.597C286.382 331.583 286.542 331.565 286.702 331.543C286.862 331.521 287.021 331.494 287.18 331.464C287.338 331.433 287.496 331.399 287.654 331.36C287.811 331.321 287.968 331.278 288.123 331.231C288.279 331.185 288.434 331.133 288.587 331.078C288.741 331.023 288.893 330.965 289.045 330.902C289.196 330.839 289.346 330.772 289.494 330.701C289.642 330.631 289.789 330.556 289.934 330.478C290.079 330.4 290.223 330.318 290.364 330.232C290.506 330.146 290.646 330.057 290.783 329.964C290.921 329.871 291.057 329.775 291.191 329.675C291.324 329.575 291.455 329.472 291.584 329.365C291.714 329.258 291.84 329.148 291.965 329.035C292.089 328.922 292.211 328.806 292.33 328.687C292.449 328.567 292.565 328.445 292.679 328.32C292.793 328.194 292.904 328.066 293.012 327.935C293.12 327.805 293.225 327.671 293.327 327.535C293.429 327.398 293.528 327.26 293.624 327.118C293.72 326.977 293.813 326.834 293.902 326.688C293.992 326.542 294.078 326.394 294.161 326.244C294.244 326.094 294.324 325.941 294.4 325.787C294.476 325.633 294.549 325.477 294.618 325.32C294.687 325.162 294.752 325.003 294.814 324.842C294.876 324.68 294.934 324.518 294.989 324.355C295.044 324.191 295.094 324.026 295.142 323.86C295.189 323.694 295.232 323.527 295.272 323.359C295.312 323.19 295.347 323.021 295.379 322.852C295.411 322.682 295.439 322.512 295.463 322.34C295.488 322.169 295.508 321.998 295.524 321.826C295.541 321.654 295.554 321.482 295.562 321.31L304.187 140.369L302.99 140.235Z"   fill="#40BDFF" >
</path>
<path d="M204.741 312.294L267.372 268.08L216.44 257.254L204.741 312.294Z"   fill="#EFFAFE" >
</path>
<path d="M295.562 321.31L304.187 140.369L302.978 140.233L296.821 169.199L289.63 320.036C289.622 320.208 289.609 320.38 289.593 320.552C289.576 320.724 289.556 320.895 289.532 321.066C289.508 321.238 289.48 321.408 289.448 321.578C289.416 321.747 289.38 321.917 289.34 322.085C289.3 322.253 289.257 322.42 289.21 322.586C289.163 322.752 289.112 322.917 289.057 323.081C289.003 323.244 288.944 323.407 288.883 323.568C288.82 323.729 288.755 323.888 288.686 324.046C288.617 324.203 288.544 324.359 288.468 324.513C288.392 324.667 288.312 324.82 288.229 324.97C288.147 325.12 288.06 325.268 287.971 325.414C287.881 325.56 287.789 325.703 287.693 325.845C287.597 325.986 287.498 326.125 287.395 326.261C287.293 326.397 287.188 326.531 287.08 326.662C286.972 326.792 286.861 326.92 286.747 327.046C286.634 327.171 286.517 327.293 286.398 327.413C286.279 327.532 286.157 327.648 286.033 327.761C285.909 327.874 285.782 327.984 285.653 328.091C285.524 328.198 285.392 328.301 285.259 328.401C285.125 328.501 284.989 328.597 284.852 328.69C284.714 328.783 284.574 328.872 284.433 328.958C284.291 329.044 284.148 329.126 284.003 329.204C283.857 329.282 283.711 329.357 283.562 329.427C283.414 329.498 283.264 329.565 283.113 329.628C282.962 329.691 282.809 329.75 282.656 329.805C282.502 329.86 282.347 329.911 282.192 329.957C282.036 330.004 281.88 330.047 281.722 330.086C281.565 330.125 281.407 330.159 281.248 330.19C281.089 330.22 280.93 330.247 280.77 330.269C280.611 330.291 280.451 330.309 280.291 330.323C280.13 330.337 279.97 330.346 279.809 330.352C279.649 330.357 279.489 330.358 279.328 330.355L75.3724 327.138C75.7881 327.381 76.2193 327.589 76.6659 327.762C77.1124 327.936 77.5695 328.072 78.037 328.172C78.6026 328.291 79.1751 328.354 79.7544 328.364L285.26 331.629C285.42 331.632 285.58 331.631 285.741 331.626C285.901 331.621 286.062 331.611 286.222 331.597C286.382 331.583 286.542 331.565 286.702 331.543C286.862 331.521 287.021 331.495 287.179 331.464C287.338 331.434 287.496 331.399 287.654 331.36C287.811 331.321 287.968 331.278 288.123 331.232C288.279 331.185 288.434 331.134 288.587 331.079C288.741 331.024 288.893 330.965 289.044 330.902C289.196 330.839 289.345 330.772 289.494 330.701C289.642 330.631 289.789 330.556 289.934 330.478C290.079 330.4 290.222 330.318 290.364 330.232C290.506 330.146 290.646 330.057 290.783 329.964C290.921 329.871 291.057 329.775 291.19 329.675C291.324 329.575 291.455 329.472 291.584 329.365C291.713 329.258 291.84 329.149 291.964 329.036C292.089 328.922 292.21 328.806 292.33 328.687C292.449 328.568 292.565 328.445 292.679 328.32C292.793 328.195 292.904 328.067 293.012 327.936C293.12 327.805 293.225 327.671 293.327 327.535C293.429 327.399 293.528 327.26 293.624 327.119C293.72 326.978 293.813 326.834 293.902 326.688C293.992 326.542 294.078 326.394 294.161 326.244C294.244 326.094 294.323 325.942 294.4 325.788C294.476 325.633 294.548 325.477 294.617 325.32C294.687 325.162 294.752 325.003 294.814 324.842C294.876 324.681 294.934 324.519 294.989 324.355C295.043 324.191 295.094 324.026 295.142 323.86C295.189 323.694 295.232 323.527 295.272 323.359C295.311 323.191 295.347 323.022 295.379 322.852C295.411 322.682 295.439 322.512 295.463 322.341C295.488 322.17 295.508 321.998 295.524 321.826C295.541 321.654 295.554 321.483 295.562 321.31Z"   fill="#2197F7" >
</path>
<path d="M261.45 266.821L206.101 305.894L204.741 312.294L267.372 268.08L261.45 266.821Z"   fill="#E4EBED" >
</path>
<path d="M33.2827 301.185L52.412 305.251L51.2149 330.161C51.2036 330.4 51.1969 330.638 51.1952 330.876C51.1934 331.114 51.1964 331.352 51.2043 331.59C51.2122 331.828 51.2253 332.065 51.2427 332.302C51.2602 332.539 51.2827 332.775 51.31 333.01C51.337 333.246 51.3692 333.48 51.4059 333.714C51.4425 333.948 51.4841 334.18 51.5306 334.412C51.577 334.643 51.6278 334.873 51.6835 335.102C51.7392 335.33 51.7995 335.558 51.8646 335.783C51.9296 336.009 51.9993 336.232 52.0735 336.454C52.1479 336.676 52.2265 336.896 52.3099 337.114C52.3932 337.332 52.4808 337.548 52.5728 337.761C52.6651 337.975 52.7617 338.186 52.8625 338.395C52.9632 338.604 53.0685 338.81 53.1779 339.013C53.2872 339.217 53.4008 339.418 53.5184 339.616C53.6363 339.814 53.758 340.009 53.8838 340.201C54.0094 340.393 54.1392 340.582 54.273 340.767C54.4066 340.953 54.5439 341.135 54.6851 341.314C54.8262 341.493 54.9713 341.669 55.1201 341.841C55.2686 342.013 55.4207 342.181 55.5764 342.345C55.732 342.51 55.891 342.671 56.0533 342.828C56.2158 342.985 56.3814 343.138 56.55 343.286C56.7189 343.435 56.8908 343.58 57.0657 343.721C57.2407 343.862 57.4184 343.999 57.5993 344.131C57.7801 344.263 57.9634 344.391 58.1497 344.514C58.3358 344.638 58.5244 344.757 58.7158 344.871C58.9072 344.985 59.1008 345.095 59.2966 345.2C59.4928 345.306 59.6908 345.406 59.8912 345.502C60.0914 345.598 60.294 345.689 60.4982 345.775C60.7027 345.861 60.9089 345.943 61.1168 346.019C61.3246 346.095 61.534 346.167 61.7453 346.233C61.9564 346.3 62.1689 346.362 62.3829 346.418C62.5968 346.475 62.8118 346.526 63.0282 346.572C63.907 346.761 64.7966 346.865 65.6976 346.885L277.124 351.356C277.374 351.361 277.624 351.36 277.874 351.351C278.123 351.343 278.373 351.328 278.623 351.307C278.873 351.286 279.122 351.258 279.37 351.223C279.619 351.189 279.867 351.148 280.115 351.101C280.362 351.053 280.608 350.999 280.853 350.939C281.098 350.879 281.342 350.812 281.585 350.74C281.827 350.667 282.068 350.587 282.307 350.501C282.547 350.416 282.784 350.324 283.019 350.226C283.255 350.129 283.488 350.025 283.719 349.915C283.95 349.804 284.179 349.689 284.405 349.567C284.631 349.445 284.854 349.317 285.075 349.184C285.296 349.051 285.513 348.912 285.728 348.767C285.942 348.622 286.154 348.472 286.362 348.316C286.57 348.161 286.774 348 286.976 347.834C287.177 347.668 287.374 347.497 287.568 347.32C287.761 347.144 287.951 346.963 288.136 346.777C288.322 346.592 288.503 346.401 288.68 346.206C288.857 346.011 289.03 345.812 289.198 345.608C289.367 345.404 289.53 345.196 289.69 344.983C289.849 344.771 290.003 344.555 290.152 344.335C290.302 344.115 290.446 343.891 290.586 343.664C290.725 343.437 290.859 343.207 290.988 342.973C291.118 342.739 291.241 342.502 291.36 342.261C291.478 342.021 291.591 341.779 291.699 341.533C291.807 341.287 291.909 341.039 292.005 340.788C292.101 340.538 292.192 340.285 292.277 340.03C292.362 339.775 292.441 339.518 292.514 339.259C292.588 339 292.655 338.74 292.717 338.478C292.779 338.216 292.834 337.953 292.884 337.688C292.934 337.424 292.977 337.159 293.015 336.892C293.052 336.626 293.084 336.359 293.109 336.091C293.135 335.824 293.154 335.556 293.167 335.288L303.55 117.422L308.052 96.238C308.064 96.1856 308.074 96.133 308.082 96.0802C308.091 96.0274 308.099 95.9745 308.105 95.9213C308.111 95.8682 308.116 95.815 308.12 95.7617C308.124 95.7084 308.127 95.655 308.128 95.6016C308.13 95.5483 308.13 95.4949 308.129 95.4416C308.128 95.3884 308.126 95.3351 308.122 95.282C308.119 95.2289 308.114 95.1759 308.108 95.1231C308.103 95.0704 308.096 95.0179 308.087 94.9655C308.079 94.9132 308.07 94.8612 308.059 94.8094C308.048 94.7577 308.036 94.7062 308.023 94.6552C308.01 94.6042 307.996 94.5535 307.981 94.5033C307.965 94.4531 307.949 94.4034 307.931 94.3541C307.914 94.3048 307.895 94.2561 307.875 94.2079C307.855 94.1597 307.834 94.1121 307.812 94.0651C307.79 94.0181 307.766 93.9717 307.742 93.9259C307.718 93.8803 307.693 93.8352 307.666 93.7909C307.64 93.7466 307.612 93.703 307.584 93.6603C307.556 93.6175 307.526 93.5755 307.496 93.5343C307.465 93.4931 307.434 93.4527 307.402 93.4133C307.369 93.3738 307.336 93.3352 307.302 93.2976C307.268 93.2599 307.233 93.2232 307.197 93.1874C307.161 93.1517 307.124 93.1169 307.087 93.0832C307.049 93.0494 307.011 93.0166 306.972 92.985C306.933 92.9532 306.893 92.9226 306.853 92.8931C306.812 92.8635 306.771 92.835 306.729 92.8077C306.687 92.7804 306.645 92.7542 306.602 92.7291C306.559 92.704 306.515 92.6802 306.471 92.6574C306.426 92.6347 306.382 92.6132 306.336 92.5929C306.291 92.5725 306.245 92.5535 306.198 92.5356C306.152 92.5177 306.106 92.5011 306.058 92.4857C306.011 92.4703 305.964 92.4562 305.916 92.4433C305.868 92.4305 305.82 92.4189 305.771 92.4086L134.473 55.9979C134.488 55.7132 134.498 55.4283 134.501 55.1436C134.505 54.8587 134.503 54.5742 134.495 54.2898C134.487 54.0055 134.473 53.7217 134.454 53.4384C134.434 53.1551 134.409 52.8726 134.378 52.5909C134.347 52.3092 134.31 52.0286 134.268 51.749C134.225 51.4694 134.177 51.1912 134.123 50.9142C134.068 50.6373 134.009 50.362 133.943 50.0883C133.878 49.8146 133.807 49.5426 133.73 49.2726C133.654 49.0026 133.572 48.7348 133.484 48.469C133.396 48.2033 133.303 47.9398 133.205 47.6788C133.106 47.4178 133.002 47.1595 132.893 46.9037C132.784 46.6479 132.669 46.395 132.549 46.1449C132.429 45.8948 132.304 45.648 132.175 45.4042C132.045 45.1604 131.91 44.9199 131.77 44.6828C131.63 44.4457 131.485 44.2122 131.335 43.9822C131.185 43.7522 131.03 43.5261 130.871 43.3037C130.712 43.0813 130.548 42.863 130.38 42.6486C130.212 42.4343 130.039 42.2242 129.862 42.0182C129.684 41.8123 129.503 41.6107 129.317 41.4136C129.131 41.2165 128.941 41.024 128.748 40.8361C128.554 40.6482 128.356 40.4651 128.154 40.2867C127.953 40.1085 127.748 39.935 127.539 39.7666C127.33 39.5981 127.117 39.4349 126.901 39.2767C126.685 39.1184 126.466 38.9655 126.244 38.8179C126.021 38.6702 125.796 38.5279 125.567 38.3911C125.338 38.2542 125.107 38.1229 124.873 37.9972C124.638 37.8714 124.402 37.7513 124.162 37.6368C123.922 37.5224 123.68 37.4137 123.436 37.3108C123.192 37.2079 122.945 37.1109 122.697 37.0197C122.448 36.9286 122.197 36.8434 121.945 36.7642C121.693 36.6849 121.439 36.6117 121.183 36.5445C120.927 36.4773 120.67 36.4163 120.411 36.3613C120.153 36.3064 119.893 36.2575 119.632 36.2148C119.371 36.1721 119.109 36.1357 118.846 36.1054C118.583 36.0751 118.32 36.051 118.055 36.0332C117.791 36.0153 117.526 36.0037 117.261 35.9984C116.996 35.993 116.731 35.9939 116.466 36.001C116.2 36.0081 115.935 36.0214 115.67 36.041C115.405 36.0607 115.14 36.0865 114.875 36.1185C114.611 36.1505 114.347 36.1887 114.083 36.2331C113.82 36.2775 113.558 36.3281 113.296 36.3847C113.034 36.4415 112.774 36.5043 112.515 36.5732C112.255 36.642 111.997 36.7169 111.74 36.7978C111.484 36.8788 111.229 36.9656 110.975 37.0585C110.722 37.1513 110.47 37.2499 110.22 37.3545C109.97 37.459 109.722 37.5692 109.477 37.6853C109.231 37.8013 108.988 37.923 108.747 38.0503C108.506 38.1777 108.267 38.3106 108.032 38.449C107.796 38.5874 107.562 38.7311 107.332 38.8803C107.102 39.0294 106.874 39.1838 106.65 39.3435C106.426 39.5031 106.204 39.6679 105.986 39.8377C105.768 40.0075 105.554 40.1823 105.343 40.3621C105.132 40.5417 104.924 40.7262 104.72 40.9154C104.516 41.1046 104.316 41.2984 104.12 41.4968C103.924 41.6951 103.732 41.8979 103.544 42.105C103.356 42.3122 103.172 42.5235 102.992 42.739C102.812 42.9545 102.636 43.1739 102.465 43.3974C102.294 43.6209 102.128 43.8481 101.966 44.0791C101.804 44.3101 101.647 44.5446 101.494 44.7827C101.341 45.0208 101.193 45.2622 101.05 45.5069C100.907 45.7516 100.769 45.9994 100.636 46.2502C100.503 46.5011 100.375 46.7548 100.253 47.0113C100.13 47.2679 100.012 47.527 99.8994 47.7887C99.7871 48.0504 99.6799 48.3145 99.5781 48.5809L87.5202 46.0179C87.2765 45.9663 87.0316 45.9212 86.7854 45.8826C86.5394 45.844 86.2925 45.8119 86.0445 45.7864C85.7965 45.7608 85.548 45.7418 85.2988 45.7294C85.0496 45.717 84.8 45.7112 84.5502 45.7119C84.3003 45.7126 84.0504 45.72 83.8006 45.7338C83.5507 45.7477 83.301 45.7682 83.0516 45.7951C82.8023 45.8221 82.5535 45.8557 82.3053 45.8957C82.0571 45.9358 81.8097 45.9823 81.5633 46.0353C81.3168 46.0883 81.0715 46.1478 80.8274 46.2136C80.5832 46.2794 80.3406 46.3516 80.0994 46.4301C79.8581 46.5086 79.6187 46.5934 79.381 46.6844C79.1433 46.7754 78.9076 46.8725 78.674 46.9757C78.4404 47.079 78.2091 47.1883 77.9801 47.3035C77.7511 47.4188 77.5247 47.5399 77.3008 47.6669C77.077 47.7939 76.8561 47.9267 76.638 48.0651C76.42 48.2035 76.205 48.3475 75.9932 48.4971C75.7814 48.6466 75.5729 48.8015 75.3678 48.9618C75.1628 49.1221 74.9613 49.2875 74.7635 49.4582C74.5657 49.6288 74.3717 49.8043 74.1816 49.9848C73.9916 50.1654 73.8056 50.3507 73.6237 50.5408C73.4418 50.7309 73.2641 50.9256 73.0908 51.1249C72.9176 51.324 72.7488 51.5274 72.5846 51.7351C72.4203 51.9427 72.2608 52.1545 72.1059 52.3705C71.9511 52.5862 71.8012 52.8057 71.6562 53.0291C71.5112 53.2524 71.3713 53.4793 71.2364 53.7098C71.1016 53.94 70.972 54.1735 70.8476 54.4104C70.7232 54.6473 70.6042 54.8871 70.4906 55.1299C70.3771 55.3724 70.269 55.6178 70.1664 55.866C70.0639 56.114 69.967 56.3643 69.8758 56.617C69.7845 56.8698 69.699 57.1247 69.6193 57.3815C69.5396 57.6384 69.4657 57.897 69.3977 58.1572C69.3297 58.4176 69.2676 58.6795 69.2114 58.9426L21.8138 281.931C21.758 282.194 21.7083 282.459 21.6645 282.724C21.6207 282.99 21.583 283.256 21.5515 283.523C21.5198 283.79 21.4943 284.058 21.4748 284.326C21.4553 284.594 21.442 284.862 21.4349 285.13C21.4276 285.399 21.4265 285.667 21.4316 285.935C21.4366 286.203 21.4478 286.47 21.4651 286.737C21.4824 287.004 21.5058 287.27 21.5353 287.535C21.5648 287.8 21.6004 288.065 21.642 288.328C21.6836 288.591 21.7313 288.852 21.7849 289.112C21.8385 289.373 21.8982 289.631 21.9638 289.887C22.0293 290.144 22.1007 290.398 22.1781 290.651C22.2553 290.903 22.3384 291.153 22.4273 291.401C22.5161 291.649 22.6106 291.894 22.7109 292.136C22.8111 292.378 22.9169 292.617 23.0282 292.854C23.1395 293.09 23.2563 293.323 23.3784 293.553C23.5005 293.783 23.628 294.009 23.7606 294.232C23.8933 294.455 24.0311 294.674 24.1741 294.889C24.3169 295.104 24.4648 295.315 24.6176 295.522C24.7704 295.729 24.928 295.932 25.0903 296.13C25.2526 296.329 25.4195 296.523 25.5909 296.712C25.7623 296.902 25.9381 297.086 26.1183 297.266C26.2984 297.446 26.4827 297.62 26.6712 297.79C26.8596 297.96 27.0519 298.125 27.2481 298.284C27.4444 298.443 27.6443 298.598 27.8479 298.746C28.0514 298.895 28.2585 299.038 28.469 299.176C28.6794 299.313 28.8931 299.445 29.1099 299.571C29.3267 299.697 29.5465 299.817 29.7692 299.932C29.9918 300.046 30.217 300.155 30.445 300.257C30.6729 300.359 30.9033 300.455 31.136 300.545C31.3687 300.635 31.6035 300.719 31.8405 300.796C32.0773 300.874 32.316 300.945 32.5564 301.01C32.797 301.075 33.0391 301.133 33.2827 301.185ZM267.351 283.297C267.432 283.237 267.511 283.172 267.586 283.104C267.662 283.036 267.735 282.964 267.804 282.888C267.874 282.813 267.941 282.734 268.004 282.653C268.067 282.571 268.127 282.487 268.183 282.399C268.239 282.312 268.291 282.222 268.34 282.129C268.388 282.037 268.432 281.943 268.473 281.846C268.514 281.75 268.55 281.652 268.582 281.552C268.614 281.452 268.642 281.351 268.665 281.249L295.668 154.209L287.032 335.147C287.024 335.309 287.012 335.471 286.997 335.632C286.982 335.793 286.963 335.954 286.94 336.115C286.918 336.275 286.891 336.435 286.861 336.594C286.832 336.754 286.798 336.912 286.761 337.07C286.724 337.228 286.683 337.385 286.639 337.541C286.595 337.697 286.547 337.852 286.496 338.005C286.445 338.159 286.39 338.312 286.332 338.463C286.274 338.614 286.212 338.763 286.147 338.911C286.083 339.059 286.014 339.205 285.943 339.35C285.872 339.495 285.797 339.638 285.719 339.779C285.641 339.92 285.56 340.059 285.476 340.196C285.392 340.333 285.305 340.467 285.215 340.6C285.125 340.733 285.032 340.863 284.936 340.99C284.84 341.118 284.741 341.244 284.64 341.367C284.539 341.49 284.435 341.61 284.328 341.727C284.221 341.845 284.111 341.959 283.999 342.071C283.887 342.183 283.773 342.292 283.657 342.398C283.54 342.505 283.421 342.608 283.3 342.708C283.179 342.808 283.055 342.905 282.93 342.998C282.804 343.092 282.677 343.182 282.548 343.269C282.418 343.357 282.287 343.44 282.154 343.52C282.021 343.601 281.886 343.678 281.75 343.751C281.614 343.824 281.476 343.894 281.336 343.96C281.197 344.026 281.057 344.089 280.915 344.148C280.773 344.206 280.63 344.262 280.485 344.313C280.341 344.365 280.196 344.412 280.05 344.456C279.904 344.5 279.757 344.54 279.609 344.576C279.461 344.612 279.313 344.645 279.164 344.673C279.015 344.701 278.865 344.726 278.715 344.746C278.565 344.767 278.415 344.784 278.265 344.796C278.114 344.809 277.963 344.817 277.813 344.822C277.662 344.827 277.512 344.828 277.361 344.825L66.0084 340.356C65.858 340.353 65.7079 340.346 65.558 340.335C65.4084 340.323 65.259 340.308 65.1101 340.29C64.9613 340.271 64.8129 340.248 64.6655 340.221C64.5176 340.194 64.3706 340.163 64.2249 340.128C64.079 340.094 63.934 340.056 63.79 340.013C63.6459 339.971 63.5031 339.925 63.3615 339.875C63.2198 339.825 63.0795 339.771 62.9404 339.714C62.8016 339.656 62.6641 339.595 62.5281 339.53C62.3921 339.466 62.2578 339.397 62.1251 339.325C61.9924 339.254 61.8618 339.178 61.7328 339.099C61.6038 339.02 61.4768 338.938 61.3517 338.852C61.2267 338.766 61.1038 338.677 60.983 338.585C60.8624 338.492 60.7438 338.397 60.6277 338.298C60.5116 338.199 60.3976 338.097 60.2863 337.992C60.1751 337.887 60.0663 337.779 59.9599 337.668C59.8537 337.557 59.7501 337.444 59.6492 337.327C59.5483 337.211 59.4502 337.091 59.3551 336.97C59.2599 336.848 59.1675 336.724 59.0781 336.597C58.9884 336.47 58.902 336.34 58.8189 336.209C58.7354 336.077 58.6553 335.943 58.578 335.807C58.5008 335.671 58.4271 335.533 58.3564 335.392C58.2856 335.252 58.2183 335.11 58.1542 334.966C58.0901 334.822 58.0295 334.676 57.972 334.529C57.9145 334.382 57.8607 334.232 57.8104 334.082C57.7598 333.931 57.7128 333.78 57.6695 333.627C57.6262 333.474 57.5864 333.319 57.5501 333.163C57.5138 333.008 57.4811 332.851 57.4521 332.694C57.4231 332.536 57.3976 332.378 57.3757 332.219C57.3541 332.06 57.3361 331.9 57.3216 331.74C57.307 331.58 57.296 331.419 57.2891 331.258C57.2822 331.097 57.2787 330.935 57.279 330.774C57.2793 330.612 57.2834 330.45 57.2911 330.289L58.4291 306.53L192.512 335.03C192.608 335.051 192.706 335.066 192.805 335.077C192.904 335.087 193.003 335.092 193.103 335.092C193.202 335.092 193.302 335.086 193.401 335.076C193.5 335.065 193.599 335.05 193.697 335.029C193.795 335.008 193.893 334.982 193.989 334.951C194.085 334.919 194.179 334.884 194.273 334.843C194.366 334.802 194.457 334.756 194.546 334.706C194.635 334.656 194.722 334.601 194.807 334.542L267.351 283.297ZM197.766 324.695L209.003 271.831L257.922 282.229L197.766 324.695ZM119.052 42.7534C119.214 42.7889 119.375 42.828 119.535 42.8706C119.695 42.9132 119.854 42.9594 120.012 43.0091C120.17 43.0588 120.327 43.112 120.482 43.1686C120.638 43.2253 120.793 43.2854 120.946 43.349C121.099 43.4126 121.251 43.4795 121.401 43.5498C121.552 43.6201 121.701 43.6938 121.848 43.7708C121.996 43.8477 122.142 43.928 122.286 44.0115C122.43 44.095 122.573 44.1817 122.713 44.2716C122.854 44.3615 122.993 44.4545 123.13 44.5506C123.267 44.6468 123.402 44.7459 123.535 44.8481C123.668 44.9503 123.799 45.0555 123.928 45.1636C124.057 45.2717 124.183 45.3826 124.308 45.4965C124.432 45.6103 124.554 45.7269 124.674 45.8462C124.794 45.9656 124.912 46.0876 125.026 46.2123C125.141 46.337 125.254 46.4642 125.364 46.594C125.474 46.7238 125.581 46.8561 125.686 46.9908C125.791 47.1254 125.893 47.2625 125.992 47.4019C126.092 47.5412 126.189 47.6829 126.282 47.8267C126.376 47.9705 126.467 48.1164 126.556 48.2644C126.644 48.4124 126.729 48.5624 126.812 48.7144C126.894 48.8663 126.973 49.0201 127.05 49.1758C127.126 49.3315 127.199 49.4888 127.27 49.6479C127.34 49.807 127.407 49.9677 127.471 50.1299C127.535 50.2922 127.596 50.4559 127.654 50.621C127.711 50.7861 127.766 50.9526 127.817 51.1204C127.869 51.2882 127.917 51.4571 127.961 51.6272C128.006 51.7972 128.047 51.9684 128.086 52.1406C128.124 52.3127 128.159 52.4857 128.19 52.6596C128.222 52.8335 128.25 53.0081 128.275 53.1835C128.3 53.3589 128.321 53.5349 128.339 53.7114C128.357 53.8879 128.372 54.0648 128.383 54.2423C128.394 54.4197 128.402 54.5974 128.406 54.7754L105.605 49.9289C105.682 49.768 105.761 49.6087 105.844 49.4511C105.926 49.2935 106.012 49.1376 106.1 48.9836C106.188 48.8295 106.28 48.6774 106.374 48.5272C106.468 48.377 106.565 48.2288 106.664 48.0827C106.764 47.9365 106.866 47.7925 106.971 47.6507C107.076 47.5089 107.184 47.3693 107.294 47.232C107.404 47.0948 107.517 46.96 107.632 46.8275C107.747 46.695 107.865 46.565 107.985 46.4376C108.105 46.3101 108.227 46.1852 108.352 46.063C108.477 45.9408 108.603 45.8213 108.733 45.7045C108.862 45.5877 108.993 45.4737 109.126 45.3625C109.259 45.2513 109.394 45.143 109.531 45.0377C109.669 44.9324 109.808 44.83 109.949 44.7306C110.089 44.6313 110.232 44.535 110.377 44.4418C110.521 44.3487 110.667 44.2586 110.815 44.1717C110.962 44.0848 111.112 44.0012 111.262 43.9209C111.413 43.8404 111.565 43.7633 111.719 43.6895C111.872 43.6157 112.027 43.5453 112.183 43.4782C112.339 43.4111 112.496 43.3475 112.654 43.2872C112.812 43.2269 112.971 43.1702 113.131 43.1169C113.291 43.0636 113.452 43.0138 113.614 42.9675C113.776 42.9212 113.938 42.8785 114.102 42.8394C114.265 42.8002 114.429 42.7646 114.593 42.7326C114.758 42.7006 114.922 42.6723 115.088 42.6475C115.253 42.6227 115.419 42.6016 115.584 42.5841C115.75 42.5666 115.916 42.5527 116.082 42.5425C116.249 42.5323 116.415 42.5258 116.581 42.5229C116.747 42.52 116.913 42.5208 117.079 42.5252C117.245 42.5296 117.411 42.5377 117.576 42.5495C117.742 42.5613 117.907 42.5766 118.071 42.5957C118.236 42.6147 118.4 42.6374 118.564 42.6637C118.727 42.69 118.89 42.7199 119.052 42.7534ZM75.1392 60.1759C75.1743 60.0186 75.2128 59.8622 75.2549 59.7069C75.297 59.5513 75.3425 59.3968 75.3915 59.2436C75.4405 59.0904 75.4929 58.9383 75.5488 58.7874C75.6047 58.6365 75.6639 58.4871 75.7264 58.3392C75.789 58.1912 75.8548 58.0449 75.9238 57.9002C75.9929 57.7554 76.0652 57.6125 76.1407 57.4713C76.2161 57.3302 76.2947 57.1909 76.3764 57.0535C76.4581 56.9164 76.5427 56.7812 76.6304 56.648C76.7181 56.515 76.8087 56.3843 76.9021 56.2559C76.9956 56.1273 77.0919 56.0011 77.1909 55.8775C77.29 55.7538 77.3917 55.6328 77.4961 55.5142C77.6005 55.3957 77.7075 55.2799 77.817 55.1667C77.9265 55.0535 78.0384 54.9433 78.1527 54.836C78.267 54.7286 78.3837 54.624 78.5026 54.5225C78.6215 54.4211 78.7425 54.3227 78.8657 54.2274C78.9889 54.1321 79.1141 54.0399 79.2412 53.951C79.3684 53.8621 79.4974 53.7765 79.6283 53.6941C79.7591 53.612 79.8917 53.5332 80.0259 53.4576C80.1602 53.3822 80.2959 53.3103 80.4332 53.2418C80.5705 53.1733 80.7092 53.1085 80.8492 53.0473C80.9893 52.9858 81.1305 52.9281 81.2729 52.8741C81.4153 52.8201 81.5588 52.7698 81.7033 52.7231C81.8478 52.6767 81.9932 52.6339 82.1394 52.5947C82.2856 52.5558 82.4325 52.5206 82.5801 52.4891C82.7277 52.4578 82.8758 52.4303 83.0244 52.4066C83.173 52.3829 83.322 52.363 83.4713 52.3471C83.6206 52.3311 83.77 52.319 83.9196 52.3109C84.0692 52.3028 84.2188 52.2986 84.3683 52.2983C84.5179 52.2979 84.6673 52.3016 84.8165 52.3092C84.9656 52.3166 85.1143 52.3281 85.2629 52.3436C85.4113 52.3588 85.5591 52.378 85.7063 52.401C85.8536 52.4241 86.0003 52.4511 86.1462 52.4818L97.991 54.9995L91.9048 83.6329C91.8127 83.9562 91.7285 84.2814 91.6522 84.6087C91.5757 84.9363 91.5071 85.2652 91.4461 85.5957C91.3853 85.9266 91.3324 86.2582 91.2874 86.5911C91.2424 86.9243 91.2053 87.2583 91.1761 87.5925C91.147 87.9272 91.126 88.2618 91.113 88.5969C91.0997 88.9322 91.0946 89.2672 91.0978 89.602C91.1006 89.9371 91.1115 90.2712 91.1304 90.6046C91.1494 90.9384 91.1763 91.2713 91.2113 91.6028C91.2462 91.9346 91.2891 92.2648 91.34 92.5934C91.3907 92.9226 91.4494 93.2494 91.5162 93.5743C91.5826 93.8995 91.657 94.222 91.7391 94.5421C91.8214 94.8626 91.9113 95.1804 92.0088 95.4952C92.1063 95.8102 92.2113 96.1221 92.3237 96.4307C92.4364 96.7392 92.5563 97.0443 92.6839 97.3457C92.8113 97.6474 92.9459 97.9449 93.0878 98.2383C93.2296 98.532 93.3785 98.8215 93.5347 99.1062C93.6904 99.3911 93.8534 99.6713 94.023 99.9465C94.1926 100.222 94.369 100.493 94.5519 100.758C94.7347 101.023 94.924 101.283 95.1197 101.537C95.3154 101.792 95.517 102.04 95.725 102.283C95.933 102.526 96.1467 102.763 96.366 102.994C96.5856 103.224 96.8109 103.449 97.0415 103.667C97.2722 103.885 97.508 104.096 97.7493 104.3C97.9906 104.505 98.2367 104.703 98.4877 104.893C98.7387 105.084 98.9944 105.267 99.2547 105.444C99.5146 105.62 99.7792 105.789 100.048 105.95C100.317 106.111 100.589 106.265 100.866 106.411C101.143 106.558 101.423 106.696 101.706 106.826C101.99 106.957 102.277 107.079 102.567 107.193C102.856 107.308 103.149 107.414 103.445 107.512C103.741 107.61 104.038 107.7 104.339 107.781C104.639 107.863 104.941 107.936 105.246 108.001C105.55 108.065 105.856 108.122 106.163 108.169C106.471 108.217 106.779 108.256 107.089 108.286C107.399 108.317 107.71 108.339 108.021 108.353C108.332 108.366 108.644 108.371 108.956 108.367C109.269 108.363 109.581 108.351 109.893 108.33C110.205 108.309 110.517 108.28 110.828 108.241C111.139 108.203 111.449 108.157 111.759 108.101C112.068 108.046 112.376 107.983 112.683 107.911C112.99 107.839 113.295 107.758 113.599 107.669C113.902 107.581 114.204 107.484 114.503 107.378C114.802 107.273 115.1 107.16 115.394 107.038C115.688 106.917 115.98 106.787 116.269 106.65C116.557 106.513 116.843 106.368 117.125 106.215C117.407 106.062 117.686 105.902 117.961 105.733C118.236 105.566 118.507 105.39 118.774 105.207C119.041 105.025 119.303 104.835 119.562 104.638C119.82 104.442 120.074 104.238 120.323 104.027C120.572 103.817 120.816 103.6 121.055 103.376C121.294 103.153 121.528 102.923 121.756 102.687C121.984 102.451 122.207 102.209 122.424 101.96C122.641 101.712 122.853 101.459 123.058 101.199C123.264 100.94 123.463 100.676 123.656 100.406C123.849 100.136 124.035 99.8614 124.216 99.5813C124.396 99.3019 124.569 99.0176 124.736 98.7287C124.903 98.4401 125.063 98.147 125.216 97.8497C125.369 97.5528 125.515 97.252 125.654 96.9471C125.793 96.6425 125.924 96.3344 126.049 96.0226C126.173 95.7113 126.29 95.397 126.399 95.0795C126.509 94.7622 126.611 94.4421 126.705 94.1193C126.799 93.7969 126.886 93.4725 126.965 93.1454C127.044 92.8187 127.115 92.4903 127.178 92.16C127.241 91.8299 127.297 91.4985 127.344 91.1658L130.732 75.2299C130.743 75.1777 130.753 75.125 130.761 75.072C130.77 75.0193 130.778 74.9664 130.784 74.9132C130.79 74.8604 130.795 74.807 130.799 74.7536C130.803 74.7003 130.806 74.647 130.807 74.5935C130.809 74.5402 130.809 74.4868 130.808 74.4334C130.807 74.3804 130.805 74.327 130.801 74.2738C130.798 74.2209 130.793 74.1677 130.787 74.115C130.782 74.0622 130.775 74.0099 130.766 73.9573C130.758 73.905 130.749 73.8529 130.738 73.8011C130.727 73.7497 130.715 73.6983 130.702 73.647C130.689 73.5961 130.675 73.5456 130.66 73.4952C130.644 73.4451 130.628 73.3951 130.61 73.3459C130.593 73.2966 130.574 73.2481 130.554 73.1998C130.534 73.1517 130.513 73.1041 130.491 73.0569C130.469 73.01 130.445 72.9636 130.421 72.9177C130.397 72.8724 130.372 72.8272 130.345 72.7828C130.319 72.7384 130.291 72.6948 130.263 72.652C130.235 72.6095 130.205 72.5674 130.175 72.5261C130.144 72.4849 130.113 72.4447 130.081 72.4051C130.048 72.3659 130.015 72.3273 129.981 72.2893C129.947 72.252 129.912 72.2151 129.876 72.1794C129.84 72.1436 129.803 72.1091 129.766 72.0751C129.728 72.0413 129.69 72.0084 129.651 71.9768C129.612 71.9451 129.572 71.9145 129.532 71.8848C129.492 71.8555 129.45 71.827 129.408 71.7997C129.366 71.7724 129.324 71.7463 129.281 71.7211C129.238 71.6958 129.194 71.6721 129.15 71.6495C129.105 71.6267 129.061 71.6052 129.015 71.5848C128.97 71.5644 128.924 71.5453 128.878 71.5275C128.831 71.5096 128.785 71.493 128.737 71.4776C128.69 71.4622 128.643 71.4481 128.595 71.4353C128.547 71.4224 128.499 71.4108 128.45 71.4006C128.402 71.3903 128.353 71.3813 128.304 71.3735C128.255 71.3658 128.206 71.3594 128.157 71.3542C128.108 71.3491 128.058 71.3453 128.009 71.3428C127.959 71.3403 127.91 71.3391 127.86 71.3392C127.81 71.3393 127.76 71.3408 127.711 71.3436C127.661 71.3462 127.611 71.3502 127.562 71.3556C127.512 71.3611 127.462 71.3677 127.413 71.3756C127.364 71.3835 127.314 71.3927 127.266 71.4031C127.217 71.4137 127.168 71.4254 127.119 71.4385C127.071 71.4516 127.022 71.4661 126.974 71.4817C126.926 71.4976 126.879 71.5142 126.831 71.5322C126.784 71.5502 126.737 71.5697 126.691 71.5899C126.644 71.6108 126.598 71.6325 126.553 71.6553C126.507 71.6784 126.462 71.7022 126.418 71.7275C126.373 71.7528 126.329 71.7793 126.286 71.8065C126.242 71.8341 126.2 71.8628 126.157 71.8927C126.115 71.9225 126.074 71.9534 126.033 71.9849C125.992 72.0171 125.952 72.05 125.913 72.0838C125.873 72.1179 125.835 72.1528 125.797 72.1886C125.759 72.2248 125.722 72.2614 125.686 72.2992C125.65 72.3369 125.615 72.376 125.58 72.4155C125.545 72.4552 125.512 72.4956 125.479 72.5369C125.447 72.5784 125.415 72.6205 125.384 72.6631C125.353 72.7061 125.324 72.7499 125.295 72.7943C125.266 72.839 125.238 72.8839 125.212 72.9298C125.185 72.9756 125.159 73.0222 125.134 73.0692C125.109 73.1164 125.086 73.1642 125.063 73.2123C125.041 73.2607 125.019 73.3096 124.999 73.3588C124.978 73.4083 124.959 73.458 124.941 73.5084C124.923 73.5587 124.906 73.6096 124.89 73.6604C124.874 73.7116 124.86 73.763 124.846 73.8147C124.833 73.8666 124.82 73.9189 124.809 73.971L121.422 89.907C121.393 90.1317 121.359 90.3552 121.32 90.578C121.281 90.8011 121.236 91.0227 121.186 91.2435C121.136 91.4643 121.081 91.6837 121.02 91.9016C120.96 92.1199 120.894 92.3363 120.823 92.5511C120.752 92.7657 120.676 92.9784 120.595 93.1893C120.514 93.4001 120.428 93.6089 120.337 93.8154C120.246 94.0218 120.15 94.2255 120.05 94.4268C119.949 94.6285 119.843 94.8271 119.733 95.0228C119.623 95.2188 119.509 95.4115 119.389 95.6012C119.27 95.7913 119.146 95.9777 119.018 96.1608C118.89 96.344 118.758 96.5235 118.621 96.6999C118.485 96.8762 118.344 97.0483 118.2 97.2166C118.055 97.3852 117.906 97.5499 117.754 97.7105C117.602 97.8711 117.445 98.0272 117.286 98.1793C117.126 98.3316 116.963 98.4792 116.797 98.6224C116.63 98.7656 116.46 98.9044 116.287 99.0383C116.114 99.1724 115.938 99.3015 115.759 99.426C115.58 99.5505 115.398 99.6701 115.214 99.7844C115.03 99.8991 114.843 100.008 114.653 100.112C114.464 100.217 114.272 100.316 114.078 100.41C113.885 100.504 113.689 100.592 113.491 100.675C113.293 100.758 113.094 100.835 112.892 100.907C112.691 100.979 112.488 101.045 112.284 101.106C112.08 101.167 111.874 101.222 111.668 101.272C111.462 101.321 111.254 101.365 111.046 101.403C110.838 101.441 110.629 101.473 110.419 101.499C110.21 101.525 110 101.546 109.79 101.561C109.58 101.576 109.37 101.584 109.16 101.587C108.949 101.59 108.739 101.588 108.53 101.579C108.32 101.57 108.111 101.556 107.902 101.535C107.693 101.515 107.486 101.489 107.279 101.456C107.071 101.424 106.866 101.387 106.661 101.343C106.456 101.299 106.252 101.25 106.05 101.195C105.848 101.141 105.647 101.08 105.448 101.013C105.249 100.947 105.052 100.876 104.857 100.798C104.662 100.721 104.469 100.638 104.278 100.55C104.088 100.462 103.899 100.368 103.713 100.269C103.527 100.17 103.344 100.066 103.163 99.9568C102.983 99.8475 102.805 99.7332 102.63 99.6137C102.455 99.4943 102.284 99.3702 102.115 99.241C101.947 99.1119 101.782 98.9781 101.62 98.8394C101.458 98.701 101.3 98.558 101.145 98.4101C100.991 98.2625 100.84 98.1107 100.693 97.9544C100.546 97.798 100.403 97.6379 100.264 97.4732C100.125 97.3089 99.9902 97.1405 99.8594 96.9678C99.7289 96.7956 99.6025 96.6199 99.4807 96.4402C99.3588 96.2608 99.2415 96.0776 99.1285 95.8911C99.0156 95.7045 98.9073 95.5149 98.8038 95.322C98.7002 95.1294 98.6016 94.9336 98.5077 94.735C98.4137 94.5364 98.3246 94.3352 98.2408 94.1311C98.1569 93.9273 98.0779 93.7212 98.004 93.5125C97.9301 93.3038 97.8614 93.0929 97.7977 92.88C97.7342 92.6675 97.6758 92.4531 97.6225 92.2364C97.5695 92.0198 97.5217 91.8019 97.4792 91.5825C97.4367 91.3631 97.3994 91.1425 97.3677 90.9204C97.336 90.6985 97.3096 90.4759 97.2888 90.2521C97.2679 90.0285 97.2522 89.8041 97.2422 89.5789C97.2321 89.354 97.2273 89.1289 97.2282 88.9034C97.2291 88.6778 97.2353 88.452 97.2471 88.2264C97.2588 88.0008 97.276 87.7757 97.2985 87.5507C97.3212 87.3258 97.3491 87.1013 97.3828 86.8773C97.4161 86.6536 97.4548 86.4307 97.4989 86.2087C97.543 85.9866 97.5924 85.766 97.6472 85.5462C97.7019 85.3267 97.7618 85.1087 97.8271 84.8918L103.913 56.2584L301.436 98.2432L263.49 276.764L207.441 264.851C207.393 264.84 207.344 264.831 207.295 264.823C207.246 264.816 207.197 264.809 207.148 264.804C207.098 264.799 207.049 264.795 206.999 264.793C206.95 264.79 206.9 264.789 206.85 264.789C206.801 264.789 206.751 264.791 206.701 264.794C206.651 264.796 206.602 264.8 206.552 264.806C206.502 264.811 206.453 264.818 206.404 264.826C206.354 264.834 206.305 264.843 206.256 264.853C206.207 264.864 206.158 264.876 206.11 264.889C206.061 264.902 206.013 264.916 205.965 264.932C205.917 264.948 205.869 264.964 205.822 264.982C205.775 265 205.728 265.02 205.681 265.04C205.635 265.061 205.589 265.083 205.543 265.105C205.498 265.128 205.453 265.152 205.408 265.178C205.363 265.203 205.319 265.229 205.276 265.257C205.233 265.285 205.19 265.313 205.148 265.343C205.106 265.373 205.064 265.404 205.024 265.435C204.983 265.467 204.943 265.5 204.903 265.534C204.864 265.568 204.825 265.603 204.788 265.639C204.75 265.675 204.713 265.711 204.677 265.749C204.64 265.787 204.605 265.826 204.571 265.866C204.536 265.905 204.503 265.946 204.47 265.987C204.437 266.029 204.406 266.071 204.375 266.113C204.344 266.156 204.314 266.2 204.285 266.244C204.256 266.289 204.229 266.334 204.202 266.38C204.175 266.426 204.149 266.472 204.125 266.519C204.1 266.566 204.076 266.614 204.054 266.662C204.031 266.711 204.01 266.76 203.989 266.809C203.969 266.858 203.95 266.908 203.932 266.958C203.913 267.009 203.896 267.06 203.881 267.111C203.865 267.162 203.85 267.213 203.837 267.265C203.823 267.317 203.811 267.369 203.8 267.421L190.923 328.003L34.6431 294.785C34.4964 294.754 34.3507 294.719 34.2059 294.68C34.0611 294.64 33.9174 294.597 33.7746 294.551C33.6321 294.504 33.4907 294.454 33.3507 294.399C33.2105 294.345 33.0718 294.287 32.9346 294.225C32.7974 294.164 32.6617 294.098 32.5277 294.029C32.3936 293.961 32.2613 293.888 32.1309 293.812C32.0003 293.736 31.8717 293.657 31.745 293.574C31.6183 293.491 31.4937 293.405 31.3711 293.315C31.2485 293.226 31.1281 293.133 31.0101 293.037C30.8919 292.941 30.776 292.842 30.6626 292.739C30.5492 292.637 30.4382 292.532 30.3298 292.423C30.2213 292.315 30.1155 292.204 30.0123 292.09C29.909 291.976 29.8086 291.859 29.7109 291.74C29.6131 291.62 29.5183 291.498 29.4263 291.374C29.3343 291.249 29.2453 291.122 29.1592 290.992C29.0731 290.863 28.9902 290.731 28.9103 290.597C28.8304 290.463 28.7537 290.326 28.6801 290.188C28.6065 290.049 28.5363 289.909 28.4692 289.767C28.4022 289.624 28.3385 289.48 28.2781 289.334C28.2178 289.188 28.1609 289.041 28.1074 288.892C28.0538 288.743 28.0038 288.592 27.9572 288.44C27.9106 288.288 27.8676 288.135 27.8281 287.981C27.7885 287.826 27.7527 287.671 27.7203 287.514C27.6879 287.357 27.6592 287.2 27.6342 287.041C27.609 286.883 27.5876 286.724 27.5697 286.564C27.5519 286.405 27.5379 286.244 27.5274 286.083C27.5169 285.923 27.5101 285.762 27.507 285.601C27.5039 285.439 27.5045 285.278 27.5088 285.116C27.5131 284.955 27.521 284.793 27.5327 284.632C27.5444 284.47 27.5596 284.309 27.5786 284.148C27.5976 283.988 27.6203 283.827 27.6466 283.667C27.6728 283.508 27.7027 283.348 27.7362 283.19L75.1392 60.1759Z"   fill="#263238" >
</path>
<path d="M41.424 303.038L36.6861 302.031L37.7744 296.911C37.7833 296.869 37.7903 296.827 37.7954 296.785C37.8004 296.742 37.8034 296.699 37.8046 296.657C37.8059 296.614 37.8051 296.571 37.8024 296.529C37.7997 296.486 37.795 296.444 37.7885 296.402C37.7817 296.36 37.7732 296.319 37.7629 296.278C37.7524 296.237 37.7401 296.197 37.7259 296.158C37.7118 296.118 37.6959 296.08 37.6781 296.042C37.6604 296.004 37.641 295.968 37.6198 295.933C37.5987 295.897 37.576 295.863 37.5516 295.83C37.5273 295.797 37.5015 295.765 37.4742 295.735C37.4469 295.705 37.4182 295.676 37.3882 295.649C37.3582 295.622 37.327 295.597 37.2946 295.573C37.2621 295.55 37.2286 295.528 37.1941 295.508C37.1596 295.488 37.1241 295.469 37.0878 295.453C37.0515 295.437 37.0145 295.423 36.9768 295.41C36.939 295.398 36.9008 295.388 36.862 295.38C36.8232 295.371 36.784 295.365 36.7446 295.361C36.7051 295.357 36.6654 295.355 36.6256 295.355C36.5859 295.355 36.5461 295.357 36.5065 295.361C36.4667 295.366 36.4273 295.372 36.388 295.38C36.3487 295.389 36.3099 295.4 36.2715 295.412C36.2331 295.424 36.1953 295.439 36.1581 295.455C36.1209 295.472 36.0844 295.49 36.0488 295.51C36.0131 295.531 35.9784 295.553 35.9447 295.577C35.911 295.6 35.8784 295.626 35.8469 295.653C35.8154 295.68 35.7852 295.709 35.7562 295.739C35.7272 295.769 35.6997 295.801 35.6736 295.834C35.6474 295.867 35.6228 295.902 35.5997 295.937C35.5766 295.973 35.5552 296.009 35.5354 296.047C35.5156 296.085 35.4976 296.123 35.4812 296.163C35.465 296.202 35.4505 296.243 35.4378 296.284C35.4251 296.324 35.4144 296.366 35.4054 296.408L34.3171 301.528L29.5792 300.521C29.5405 300.512 29.5013 300.506 29.4618 300.502C29.4223 300.498 29.3827 300.496 29.3429 300.496C29.3031 300.496 29.2634 300.498 29.2237 300.503C29.184 300.507 29.1445 300.513 29.1053 300.522C29.066 300.53 29.0272 300.541 28.9888 300.553C28.9503 300.566 28.9125 300.58 28.8753 300.596C28.8381 300.613 28.8017 300.631 28.7661 300.651C28.7304 300.672 28.6957 300.694 28.662 300.718C28.6282 300.741 28.5956 300.767 28.5642 300.794C28.5327 300.821 28.5024 300.85 28.4734 300.88C28.4445 300.91 28.417 300.942 28.3908 300.975C28.3647 301.008 28.3401 301.043 28.317 301.078C28.2939 301.114 28.2725 301.151 28.2527 301.188C28.2329 301.226 28.2148 301.265 28.1985 301.304C28.1822 301.343 28.1677 301.384 28.1551 301.425C28.1424 301.466 28.1316 301.507 28.1227 301.549C28.1138 301.591 28.1068 301.633 28.1017 301.676C28.0967 301.718 28.0935 301.761 28.0924 301.803C28.0912 301.846 28.092 301.889 28.0947 301.931C28.0975 301.974 28.1021 302.016 28.1087 302.058C28.1154 302.1 28.1239 302.141 28.1343 302.182C28.1447 302.223 28.157 302.263 28.1712 302.302C28.1853 302.342 28.2012 302.381 28.2189 302.418C28.2367 302.456 28.2561 302.492 28.2773 302.528C28.2984 302.563 28.3211 302.597 28.3454 302.63C28.3697 302.663 28.3956 302.695 28.4229 302.725C28.4502 302.755 28.4788 302.784 28.5088 302.811C28.5389 302.838 28.5701 302.863 28.6026 302.887C28.635 302.911 28.6684 302.932 28.703 302.953C28.7375 302.973 28.7729 302.991 28.8092 303.007C28.8455 303.023 28.8826 303.038 28.9203 303.05C28.958 303.062 28.9963 303.072 29.0351 303.081L33.773 304.088L32.6847 309.208C32.6758 309.25 32.6688 309.292 32.6638 309.334C32.6587 309.377 32.6556 309.42 32.6544 309.462C32.6532 309.505 32.654 309.548 32.6567 309.59C32.6595 309.633 32.6642 309.675 32.6707 309.717C32.6774 309.759 32.6859 309.8 32.6963 309.841C32.7067 309.882 32.719 309.922 32.7332 309.961C32.7473 310.001 32.7632 310.039 32.7809 310.077C32.7987 310.114 32.8181 310.151 32.8393 310.186C32.8604 310.222 32.8831 310.256 32.9074 310.289C32.9318 310.322 32.9576 310.354 32.9849 310.384C33.0122 310.414 33.0409 310.443 33.0709 310.47C33.1009 310.497 33.1321 310.522 33.1646 310.546C33.197 310.569 33.2304 310.591 33.265 310.611C33.2995 310.631 33.3349 310.65 33.3713 310.666C33.4076 310.682 33.4446 310.696 33.4823 310.709C33.52 310.721 33.5583 310.731 33.5971 310.739C33.6359 310.748 33.675 310.754 33.7145 310.758C33.754 310.762 33.7936 310.764 33.8334 310.764C33.8732 310.764 33.9129 310.762 33.9526 310.758C33.9924 310.753 34.0318 310.747 34.0711 310.738C34.1104 310.73 34.1492 310.72 34.1876 310.707C34.226 310.695 34.2638 310.68 34.301 310.664C34.3382 310.647 34.3746 310.629 34.4103 310.609C34.446 310.588 34.4806 310.566 34.5144 310.542C34.5481 310.519 34.5807 310.493 34.6122 310.466C34.6437 310.439 34.674 310.41 34.7029 310.38C34.7319 310.35 34.7594 310.318 34.7857 310.285C34.8117 310.252 34.8363 310.217 34.8595 310.182C34.8826 310.146 34.904 310.11 34.9238 310.072C34.9435 310.034 34.9616 309.996 34.9778 309.956C34.994 309.917 35.0085 309.876 35.0214 309.835C35.034 309.795 35.0447 309.753 35.0537 309.711L36.1419 304.591L40.8798 305.598C40.9187 305.607 40.9579 305.613 40.9972 305.617C41.0368 305.621 41.0764 305.623 41.1161 305.623C41.1559 305.623 41.1956 305.621 41.2353 305.616C41.275 305.612 41.3146 305.606 41.3539 305.597C41.3931 305.589 41.4319 305.578 41.4704 305.566C41.5088 305.553 41.5465 305.539 41.5837 305.522C41.621 305.506 41.6575 305.488 41.6932 305.468C41.7286 305.447 41.7632 305.425 41.797 305.401C41.8307 305.378 41.8634 305.352 41.8949 305.325C41.9264 305.298 41.9567 305.269 41.9857 305.239C42.0146 305.208 42.0421 305.177 42.0683 305.144C42.0944 305.111 42.119 305.076 42.1422 305.041C42.1653 305.005 42.1867 304.969 42.2065 304.931C42.2263 304.893 42.2443 304.854 42.2605 304.815C42.2767 304.775 42.2913 304.735 42.3041 304.694C42.3167 304.654 42.3275 304.612 42.3364 304.57C42.3453 304.528 42.3523 304.486 42.3574 304.443C42.3624 304.401 42.3654 304.358 42.3666 304.316C42.3679 304.273 42.3671 304.23 42.3644 304.188C42.3617 304.145 42.3571 304.103 42.3505 304.061C42.3437 304.019 42.3352 303.978 42.3249 303.937C42.3144 303.896 42.3021 303.856 42.2879 303.817C42.2739 303.777 42.2579 303.738 42.2401 303.701C42.2223 303.663 42.2028 303.627 42.1817 303.591C42.1605 303.556 42.1379 303.522 42.1138 303.489C42.0895 303.456 42.0635 303.424 42.0361 303.394C42.0089 303.364 41.9803 303.335 41.9504 303.308C41.9202 303.281 41.889 303.256 41.8567 303.232C41.8242 303.208 41.7906 303.186 41.7561 303.166C41.7216 303.146 41.6861 303.128 41.6497 303.112C41.6135 303.096 41.5766 303.082 41.5388 303.069C41.5011 303.057 41.4629 303.047 41.424 303.038Z"   fill="#FFDD00" >
</path>
<path d="M327.54 190.378L322.802 189.371L323.89 184.251C323.899 184.209 323.906 184.167 323.911 184.124C323.916 184.082 323.919 184.039 323.921 183.996C323.922 183.954 323.921 183.911 323.918 183.869C323.916 183.826 323.911 183.784 323.904 183.742C323.898 183.7 323.889 183.659 323.879 183.618C323.868 183.577 323.856 183.537 323.842 183.497C323.828 183.458 323.812 183.419 323.794 183.382C323.776 183.344 323.757 183.307 323.736 183.272C323.715 183.237 323.692 183.202 323.668 183.169C323.643 183.136 323.618 183.105 323.59 183.075C323.563 183.045 323.534 183.016 323.504 182.989C323.474 182.962 323.443 182.937 323.411 182.913C323.378 182.889 323.345 182.867 323.31 182.847C323.275 182.827 323.24 182.809 323.204 182.793C323.168 182.777 323.13 182.762 323.093 182.75C323.055 182.738 323.017 182.727 322.978 182.719C322.939 182.711 322.9 182.705 322.861 182.701C322.821 182.697 322.781 182.695 322.742 182.695C322.702 182.695 322.662 182.697 322.622 182.701C322.583 182.705 322.543 182.712 322.504 182.72C322.465 182.729 322.426 182.739 322.387 182.751C322.349 182.764 322.311 182.779 322.274 182.795C322.237 182.811 322.2 182.83 322.165 182.85C322.129 182.87 322.095 182.892 322.061 182.916C322.027 182.94 321.994 182.965 321.963 182.992C321.931 183.02 321.901 183.048 321.872 183.079C321.843 183.109 321.816 183.141 321.789 183.174C321.763 183.207 321.739 183.241 321.716 183.277C321.693 183.312 321.671 183.349 321.651 183.387C321.632 183.424 321.614 183.463 321.597 183.503C321.581 183.542 321.566 183.582 321.554 183.623C321.541 183.664 321.53 183.706 321.521 183.747L320.433 188.867L315.695 187.86C315.657 187.852 315.617 187.846 315.578 187.842C315.538 187.838 315.499 187.836 315.459 187.836C315.419 187.836 315.379 187.838 315.34 187.842C315.3 187.846 315.26 187.853 315.221 187.861C315.182 187.87 315.143 187.88 315.105 187.893C315.066 187.905 315.029 187.92 314.991 187.936C314.954 187.952 314.918 187.971 314.882 187.991C314.846 188.011 314.812 188.033 314.778 188.057C314.744 188.081 314.712 188.106 314.68 188.133C314.649 188.161 314.618 188.189 314.589 188.22C314.56 188.25 314.533 188.282 314.507 188.315C314.481 188.348 314.456 188.382 314.433 188.418C314.41 188.453 314.388 188.49 314.369 188.528C314.349 188.565 314.331 188.604 314.315 188.644C314.298 188.683 314.284 188.723 314.271 188.764C314.258 188.805 314.248 188.847 314.239 188.888C314.23 188.93 314.223 188.973 314.218 189.015C314.212 189.058 314.209 189.1 314.208 189.143C314.207 189.186 314.208 189.228 314.211 189.271C314.213 189.313 314.218 189.356 314.225 189.398C314.231 189.439 314.24 189.481 314.25 189.522C314.261 189.562 314.273 189.603 314.287 189.642C314.301 189.681 314.317 189.72 314.335 189.758C314.353 189.795 314.372 189.832 314.393 189.867C314.414 189.903 314.437 189.937 314.461 189.97C314.486 190.003 314.512 190.035 314.539 190.065C314.566 190.095 314.595 190.123 314.625 190.15C314.655 190.177 314.686 190.203 314.718 190.226C314.751 190.25 314.784 190.272 314.819 190.292C314.854 190.312 314.889 190.33 314.925 190.347C314.962 190.363 314.999 190.377 315.036 190.389C315.074 190.402 315.112 190.412 315.151 190.42L319.889 191.427L318.801 196.547C318.792 196.589 318.785 196.632 318.78 196.674C318.775 196.717 318.771 196.759 318.77 196.802C318.769 196.845 318.77 196.887 318.773 196.93C318.775 196.972 318.78 197.014 318.787 197.056C318.793 197.098 318.802 197.14 318.812 197.181C318.823 197.221 318.835 197.261 318.849 197.301C318.863 197.34 318.879 197.379 318.897 197.417C318.915 197.454 318.934 197.491 318.955 197.526C318.977 197.562 318.999 197.596 319.023 197.629C319.048 197.662 319.073 197.693 319.101 197.724C319.128 197.754 319.157 197.782 319.187 197.809C319.217 197.836 319.248 197.862 319.28 197.885C319.313 197.909 319.346 197.931 319.381 197.951C319.416 197.971 319.451 197.989 319.487 198.005C319.524 198.021 319.561 198.036 319.598 198.048C319.636 198.061 319.674 198.071 319.713 198.079C319.752 198.087 319.791 198.094 319.83 198.098C319.87 198.102 319.91 198.104 319.949 198.104C319.989 198.104 320.029 198.101 320.069 198.097C320.108 198.093 320.148 198.086 320.187 198.078C320.226 198.069 320.265 198.059 320.304 198.047C320.342 198.034 320.38 198.02 320.417 198.003C320.454 197.987 320.491 197.969 320.526 197.948C320.562 197.928 320.596 197.906 320.63 197.882C320.664 197.858 320.697 197.833 320.728 197.806C320.76 197.779 320.79 197.75 320.819 197.719C320.848 197.689 320.875 197.658 320.902 197.625C320.928 197.591 320.952 197.557 320.975 197.522C320.998 197.486 321.02 197.449 321.04 197.412C321.06 197.374 321.077 197.335 321.094 197.296C321.11 197.256 321.125 197.216 321.137 197.175C321.15 197.134 321.161 197.093 321.17 197.051L322.258 191.931L326.996 192.938C327.035 192.946 327.074 192.952 327.113 192.957C327.153 192.96 327.192 192.962 327.232 192.962C327.272 192.962 327.312 192.96 327.351 192.956C327.391 192.952 327.431 192.945 327.47 192.937C327.509 192.928 327.548 192.918 327.586 192.906C327.625 192.893 327.663 192.879 327.7 192.862C327.737 192.846 327.773 192.827 327.809 192.807C327.845 192.787 327.879 192.765 327.913 192.741C327.947 192.717 327.979 192.692 328.011 192.665C328.042 192.637 328.073 192.609 328.102 192.578C328.131 192.548 328.158 192.516 328.184 192.484C328.21 192.45 328.235 192.416 328.258 192.38C328.281 192.345 328.303 192.308 328.322 192.27C328.342 192.233 328.36 192.194 328.376 192.154C328.393 192.115 328.407 192.075 328.42 192.034C328.433 191.993 328.443 191.952 328.452 191.91C328.461 191.868 328.468 191.826 328.473 191.783C328.479 191.74 328.482 191.698 328.483 191.655C328.484 191.612 328.483 191.57 328.48 191.527C328.478 191.485 328.473 191.443 328.466 191.401C328.46 191.359 328.451 191.317 328.441 191.276C328.43 191.236 328.418 191.196 328.404 191.156C328.39 191.117 328.374 191.078 328.356 191.04C328.338 191.003 328.319 190.966 328.298 190.931C328.277 190.896 328.254 190.861 328.23 190.828C328.205 190.795 328.18 190.764 328.152 190.733C328.125 190.703 328.096 190.675 328.066 190.648C328.036 190.621 328.005 190.595 327.973 190.572C327.94 190.548 327.907 190.526 327.872 190.506C327.837 190.486 327.802 190.468 327.766 190.452C327.73 190.436 327.693 190.421 327.655 190.409C327.617 190.396 327.579 190.386 327.54 190.378Z"   fill="#40BDFF" >
</path>
<path d="M279.873 365.883C279.757 365.858 279.641 365.83 279.526 365.799C279.411 365.769 279.298 365.735 279.185 365.698C279.071 365.661 278.959 365.621 278.848 365.578C278.737 365.535 278.627 365.49 278.518 365.441C278.409 365.392 278.302 365.34 278.195 365.286C278.089 365.231 277.984 365.174 277.88 365.114C277.777 365.053 277.675 364.991 277.574 364.925C277.474 364.859 277.375 364.791 277.278 364.72C277.18 364.649 277.085 364.576 276.991 364.5C276.898 364.424 276.806 364.345 276.716 364.264C276.626 364.183 276.538 364.099 276.452 364.014C276.366 363.928 276.282 363.84 276.2 363.749C276.118 363.659 276.038 363.566 275.961 363.472C275.883 363.377 275.808 363.28 275.735 363.181C275.662 363.082 275.592 362.982 275.523 362.879C275.455 362.776 275.389 362.672 275.326 362.565C275.263 362.459 275.202 362.351 275.143 362.241C275.085 362.131 275.029 362.02 274.976 361.907C274.923 361.795 274.873 361.68 274.825 361.565C274.777 361.449 274.732 361.332 274.69 361.214C274.647 361.095 274.607 360.976 274.57 360.855C274.534 360.735 274.5 360.614 274.468 360.491C274.437 360.368 274.409 360.245 274.383 360.121C274.357 359.997 274.335 359.872 274.315 359.746C274.295 359.621 274.278 359.495 274.264 359.368C274.25 359.241 274.239 359.114 274.231 358.987C274.223 358.859 274.217 358.731 274.215 358.604C274.213 358.476 274.213 358.348 274.217 358.22C274.22 358.092 274.227 357.964 274.236 357.835C274.245 357.708 274.258 357.58 274.273 357.452C274.288 357.325 274.306 357.198 274.327 357.071C274.348 356.944 274.372 356.818 274.399 356.692C274.425 356.567 274.455 356.442 274.487 356.317C274.52 356.193 274.555 356.07 274.593 355.947C274.631 355.824 274.672 355.702 274.715 355.582C274.759 355.461 274.805 355.342 274.854 355.223C274.903 355.105 274.954 354.987 275.008 354.871C275.062 354.755 275.119 354.641 275.178 354.528C275.238 354.415 275.3 354.303 275.364 354.193C275.428 354.083 275.495 353.975 275.564 353.868C275.633 353.762 275.705 353.657 275.779 353.554C275.853 353.451 275.929 353.35 276.007 353.25C276.086 353.151 276.166 353.054 276.249 352.959C276.332 352.864 276.416 352.771 276.503 352.68C276.59 352.589 276.679 352.501 276.77 352.415C276.86 352.329 276.953 352.245 277.048 352.163C277.142 352.082 277.238 352.003 277.336 351.926C277.434 351.85 277.533 351.776 277.634 351.704C277.736 351.633 277.838 351.564 277.943 351.498C278.047 351.432 278.152 351.369 278.259 351.308C278.366 351.247 278.474 351.189 278.583 351.134C278.692 351.079 278.803 351.027 278.914 350.978C279.026 350.929 279.139 350.882 279.252 350.839C279.366 350.796 279.48 350.755 279.595 350.718C279.71 350.68 279.826 350.646 279.943 350.614C280.059 350.583 280.176 350.555 280.294 350.53C280.412 350.504 280.53 350.482 280.648 350.463C280.767 350.444 280.886 350.428 281.005 350.415C281.124 350.402 281.243 350.392 281.362 350.386C281.481 350.38 281.601 350.376 281.72 350.376C281.84 350.375 281.959 350.378 282.078 350.385C282.197 350.39 282.315 350.4 282.434 350.412C282.552 350.424 282.67 350.439 282.787 350.458C282.905 350.477 283.022 350.498 283.138 350.523C283.254 350.548 283.37 350.576 283.485 350.606C283.6 350.637 283.714 350.671 283.827 350.708C283.94 350.745 284.052 350.785 284.163 350.828C284.274 350.871 284.384 350.916 284.493 350.965C284.602 351.014 284.71 351.066 284.816 351.12C284.922 351.174 285.027 351.232 285.131 351.292C285.234 351.352 285.336 351.415 285.437 351.481C285.537 351.546 285.636 351.615 285.733 351.686C285.831 351.757 285.926 351.83 286.02 351.906C286.114 351.982 286.205 352.061 286.295 352.142C286.385 352.223 286.473 352.307 286.559 352.392C286.645 352.478 286.729 352.566 286.811 352.657C286.893 352.747 286.973 352.839 287.05 352.934C287.128 353.029 287.203 353.126 287.276 353.225C287.349 353.323 287.42 353.424 287.488 353.527C287.556 353.63 287.622 353.734 287.685 353.84C287.748 353.947 287.809 354.055 287.868 354.165C287.926 354.274 287.982 354.386 288.035 354.499C288.088 354.611 288.138 354.726 288.186 354.841C288.234 354.957 288.279 355.074 288.322 355.192C288.364 355.31 288.404 355.43 288.44 355.55C288.477 355.671 288.511 355.792 288.543 355.915C288.574 356.037 288.602 356.161 288.628 356.285C288.654 356.409 288.676 356.534 288.696 356.659C288.716 356.785 288.733 356.911 288.747 357.038C288.761 357.164 288.772 357.292 288.78 357.419C288.789 357.547 288.794 357.674 288.796 357.802C288.798 357.93 288.798 358.058 288.794 358.186C288.791 358.314 288.784 358.442 288.775 358.57C288.766 358.698 288.753 358.826 288.738 358.954C288.723 359.081 288.705 359.208 288.684 359.335C288.663 359.462 288.639 359.588 288.612 359.714C288.586 359.839 288.556 359.964 288.524 360.089C288.491 360.213 288.456 360.336 288.418 360.459C288.38 360.582 288.339 360.703 288.296 360.824C288.252 360.945 288.206 361.064 288.157 361.183C288.109 361.301 288.057 361.418 288.003 361.534C287.949 361.65 287.892 361.765 287.833 361.878C287.773 361.991 287.711 362.103 287.647 362.212C287.583 362.323 287.516 362.431 287.447 362.537C287.378 362.644 287.306 362.749 287.232 362.852C287.158 362.955 287.082 363.056 287.004 363.155C286.925 363.255 286.845 363.352 286.762 363.447C286.679 363.542 286.594 363.635 286.508 363.726C286.421 363.816 286.332 363.905 286.241 363.991C286.151 364.077 286.058 364.161 285.964 364.243C285.869 364.324 285.773 364.403 285.675 364.48C285.577 364.556 285.478 364.63 285.376 364.702C285.275 364.773 285.173 364.842 285.069 364.908C284.965 364.974 284.859 365.037 284.752 365.098C284.645 365.158 284.537 365.216 284.428 365.271C284.319 365.326 284.208 365.379 284.097 365.428C283.985 365.477 283.873 365.523 283.759 365.567C283.645 365.61 283.531 365.651 283.416 365.688C283.301 365.726 283.185 365.76 283.068 365.792C282.952 365.823 282.835 365.851 282.717 365.876C282.599 365.902 282.481 365.924 282.363 365.943C282.244 365.962 282.126 365.978 282.006 365.991C281.887 366.004 281.768 366.013 281.649 366.02C281.53 366.026 281.41 366.03 281.291 366.03C281.172 366.03 281.052 366.028 280.934 366.021C280.815 366.016 280.696 366.006 280.577 365.994C280.459 365.982 280.341 365.966 280.224 365.948C280.106 365.929 279.989 365.908 279.873 365.883ZM282.594 353.083C282.516 353.066 282.438 353.052 282.36 353.04C282.282 353.027 282.203 353.017 282.124 353.009C282.045 353.001 281.966 352.995 281.887 352.991C281.808 352.987 281.728 352.985 281.649 352.985C281.569 352.985 281.489 352.987 281.41 352.992C281.33 352.996 281.251 353.003 281.172 353.011C281.092 353.02 281.013 353.03 280.934 353.043C280.855 353.056 280.776 353.071 280.698 353.087C280.619 353.104 280.541 353.123 280.464 353.144C280.386 353.165 280.309 353.188 280.232 353.213C280.155 353.238 280.079 353.264 280.003 353.294C279.927 353.323 279.852 353.353 279.778 353.386C279.704 353.419 279.63 353.454 279.557 353.491C279.484 353.527 279.412 353.566 279.341 353.606C279.27 353.647 279.2 353.689 279.13 353.733C279.061 353.777 278.992 353.823 278.925 353.87C278.858 353.918 278.791 353.967 278.726 354.018C278.661 354.069 278.596 354.122 278.534 354.176C278.471 354.231 278.409 354.286 278.348 354.344C278.288 354.402 278.229 354.461 278.171 354.521C278.113 354.581 278.056 354.643 278.001 354.707C277.946 354.77 277.892 354.835 277.84 354.901C277.788 354.967 277.737 355.035 277.688 355.103C277.639 355.172 277.591 355.242 277.545 355.313C277.499 355.384 277.454 355.456 277.411 355.53C277.368 355.603 277.327 355.677 277.288 355.753C277.248 355.828 277.21 355.905 277.174 355.982C277.138 356.059 277.104 356.137 277.071 356.216C277.038 356.295 277.008 356.375 276.979 356.455C276.95 356.536 276.923 356.617 276.897 356.699C276.872 356.781 276.848 356.863 276.827 356.946C276.805 357.029 276.785 357.112 276.768 357.196C276.75 357.28 276.734 357.364 276.72 357.448C276.706 357.533 276.694 357.617 276.684 357.702C276.674 357.788 276.666 357.873 276.659 357.958C276.653 358.043 276.649 358.128 276.646 358.214C276.644 358.299 276.644 358.385 276.645 358.47C276.647 358.556 276.65 358.641 276.656 358.725C276.661 358.81 276.669 358.895 276.678 358.98C276.687 359.064 276.699 359.148 276.712 359.232C276.725 359.316 276.74 359.399 276.757 359.482C276.774 359.565 276.793 359.647 276.814 359.728C276.835 359.81 276.858 359.891 276.882 359.971C276.907 360.052 276.933 360.131 276.961 360.21C276.99 360.289 277.02 360.367 277.052 360.444C277.084 360.521 277.117 360.597 277.153 360.672C277.188 360.748 277.225 360.822 277.264 360.895C277.303 360.968 277.344 361.04 277.386 361.111C277.428 361.182 277.472 361.252 277.517 361.32C277.563 361.389 277.61 361.456 277.659 361.522C277.707 361.588 277.757 361.652 277.809 361.715C277.861 361.779 277.914 361.84 277.969 361.9C278.023 361.961 278.079 362.02 278.136 362.077C278.194 362.134 278.252 362.19 278.312 362.244C278.372 362.298 278.434 362.35 278.496 362.401C278.558 362.452 278.622 362.501 278.687 362.548C278.752 362.595 278.818 362.64 278.885 362.684C278.952 362.728 279.02 362.77 279.089 362.81C279.158 362.85 279.228 362.888 279.299 362.925C279.369 362.961 279.441 362.995 279.514 363.028C279.587 363.06 279.66 363.091 279.734 363.12C279.808 363.148 279.883 363.175 279.958 363.2C280.034 363.224 280.11 363.247 280.186 363.267C280.263 363.288 280.34 363.306 280.417 363.323C280.495 363.339 280.573 363.354 280.651 363.366C280.729 363.379 280.808 363.389 280.887 363.397C280.966 363.405 281.045 363.411 281.124 363.415C281.204 363.419 281.283 363.421 281.362 363.421C281.442 363.421 281.522 363.419 281.601 363.414C281.681 363.41 281.76 363.403 281.84 363.395C281.919 363.386 281.998 363.376 282.077 363.363C282.156 363.35 282.235 363.335 282.313 363.319C282.392 363.302 282.47 363.283 282.547 363.262C282.625 363.241 282.702 363.218 282.779 363.193C282.856 363.168 282.932 363.141 283.008 363.112C283.083 363.083 283.158 363.052 283.233 363.019C283.307 362.987 283.381 362.952 283.454 362.915C283.527 362.879 283.599 362.84 283.67 362.8C283.741 362.759 283.812 362.717 283.881 362.673C283.95 362.629 284.019 362.583 284.086 362.536C284.154 362.488 284.22 362.439 284.285 362.388C284.35 362.337 284.415 362.284 284.478 362.229C284.54 362.175 284.602 362.119 284.663 362.062C284.723 362.004 284.782 361.945 284.84 361.885C284.898 361.824 284.955 361.762 285.01 361.699C285.065 361.636 285.119 361.571 285.171 361.505C285.223 361.438 285.274 361.371 285.323 361.302C285.373 361.234 285.42 361.164 285.466 361.093C285.512 361.022 285.557 360.949 285.6 360.876C285.643 360.802 285.684 360.728 285.723 360.653C285.763 360.578 285.801 360.501 285.837 360.424C285.873 360.347 285.908 360.268 285.94 360.189C285.973 360.11 286.003 360.031 286.033 359.95C286.062 359.87 286.089 359.789 286.114 359.707C286.139 359.625 286.163 359.543 286.184 359.46C286.206 359.377 286.226 359.294 286.243 359.21C286.261 359.126 286.277 359.042 286.291 358.958C286.305 358.873 286.317 358.789 286.327 358.703C286.337 358.618 286.346 358.533 286.352 358.448C286.358 358.362 286.362 358.277 286.365 358.192C286.367 358.106 286.367 358.021 286.366 357.936C286.364 357.85 286.361 357.765 286.355 357.68C286.35 357.595 286.343 357.511 286.333 357.426C286.324 357.342 286.312 357.258 286.299 357.174C286.286 357.09 286.271 357.007 286.254 356.924C286.237 356.841 286.218 356.759 286.197 356.678C286.176 356.596 286.153 356.515 286.129 356.434C286.104 356.354 286.078 356.274 286.049 356.196C286.021 356.117 285.991 356.039 285.959 355.962C285.927 355.885 285.894 355.809 285.858 355.733C285.823 355.658 285.786 355.584 285.747 355.511C285.708 355.438 285.668 355.365 285.625 355.295C285.583 355.224 285.539 355.154 285.494 355.086C285.448 355.017 285.401 354.95 285.352 354.884C285.304 354.818 285.254 354.754 285.202 354.691C285.15 354.627 285.097 354.566 285.043 354.505C284.988 354.445 284.932 354.386 284.875 354.329C284.817 354.272 284.759 354.216 284.699 354.162C284.639 354.108 284.578 354.056 284.515 354.005C284.453 353.954 284.389 353.905 284.324 353.858C284.259 353.811 284.193 353.765 284.126 353.721C284.059 353.678 283.991 353.636 283.922 353.596C283.853 353.556 283.783 353.517 283.713 353.481C283.642 353.445 283.57 353.41 283.497 353.378C283.425 353.345 283.351 353.315 283.277 353.286C283.203 353.258 283.128 353.231 283.053 353.206C282.977 353.182 282.901 353.159 282.825 353.138C282.748 353.118 282.671 353.099 282.594 353.083ZM334.961 100.889C334.845 100.865 334.729 100.837 334.614 100.806C334.5 100.775 334.386 100.741 334.273 100.704C334.159 100.667 334.047 100.628 333.936 100.584C333.825 100.542 333.715 100.496 333.606 100.447C333.497 100.398 333.39 100.347 333.283 100.292C333.177 100.238 333.072 100.18 332.968 100.12C332.865 100.06 332.763 99.9972 332.663 99.9315C332.562 99.866 332.463 99.7977 332.366 99.7267C332.269 99.6558 332.173 99.5823 332.079 99.5062C331.986 99.4301 331.894 99.3515 331.804 99.2704C331.714 99.1893 331.626 99.1058 331.54 99.0199C331.454 98.9343 331.37 98.8463 331.288 98.7557C331.206 98.6654 331.126 98.5729 331.049 98.4781C330.971 98.3834 330.896 98.2866 330.823 98.1877C330.75 98.0888 330.68 97.9881 330.612 97.8855C330.543 97.7827 330.477 97.6781 330.414 97.5719C330.351 97.4655 330.29 97.3574 330.232 97.2475C330.173 97.1379 330.117 97.0266 330.065 96.9137C330.011 96.8009 329.961 96.6867 329.913 96.5711C329.865 96.4555 329.82 96.3385 329.778 96.2203C329.735 96.1019 329.695 95.9825 329.659 95.8618C329.622 95.7414 329.588 95.62 329.556 95.4976C329.525 95.375 329.497 95.2516 329.471 95.1273C329.446 95.0032 329.423 94.8783 329.403 94.7526C329.383 94.6271 329.366 94.501 329.352 94.3743C329.338 94.2478 329.327 94.1207 329.319 93.9932C329.311 93.8657 329.305 93.7381 329.303 93.6103C329.301 93.4823 329.301 93.3542 329.305 93.226C329.308 93.0979 329.315 92.97 329.324 92.8422C329.334 92.7141 329.346 92.5863 329.361 92.4587C329.376 92.3313 329.394 92.2042 329.415 92.0776C329.436 91.9507 329.46 91.8244 329.487 91.6988C329.514 91.5731 329.543 91.4481 329.576 91.3236C329.608 91.1994 329.643 91.076 329.681 90.9534C329.719 90.8306 329.76 90.7088 329.803 90.5881C329.847 90.4676 329.893 90.348 329.942 90.2296C329.991 90.1111 330.042 89.9938 330.096 89.8778C330.151 89.762 330.207 89.6475 330.267 89.5344C330.326 89.4212 330.388 89.3097 330.452 89.1999C330.516 89.0898 330.583 88.9814 330.653 88.8748C330.722 88.7681 330.793 88.6632 330.867 88.5602C330.941 88.4571 331.017 88.356 331.096 88.2568C331.174 88.1577 331.255 88.0605 331.337 87.9654C331.42 87.8703 331.505 87.7774 331.592 87.6866C331.678 87.5958 331.767 87.5073 331.858 87.4211C331.949 87.3349 332.041 87.251 332.136 87.1696C332.23 87.0881 332.326 87.009 332.424 86.9325C332.522 86.856 332.622 86.782 332.723 86.7106C332.824 86.6392 332.926 86.5705 333.031 86.5045C333.135 86.4383 333.24 86.375 333.347 86.3144C333.454 86.2537 333.562 86.1959 333.671 86.1409C333.781 86.0858 333.891 86.0337 334.003 85.9844C334.114 85.9352 334.227 85.8888 334.34 85.8455C334.454 85.802 334.568 85.7616 334.683 85.7241C334.798 85.6867 334.914 85.6523 335.031 85.6209C335.147 85.5895 335.264 85.5612 335.382 85.536C335.5 85.5107 335.618 85.4885 335.737 85.4694C335.855 85.4503 335.974 85.4344 336.093 85.4216C336.212 85.4088 336.331 85.3991 336.45 85.3925C336.57 85.3859 336.689 85.3825 336.808 85.3823C336.928 85.382 337.047 85.3849 337.166 85.3909C337.285 85.3969 337.403 85.406 337.522 85.4184C337.64 85.4306 337.758 85.446 337.875 85.4645C337.993 85.4831 338.11 85.5047 338.226 85.5294C338.342 85.5541 338.458 85.5819 338.573 85.6128C338.688 85.6436 338.802 85.6775 338.915 85.7145C339.028 85.7514 339.14 85.7913 339.251 85.8342C339.362 85.8771 339.472 85.9229 339.581 85.9716C339.69 86.0204 339.798 86.0721 339.904 86.1266C340.01 86.1811 340.115 86.2385 340.219 86.2986C340.322 86.3588 340.424 86.4216 340.525 86.4872C340.625 86.5529 340.724 86.6211 340.821 86.6921C340.919 86.763 341.014 86.8365 341.108 86.9126C341.202 86.9887 341.294 87.0673 341.384 87.1484C341.474 87.2294 341.561 87.3128 341.647 87.3986C341.734 87.4845 341.818 87.5726 341.899 87.663C341.981 87.7534 342.061 87.8459 342.138 87.9406C342.216 88.0354 342.291 88.1321 342.364 88.231C342.437 88.3298 342.508 88.4306 342.576 88.5333C342.644 88.6361 342.71 88.7406 342.773 88.847C342.837 88.9533 342.897 89.0614 342.956 89.1711C343.014 89.2808 343.07 89.3921 343.123 89.505C343.176 89.6178 343.227 89.7321 343.274 89.8478C343.322 89.9634 343.367 90.0804 343.41 90.1986C343.452 90.3169 343.492 90.4363 343.529 90.5568C343.566 90.6773 343.6 90.7988 343.631 90.9213C343.662 91.0438 343.691 91.1672 343.716 91.2914C343.742 91.4156 343.764 91.5404 343.784 91.666C343.804 91.7916 343.821 91.9178 343.835 92.0445C343.849 92.171 343.86 92.298 343.869 92.4255C343.877 92.553 343.882 92.6807 343.884 92.8085C343.887 92.9365 343.886 93.0646 343.882 93.1927C343.879 93.3209 343.872 93.4488 343.863 93.5766C343.854 93.7046 343.842 93.8325 343.826 93.9601C343.811 94.0875 343.793 94.2146 343.772 94.3412C343.751 94.4681 343.727 94.5943 343.701 94.72C343.674 94.8457 343.644 94.9707 343.612 95.0951C343.579 95.2194 343.544 95.3427 343.506 95.4653C343.468 95.5882 343.428 95.7099 343.384 95.8307C343.341 95.9512 343.294 96.0707 343.246 96.1892C343.197 96.3077 343.145 96.4248 343.091 96.5407C343.037 96.6567 342.98 96.7713 342.921 96.8844C342.861 96.9976 342.8 97.1091 342.735 97.2189C342.671 97.329 342.604 97.4373 342.535 97.5439C342.466 97.6507 342.394 97.7556 342.32 97.8585C342.246 97.9616 342.17 98.0628 342.092 98.1621C342.013 98.2611 341.933 98.3582 341.85 98.4532C341.768 98.5485 341.683 98.6415 341.596 98.7323C341.509 98.8231 341.42 98.9116 341.329 98.9977C341.239 99.0839 341.146 99.1677 341.052 99.2491C340.957 99.3307 340.861 99.4097 340.763 99.4861C340.665 99.5627 340.566 99.6368 340.465 99.7083C340.364 99.7795 340.261 99.8482 340.157 99.9144C340.053 99.9803 339.947 100.044 339.84 100.104C339.733 100.165 339.625 100.223 339.516 100.278C339.407 100.333 339.296 100.385 339.185 100.434C339.073 100.484 338.961 100.53 338.847 100.573C338.734 100.617 338.619 100.657 338.504 100.695C338.389 100.732 338.273 100.767 338.156 100.798C338.04 100.829 337.923 100.858 337.805 100.883C337.687 100.908 337.569 100.93 337.451 100.949C337.332 100.969 337.214 100.985 337.095 100.997C336.975 101.01 336.856 101.02 336.737 101.026C336.618 101.033 336.498 101.036 336.379 101.037C336.26 101.037 336.141 101.034 336.022 101.028C335.903 101.022 335.784 101.013 335.666 101C335.547 100.988 335.429 100.973 335.312 100.954C335.194 100.936 335.078 100.914 334.961 100.889ZM337.682 88.0894C337.604 88.0729 337.526 88.0585 337.448 88.0462C337.37 88.0338 337.291 88.0235 337.212 88.0154C337.133 88.0072 337.054 88.0011 336.975 87.997C336.896 87.993 336.816 87.9911 336.737 87.9913C336.657 87.9915 336.578 87.9938 336.498 87.9981C336.419 88.0025 336.339 88.0089 336.26 88.0175C336.18 88.0261 336.101 88.0367 336.022 88.0494C335.943 88.0621 335.864 88.0769 335.786 88.0937C335.708 88.1106 335.629 88.1294 335.552 88.1504C335.474 88.1713 335.397 88.1943 335.32 88.2192C335.243 88.2442 335.167 88.2711 335.091 88.3001C335.016 88.329 334.941 88.3599 334.866 88.3928C334.792 88.4256 334.718 88.4604 334.646 88.4971C334.572 88.5337 334.5 88.5723 334.429 88.6127C334.358 88.6531 334.288 88.6953 334.218 88.7394C334.149 88.7835 334.08 88.8293 334.013 88.8769C333.946 88.9245 333.879 88.9738 333.814 89.0248C333.749 89.0759 333.685 89.1285 333.622 89.1828C333.559 89.2372 333.497 89.2931 333.437 89.3505C333.376 89.408 333.317 89.467 333.259 89.5275C333.201 89.5879 333.144 89.6498 333.089 89.7133C333.034 89.7767 332.98 89.8415 332.928 89.9078C332.876 89.9738 332.825 90.0412 332.776 90.1099C332.727 90.1786 332.679 90.2485 332.633 90.3196C332.587 90.3908 332.542 90.463 332.499 90.5364C332.456 90.6098 332.415 90.6841 332.376 90.7593C332.336 90.8347 332.298 90.9111 332.262 90.9883C332.226 91.0656 332.192 91.1438 332.159 91.2229C332.126 91.3019 332.096 91.3815 332.067 91.4618C332.038 91.5424 332.011 91.6236 331.985 91.7054C331.96 91.7872 331.937 91.8695 331.915 91.9523C331.893 92.0351 331.874 92.1185 331.856 92.2023C331.838 92.2862 331.822 92.3703 331.808 92.4547C331.794 92.5392 331.782 92.6239 331.772 92.7089C331.762 92.794 331.754 92.8792 331.747 92.9646C331.741 93.0498 331.737 93.135 331.734 93.2204C331.732 93.3059 331.732 93.3914 331.733 93.4767C331.735 93.562 331.738 93.6471 331.744 93.7321C331.749 93.8169 331.757 93.9015 331.766 93.986C331.776 94.0705 331.787 94.1546 331.8 94.2383C331.813 94.3221 331.828 94.4053 331.845 94.4881C331.862 94.5709 331.881 94.6531 331.902 94.7346C331.923 94.8164 331.946 94.8975 331.97 94.9779C331.995 95.0583 332.021 95.1378 332.049 95.2165C332.078 95.2954 332.108 95.3734 332.14 95.4504C332.172 95.5277 332.205 95.6038 332.241 95.6789C332.276 95.7542 332.313 95.8284 332.352 95.9016C332.391 95.9748 332.432 96.0468 332.474 96.1177C332.516 96.1885 332.56 96.2581 332.606 96.3267C332.651 96.3952 332.698 96.4624 332.747 96.5283C332.795 96.5941 332.845 96.6586 332.897 96.7218C332.949 96.7849 333.002 96.8466 333.057 96.9068C333.111 96.9672 333.167 97.026 333.224 97.0833C333.282 97.1405 333.34 97.1962 333.401 97.2502C333.46 97.3042 333.522 97.3565 333.584 97.4073C333.647 97.458 333.71 97.507 333.775 97.5542C333.84 97.6015 333.906 97.647 333.973 97.6909C334.04 97.7346 334.108 97.7765 334.177 97.8165C334.246 97.8566 334.316 97.8949 334.387 97.9314C334.458 97.9676 334.529 98.0021 334.602 98.0347C334.675 98.0671 334.748 98.0976 334.822 98.1262C334.896 98.1547 334.971 98.1813 335.046 98.206C335.122 98.2305 335.198 98.2532 335.274 98.2739C335.351 98.2944 335.428 98.3129 335.505 98.3294C335.583 98.3459 335.661 98.3603 335.739 98.3727C335.817 98.3849 335.896 98.3951 335.975 98.4034C336.054 98.4115 336.133 98.4176 336.212 98.4218C336.292 98.4257 336.371 98.4276 336.45 98.4276C336.53 98.4274 336.61 98.425 336.689 98.4205C336.769 98.4162 336.848 98.4098 336.928 98.4013C337.007 98.3927 337.086 98.3821 337.165 98.3694C337.244 98.3566 337.323 98.3418 337.401 98.325C337.48 98.3082 337.558 98.2894 337.636 98.2684C337.713 98.2475 337.79 98.2245 337.867 98.1996C337.944 98.1747 338.02 98.1478 338.096 98.1188C338.172 98.0898 338.247 98.0588 338.321 98.0258C338.395 97.9931 338.469 97.9583 338.542 97.9216C338.615 97.8849 338.687 97.8464 338.758 97.806C338.829 97.7656 338.9 97.7234 338.969 97.6793C339.039 97.6352 339.107 97.5894 339.174 97.542C339.242 97.4943 339.308 97.445 339.373 97.394C339.439 97.343 339.503 97.2903 339.566 97.2358C339.629 97.1817 339.69 97.1258 339.751 97.0682C339.811 97.0108 339.87 96.9518 339.928 96.8912C339.986 96.8308 340.043 96.7689 340.098 96.7055C340.153 96.6421 340.207 96.5773 340.259 96.511C340.311 96.4449 340.362 96.3776 340.411 96.3089C340.461 96.2402 340.508 96.1703 340.554 96.0992C340.6 96.028 340.645 95.9558 340.688 95.8824C340.731 95.809 340.772 95.7347 340.812 95.6595C340.851 95.584 340.889 95.5077 340.925 95.4304C340.961 95.3532 340.996 95.275 341.028 95.1959C341.061 95.1169 341.092 95.0373 341.121 94.9569C341.15 94.8763 341.177 94.7952 341.202 94.7134C341.228 94.6316 341.251 94.5493 341.273 94.4665C341.294 94.3836 341.314 94.3003 341.332 94.2165C341.349 94.1326 341.365 94.0485 341.379 93.9641C341.393 93.8797 341.405 93.7949 341.415 93.7099C341.426 93.6248 341.434 93.5396 341.44 93.4542C341.446 93.369 341.451 93.2838 341.453 93.1984C341.455 93.1129 341.456 93.0274 341.454 92.9422C341.453 92.8568 341.449 92.7717 341.444 92.6867C341.438 92.6019 341.431 92.5173 341.421 92.4328C341.412 92.3483 341.401 92.2642 341.387 92.1804C341.374 92.0967 341.359 92.0135 341.342 91.9307C341.325 91.8479 341.306 91.7657 341.285 91.6841C341.264 91.6024 341.242 91.5213 341.217 91.4409C341.193 91.3605 341.166 91.281 341.138 91.2022C341.109 91.1234 341.079 91.0454 341.047 90.9683C341.016 90.8912 340.982 90.815 340.946 90.7398C340.911 90.6646 340.874 90.5904 340.835 90.5172C340.796 90.444 340.756 90.372 340.714 90.3011C340.671 90.2302 340.627 90.1605 340.582 90.092C340.536 90.0235 340.489 89.9563 340.441 89.8904C340.392 89.8246 340.342 89.76 340.29 89.6969C340.239 89.6337 340.185 89.5721 340.131 89.5118C340.076 89.4515 340.02 89.3927 339.963 89.3356C339.906 89.2784 339.847 89.2227 339.787 89.1687C339.727 89.1146 339.666 89.0623 339.603 89.0116C339.541 88.9608 339.477 88.9118 339.412 88.8645C339.347 88.8172 339.281 88.7717 339.214 88.728C339.147 88.6842 339.079 88.6423 339.011 88.6022C338.942 88.5621 338.872 88.5239 338.801 88.4876C338.73 88.4512 338.658 88.4168 338.585 88.3842C338.513 88.3517 338.439 88.3212 338.365 88.2926C338.291 88.264 338.216 88.2374 338.141 88.2127C338.066 88.1881 337.99 88.1655 337.913 88.145C337.837 88.1244 337.76 88.1059 337.682 88.0894Z"   fill="#FFDD00" >
</path>
</svg>
