<svg xmlns="http://www.w3.org/2000/svg" xmlns:xlink="http://www.w3.org/1999/xlink" width="328.9132080078125" height="350.987548828125" viewBox="0 0 328.9132080078125 350.987548828125" fill="none">
<path d="M241.662 36.3965L247.532 35.883L263.124 214.098L257.254 214.612L241.662 36.3965Z"   fill="#E4EBED" >
</path>
<path d="M257.032 90.3913L268.045 216.275C268.05 216.357 268.052 216.44 268.05 216.522C268.049 216.605 268.043 216.687 268.035 216.769C268.026 216.852 268.014 216.933 267.998 217.014C267.983 217.094 267.964 217.174 267.941 217.253C267.919 217.332 267.893 217.409 267.864 217.485C267.835 217.562 267.804 217.636 267.768 217.709C267.733 217.782 267.694 217.853 267.653 217.922C267.612 217.991 267.568 218.058 267.521 218.122L214.557 286.442C214.507 286.506 214.454 286.567 214.398 286.625C214.342 286.684 214.283 286.739 214.222 286.791C214.161 286.843 214.098 286.892 214.032 286.937C213.966 286.982 213.899 287.024 213.829 287.062C213.759 287.1 213.688 287.134 213.615 287.164C213.543 287.194 213.468 287.22 213.393 287.242C213.318 287.264 213.241 287.282 213.164 287.296C213.087 287.31 213.009 287.32 212.931 287.325L85.2398 298.497L91.1345 321.663C91.1715 321.807 91.2114 321.95 91.2542 322.092C91.297 322.234 91.3426 322.375 91.3911 322.515C91.4395 322.655 91.4906 322.794 91.5447 322.932C91.5987 323.069 91.6554 323.206 91.7147 323.341C91.7742 323.476 91.8364 323.61 91.9012 323.742C91.966 323.874 92.0334 324.005 92.1032 324.134C92.1732 324.263 92.2458 324.391 92.3209 324.517C92.396 324.642 92.4735 324.766 92.5536 324.889C92.6335 325.011 92.7159 325.131 92.8008 325.25C92.8857 325.368 92.9729 325.485 93.0623 325.599C93.1518 325.714 93.2434 325.826 93.3373 325.936C93.4313 326.047 93.5274 326.155 93.6255 326.26C93.7237 326.366 93.8239 326.47 93.9262 326.571C94.0285 326.672 94.1328 326.771 94.239 326.867C94.3454 326.964 94.4536 327.057 94.5635 327.149C94.6734 327.24 94.785 327.329 94.8985 327.415C95.0119 327.501 95.127 327.585 95.2439 327.666C95.3606 327.746 95.4788 327.824 95.5985 327.9C95.7183 327.975 95.8395 328.048 95.9623 328.117C96.085 328.187 96.2089 328.254 96.3341 328.318C96.4594 328.382 96.5859 328.443 96.7136 328.501C96.8413 328.558 96.97 328.613 97.0997 328.666C97.2294 328.718 97.3602 328.766 97.492 328.812C97.6235 328.858 97.756 328.901 97.8894 328.941C98.0228 328.981 98.1568 329.017 98.2914 329.051C98.4262 329.084 98.5616 329.115 98.6974 329.142C98.8332 329.169 98.9695 329.193 99.1062 329.214C99.243 329.235 99.3801 329.252 99.5174 329.267C99.6549 329.281 99.7924 329.292 99.9302 329.3C100.068 329.308 100.206 329.312 100.344 329.314C100.481 329.316 100.619 329.314 100.757 329.309C100.895 329.304 101.032 329.296 101.169 329.284C101.729 329.233 102.28 329.13 102.822 328.974L294.983 273.513C295.133 273.471 295.282 273.424 295.429 273.373C295.577 273.323 295.724 273.268 295.869 273.21C296.014 273.151 296.158 273.089 296.3 273.023C296.442 272.957 296.583 272.887 296.722 272.814C296.861 272.74 296.998 272.663 297.134 272.582C297.269 272.501 297.403 272.417 297.534 272.329C297.666 272.241 297.795 272.149 297.922 272.055C298.05 271.96 298.175 271.862 298.298 271.76C298.42 271.658 298.541 271.553 298.659 271.446C298.777 271.338 298.892 271.227 299.005 271.113C299.118 270.999 299.228 270.882 299.335 270.761C299.443 270.641 299.547 270.518 299.649 270.393C299.751 270.267 299.85 270.139 299.946 270.008C300.041 269.877 300.134 269.744 300.224 269.608C300.314 269.472 300.4 269.333 300.484 269.193C300.567 269.052 300.648 268.91 300.724 268.764C300.801 268.619 300.875 268.473 300.945 268.324C301.015 268.175 301.082 268.024 301.146 267.872C301.209 267.719 301.269 267.565 301.325 267.409C301.381 267.253 301.434 267.096 301.483 266.937C301.532 266.779 301.578 266.619 301.619 266.458C301.661 266.296 301.699 266.134 301.734 265.971C301.768 265.807 301.799 265.643 301.826 265.478C301.853 265.313 301.876 265.147 301.896 264.981C301.915 264.815 301.931 264.648 301.943 264.48C301.954 264.313 301.962 264.145 301.967 263.977C301.971 263.81 301.971 263.642 301.968 263.474C301.965 263.306 301.957 263.138 301.947 262.97C301.936 262.802 301.921 262.635 301.902 262.468C301.884 262.301 301.861 262.134 301.835 261.968C301.809 261.802 301.779 261.637 301.746 261.473C301.712 261.308 301.675 261.144 301.634 260.982L258.184 90.1755L257.032 90.3913Z"   fill="#FF5733" >
</path>
<path d="M214.554 278.429L260.258 219.474L209.782 223.89L214.554 278.429Z"   fill="#EFFAFE" >
</path>
<path d="M301.634 260.982L258.184 90.1758L257.02 90.3926L259.531 119.095L295.752 261.484C295.793 261.647 295.83 261.81 295.864 261.975C295.897 262.139 295.927 262.305 295.953 262.471C295.979 262.637 296.002 262.803 296.02 262.97C296.039 263.137 296.054 263.305 296.064 263.472C296.075 263.64 296.083 263.808 296.086 263.976C296.089 264.144 296.089 264.312 296.084 264.48C296.08 264.648 296.072 264.815 296.06 264.983C296.049 265.15 296.033 265.317 296.013 265.483C295.994 265.649 295.971 265.815 295.944 265.98C295.917 266.145 295.886 266.31 295.852 266.473C295.817 266.636 295.779 266.799 295.737 266.96C295.695 267.121 295.65 267.281 295.601 267.44C295.552 267.598 295.499 267.755 295.443 267.911C295.386 268.067 295.327 268.221 295.263 268.374C295.2 268.526 295.133 268.677 295.063 268.826C294.993 268.975 294.919 269.122 294.842 269.267C294.765 269.412 294.685 269.555 294.602 269.695C294.518 269.836 294.432 269.974 294.342 270.11C294.252 270.246 294.159 270.379 294.063 270.51C293.967 270.641 293.868 270.77 293.767 270.895C293.665 271.021 293.56 271.144 293.453 271.263C293.346 271.384 293.235 271.501 293.123 271.615C293.01 271.729 292.895 271.84 292.777 271.948C292.659 272.056 292.538 272.161 292.416 272.262C292.293 272.364 292.168 272.462 292.04 272.557C291.913 272.652 291.784 272.743 291.652 272.831C291.52 272.919 291.387 273.003 291.252 273.084C291.116 273.165 290.979 273.242 290.84 273.316C290.701 273.389 290.56 273.459 290.418 273.525C290.276 273.591 290.132 273.654 289.987 273.712C289.841 273.77 289.695 273.825 289.547 273.876C289.399 273.926 289.251 273.973 289.101 274.016L98.392 329.042C98.848 329.15 99.3084 329.221 99.7733 329.255C100.238 329.29 100.702 329.287 101.166 329.247C101.726 329.196 102.277 329.092 102.818 328.936L294.983 273.514C295.133 273.471 295.281 273.424 295.429 273.374C295.577 273.323 295.724 273.269 295.869 273.21C296.014 273.152 296.158 273.089 296.3 273.024C296.442 272.957 296.583 272.888 296.722 272.814C296.861 272.741 296.998 272.663 297.134 272.583C297.269 272.502 297.403 272.417 297.534 272.329C297.666 272.241 297.795 272.15 297.922 272.055C298.05 271.96 298.175 271.862 298.298 271.76C298.42 271.659 298.541 271.554 298.659 271.446C298.777 271.338 298.892 271.227 299.005 271.113C299.117 270.999 299.228 270.882 299.335 270.762C299.443 270.642 299.547 270.519 299.649 270.393C299.751 270.268 299.85 270.139 299.945 270.009C300.041 269.877 300.134 269.744 300.224 269.608C300.314 269.472 300.4 269.334 300.484 269.193C300.567 269.053 300.647 268.91 300.724 268.765C300.801 268.62 300.875 268.473 300.945 268.324C301.015 268.175 301.082 268.025 301.145 267.872C301.209 267.72 301.269 267.565 301.325 267.409C301.381 267.254 301.434 267.096 301.483 266.938C301.532 266.779 301.578 266.619 301.619 266.458C301.661 266.297 301.699 266.134 301.734 265.971C301.768 265.808 301.799 265.643 301.826 265.479C301.853 265.314 301.876 265.148 301.896 264.981C301.915 264.815 301.931 264.648 301.943 264.481C301.954 264.314 301.962 264.146 301.967 263.978C301.971 263.81 301.971 263.642 301.968 263.474C301.965 263.306 301.957 263.138 301.946 262.971C301.936 262.803 301.921 262.635 301.902 262.468C301.884 262.301 301.861 262.135 301.835 261.969C301.809 261.803 301.779 261.638 301.746 261.473C301.712 261.308 301.675 261.145 301.634 260.982Z"   fill="#43CF7C" >
</path>
<path d="M254.389 219.987L213.999 272.087L214.554 278.429L260.258 219.474L254.389 219.987Z"   fill="#E4EBED" >
</path>
<path d="M51.8398 316.865L70.7974 315.206L76.7699 338.725C76.8271 338.95 76.8934 339.179 76.9595 339.401C77.0257 339.624 77.0923 339.837 77.1674 340.056C77.2424 340.275 77.3215 340.492 77.4051 340.707C77.4887 340.923 77.5794 341.135 77.6718 341.347C77.7639 341.558 77.857 341.767 77.9576 341.974C78.0582 342.181 78.1633 342.387 78.2724 342.589C78.3814 342.791 78.4993 342.995 78.6162 343.191C78.7331 343.388 78.8535 343.581 78.9782 343.772C79.1028 343.963 79.2271 344.156 79.3592 344.341C79.4916 344.526 79.6288 344.708 79.7684 344.887C79.908 345.067 80.0494 345.24 80.1957 345.412C80.3424 345.585 80.4981 345.749 80.6512 345.914C80.8044 346.08 80.9562 346.248 81.1158 346.406C81.2755 346.564 81.4419 346.714 81.6077 346.865C81.7738 347.015 81.9371 347.17 82.1087 347.313C82.2803 347.456 82.4595 347.594 82.6369 347.728C82.814 347.863 82.9902 347.987 83.1725 348.113C83.3548 348.24 83.5397 348.368 83.7271 348.486C83.9142 348.604 84.1074 348.719 84.299 348.827C84.4907 348.937 84.6827 349.038 84.8783 349.138C85.0742 349.238 85.2757 349.327 85.4749 349.417C85.6744 349.508 85.8669 349.595 86.0697 349.676C86.2726 349.758 86.4769 349.842 86.6828 349.914C86.8886 349.985 87.1037 350.048 87.3122 350.11C87.5205 350.172 87.7285 350.224 87.9391 350.276C88.1497 350.328 88.362 350.379 88.5742 350.421C88.7866 350.463 88.993 350.504 89.2066 350.536C89.4203 350.569 89.641 350.588 89.8555 350.61C90.0704 350.632 90.2776 350.653 90.4927 350.665C90.7079 350.677 90.9318 350.686 91.1472 350.688C91.3627 350.69 91.5731 350.68 91.7883 350.672C92.0034 350.663 92.223 350.654 92.4375 350.635C93.3088 350.559 94.1626 350.407 95.0067 350.169L293.02 294.178C293.254 294.112 293.494 294.045 293.724 293.966C293.954 293.887 294.178 293.797 294.404 293.706C294.631 293.615 294.85 293.52 295.072 293.417C295.293 293.314 295.52 293.212 295.736 293.097C295.953 292.983 296.166 292.856 296.377 292.73C296.588 292.604 296.791 292.482 296.996 292.345C297.2 292.208 297.402 292.058 297.6 291.91C297.799 291.763 298.002 291.615 298.193 291.457C298.384 291.299 298.568 291.135 298.752 290.966C298.936 290.798 299.113 290.625 299.289 290.448C299.465 290.27 299.636 290.088 299.803 289.901C299.971 289.714 300.137 289.522 300.295 289.326C300.454 289.13 300.605 288.928 300.754 288.723C300.904 288.52 301.052 288.315 301.192 288.103C301.332 287.891 301.467 287.674 301.597 287.455C301.727 287.236 301.851 287.016 301.97 286.79C302.09 286.565 302.203 286.34 302.312 286.108C302.421 285.876 302.523 285.636 302.622 285.398C302.72 285.161 302.813 284.924 302.9 284.681C302.988 284.438 303.071 284.194 303.147 283.947C303.224 283.7 303.297 283.446 303.362 283.195C303.428 282.944 303.483 282.692 303.537 282.437C303.591 282.183 303.639 281.929 303.681 281.672C303.723 281.415 303.764 281.158 303.794 280.899C303.824 280.64 303.848 280.38 303.866 280.119C303.885 279.859 303.891 279.595 303.898 279.334C303.904 279.072 303.905 278.812 303.9 278.551C303.894 278.289 303.893 278.021 303.871 277.76C303.848 277.499 303.826 277.244 303.803 276.983C303.78 276.722 303.736 276.468 303.695 276.21C303.654 275.951 303.609 275.685 303.556 275.429C303.504 275.172 303.443 274.924 303.38 274.671L251.066 69.008L249.229 48.0182C249.225 47.9663 249.21 47.9115 249.205 47.8597C249.201 47.8078 249.186 47.7528 249.182 47.7011C249.177 47.6495 249.163 47.6039 249.159 47.5526C249.154 47.5012 249.12 47.4567 249.116 47.4058C249.111 47.3549 249.088 47.2983 249.072 47.249C249.056 47.1997 249.037 47.1515 249.019 47.1031C249.001 47.0546 248.976 47.0054 248.956 46.958C248.936 46.9105 248.917 46.8692 248.894 46.8229C248.871 46.7765 248.847 46.7338 248.822 46.6886C248.797 46.6435 248.777 46.5982 248.75 46.5544C248.723 46.5106 248.697 46.4634 248.668 46.421C248.64 46.3787 248.608 46.3393 248.577 46.2985C248.547 46.2577 248.518 46.2152 248.486 46.176C248.454 46.1368 248.42 46.1017 248.386 46.0643C248.352 46.0268 248.311 45.9891 248.276 45.9534C248.24 45.9178 248.204 45.8863 248.167 45.8526C248.129 45.8189 248.096 45.7834 248.057 45.7517C248.019 45.72 247.979 45.6913 247.939 45.6617C247.899 45.632 247.862 45.5992 247.821 45.5716C247.78 45.5441 247.736 45.5178 247.693 45.4924C247.651 45.4671 247.611 45.4463 247.567 45.4232C247.523 45.4002 247.475 45.3756 247.43 45.3548C247.386 45.3341 247.34 45.3149 247.295 45.2964C247.249 45.278 247.206 45.264 247.16 45.248C247.114 45.232 247.062 45.2139 247.015 45.2004C246.969 45.1869 246.929 45.173 246.882 45.1619C246.834 45.1509 246.786 45.1428 246.739 45.1343C246.691 45.1258 246.644 45.1126 246.596 45.1067C246.547 45.1007 246.492 45.0956 246.444 45.0998C246.397 45.104 246.351 45.0879 246.303 45.0921C246.255 45.0963 246.211 45.0901 246.163 45.0943C246.115 45.0985 246.06 45.0932 246.013 45.0974L76.251 59.9496C76.1843 59.6803 76.1175 59.411 76.0401 59.145C75.9624 58.8789 75.8785 58.616 75.7902 58.3537C75.7019 58.0914 75.6098 57.8331 75.5113 57.5751C75.4124 57.3171 75.3025 57.0631 75.1934 56.8099C75.0843 56.5566 74.9754 56.3044 74.8564 56.0564C74.7371 55.8084 74.6105 55.5686 74.4814 55.3263C74.3522 55.084 74.2159 54.8449 74.0773 54.6088C73.9386 54.3727 73.7923 54.1333 73.6442 53.9038C73.4961 53.6744 73.3511 53.4529 73.1938 53.2305C73.0368 53.0082 72.8705 52.7855 72.7044 52.5707C72.5387 52.3558 72.3723 52.1493 72.1977 51.9424C72.0232 51.7355 71.8456 51.5353 71.6629 51.3367C71.4802 51.1382 71.2901 50.9435 71.0999 50.7536C70.9098 50.5637 70.7165 50.3729 70.5188 50.1921C70.3211 50.0113 70.1152 49.8344 69.9104 49.6631C69.7056 49.4918 69.496 49.3274 69.2847 49.1658C69.0733 49.0041 68.8592 48.8516 68.6416 48.7C68.424 48.5485 68.2039 48.3972 67.9804 48.256C67.7569 48.1148 67.5318 47.984 67.3027 47.8535C67.074 47.7229 66.8406 47.5924 66.6069 47.4727C66.3732 47.353 66.143 47.2412 65.9046 47.1326C65.6665 47.024 65.4274 46.9214 65.185 46.8242C64.9426 46.7269 64.6939 46.6331 64.448 46.5473C64.2019 46.4616 63.9536 46.3853 63.7046 46.3112C63.4554 46.2371 63.2057 46.1682 62.9539 46.1059C62.7021 46.0436 62.4495 45.9817 62.1958 45.9313C61.9421 45.8809 61.6877 45.8457 61.4321 45.8074C61.1765 45.7691 60.9267 45.7296 60.6701 45.7034C60.4135 45.6772 60.149 45.6551 59.8917 45.641C59.6344 45.6269 59.3842 45.6195 59.1268 45.6176C58.8693 45.6157 58.6126 45.6246 58.3553 45.6349C58.0981 45.6452 57.8327 45.6605 57.5766 45.6829C57.3204 45.7054 57.0664 45.7354 56.8112 45.77C56.5561 45.8045 56.3017 45.8403 56.0485 45.8869C55.7953 45.9335 55.5502 45.9842 55.2993 46.0428C55.0483 46.1014 54.7917 46.169 54.5435 46.2394C54.2954 46.3098 54.0562 46.392 53.8112 46.4741C53.5661 46.5563 53.3217 46.6351 53.0806 46.7288C52.8395 46.8224 52.6015 46.9273 52.3643 47.0323C52.1272 47.1374 51.8932 47.2487 51.6606 47.3649C51.4283 47.4812 51.197 47.5994 50.9695 47.7266C50.7423 47.8537 50.5137 47.9893 50.2919 48.1271C50.07 48.265 49.8526 48.4076 49.6367 48.5559C49.4211 48.7042 49.2036 48.8551 48.9942 49.0136C48.7848 49.1721 48.5876 49.3403 48.385 49.5086C48.1821 49.6769 47.9731 49.8456 47.7776 50.0235C47.582 50.2014 47.3915 50.3886 47.2035 50.5756C47.0155 50.7627 46.8312 50.9501 46.6511 51.1459C46.471 51.3418 46.2932 51.5401 46.1213 51.7444C45.9493 51.9487 45.7872 52.1577 45.6239 52.3701C45.4606 52.5825 45.3034 52.804 45.1491 53.024C44.9945 53.244 44.841 53.4688 44.6959 53.6961C44.5505 53.9233 44.4104 54.1514 44.2744 54.3854C44.1385 54.6195 44.0105 54.8517 43.8845 55.0921C43.7583 55.3325 43.6332 55.5807 43.5172 55.8269C43.4009 56.0732 43.2865 56.3174 43.1806 56.5691C43.0744 56.8207 42.9821 57.081 42.8864 57.3376C42.7908 57.5942 42.6981 57.8534 42.6131 58.1144C42.5281 58.3754 42.4449 58.6336 42.3705 58.8985C42.2963 59.1635 42.233 59.4307 42.1695 59.6991C42.1061 59.9674 42.0419 60.2366 41.9893 60.5079C41.937 60.7791 41.8912 61.0495 41.8498 61.3231C41.8085 61.5968 41.7714 61.8702 41.7411 62.1457C41.711 62.4212 41.6921 62.698 41.6731 62.9748L29.7188 64.0207C29.4774 64.0418 29.2334 64.0701 28.9933 64.1042C28.7534 64.1383 28.5193 64.18 28.2813 64.2268C28.0433 64.2735 27.8082 64.3298 27.5727 64.3891C27.3373 64.4484 27.0991 64.5096 26.8668 64.5814C26.6345 64.6532 26.4038 64.7386 26.1752 64.8226C25.9466 64.9066 25.7205 64.9967 25.4962 65.0928C25.2718 65.1888 25.0493 65.2841 24.8297 65.392C24.6101 65.4999 24.4018 65.6199 24.1875 65.7393C23.9733 65.8587 23.7555 65.9758 23.5471 66.1065C23.3386 66.2372 23.1331 66.3801 22.9309 66.5218C22.7288 66.6635 22.5318 66.803 22.3365 66.9553C22.1412 67.1075 21.9534 67.2643 21.7654 67.4268C21.5773 67.5894 21.3881 67.765 21.2078 67.9374C21.0275 68.1098 20.8539 68.2834 20.6818 68.4652C20.5096 68.647 20.3418 68.8304 20.1783 69.0212C20.0148 69.2121 19.852 69.406 19.6974 69.6054C19.5428 69.8047 19.3942 70.0093 19.249 70.2168C19.1037 70.4242 18.9686 70.6404 18.833 70.8554C18.6975 71.0705 18.5643 71.2903 18.4388 71.5123C18.3133 71.7344 18.1914 71.9579 18.0762 72.1865C17.961 72.4151 17.8498 72.6432 17.7452 72.878C17.6406 73.1125 17.5404 73.3568 17.4467 73.5967C17.3529 73.8367 17.2716 74.077 17.1889 74.3219C17.1062 74.5667 17.0233 74.8063 16.9519 75.0554C16.8805 75.3045 16.8174 75.5625 16.7574 75.8152C16.6975 76.0678 16.6412 76.3167 16.5928 76.5724C16.5444 76.8282 16.5064 77.0879 16.4698 77.3461C16.4331 77.6041 16.4023 77.867 16.3775 78.1271C16.3526 78.3871 16.3281 78.6445 16.3151 78.9055C16.3021 79.1668 16.2945 79.4287 16.2934 79.6904C16.2923 79.9521 16.3008 80.2103 16.3116 80.4718C16.3223 80.7335 16.3377 80.9998 16.3605 81.2605L35.6916 302.216C35.7145 302.477 35.7447 302.732 35.7796 302.992C35.8144 303.251 35.8517 303.517 35.8982 303.774C35.9448 304.032 35.9977 304.289 36.0559 304.544C36.114 304.799 36.1829 305.048 36.2525 305.299C36.3221 305.551 36.398 305.805 36.479 306.052C36.5599 306.3 36.6416 306.54 36.7336 306.783C36.8257 307.027 36.9252 307.272 37.0281 307.51C37.131 307.749 37.2372 307.982 37.3507 308.215C37.4643 308.448 37.5884 308.679 37.7123 308.906C37.8363 309.133 37.9582 309.355 38.0921 309.575C38.2262 309.796 38.3663 310.009 38.51 310.221C38.6538 310.434 38.8038 310.65 38.9569 310.855C39.1101 311.06 39.269 311.259 39.4311 311.456C39.5933 311.653 39.7626 311.846 39.9335 312.034C40.1043 312.222 40.274 312.402 40.4531 312.581C40.6321 312.76 40.814 312.936 41.0009 313.105C41.1877 313.275 41.3817 313.438 41.5759 313.597C41.7701 313.757 41.968 313.918 42.1691 314.067C42.3702 314.216 42.5713 314.357 42.7788 314.496C42.9863 314.634 43.2024 314.764 43.4157 314.892C43.6291 315.019 43.8412 315.141 44.06 315.257C44.2788 315.373 44.498 315.486 44.7216 315.59C44.9453 315.695 45.1717 315.79 45.3997 315.882C45.6276 315.975 45.8633 316.062 46.095 316.143C46.3268 316.223 46.5527 316.305 46.7877 316.373C47.0227 316.442 47.2584 316.497 47.496 316.552C47.7337 316.608 47.9719 316.658 48.2116 316.7C48.4514 316.744 48.6926 316.778 48.9338 316.808C49.175 316.839 49.4211 316.867 49.6632 316.885C49.9054 316.902 50.1467 316.917 50.3892 316.921C50.6317 316.926 50.8687 316.917 51.1108 316.909C51.3532 316.9 51.5984 316.886 51.8398 316.865ZM264.566 233.638C264.624 233.558 264.684 233.477 264.735 233.392C264.786 233.307 264.829 233.219 264.872 233.129C264.916 233.039 264.954 232.952 264.989 232.858C265.025 232.764 265.057 232.666 265.084 232.569C265.112 232.471 265.14 232.371 265.159 232.271C265.177 232.172 265.192 232.068 265.202 231.966C265.213 231.865 265.215 231.766 265.216 231.664C265.217 231.562 265.219 231.465 265.21 231.363L254.196 105.474L297.628 276.279C297.666 276.431 297.707 276.587 297.738 276.741C297.77 276.895 297.795 277.05 297.819 277.205C297.844 277.361 297.867 277.525 297.881 277.682C297.895 277.839 297.918 277.992 297.932 278.149C297.946 278.306 297.94 278.462 297.943 278.62C297.947 278.778 297.948 278.934 297.944 279.092C297.94 279.249 297.936 279.408 297.925 279.565C297.914 279.722 297.895 279.885 297.877 280.041C297.858 280.197 297.841 280.343 297.816 280.498C297.791 280.653 297.759 280.814 297.727 280.968C297.694 281.121 297.665 281.267 297.626 281.418C297.586 281.57 297.541 281.723 297.495 281.871C297.449 282.021 297.396 282.17 297.343 282.316C297.29 282.463 297.24 282.609 297.18 282.752C297.121 282.895 297.052 283.031 296.986 283.171C296.92 283.311 296.854 283.454 296.782 283.59C296.709 283.726 296.634 283.86 296.556 283.991C296.478 284.123 296.394 284.257 296.309 284.384C296.225 284.512 296.141 284.636 296.051 284.758C295.961 284.881 295.866 284.996 295.771 285.114C295.675 285.232 295.581 285.348 295.48 285.461C295.379 285.573 295.273 285.682 295.167 285.789C295.061 285.896 294.954 285.998 294.843 286.099C294.732 286.2 294.613 286.305 294.498 286.4C294.382 286.495 294.27 286.582 294.15 286.671C294.031 286.76 293.905 286.852 293.782 286.934C293.658 287.017 293.538 287.092 293.411 287.168C293.283 287.244 293.149 287.314 293.018 287.383C292.887 287.452 292.757 287.516 292.624 287.578C292.49 287.64 292.354 287.699 292.217 287.754C292.081 287.809 291.948 287.863 291.809 287.91C291.671 287.957 291.53 287.997 291.389 288.037L93.4433 344.002C93.3024 344.042 93.1537 344.078 93.011 344.11C92.8687 344.142 92.731 344.173 92.587 344.197C92.4431 344.222 92.2966 344.253 92.1513 344.266C92.0058 344.278 91.8583 344.291 91.713 344.304C91.5677 344.317 91.418 344.311 91.2721 344.313C91.1258 344.314 90.9863 344.317 90.8402 344.31C90.6942 344.304 90.5516 344.292 90.4057 344.278C90.2602 344.264 90.1146 344.248 89.9695 344.226C89.8245 344.204 89.6755 344.183 89.5316 344.154C89.3877 344.125 89.2435 344.087 89.101 344.051C88.9585 344.014 88.8194 343.971 88.6786 343.927C88.5378 343.883 88.3932 343.835 88.2545 343.784C88.116 343.732 87.9847 343.677 87.8485 343.618C87.7124 343.56 87.5744 343.499 87.4408 343.433C87.3076 343.367 87.1719 343.3 87.0414 343.227C86.9111 343.154 86.7871 343.079 86.6601 343C86.5331 342.92 86.4102 342.837 86.287 342.751C86.1638 342.665 86.0414 342.575 85.9221 342.482C85.8026 342.389 85.6803 342.291 85.5655 342.192C85.4504 342.093 85.3385 341.995 85.2279 341.89C85.1173 341.785 85.0143 341.677 84.9085 341.567C84.8028 341.456 84.698 341.338 84.5974 341.223C84.4967 341.107 84.4007 340.987 84.3052 340.867C84.2098 340.746 84.1118 340.626 84.0222 340.5C83.9322 340.374 83.8511 340.241 83.7673 340.111C83.6835 339.981 83.6003 339.855 83.5223 339.72C83.4444 339.586 83.3674 339.447 83.2956 339.309C83.2238 339.171 83.1535 339.027 83.0879 338.885C83.0225 338.743 82.9592 338.605 82.9001 338.46C82.841 338.315 82.7936 338.17 82.7413 338.022C82.6891 337.874 82.6374 337.724 82.5917 337.573C82.546 337.423 82.4998 337.266 82.4611 337.113L76.7646 314.684L209.647 303.058C209.743 303.05 209.83 303.043 209.925 303.024C210.02 303.006 210.117 302.978 210.21 302.949C210.302 302.921 210.393 302.893 210.482 302.855C210.572 302.817 210.656 302.769 210.742 302.722C210.827 302.674 210.909 302.626 210.99 302.57C211.07 302.513 211.15 302.453 211.225 302.388C211.3 302.324 211.378 302.251 211.447 302.178C211.516 302.106 211.576 302.03 211.638 301.951L264.566 233.638ZM211.597 291.956L207.013 239.566L255.488 235.325L211.597 291.956ZM58.1309 52.0187C58.2914 52.0047 58.4596 52 58.6199 51.986C58.7801 51.972 58.9403 51.9827 59.1015 51.984C59.2628 51.9853 59.423 51.9835 59.5841 51.992C59.7451 52.0004 59.9085 52.0143 60.0692 52.0298C60.23 52.0454 60.386 52.0659 60.5461 52.0885C60.706 52.1111 60.8655 52.1374 61.0248 52.1671C61.1838 52.1967 61.3474 52.2289 61.5052 52.2656C61.6631 52.3023 61.821 52.3413 61.9774 52.3849C62.1341 52.4285 62.2865 52.4745 62.4414 52.525C62.5963 52.5754 62.7443 52.6286 62.8971 52.6859C63.05 52.7431 63.2047 52.8127 63.3555 52.8766C63.5063 52.9406 63.6567 53.0077 63.8048 53.0783C63.9529 53.1488 64.0996 53.2137 64.245 53.2907C64.3904 53.3677 64.5354 53.4506 64.6778 53.5339C64.8203 53.6172 64.963 53.7085 65.1025 53.7979C65.2419 53.8874 65.3822 53.9772 65.518 54.0727C65.6538 54.1682 65.7832 54.2678 65.9153 54.3692C66.0475 54.4706 66.1754 54.5695 66.3036 54.6766C66.4319 54.7836 66.5602 54.902 66.6845 55.0146C66.8088 55.1273 66.9355 55.2357 67.0555 55.3536C67.1755 55.4715 67.2931 55.5911 67.4082 55.7142C67.5237 55.8373 67.6323 55.9685 67.7428 56.0965C67.8537 56.2245 67.9627 56.3569 68.0683 56.4896C68.1743 56.6224 68.2741 56.7572 68.3748 56.8945C68.4752 57.0317 68.5767 57.1686 68.6721 57.3101C68.7676 57.4516 68.8605 57.592 68.9505 57.7375C69.0404 57.883 69.1251 58.0273 69.2097 58.1766C69.294 58.3259 69.382 58.4836 69.4607 58.6365C69.5395 58.7893 69.6088 58.9429 69.6819 59.0989C69.755 59.2551 69.8271 59.4131 69.894 59.5723C69.9608 59.7314 70.0249 59.8855 70.0861 60.0473C70.147 60.2092 70.2052 60.3797 70.26 60.5441L47.6664 62.5207C47.6919 62.3493 47.7193 62.1715 47.7514 62.0014C47.7832 61.8312 47.8196 61.6686 47.8581 61.5001C47.8963 61.3317 47.93 61.1646 47.9748 60.9981C48.0197 60.8315 48.0713 60.6676 48.1223 60.5033C48.1732 60.339 48.2322 60.1687 48.2896 60.0069C48.347 59.845 48.4054 59.6885 48.4687 59.5294C48.5323 59.3703 48.5991 59.2162 48.6686 59.0602C48.738 58.9042 48.813 58.742 48.8884 58.5893C48.9637 58.4365 49.0386 58.2866 49.1199 58.1374C49.2011 57.9882 49.2852 57.8391 49.3721 57.6937C49.4591 57.5483 49.5438 57.4104 49.6361 57.2691C49.7285 57.1277 49.8232 56.9897 49.9209 56.8527C50.0186 56.7156 50.1237 56.577 50.2265 56.4445C50.3294 56.312 50.4358 56.1832 50.5438 56.0554C50.6518 55.9276 50.7594 55.7981 50.8719 55.6753C50.9845 55.5525 51.1043 55.4311 51.2217 55.3134C51.3389 55.1958 51.4515 55.0838 51.5733 54.9715C51.695 54.8592 51.8207 54.7545 51.9465 54.6477C52.0726 54.541 52.2007 54.4341 52.3305 54.3331C52.4606 54.232 52.5923 54.1326 52.7262 54.0375C52.8602 53.9423 52.9963 53.85 53.1337 53.7609C53.2711 53.6718 53.4119 53.5863 53.5528 53.5034C53.6937 53.4205 53.8399 53.3414 53.9837 53.2649C54.1275 53.1884 54.2695 53.1165 54.4163 53.0464C54.563 52.9763 54.7115 52.9103 54.8606 52.8469C55.01 52.7835 55.1549 52.7241 55.3066 52.6674C55.4584 52.6106 55.6106 52.5568 55.7644 52.5068C55.9182 52.4569 56.0782 52.4085 56.2339 52.3654C56.3895 52.3223 56.5476 52.28 56.7051 52.2439C56.8625 52.2077 57.0203 52.1813 57.1789 52.1522C57.3375 52.1231 57.493 52.0846 57.6536 52.0705C57.8138 52.0565 57.9703 52.0328 58.1309 52.0187ZM22.2255 80.7173C22.2118 80.5611 22.2181 80.4031 22.2044 80.2474C22.1908 80.0913 22.1914 79.933 22.1934 79.7765C22.1954 79.62 22.204 79.4693 22.213 79.313C22.2221 79.1567 22.2365 79.0032 22.2526 78.8478C22.2688 78.6924 22.2891 78.5352 22.3122 78.3809C22.3353 78.2265 22.3624 78.0749 22.3925 77.9221C22.4226 77.7693 22.4558 77.6127 22.4927 77.4616C22.5297 77.3108 22.5701 77.1582 22.6138 77.0094C22.6575 76.8607 22.7052 76.7114 22.7556 76.5653C22.806 76.419 22.8522 76.2835 22.9092 76.1403C22.9662 75.9971 23.0292 75.8527 23.0926 75.7127C23.156 75.5727 23.2271 75.4297 23.2968 75.2933C23.3665 75.1568 23.4369 75.0252 23.5127 74.8929C23.5886 74.7604 23.6677 74.6292 23.7495 74.5008C23.8313 74.3727 23.9204 74.2506 24.0079 74.1269C24.0954 74.0031 24.1841 73.8809 24.2771 73.762C24.3702 73.6431 24.4597 73.53 24.558 73.4162C24.6564 73.3026 24.7563 73.1872 24.8597 73.0786C24.9632 72.9703 25.0749 72.862 25.1831 72.7592C25.2914 72.6565 25.3954 72.5565 25.5083 72.4598C25.6211 72.3628 25.7379 72.2692 25.8551 72.1785C25.9723 72.0877 26.0924 72.0007 26.2136 71.9162C26.3348 71.8319 26.4589 71.7511 26.5838 71.673C26.7088 71.5952 26.8373 71.5202 26.9657 71.4489C27.0941 71.3778 27.2278 71.3081 27.3593 71.2438C27.4909 71.1795 27.6212 71.126 27.7556 71.0686C27.89 71.0113 28.0257 70.9526 28.1627 70.9025C28.2996 70.8524 28.4333 70.8091 28.5723 70.7663C28.7114 70.7234 28.8527 70.6844 28.9937 70.6491C29.1345 70.6136 29.2742 70.5797 29.4169 70.5518C29.5593 70.5238 29.7084 70.4962 29.8526 70.4836C29.997 70.471 30.1346 70.4389 30.2792 70.4262L42.0243 69.3987L44.5065 97.7703C44.5129 98.0972 44.5136 98.4253 44.5421 98.7509C44.5706 99.0769 44.609 99.4007 44.6375 99.7263C44.666 100.052 44.7199 100.376 44.7727 100.698C44.8256 101.021 44.8799 101.347 44.9478 101.667C45.016 101.986 45.0986 102.304 45.1818 102.62C45.2648 102.936 45.3466 103.25 45.4448 103.561C45.5427 103.871 45.6542 104.181 45.7666 104.486C45.8793 104.791 45.9998 105.09 46.1266 105.388C46.2535 105.687 46.3848 105.985 46.5256 106.277C46.6665 106.569 46.8172 106.848 46.9718 107.131C47.1261 107.415 47.2794 107.698 47.4469 107.973C47.6147 108.248 47.789 108.515 47.9693 108.78C48.1496 109.046 48.3373 109.309 48.5298 109.564C48.7224 109.82 48.9231 110.071 49.1275 110.315C49.3319 110.56 49.546 110.79 49.7616 111.023C49.9771 111.256 50.1975 111.487 50.4238 111.708C50.6498 111.928 50.8763 112.142 51.1124 112.35C51.3485 112.558 51.5926 112.765 51.8382 112.959C52.0839 113.154 52.3351 113.335 52.5896 113.516C52.8441 113.697 53.0956 113.874 53.3583 114.041C53.621 114.208 53.8936 114.37 54.1633 114.522C54.4333 114.674 54.7073 114.815 54.9839 114.952C55.2606 115.09 55.5383 115.219 55.821 115.341C56.1037 115.463 56.3866 115.582 56.6745 115.688C56.9623 115.794 57.2503 115.884 57.5426 115.973C57.8347 116.063 58.1322 116.154 58.4281 116.227C58.7241 116.301 59.0194 116.363 59.3183 116.42C59.6173 116.478 59.9231 116.521 60.2241 116.562C60.5252 116.603 60.8242 116.64 61.1264 116.664C61.4287 116.688 61.7306 116.698 62.0335 116.705C62.3366 116.712 62.6444 116.715 62.947 116.705C63.2498 116.696 63.5448 116.683 63.8462 116.657C64.1476 116.63 64.4502 116.591 64.7501 116.547C65.0497 116.504 65.3524 116.448 65.6497 116.388C65.9467 116.329 66.2423 116.267 66.5358 116.19C66.8293 116.114 67.1173 116.026 67.4067 115.934C67.6961 115.841 67.9797 115.746 68.2642 115.638C68.5487 115.53 68.8287 115.417 69.1073 115.293C69.386 115.169 69.6633 115.029 69.9353 114.889C70.2076 114.75 70.4757 114.612 70.7407 114.457C71.0058 114.303 71.2737 114.135 71.531 113.967C71.7882 113.798 72.0392 113.622 72.2878 113.439C72.5365 113.255 72.7818 113.069 73.0213 112.873C73.2605 112.676 73.4908 112.469 73.7205 112.259C73.9502 112.049 74.1771 111.83 74.3963 111.608C74.6155 111.385 74.8316 111.164 75.0396 110.929C75.2477 110.695 75.4423 110.45 75.6387 110.204C75.8351 109.959 76.031 109.708 76.2152 109.451C76.3998 109.195 76.5766 108.928 76.7485 108.662C76.9203 108.395 77.0812 108.132 77.2401 107.856C77.399 107.58 77.5529 107.297 77.6984 107.013C77.8435 106.728 77.9827 106.436 78.1142 106.143C78.2456 105.85 78.3709 105.557 78.4884 105.257C78.6056 104.958 78.7174 104.651 78.8201 104.345C78.9232 104.039 79.0231 103.738 79.1111 103.426C79.1992 103.115 79.2766 102.798 79.3497 102.481C79.4229 102.165 79.4896 101.851 79.5476 101.531C79.6054 101.211 79.6515 100.887 79.6939 100.564C79.7366 100.241 79.7727 99.9166 79.7995 99.5912C79.8267 99.2661 79.8428 98.9393 79.8545 98.6127C79.8658 98.2864 79.8727 97.9549 79.8687 97.6277C79.8646 97.3009 79.8616 96.9731 79.8331 96.6471C79.8046 96.3214 79.7762 95.9968 79.7477 95.6708C79.7192 95.3452 79.6728 95.0211 79.6224 94.698L78.241 78.9084C78.2365 78.8567 78.2325 78.8109 78.2279 78.7589C78.2234 78.7072 78.2085 78.6521 78.204 78.6004C78.1995 78.549 78.1755 78.5041 78.171 78.4527C78.1665 78.4013 78.1316 78.347 78.1272 78.2959C78.1227 78.2452 78.1004 78.1985 78.0842 78.1491C78.0684 78.1 78.0497 78.0517 78.0313 78.0032C78.0132 77.9549 77.9988 77.9047 77.9784 77.8572C77.958 77.8098 77.9382 77.7587 77.9155 77.7122C77.8928 77.6659 77.8682 77.6231 77.8435 77.5779C77.8189 77.5331 77.7882 77.4886 77.7616 77.4446C77.735 77.4009 77.7091 77.3637 77.6805 77.3212C77.652 77.2789 77.6191 77.2294 77.5886 77.1887C77.5581 77.1479 77.5306 77.1155 77.4985 77.0761C77.4664 77.037 77.4315 76.992 77.3975 76.9544C77.3635 76.9171 77.3339 76.8886 77.2982 76.8527C77.2629 76.8174 77.2254 76.7757 77.1881 76.7419C77.1509 76.7081 77.1075 76.6736 77.069 76.6419C77.0304 76.6104 76.9908 76.5816 76.9507 76.5518C76.9105 76.5221 76.8744 76.4995 76.8333 76.4718C76.7921 76.4444 76.7483 76.4183 76.7059 76.3926C76.6635 76.3675 76.6222 76.3364 76.5785 76.3134C76.5348 76.2904 76.4873 76.276 76.4429 76.255C76.3982 76.2343 76.3523 76.215 76.3073 76.1966C76.2619 76.1782 76.2177 76.1543 76.1717 76.1382C76.1256 76.1224 76.0845 76.1132 76.0378 76.0997C75.9911 76.0862 75.9414 76.0733 75.894 76.0621C75.8466 76.0509 75.7988 76.0428 75.751 76.0344C75.7032 76.0258 75.6562 76.0128 75.6081 76.0068C75.5599 76.0008 75.5135 75.9849 75.466 75.9891C75.4184 75.9933 75.3635 75.988 75.3157 75.9922C75.2679 75.9964 75.2223 75.9803 75.1745 75.9845C75.1263 75.9887 75.0729 75.9934 75.025 75.9976C74.9772 76.0017 74.9337 76.0056 74.8856 76.0098C74.8377 76.0139 74.7957 76.0377 74.7478 76.0419C74.7 76.0461 74.6468 76.0608 74.5993 76.0649C74.5518 76.0691 74.5088 76.0927 74.4624 76.107C74.4161 76.1213 74.372 76.1423 74.3265 76.1591C74.2809 76.1756 74.2352 76.1919 74.1905 76.2111C74.1457 76.2304 74.099 76.2517 74.0554 76.2731C74.0117 76.2945 73.9728 76.3107 73.9302 76.3343C73.8877 76.3581 73.8483 76.3893 73.8068 76.4153C73.7656 76.4413 73.7238 76.4682 73.6834 76.4964C73.6433 76.5248 73.5991 76.5472 73.56 76.5775C73.521 76.6077 73.4857 76.6455 73.4483 76.6776C73.4109 76.7102 73.3724 76.7436 73.3366 76.7777C73.3009 76.8121 73.2693 76.8407 73.2349 76.8769C73.2005 76.9132 73.1665 76.9485 73.134 76.9861C73.1015 77.0241 73.0648 77.0655 73.034 77.1053C73.0032 77.1451 72.9738 77.1927 72.9449 77.2336C72.9162 77.275 72.8918 77.3084 72.8648 77.351C72.8378 77.3939 72.8113 77.4443 72.7865 77.4883C72.7617 77.5327 72.7402 77.5694 72.7172 77.6149C72.6943 77.6603 72.6705 77.7147 72.6497 77.7613C72.6287 77.8082 72.6099 77.8493 72.5913 77.8969C72.5727 77.9449 72.5502 77.9941 72.5338 78.0425C72.5173 78.0912 72.5005 78.1377 72.4862 78.1872C72.4719 78.237 72.4613 78.2907 72.4495 78.341C72.4376 78.3912 72.4322 78.4432 72.4227 78.4939C72.413 78.5449 72.403 78.5957 72.3959 78.6468C72.3886 78.6982 72.3747 78.7481 72.3791 78.7988C72.3836 78.8499 72.3587 78.9095 72.3632 78.9608C72.3677 79.0122 72.3518 79.0606 72.3563 79.112C72.3609 79.1637 72.3558 79.2206 72.3603 79.2723C72.3649 79.3243 72.3689 79.37 72.3734 79.4217L73.7548 95.2114C73.7921 95.4286 73.833 95.6463 73.8522 95.8654C73.8714 96.0848 73.9005 96.3026 73.9197 96.522C73.9389 96.7414 73.9417 96.9621 73.9473 97.1821C73.9533 97.4024 73.9498 97.6249 73.945 97.8448C73.94 98.0648 73.9383 98.29 73.9229 98.5093C73.9075 98.7285 73.885 98.9394 73.8591 99.1573C73.8332 99.3752 73.8019 99.592 73.7655 99.8079C73.7291 100.024 73.6877 100.238 73.6411 100.451C73.5944 100.665 73.5429 100.877 73.4859 101.087C73.4289 101.298 73.367 101.509 73.3 101.716C73.2329 101.923 73.1602 102.134 73.0833 102.337C73.0061 102.54 72.9206 102.733 72.8341 102.931C72.7473 103.129 72.6602 103.324 72.5641 103.517C72.468 103.71 72.3677 103.898 72.2625 104.085C72.1574 104.272 72.0436 104.456 71.9293 104.636C71.815 104.817 71.6973 104.996 71.5744 105.169C71.4515 105.343 71.329 105.517 71.1978 105.684C71.0666 105.851 70.9277 106.013 70.7888 106.172C70.6498 106.331 70.5045 106.49 70.358 106.641C70.2113 106.792 70.0576 106.93 69.9039 107.072C69.7502 107.215 69.5993 107.361 69.4389 107.494C69.2782 107.628 69.1174 107.754 68.9505 107.878C68.7837 108.003 68.612 108.12 68.4396 108.234C68.2669 108.349 68.0842 108.457 67.9061 108.562C67.7281 108.667 67.5531 108.765 67.37 108.86C67.187 108.954 66.9989 109.045 66.8114 109.13C66.6239 109.214 66.4416 109.296 66.2502 109.369C66.0588 109.443 65.8603 109.509 65.6656 109.571C65.4708 109.634 65.2758 109.691 65.0783 109.743C64.8809 109.795 64.6787 109.846 64.4785 109.886C64.2785 109.926 64.077 109.96 63.8751 109.989C63.6734 110.018 63.4714 110.034 63.2683 110.052C63.0653 110.07 62.8636 110.089 62.6598 110.095C62.456 110.102 62.2516 110.104 62.0477 110.098C61.8436 110.094 61.6456 110.078 61.4422 110.061C61.2388 110.045 61.0267 110.023 60.824 109.995C60.6214 109.967 60.4245 109.936 60.2232 109.897C60.022 109.858 59.8182 109.809 59.6189 109.759C59.4196 109.708 59.2286 109.651 59.0319 109.589C58.8352 109.528 58.6358 109.462 58.4423 109.39C58.2488 109.318 58.06 109.242 57.87 109.159C57.6803 109.076 57.4909 108.991 57.305 108.897C57.1191 108.804 56.9385 108.707 56.7573 108.604C56.5759 108.5 56.3923 108.383 56.2162 108.27C56.0401 108.156 55.8648 108.047 55.694 107.924C55.5236 107.801 55.3628 107.668 55.1983 107.536C55.0339 107.403 54.869 107.268 54.7108 107.127C54.5527 106.985 54.4018 106.835 54.2506 106.685C54.0994 106.535 53.9525 106.38 53.8085 106.222C53.6646 106.064 53.5207 105.903 53.3846 105.737C53.2486 105.571 53.117 105.403 52.9889 105.229C52.8608 105.056 52.7312 104.88 52.6114 104.7C52.4918 104.521 52.384 104.344 52.2728 104.158C52.1618 103.971 52.0535 103.776 51.9515 103.584C51.8495 103.391 51.752 103.194 51.6593 102.997C51.5666 102.799 51.4791 102.6 51.396 102.397C51.313 102.195 51.2352 101.992 51.1618 101.786C51.0885 101.579 51.0199 101.371 50.9566 101.161C50.8933 100.951 50.8345 100.747 50.7813 100.534C50.728 100.321 50.6772 100.1 50.6341 99.8843C50.5913 99.6685 50.5591 99.4491 50.5268 99.2311C50.4941 99.0135 50.4585 98.7957 50.4394 98.5763C50.4202 98.3568 50.411 98.1373 50.3918 97.9179C50.3726 97.6988 50.3751 97.4773 50.3741 97.2569L47.8919 68.8853L243.644 51.7592L259.12 228.653L203.573 233.513C203.524 233.518 203.472 233.532 203.424 233.536C203.376 233.541 203.333 233.554 203.285 233.559C203.238 233.563 203.185 233.587 203.138 233.591C203.09 233.596 203.047 233.619 203.001 233.634C202.955 233.648 202.91 233.659 202.864 233.676C202.819 233.692 202.773 233.708 202.728 233.728C202.683 233.747 202.637 233.768 202.593 233.79C202.549 233.811 202.511 233.837 202.469 233.861C202.426 233.885 202.386 233.906 202.344 233.932C202.303 233.958 202.261 233.985 202.221 234.013C202.181 234.041 202.137 234.074 202.098 234.104C202.059 234.134 202.023 234.162 201.986 234.194C201.949 234.227 201.91 234.26 201.874 234.294C201.838 234.329 201.808 234.367 201.773 234.404C201.739 234.44 201.705 234.475 201.672 234.513C201.64 234.551 201.603 234.592 201.572 234.632C201.542 234.672 201.511 234.709 201.482 234.75C201.454 234.792 201.43 234.835 201.403 234.878C201.376 234.921 201.349 234.961 201.324 235.005C201.299 235.049 201.279 235.096 201.256 235.141C201.233 235.187 201.208 235.231 201.187 235.278C201.166 235.325 201.148 235.376 201.13 235.423C201.111 235.471 201.089 235.521 201.072 235.569C201.056 235.618 201.049 235.663 201.035 235.713C201.02 235.763 201 235.817 200.988 235.868C200.976 235.918 200.97 235.96 200.96 236.01C200.951 236.061 200.941 236.112 200.934 236.163C200.926 236.215 200.913 236.275 200.918 236.325C200.922 236.376 200.896 236.426 200.901 236.477C200.905 236.529 200.9 236.586 200.905 236.638C200.909 236.689 200.893 236.737 200.898 236.789C200.902 236.841 200.907 236.897 200.912 236.948L206.164 296.979L51.2855 310.529C51.1401 310.542 50.9915 310.545 50.8463 310.557C50.7011 310.57 50.5605 310.558 50.4144 310.555C50.2685 310.552 50.1167 310.545 49.9709 310.534C49.825 310.523 49.6808 310.51 49.5355 310.491C49.3903 310.473 49.2528 310.454 49.1084 310.428C48.9641 310.403 48.8118 310.37 48.6687 310.336C48.5257 310.303 48.3887 310.264 48.2472 310.223C48.1057 310.182 47.9635 310.138 47.824 310.089C47.6844 310.041 47.5462 309.991 47.4089 309.935C47.2717 309.879 47.1367 309.822 47.0021 309.759C46.8674 309.696 46.7343 309.623 46.6026 309.553C46.4709 309.484 46.3408 309.414 46.2122 309.337C46.0838 309.26 45.9551 309.183 45.8301 309.099C45.7052 309.016 45.5872 308.93 45.4661 308.84C45.345 308.75 45.2173 308.657 45.1004 308.561C44.9835 308.465 44.8753 308.361 44.7628 308.259C44.6503 308.157 44.5421 308.054 44.4343 307.946C44.3265 307.839 44.2169 307.726 44.114 307.613C44.0112 307.5 43.9105 307.387 43.8128 307.268C43.7151 307.149 43.622 307.025 43.5298 306.901C43.4375 306.778 43.3424 306.652 43.2558 306.524C43.1693 306.396 43.0916 306.266 43.0109 306.133C42.9302 306.001 42.8497 305.869 42.775 305.733C42.7004 305.596 42.6267 305.46 42.5583 305.32C42.4898 305.18 42.4325 305.038 42.3705 304.895C42.3085 304.751 42.2473 304.605 42.1918 304.459C42.1363 304.312 42.0809 304.16 42.0322 304.011C41.9834 303.862 41.9444 303.712 41.9024 303.56C41.8604 303.409 41.8168 303.253 41.7817 303.099C41.7467 302.946 41.7191 302.79 41.691 302.635C41.6629 302.48 41.6239 302.327 41.6102 302.171C41.5965 302.014 41.573 301.86 41.5592 301.703L22.2255 80.7173Z"   fill="#263238" >
</path>
<path d="M59.9448 316.277L55.2494 316.688L54.8056 311.614C54.8019 311.573 54.7965 311.531 54.7891 311.49C54.7816 311.449 54.7723 311.409 54.7613 311.369C54.7504 311.329 54.7375 311.289 54.7229 311.25C54.7083 311.212 54.6919 311.174 54.6739 311.137C54.6557 311.1 54.636 311.063 54.6147 311.028C54.5933 310.993 54.5705 310.959 54.5461 310.927C54.5218 310.894 54.496 310.863 54.4687 310.833C54.4415 310.803 54.4131 310.774 54.3833 310.748C54.3536 310.721 54.3227 310.695 54.2906 310.671C54.2586 310.647 54.2256 310.625 54.1916 310.605C54.1576 310.585 54.1228 310.566 54.0872 310.55C54.0516 310.533 54.0153 310.519 53.9784 310.506C53.9415 310.493 53.9041 310.482 53.8663 310.473C53.8284 310.464 53.7903 310.458 53.7519 310.453C53.7135 310.448 53.675 310.445 53.6364 310.444C53.5977 310.444 53.5592 310.445 53.5208 310.449C53.4823 310.452 53.4441 310.457 53.4062 310.465C53.3684 310.472 53.3309 310.482 53.2939 310.493C53.2569 310.504 53.2205 310.518 53.1848 310.533C53.1491 310.548 53.1141 310.565 53.08 310.584C53.0459 310.603 53.0127 310.624 52.9805 310.647C52.9483 310.669 52.9172 310.693 52.8873 310.719C52.8574 310.745 52.8287 310.773 52.8013 310.802C52.7738 310.831 52.7479 310.861 52.7232 310.893C52.6986 310.924 52.6755 310.957 52.6539 310.991C52.6324 311.026 52.6124 311.061 52.5941 311.098C52.5757 311.134 52.5591 311.171 52.5442 311.209C52.5293 311.248 52.5161 311.287 52.5048 311.326C52.4934 311.366 52.4839 311.406 52.4762 311.447C52.4685 311.488 52.4627 311.529 52.4588 311.57C52.4548 311.612 52.4528 311.653 52.4527 311.695C52.4525 311.736 52.4542 311.778 52.4579 311.82L52.9017 316.893L48.2063 317.304C48.1679 317.307 48.1297 317.312 48.0918 317.32C48.0539 317.327 48.0165 317.337 47.9795 317.348C47.9425 317.36 47.9061 317.373 47.8704 317.388C47.8346 317.403 47.7997 317.42 47.7656 317.439C47.7315 317.459 47.6983 317.479 47.6661 317.502C47.6339 317.524 47.6028 317.549 47.5729 317.574C47.5429 317.6 47.5142 317.628 47.4868 317.657C47.4594 317.686 47.4334 317.716 47.4088 317.748C47.3842 317.78 47.3611 317.813 47.3395 317.847C47.3179 317.881 47.298 317.916 47.2796 317.953C47.2613 317.989 47.2447 318.026 47.2297 318.065C47.2148 318.103 47.2017 318.142 47.1903 318.181C47.179 318.221 47.1695 318.262 47.1618 318.302C47.1541 318.343 47.1483 318.384 47.1444 318.425C47.1404 318.467 47.1384 318.508 47.1382 318.55C47.1381 318.592 47.1398 318.633 47.1435 318.675C47.1471 318.716 47.1526 318.758 47.16 318.799C47.1674 318.84 47.1766 318.88 47.1876 318.92C47.1987 318.96 47.2116 319 47.2262 319.038C47.2408 319.077 47.2572 319.115 47.2753 319.152C47.2934 319.189 47.313 319.225 47.3344 319.261C47.3557 319.296 47.3785 319.329 47.4029 319.362C47.4273 319.395 47.4531 319.426 47.4803 319.456C47.5075 319.486 47.536 319.514 47.5657 319.541C47.5955 319.568 47.6264 319.594 47.6584 319.618C47.6904 319.642 47.7234 319.664 47.7574 319.684C47.7914 319.704 47.8262 319.722 47.8618 319.739C47.8974 319.756 47.9337 319.77 47.9706 319.783C48.0075 319.796 48.0449 319.807 48.0828 319.816C48.1206 319.825 48.1587 319.831 48.1971 319.836C48.2356 319.841 48.2741 319.844 48.3127 319.844C48.3513 319.845 48.3898 319.844 48.4283 319.84L53.1237 319.43L53.5675 324.503C53.5712 324.545 53.5767 324.586 53.5841 324.627C53.5915 324.668 53.6007 324.708 53.6117 324.748C53.6228 324.789 53.6357 324.828 53.6503 324.867C53.6649 324.905 53.6813 324.943 53.6994 324.981C53.7174 325.018 53.7371 325.054 53.7585 325.089C53.7798 325.124 53.8026 325.158 53.827 325.19C53.8514 325.223 53.8772 325.254 53.9044 325.284C53.9316 325.314 53.96 325.343 53.9898 325.37C54.0196 325.397 54.0504 325.422 54.0825 325.446C54.1145 325.47 54.1475 325.492 54.1815 325.512C54.2155 325.532 54.2503 325.551 54.2859 325.567C54.3215 325.584 54.3578 325.599 54.3947 325.611C54.4316 325.624 54.469 325.635 54.5068 325.644C54.5447 325.653 54.5828 325.66 54.6212 325.664C54.6596 325.669 54.6982 325.672 54.7368 325.673C54.7754 325.673 54.8139 325.672 54.8524 325.669C54.8908 325.665 54.929 325.66 54.9669 325.653C55.0048 325.645 55.0422 325.636 55.0792 325.624C55.1162 325.613 55.1526 325.6 55.1883 325.584C55.2241 325.569 55.259 325.552 55.2931 325.533C55.3272 325.514 55.3604 325.493 55.3926 325.471C55.4248 325.448 55.4559 325.424 55.4858 325.398C55.5158 325.372 55.5444 325.345 55.5719 325.316C55.5993 325.287 55.6253 325.256 55.6499 325.224C55.6745 325.193 55.6976 325.16 55.7192 325.126C55.7408 325.091 55.7608 325.056 55.7791 325.019C55.7974 324.983 55.814 324.946 55.829 324.907C55.8438 324.869 55.857 324.83 55.8685 324.791C55.8798 324.751 55.8893 324.711 55.897 324.67C55.9046 324.629 55.9104 324.588 55.9143 324.547C55.9182 324.506 55.9203 324.464 55.9205 324.422C55.9207 324.381 55.9189 324.339 55.9152 324.298L55.4714 319.224L60.1668 318.813C60.2053 318.81 60.2435 318.805 60.2813 318.797C60.3193 318.79 60.3567 318.781 60.3935 318.769C60.4306 318.758 60.467 318.744 60.5027 318.729C60.5384 318.714 60.5734 318.697 60.6076 318.677C60.6416 318.658 60.6748 318.638 60.7072 318.615C60.7393 318.593 60.7703 318.569 60.8002 318.543C60.8302 318.517 60.859 318.489 60.8864 318.46C60.9136 318.431 60.9395 318.401 60.9642 318.369C60.9888 318.337 61.012 318.305 61.0336 318.27C61.0552 318.236 61.0752 318.201 61.0935 318.164C61.1118 318.128 61.1285 318.091 61.1435 318.053C61.1582 318.014 61.1714 317.975 61.1829 317.936C61.1942 317.896 61.2037 317.856 61.2114 317.815C61.2191 317.774 61.2248 317.733 61.2287 317.692C61.2326 317.65 61.2347 317.609 61.235 317.567C61.2351 317.526 61.2333 317.484 61.2297 317.442C61.226 317.401 61.2206 317.36 61.2132 317.319C61.2057 317.277 61.1964 317.237 61.1854 317.197C61.1744 317.157 61.1616 317.117 61.147 317.079C61.1324 317.04 61.116 317.002 61.098 316.965C61.0798 316.928 61.06 316.892 61.0388 316.856C61.0174 316.822 60.9946 316.788 60.9702 316.755C60.9459 316.722 60.92 316.691 60.8928 316.661C60.8656 316.631 60.837 316.603 60.8073 316.576C60.7775 316.549 60.7467 316.523 60.7148 316.499C60.6828 316.476 60.6497 316.454 60.6156 316.433C60.5817 316.413 60.547 316.395 60.5114 316.378C60.4757 316.361 60.4394 316.347 60.4026 316.334C60.3656 316.321 60.3282 316.31 60.2903 316.301C60.2525 316.293 60.2144 316.286 60.1759 316.281C60.1376 316.276 60.0991 316.274 60.0604 316.273C60.0219 316.272 59.9834 316.273 59.9448 316.277Z"   fill="#FF8D1A" >
</path>
<path d="M294.142 130.062L289.447 130.473L289.003 125.399C289 125.358 288.994 125.317 288.987 125.275C288.979 125.234 288.97 125.194 288.959 125.154C288.948 125.114 288.935 125.074 288.921 125.036C288.906 124.997 288.889 124.959 288.871 124.922C288.853 124.885 288.834 124.849 288.812 124.813C288.791 124.778 288.768 124.745 288.744 124.712C288.719 124.679 288.694 124.648 288.666 124.618C288.639 124.588 288.611 124.559 288.581 124.533C288.551 124.506 288.52 124.48 288.488 124.456C288.456 124.433 288.423 124.411 288.389 124.39C288.355 124.37 288.321 124.352 288.285 124.335C288.249 124.318 288.213 124.304 288.176 124.291C288.139 124.278 288.102 124.267 288.064 124.258C288.026 124.25 287.988 124.243 287.949 124.238C287.911 124.233 287.873 124.23 287.834 124.23C287.795 124.229 287.757 124.23 287.718 124.234C287.68 124.237 287.642 124.242 287.604 124.25C287.566 124.257 287.529 124.267 287.492 124.278C287.455 124.289 287.418 124.303 287.382 124.318C287.347 124.333 287.312 124.35 287.278 124.369C287.244 124.389 287.21 124.409 287.178 124.432C287.146 124.454 287.115 124.479 287.085 124.504C287.055 124.53 287.026 124.558 286.999 124.587C286.972 124.616 286.946 124.646 286.921 124.678C286.896 124.709 286.873 124.742 286.852 124.777C286.83 124.811 286.81 124.846 286.792 124.883C286.773 124.919 286.757 124.956 286.742 124.995C286.727 125.033 286.714 125.072 286.702 125.111C286.691 125.151 286.681 125.191 286.674 125.232C286.666 125.273 286.66 125.314 286.656 125.355C286.652 125.397 286.65 125.438 286.65 125.48C286.65 125.522 286.652 125.563 286.656 125.605L287.099 130.678L282.404 131.089C282.366 131.092 282.327 131.098 282.289 131.105C282.251 131.113 282.214 131.122 282.177 131.133C282.14 131.145 282.104 131.158 282.068 131.173C282.032 131.188 281.997 131.206 281.963 131.225C281.929 131.244 281.896 131.265 281.864 131.287C281.831 131.31 281.8 131.334 281.771 131.36C281.741 131.386 281.712 131.413 281.684 131.442C281.657 131.471 281.631 131.501 281.607 131.533C281.582 131.565 281.559 131.598 281.537 131.632C281.516 131.666 281.496 131.702 281.477 131.738C281.459 131.774 281.442 131.812 281.427 131.85C281.413 131.888 281.399 131.927 281.388 131.967C281.377 132.006 281.367 132.047 281.359 132.087C281.352 132.128 281.346 132.169 281.342 132.211C281.338 132.252 281.336 132.293 281.336 132.335C281.336 132.377 281.337 132.418 281.341 132.46C281.345 132.502 281.35 132.543 281.358 132.584C281.365 132.625 281.374 132.665 281.385 132.705C281.396 132.745 281.409 132.785 281.424 132.824C281.438 132.862 281.455 132.9 281.473 132.938C281.491 132.975 281.511 133.011 281.532 133.046C281.553 133.081 281.576 133.115 281.601 133.147C281.625 133.18 281.651 133.211 281.678 133.241C281.705 133.271 281.734 133.3 281.763 133.327C281.793 133.354 281.824 133.379 281.856 133.403C281.888 133.427 281.921 133.449 281.955 133.469C281.989 133.489 282.024 133.508 282.059 133.524C282.095 133.541 282.131 133.555 282.168 133.568C282.205 133.581 282.243 133.592 282.28 133.601C282.318 133.61 282.356 133.616 282.395 133.621C282.433 133.626 282.472 133.629 282.51 133.63C282.549 133.63 282.588 133.629 282.626 133.626L287.321 133.215L287.765 138.288C287.769 138.33 287.774 138.371 287.782 138.412C287.789 138.453 287.798 138.494 287.809 138.534C287.82 138.574 287.833 138.613 287.848 138.652C287.862 138.691 287.879 138.729 287.897 138.766C287.915 138.803 287.935 138.839 287.956 138.874C287.977 138.909 288 138.943 288.025 138.975C288.049 139.008 288.075 139.04 288.102 139.07C288.129 139.099 288.158 139.128 288.188 139.155C288.217 139.182 288.248 139.207 288.28 139.231C288.312 139.255 288.345 139.277 288.379 139.297C288.413 139.317 288.448 139.336 288.483 139.353C288.519 139.369 288.555 139.384 288.592 139.396C288.629 139.409 288.667 139.42 288.704 139.429C288.742 139.438 288.78 139.445 288.819 139.449C288.857 139.454 288.896 139.457 288.934 139.458C288.973 139.459 289.012 139.457 289.05 139.454C289.089 139.45 289.127 139.445 289.164 139.438C289.202 139.43 289.24 139.421 289.277 139.409C289.314 139.398 289.35 139.385 289.386 139.369C289.422 139.354 289.457 139.337 289.491 139.318C289.525 139.299 289.558 139.278 289.59 139.256C289.622 139.233 289.653 139.209 289.683 139.183C289.713 139.157 289.742 139.13 289.77 139.101C289.797 139.072 289.823 139.041 289.847 139.01C289.872 138.978 289.895 138.945 289.917 138.911C289.938 138.877 289.958 138.841 289.977 138.805C289.995 138.768 290.012 138.731 290.027 138.693C290.041 138.655 290.055 138.616 290.066 138.576C290.077 138.536 290.087 138.496 290.095 138.455C290.102 138.415 290.108 138.374 290.112 138.332C290.116 138.291 290.118 138.249 290.118 138.208C290.118 138.166 290.117 138.124 290.113 138.083L289.669 133.009L294.364 132.599C294.403 132.595 294.441 132.59 294.479 132.583C294.517 132.575 294.554 132.565 294.591 132.554C294.628 132.543 294.665 132.53 294.7 132.514C294.736 132.499 294.771 132.482 294.805 132.463C294.839 132.444 294.872 132.423 294.905 132.4C294.937 132.378 294.968 132.354 294.998 132.328C295.028 132.302 295.057 132.275 295.084 132.246C295.111 132.217 295.137 132.186 295.162 132.154C295.186 132.123 295.21 132.09 295.231 132.056C295.253 132.021 295.273 131.986 295.291 131.949C295.309 131.913 295.326 131.876 295.341 131.838C295.356 131.799 295.369 131.76 295.38 131.721C295.392 131.681 295.401 131.641 295.409 131.6C295.417 131.559 295.422 131.518 295.426 131.477C295.43 131.436 295.432 131.394 295.433 131.352C295.433 131.311 295.431 131.269 295.427 131.228C295.424 131.186 295.418 131.145 295.411 131.104C295.404 131.063 295.394 131.022 295.383 130.982C295.372 130.942 295.359 130.903 295.345 130.864C295.33 130.825 295.314 130.787 295.295 130.75C295.277 130.713 295.258 130.677 295.236 130.642C295.215 130.607 295.192 130.573 295.168 130.54C295.144 130.507 295.118 130.476 295.09 130.446C295.063 130.416 295.035 130.388 295.005 130.361C294.975 130.334 294.945 130.308 294.912 130.285C294.88 130.261 294.847 130.239 294.813 130.219C294.779 130.198 294.745 130.18 294.709 130.163C294.673 130.147 294.637 130.132 294.6 130.119C294.563 130.106 294.526 130.095 294.488 130.087C294.45 130.078 294.412 130.071 294.374 130.066C294.335 130.062 294.297 130.059 294.258 130.058C294.22 130.057 294.181 130.059 294.142 130.062Z"   fill="#40BDFF" >
</path>
<path d="M299.715 306.917C299.6 306.927 299.484 306.934 299.368 306.938C299.253 306.942 299.137 306.943 299.021 306.94C298.906 306.938 298.79 306.933 298.674 306.925C298.559 306.917 298.443 306.905 298.328 306.891C298.213 306.876 298.098 306.859 297.984 306.839C297.869 306.818 297.755 306.794 297.642 306.768C297.528 306.741 297.415 306.712 297.303 306.68C297.191 306.647 297.08 306.612 296.969 306.573C296.858 306.535 296.749 306.494 296.64 306.45C296.531 306.406 296.423 306.358 296.316 306.309C296.21 306.259 296.104 306.206 295.999 306.151C295.895 306.095 295.792 306.037 295.69 305.977C295.588 305.916 295.487 305.852 295.388 305.786C295.289 305.72 295.192 305.651 295.096 305.58C295 305.509 294.905 305.435 294.813 305.359C294.72 305.283 294.629 305.204 294.54 305.124C294.45 305.043 294.363 304.959 294.278 304.874C294.192 304.788 294.109 304.701 294.027 304.611C293.946 304.521 293.866 304.429 293.789 304.335C293.711 304.241 293.636 304.145 293.563 304.047C293.49 303.949 293.419 303.849 293.35 303.748C293.282 303.646 293.216 303.543 293.152 303.438C293.088 303.332 293.026 303.226 292.967 303.117C292.908 303.009 292.851 302.899 292.797 302.788C292.743 302.677 292.691 302.565 292.642 302.451C292.593 302.337 292.546 302.222 292.502 302.106C292.459 301.989 292.417 301.872 292.379 301.753C292.34 301.635 292.304 301.516 292.271 301.396C292.238 301.276 292.208 301.155 292.18 301.033C292.152 300.911 292.127 300.789 292.105 300.666C292.083 300.543 292.064 300.42 292.047 300.296C292.031 300.172 292.017 300.048 292.006 299.923C291.995 299.798 291.987 299.674 291.982 299.549C291.977 299.424 291.974 299.299 291.975 299.174C291.975 299.049 291.978 298.924 291.985 298.8C291.991 298.675 292 298.551 292.011 298.427C292.023 298.302 292.038 298.179 292.055 298.055C292.073 297.932 292.093 297.81 292.116 297.687C292.139 297.565 292.165 297.444 292.193 297.323C292.222 297.203 292.253 297.083 292.287 296.964C292.321 296.845 292.358 296.727 292.398 296.61C292.437 296.493 292.479 296.377 292.524 296.263C292.569 296.148 292.616 296.035 292.666 295.923C292.716 295.811 292.768 295.7 292.823 295.591C292.878 295.482 292.935 295.374 292.995 295.268C293.055 295.162 293.118 295.058 293.182 294.955C293.247 294.853 293.314 294.752 293.383 294.653C293.453 294.554 293.524 294.457 293.598 294.361C293.672 294.266 293.748 294.173 293.826 294.082C293.904 293.991 293.984 293.902 294.067 293.815C294.149 293.728 294.233 293.644 294.319 293.561C294.405 293.479 294.493 293.399 294.583 293.322C294.672 293.244 294.764 293.169 294.857 293.096C294.951 293.024 295.045 292.953 295.142 292.886C295.238 292.818 295.336 292.753 295.436 292.691C295.535 292.628 295.636 292.569 295.739 292.512C295.841 292.455 295.945 292.401 296.05 292.349C296.154 292.298 296.26 292.249 296.367 292.203C296.475 292.157 296.583 292.114 296.692 292.074C296.801 292.035 296.911 291.997 297.022 291.963C297.133 291.929 297.245 291.898 297.357 291.87C297.47 291.841 297.583 291.816 297.696 291.794C297.81 291.772 297.924 291.752 298.038 291.736C298.153 291.72 298.268 291.707 298.383 291.697C298.499 291.687 298.614 291.68 298.73 291.676C298.845 291.672 298.961 291.671 299.077 291.673C299.193 291.675 299.308 291.68 299.424 291.689C299.54 291.697 299.655 291.708 299.77 291.723C299.885 291.737 300 291.755 300.115 291.775C300.229 291.795 300.343 291.819 300.457 291.845C300.57 291.872 300.683 291.901 300.795 291.934C300.907 291.966 301.019 292.002 301.129 292.04C301.24 292.078 301.35 292.12 301.458 292.164C301.567 292.208 301.675 292.255 301.782 292.305C301.889 292.355 301.994 292.407 302.099 292.462C302.203 292.518 302.307 292.576 302.409 292.637C302.51 292.698 302.611 292.761 302.71 292.827C302.809 292.893 302.907 292.962 303.002 293.033C303.099 293.104 303.193 293.178 303.286 293.254C303.378 293.33 303.469 293.409 303.558 293.49C303.648 293.571 303.735 293.654 303.821 293.739C303.906 293.825 303.99 293.913 304.071 294.003C304.153 294.093 304.232 294.185 304.31 294.279C304.387 294.372 304.462 294.468 304.535 294.566C304.608 294.665 304.679 294.764 304.748 294.866C304.816 294.967 304.883 295.071 304.947 295.176C305.011 295.281 305.072 295.388 305.131 295.496C305.191 295.604 305.247 295.714 305.301 295.825C305.356 295.936 305.407 296.049 305.456 296.163C305.505 296.277 305.552 296.392 305.596 296.508C305.64 296.624 305.681 296.741 305.719 296.86C305.758 296.978 305.794 297.098 305.827 297.218C305.86 297.338 305.891 297.459 305.918 297.581C305.946 297.702 305.971 297.825 305.993 297.948C306.015 298.071 306.035 298.194 306.051 298.318C306.068 298.442 306.081 298.566 306.092 298.691C306.103 298.815 306.111 298.94 306.116 299.065C306.122 299.19 306.124 299.314 306.124 299.439C306.123 299.564 306.12 299.689 306.114 299.814C306.108 299.939 306.099 300.063 306.087 300.187C306.075 300.311 306.06 300.435 306.043 300.558C306.026 300.681 306.005 300.804 305.982 300.926C305.959 301.048 305.934 301.17 305.905 301.29C305.876 301.411 305.845 301.531 305.811 301.65C305.777 301.769 305.74 301.887 305.701 302.003C305.661 302.12 305.619 302.236 305.574 302.351C305.53 302.465 305.482 302.578 305.432 302.69C305.382 302.803 305.33 302.913 305.275 303.022C305.22 303.131 305.163 303.239 305.103 303.345C305.043 303.451 304.981 303.556 304.916 303.658C304.851 303.761 304.784 303.862 304.715 303.961C304.646 304.06 304.574 304.157 304.5 304.252C304.426 304.347 304.35 304.441 304.272 304.532C304.194 304.623 304.114 304.712 304.032 304.798C303.95 304.885 303.866 304.97 303.78 305.052C303.693 305.135 303.606 305.214 303.516 305.292C303.426 305.369 303.334 305.445 303.241 305.517C303.148 305.59 303.053 305.66 302.957 305.728C302.86 305.795 302.762 305.86 302.662 305.923C302.563 305.985 302.462 306.045 302.359 306.102C302.257 306.159 302.154 306.213 302.049 306.264C301.944 306.316 301.838 306.364 301.731 306.41C301.624 306.456 301.515 306.499 301.406 306.539C301.297 306.579 301.187 306.616 301.076 306.65C300.965 306.685 300.854 306.716 300.741 306.744C300.629 306.772 300.516 306.798 300.402 306.82C300.288 306.842 300.174 306.861 300.06 306.877C299.945 306.894 299.83 306.907 299.715 306.917ZM298.605 294.233C298.528 294.24 298.452 294.249 298.375 294.26C298.299 294.27 298.223 294.283 298.147 294.298C298.072 294.313 297.996 294.33 297.921 294.349C297.846 294.368 297.772 294.388 297.698 294.411C297.624 294.434 297.55 294.459 297.478 294.485C297.405 294.512 297.333 294.541 297.261 294.571C297.19 294.602 297.119 294.634 297.049 294.668C296.98 294.703 296.91 294.739 296.842 294.777C296.774 294.815 296.707 294.855 296.64 294.896C296.574 294.938 296.509 294.981 296.444 295.026C296.38 295.071 296.317 295.118 296.254 295.166C296.192 295.215 296.131 295.265 296.071 295.316C296.012 295.368 295.953 295.422 295.896 295.477C295.838 295.531 295.782 295.588 295.727 295.646C295.673 295.703 295.619 295.763 295.567 295.824C295.515 295.884 295.464 295.946 295.415 296.01C295.366 296.073 295.318 296.138 295.272 296.204C295.226 296.27 295.181 296.337 295.138 296.406C295.095 296.474 295.053 296.544 295.013 296.615C294.974 296.685 294.935 296.757 294.898 296.83C294.862 296.902 294.827 296.976 294.793 297.051C294.76 297.126 294.729 297.201 294.699 297.278C294.669 297.354 294.641 297.431 294.615 297.509C294.588 297.587 294.564 297.665 294.541 297.745C294.519 297.824 294.498 297.904 294.479 297.984C294.46 298.065 294.442 298.146 294.427 298.227C294.412 298.309 294.398 298.39 294.387 298.472C294.375 298.555 294.365 298.637 294.357 298.72C294.349 298.803 294.344 298.885 294.339 298.969C294.335 299.052 294.333 299.135 294.333 299.218C294.333 299.302 294.334 299.385 294.338 299.468C294.341 299.551 294.346 299.634 294.354 299.718C294.361 299.801 294.37 299.884 294.381 299.966C294.392 300.048 294.405 300.131 294.42 300.213C294.435 300.295 294.451 300.377 294.47 300.458C294.488 300.539 294.508 300.619 294.53 300.699C294.553 300.78 294.577 300.859 294.602 300.938C294.628 301.017 294.656 301.095 294.685 301.172C294.714 301.25 294.745 301.327 294.778 301.403C294.811 301.479 294.845 301.554 294.881 301.628C294.917 301.702 294.955 301.775 294.994 301.847C295.034 301.92 295.075 301.99 295.117 302.061C295.16 302.131 295.204 302.2 295.25 302.268C295.296 302.335 295.343 302.402 295.392 302.467C295.44 302.532 295.491 302.596 295.542 302.659C295.594 302.722 295.647 302.783 295.701 302.843C295.756 302.903 295.811 302.961 295.868 303.018C295.925 303.075 295.983 303.131 296.043 303.185C296.102 303.239 296.163 303.291 296.225 303.342C296.287 303.393 296.35 303.442 296.414 303.489C296.477 303.537 296.543 303.582 296.609 303.626C296.675 303.67 296.742 303.713 296.81 303.753C296.877 303.794 296.946 303.833 297.016 303.87C297.086 303.907 297.156 303.942 297.227 303.975C297.298 304.008 297.37 304.039 297.443 304.069C297.515 304.098 297.589 304.126 297.662 304.151C297.736 304.177 297.81 304.2 297.885 304.222C297.96 304.244 298.035 304.263 298.111 304.281C298.186 304.299 298.262 304.314 298.339 304.328C298.415 304.342 298.492 304.353 298.569 304.363C298.645 304.372 298.722 304.38 298.799 304.386C298.876 304.391 298.953 304.394 299.031 304.396C299.108 304.397 299.185 304.397 299.262 304.394C299.339 304.392 299.416 304.387 299.493 304.38C299.57 304.373 299.647 304.365 299.723 304.354C299.799 304.343 299.875 304.33 299.951 304.315C300.027 304.301 300.102 304.284 300.177 304.265C300.252 304.246 300.326 304.225 300.4 304.202C300.474 304.18 300.548 304.155 300.621 304.128C300.693 304.102 300.766 304.073 300.837 304.042C300.908 304.012 300.979 303.98 301.049 303.945C301.119 303.911 301.188 303.875 301.256 303.837C301.324 303.799 301.392 303.759 301.458 303.717C301.524 303.676 301.59 303.632 301.654 303.588C301.718 303.543 301.782 303.496 301.844 303.447C301.906 303.399 301.967 303.349 302.027 303.297C302.087 303.245 302.145 303.192 302.203 303.137C302.26 303.082 302.316 303.026 302.371 302.968C302.426 302.91 302.479 302.851 302.531 302.79C302.583 302.729 302.634 302.667 302.683 302.604C302.732 302.54 302.78 302.476 302.826 302.41C302.872 302.344 302.917 302.276 302.96 302.208C303.003 302.139 303.045 302.07 303.085 301.999C303.125 301.928 303.163 301.857 303.2 301.784C303.236 301.711 303.272 301.637 303.305 301.563C303.338 301.488 303.37 301.412 303.399 301.336C303.429 301.26 303.457 301.183 303.484 301.105C303.51 301.027 303.534 300.948 303.557 300.869C303.58 300.79 303.601 300.71 303.62 300.629C303.639 300.549 303.656 300.468 303.671 300.387C303.687 300.305 303.7 300.223 303.712 300.141C303.723 300.059 303.733 299.976 303.741 299.894C303.749 299.811 303.755 299.728 303.759 299.645C303.763 299.562 303.765 299.479 303.765 299.395C303.766 299.312 303.764 299.228 303.761 299.145C303.757 299.062 303.752 298.979 303.745 298.896C303.737 298.813 303.728 298.73 303.717 298.648C303.706 298.565 303.693 298.483 303.678 298.401C303.664 298.319 303.647 298.237 303.629 298.156C303.61 298.075 303.59 297.994 303.568 297.914C303.546 297.834 303.522 297.754 303.496 297.675C303.47 297.597 303.443 297.518 303.414 297.441C303.384 297.363 303.353 297.287 303.321 297.211C303.288 297.135 303.253 297.06 303.217 296.986C303.181 296.912 303.143 296.839 303.104 296.766C303.065 296.694 303.024 296.623 302.981 296.553C302.938 296.483 302.894 296.414 302.848 296.346C302.803 296.278 302.755 296.212 302.706 296.147C302.658 296.081 302.608 296.017 302.556 295.955C302.504 295.892 302.451 295.831 302.397 295.771C302.343 295.711 302.287 295.652 302.23 295.595C302.173 295.538 302.115 295.483 302.056 295.429C301.996 295.375 301.935 295.322 301.874 295.272C301.812 295.221 301.749 295.172 301.685 295.124C301.621 295.077 301.556 295.031 301.49 294.987C301.424 294.943 301.357 294.901 301.289 294.86C301.221 294.82 301.152 294.781 301.082 294.744C301.013 294.707 300.942 294.672 300.871 294.639C300.8 294.606 300.728 294.574 300.655 294.545C300.583 294.515 300.51 294.488 300.436 294.462C300.362 294.437 300.288 294.413 300.213 294.392C300.138 294.37 300.063 294.35 299.987 294.333C299.912 294.315 299.836 294.299 299.76 294.285C299.683 294.272 299.607 294.26 299.53 294.251C299.453 294.241 299.376 294.234 299.299 294.228C299.222 294.223 299.145 294.219 299.068 294.218C298.99 294.216 298.913 294.217 298.836 294.219C298.759 294.222 298.682 294.227 298.605 294.233ZM275.59 44.6877C275.475 44.6978 275.359 44.7048 275.244 44.7087C275.128 44.7127 275.012 44.7135 274.897 44.7113C274.781 44.7093 274.665 44.7041 274.549 44.6957C274.434 44.6875 274.318 44.6762 274.203 44.6617C274.088 44.6473 273.973 44.6299 273.859 44.6094C273.744 44.589 273.63 44.5655 273.517 44.539C273.403 44.5125 273.291 44.483 273.178 44.4504C273.066 44.418 272.955 44.3826 272.844 44.3442C272.733 44.3059 272.624 44.2647 272.515 44.2206C272.406 44.1764 272.298 44.1294 272.191 44.0796C272.085 44.0297 271.979 43.977 271.874 43.9216C271.77 43.8665 271.667 43.8084 271.565 43.7474C271.463 43.6867 271.362 43.6233 271.263 43.5572C271.164 43.4911 271.067 43.4224 270.971 43.3511C270.875 43.2799 270.78 43.2062 270.688 43.1302C270.595 43.0539 270.504 42.9754 270.415 42.8946C270.326 42.8136 270.238 42.7303 270.153 42.6447C270.067 42.5593 269.984 42.4716 269.902 42.3816C269.821 42.2918 269.741 42.1999 269.664 42.1059C269.586 42.012 269.511 41.916 269.438 41.818C269.365 41.72 269.294 41.6201 269.225 41.5184C269.157 41.4168 269.091 41.3135 269.027 41.2086C268.963 41.1034 268.901 40.9966 268.842 40.8883C268.783 40.7801 268.726 40.6704 268.672 40.559C268.618 40.4479 268.566 40.3354 268.517 40.2214C268.468 40.1077 268.421 39.9927 268.378 39.8764C268.334 39.7601 268.292 39.6429 268.254 39.5246C268.215 39.4061 268.179 39.2868 268.146 39.1666C268.113 39.0464 268.083 38.9255 268.055 38.8039C268.027 38.6822 268.002 38.5597 267.98 38.4366C267.958 38.3137 267.939 38.1904 267.922 38.0666C267.906 37.9426 267.892 37.8183 267.881 37.6938C267.87 37.5693 267.862 37.4446 267.857 37.3195C267.852 37.1947 267.849 37.0699 267.85 36.945C267.85 36.82 267.853 36.6951 267.86 36.5704C267.866 36.4459 267.875 36.3215 267.887 36.1974C267.898 36.0732 267.913 35.9495 267.93 35.8261C267.948 35.7029 267.968 35.5803 267.991 35.4582C268.014 35.336 268.04 35.2147 268.069 35.0942C268.097 34.9734 268.128 34.8536 268.162 34.7347C268.196 34.6157 268.233 34.4978 268.273 34.3809C268.312 34.264 268.354 34.1483 268.399 34.0337C268.444 33.9191 268.491 33.8058 268.541 33.6938C268.591 33.5818 268.643 33.4712 268.698 33.362C268.753 33.2529 268.811 33.1453 268.871 33.0392C268.93 32.9332 268.993 32.8288 269.058 32.7262C269.122 32.6235 269.189 32.5226 269.258 32.4236C269.328 32.3245 269.399 32.2274 269.473 32.1322C269.547 32.037 269.623 31.9438 269.701 31.8527C269.779 31.7616 269.859 31.6727 269.942 31.5858C270.024 31.4991 270.108 31.4145 270.194 31.3322C270.28 31.2499 270.368 31.17 270.458 31.0924C270.547 31.0148 270.639 30.9397 270.732 30.867C270.826 30.7943 270.92 30.7242 271.017 30.6566C271.113 30.589 271.212 30.524 271.311 30.4616C271.411 30.3993 271.511 30.3396 271.614 30.2826C271.716 30.2257 271.82 30.1714 271.925 30.12C272.029 30.0685 272.135 30.0199 272.243 29.9741C272.35 29.9283 272.458 29.8854 272.567 29.8453C272.676 29.8053 272.786 29.7682 272.897 29.734C273.008 29.6998 273.12 29.6686 273.232 29.6404C273.345 29.6121 273.458 29.5868 273.571 29.5646C273.685 29.5423 273.799 29.5231 273.914 29.507C274.028 29.4908 274.143 29.4776 274.258 29.4675C274.374 29.4575 274.489 29.4504 274.605 29.4465C274.721 29.4425 274.836 29.4416 274.952 29.4438C275.068 29.446 275.184 29.4512 275.299 29.4595C275.415 29.4678 275.53 29.4792 275.645 29.4935C275.76 29.508 275.875 29.5254 275.99 29.5459C276.104 29.5664 276.218 29.5899 276.332 29.6164C276.445 29.6428 276.558 29.6723 276.67 29.7048C276.782 29.7373 276.894 29.7727 277.004 29.811C277.115 29.8494 277.225 29.8906 277.334 29.9347C277.443 29.9789 277.55 30.0259 277.657 30.0757C277.764 30.1255 277.87 30.1781 277.974 30.2335C278.078 30.2888 278.182 30.3469 278.284 30.4077C278.386 30.4685 278.486 30.532 278.585 30.5981C278.684 30.6642 278.782 30.7328 278.878 30.804C278.974 30.8753 279.068 30.949 279.161 31.0251C279.253 31.1013 279.345 31.1798 279.434 31.2607C279.523 31.3417 279.61 31.4249 279.696 31.5104C279.781 31.596 279.865 31.6836 279.946 31.7735C280.028 31.8634 280.107 31.9553 280.185 32.0494C280.262 32.1434 280.337 32.2394 280.41 32.3373C280.484 32.4353 280.555 32.5351 280.623 32.6367C280.692 32.7384 280.758 32.8418 280.822 32.9468C280.886 33.0519 280.947 33.1586 281.007 33.2669C281.066 33.3751 281.122 33.4849 281.176 33.5961C281.231 33.7073 281.282 33.8199 281.331 33.9338C281.38 34.0475 281.427 34.1625 281.471 34.2788C281.515 34.3951 281.556 34.5124 281.595 34.6306C281.633 34.7491 281.669 34.8685 281.702 34.9887C281.735 35.1089 281.766 35.2298 281.793 35.3513C281.821 35.4731 281.846 35.5955 281.868 35.7186C281.89 35.8415 281.91 35.9648 281.926 36.0886C281.943 36.2127 281.956 36.3369 281.967 36.4614C281.978 36.5859 281.986 36.7107 281.992 36.8357C281.997 36.9605 281.999 37.0853 281.999 37.2102C281.998 37.3352 281.995 37.4601 281.989 37.5849C281.983 37.7094 281.974 37.8337 281.962 37.9579C281.95 38.082 281.936 38.2057 281.918 38.3288C281.901 38.4522 281.88 38.5749 281.857 38.6971C281.834 38.8192 281.809 38.9406 281.78 39.0611C281.751 39.1818 281.72 39.3016 281.686 39.4205C281.652 39.5395 281.615 39.6574 281.576 39.7742C281.536 39.8912 281.494 40.007 281.45 40.1217C281.405 40.2362 281.357 40.3494 281.307 40.4613C281.258 40.5734 281.205 40.6841 281.15 40.7933C281.095 40.9025 281.038 41.0101 280.978 41.1161C280.918 41.2221 280.856 41.3264 280.791 41.4289C280.726 41.5317 280.659 41.6326 280.59 41.7315C280.521 41.8307 280.449 41.9279 280.375 42.0232C280.302 42.1182 280.225 42.2114 280.147 42.3026C280.069 42.3935 279.989 42.4825 279.907 42.5693C279.825 42.6562 279.741 42.7407 279.655 42.823C279.569 42.9053 279.481 42.9852 279.391 43.0627C279.301 43.1405 279.209 43.2156 279.116 43.2881C279.023 43.3608 278.928 43.431 278.831 43.4986C278.735 43.5663 278.637 43.6313 278.537 43.6937C278.438 43.7561 278.337 43.8157 278.234 43.8726C278.132 43.9297 278.029 43.9839 277.924 44.0352C277.819 44.0868 277.713 44.1355 277.606 44.1813C277.499 44.2271 277.391 44.27 277.281 44.31C277.172 44.35 277.062 44.3871 276.951 44.4213C276.84 44.4555 276.729 44.4867 276.616 44.5148C276.504 44.5432 276.391 44.5684 276.277 44.5905C276.163 44.6128 276.049 44.6321 275.935 44.6483C275.82 44.6645 275.705 44.6776 275.59 44.6877ZM274.48 32.0042C274.403 32.011 274.327 32.0197 274.251 32.0305C274.174 32.0413 274.098 32.0541 274.022 32.0689C273.947 32.0837 273.871 32.1006 273.796 32.1194C273.721 32.1383 273.647 32.1591 273.573 32.1818C273.499 32.2047 273.425 32.2294 273.353 32.2561C273.28 32.2828 273.208 32.3114 273.136 32.342C273.065 32.3725 272.994 32.4049 272.925 32.4392C272.855 32.4735 272.786 32.5096 272.717 32.5476C272.649 32.5856 272.582 32.6254 272.515 32.667C272.449 32.7086 272.384 32.7519 272.319 32.7969C272.255 32.842 272.192 32.8888 272.129 32.9372C272.067 32.9857 272.006 33.0358 271.947 33.0875C271.887 33.1392 271.828 33.1925 271.771 33.2474C271.713 33.3022 271.657 33.3586 271.602 33.4164C271.548 33.4743 271.494 33.5336 271.442 33.5944C271.39 33.6551 271.339 33.7172 271.29 33.7807C271.241 33.8441 271.193 33.9089 271.147 33.9749C271.101 34.041 271.056 34.1082 271.013 34.1766C270.97 34.2451 270.928 34.3147 270.889 34.3854C270.849 34.456 270.81 34.5278 270.773 34.6006C270.737 34.6732 270.702 34.7469 270.669 34.8216C270.635 34.8963 270.604 34.9719 270.574 35.0485C270.544 35.1248 270.516 35.2019 270.49 35.2798C270.464 35.3577 270.439 35.4363 270.416 35.5156C270.394 35.5949 270.373 35.6748 270.354 35.7553C270.335 35.8358 270.318 35.9166 270.302 35.9979C270.287 36.0793 270.273 36.1611 270.262 36.2433C270.25 36.3255 270.24 36.408 270.232 36.4909C270.225 36.5736 270.219 36.6564 270.214 36.7395C270.211 36.8227 270.208 36.9059 270.208 36.9892C270.208 37.0726 270.209 37.1558 270.213 37.239C270.216 37.3222 270.222 37.4053 270.229 37.4884C270.236 37.5715 270.245 37.6543 270.256 37.7368C270.267 37.8194 270.28 37.9016 270.295 37.9836C270.31 38.0656 270.326 38.1472 270.345 38.2285C270.363 38.3095 270.384 38.3901 270.406 38.4702C270.428 38.5504 270.452 38.63 270.478 38.7089C270.503 38.7878 270.531 38.8661 270.56 38.9436C270.589 39.0209 270.62 39.0975 270.653 39.1735C270.686 39.2495 270.72 39.3245 270.756 39.3987C270.792 39.4728 270.83 39.546 270.869 39.6182C270.909 39.6903 270.95 39.7614 270.992 39.8314C271.035 39.9016 271.079 39.9705 271.125 40.0383C271.171 40.1061 271.218 40.1726 271.267 40.2378C271.315 40.3032 271.366 40.3671 271.417 40.4297C271.469 40.4925 271.522 40.5538 271.576 40.6136C271.631 40.6736 271.686 40.7321 271.743 40.7891C271.8 40.8461 271.859 40.9016 271.918 40.9556C271.977 41.0094 272.038 41.0617 272.1 41.1126C272.162 41.1634 272.225 41.2125 272.289 41.2599C272.353 41.3074 272.418 41.3531 272.484 41.3972C272.55 41.4413 272.617 41.4836 272.685 41.524C272.753 41.5648 272.821 41.6036 272.891 41.6405C272.961 41.6775 273.031 41.7125 273.102 41.7457C273.174 41.7788 273.245 41.8102 273.318 41.8396C273.39 41.869 273.464 41.8965 273.537 41.922C273.611 41.9475 273.686 41.9711 273.76 41.9929C273.835 42.0145 273.91 42.0341 273.986 42.0518C274.062 42.0695 274.138 42.0852 274.214 42.0989C274.29 42.1125 274.367 42.1241 274.444 42.1338C274.52 42.1433 274.597 42.1508 274.674 42.1564C274.751 42.1618 274.829 42.1653 274.906 42.1668C274.983 42.1682 275.06 42.1676 275.137 42.1651C275.214 42.1625 275.291 42.1577 275.368 42.151C275.445 42.1443 275.522 42.1356 275.598 42.1248C275.674 42.1139 275.75 42.101 275.826 42.0863C275.902 42.0714 275.977 42.0546 276.052 42.0359C276.127 42.017 276.202 41.9962 276.275 41.9735C276.35 41.9507 276.423 41.9258 276.496 41.899C276.569 41.8724 276.641 41.8438 276.712 41.8133C276.783 41.7828 276.854 41.7504 276.924 41.7161C276.994 41.6817 277.063 41.6455 277.131 41.6076C277.199 41.5697 277.267 41.5299 277.333 41.4883C277.399 41.4467 277.465 41.4034 277.529 41.3584C277.593 41.3134 277.657 41.2666 277.719 41.2181C277.781 41.1697 277.842 41.1195 277.902 41.0676C277.962 41.0159 278.02 40.9626 278.078 40.9078C278.135 40.8529 278.191 40.7966 278.246 40.7387C278.301 40.6809 278.354 40.6216 278.406 40.5608C278.458 40.5 278.509 40.438 278.558 40.3747C278.607 40.3112 278.655 40.2464 278.701 40.1803C278.748 40.1143 278.792 40.047 278.835 39.9785C278.878 39.9102 278.92 39.8406 278.96 39.7698C279 39.6992 279.038 39.6275 279.075 39.5546C279.112 39.482 279.147 39.4083 279.18 39.3336C279.213 39.2589 279.245 39.1833 279.275 39.1068C279.304 39.0305 279.332 38.9534 279.359 38.8755C279.385 38.7975 279.409 38.7189 279.432 38.6396C279.455 38.5603 279.476 38.4804 279.495 38.3999C279.514 38.3194 279.531 38.2386 279.546 38.1574C279.562 38.0759 279.575 37.9941 279.587 37.912C279.598 37.8298 279.608 37.7472 279.616 37.6643C279.624 37.5816 279.63 37.4988 279.634 37.4158C279.638 37.3326 279.64 37.2493 279.641 37.166C279.641 37.0827 279.639 36.9994 279.636 36.9162C279.632 36.833 279.627 36.7499 279.62 36.6668C279.612 36.5837 279.603 36.5009 279.592 36.4184C279.581 36.3359 279.568 36.2536 279.554 36.1716C279.539 36.0896 279.522 36.008 279.504 35.9268C279.485 35.8457 279.465 35.7652 279.443 35.6851C279.421 35.6048 279.397 35.5252 279.371 35.4463C279.345 35.3674 279.318 35.2892 279.289 35.2117C279.259 35.1343 279.228 35.0577 279.196 34.9817C279.163 34.9058 279.128 34.8307 279.092 34.7566C279.056 34.6824 279.019 34.6093 278.979 34.5371C278.94 34.4649 278.899 34.3938 278.856 34.3239C278.813 34.2537 278.769 34.1847 278.724 34.1169C278.678 34.0491 278.63 33.9826 278.582 33.9175C278.533 33.8522 278.483 33.7881 278.431 33.7255C278.379 33.6628 278.327 33.6015 278.272 33.5416C278.218 33.4816 278.162 33.4232 278.105 33.3662C278.048 33.3092 277.99 33.2537 277.931 33.1997C277.871 33.1458 277.81 33.0934 277.749 33.0426C277.687 32.9918 277.624 32.9427 277.56 32.8952C277.496 32.8478 277.431 32.802 277.365 32.7579C277.299 32.7139 277.232 32.6716 277.164 32.631C277.096 32.5905 277.027 32.5518 276.958 32.5148C276.888 32.4779 276.817 32.4429 276.746 32.4096C276.675 32.3764 276.603 32.3451 276.531 32.3157C276.458 32.2863 276.385 32.2588 276.311 32.2332C276.237 32.2077 276.163 32.1841 276.088 32.1624C276.013 32.1408 275.938 32.1211 275.863 32.1035C275.787 32.0858 275.711 32.0701 275.635 32.0565C275.558 32.0428 275.482 32.0312 275.405 32.0216C275.328 32.012 275.251 32.0044 275.174 31.9989C275.097 31.9933 275.02 31.9898 274.943 31.9884C274.865 31.9869 274.788 31.9876 274.711 31.9902C274.634 31.9928 274.557 31.9975 274.48 32.0042Z"   fill="#FF8D1A" >
</path>
</svg>
