<svg xmlns="http://www.w3.org/2000/svg" xmlns:xlink="http://www.w3.org/1999/xlink" width="363.4625244140625" height="383.74169921875" viewBox="0 0 363.4625244140625 383.74169921875" fill="none">
<path d="M295.37 74.313L301.333 75.3644L269.404 256.441L263.441 255.39L295.37 74.313Z"   fill="#E4EBED" >
</path>
<path d="M296.263 132.007L273.71 259.911C273.693 259.995 273.673 260.077 273.649 260.159C273.626 260.24 273.599 260.321 273.568 260.4C273.538 260.479 273.504 260.557 273.467 260.633C273.43 260.709 273.39 260.783 273.347 260.855C273.304 260.927 273.258 260.997 273.209 261.065C273.16 261.134 273.108 261.199 273.054 261.262C272.999 261.325 272.942 261.385 272.883 261.443C272.824 261.5 272.762 261.555 272.698 261.607L201.951 315.345C201.884 315.395 201.815 315.442 201.744 315.485C201.673 315.528 201.6 315.568 201.525 315.603C201.451 315.639 201.375 315.67 201.298 315.698C201.22 315.725 201.142 315.748 201.063 315.767C200.984 315.786 200.904 315.801 200.824 315.811C200.743 315.822 200.663 315.828 200.582 315.83C200.502 315.832 200.421 315.829 200.341 315.823C200.26 315.816 200.181 315.805 200.102 315.79L70.3773 292.916L70.0662 317.483C70.0648 317.636 70.0663 317.788 70.071 317.941C70.0757 318.093 70.0835 318.245 70.0944 318.397C70.1052 318.549 70.119 318.7 70.136 318.852C70.1531 319.002 70.173 319.153 70.196 319.303C70.2192 319.453 70.2453 319.602 70.2745 319.751C70.3036 319.899 70.3356 320.047 70.3706 320.194C70.4058 320.34 70.4439 320.486 70.485 320.631C70.526 320.776 70.5701 320.92 70.617 321.063C70.6638 321.205 70.7136 321.347 70.7663 321.487C70.8191 321.627 70.8746 321.766 70.9329 321.904C70.9913 322.041 71.0524 322.177 71.1162 322.311C71.1802 322.446 71.2468 322.579 71.3161 322.71C71.3855 322.841 71.4574 322.97 71.532 323.098C71.6067 323.226 71.6839 323.351 71.7637 323.475C71.8437 323.599 71.9261 323.721 72.0109 323.841C72.0957 323.961 72.1829 324.079 72.2726 324.195C72.3622 324.31 72.4543 324.424 72.5488 324.535C72.6431 324.647 72.7397 324.755 72.8385 324.862C72.9374 324.969 73.0384 325.073 73.1419 325.175C73.245 325.277 73.3503 325.376 73.4576 325.473C73.5649 325.569 73.6742 325.664 73.7856 325.755C73.8969 325.847 74.0101 325.935 74.125 326.022C74.2399 326.108 74.3567 326.191 74.4753 326.272C74.5936 326.352 74.7138 326.43 74.8356 326.505C74.9574 326.58 75.0807 326.652 75.2054 326.721C75.3303 326.79 75.4566 326.856 75.5842 326.919C75.7119 326.982 75.8408 327.042 75.9709 327.1C76.1012 327.157 76.2326 327.211 76.365 327.261C76.4976 327.312 76.6313 327.36 76.7658 327.405C76.9004 327.449 77.036 327.49 77.1725 327.528C77.3088 327.567 77.446 327.602 77.5841 327.633C77.7222 327.665 77.8608 327.693 78 327.719C78.5694 327.817 79.1437 327.861 79.723 327.85L285.224 323.903C285.384 323.9 285.544 323.893 285.705 323.882C285.865 323.871 286.025 323.856 286.185 323.837C286.344 323.817 286.503 323.794 286.662 323.766C286.821 323.738 286.979 323.707 287.137 323.671C287.294 323.635 287.451 323.594 287.607 323.55C287.763 323.506 287.918 323.457 288.072 323.405C288.226 323.353 288.379 323.297 288.53 323.236C288.682 323.176 288.832 323.112 288.981 323.044C289.13 322.975 289.277 322.903 289.423 322.828C289.569 322.752 289.713 322.672 289.855 322.589C289.997 322.506 290.138 322.419 290.277 322.328C290.415 322.237 290.552 322.143 290.686 322.046C290.82 321.948 290.953 321.847 291.083 321.743C291.213 321.638 291.34 321.53 291.466 321.419C291.591 321.308 291.714 321.194 291.834 321.077C291.954 320.959 292.072 320.839 292.187 320.715C292.302 320.592 292.414 320.466 292.523 320.336C292.632 320.207 292.739 320.075 292.842 319.941C292.946 319.806 293.046 319.669 293.143 319.529C293.241 319.389 293.335 319.247 293.426 319.103C293.517 318.958 293.604 318.812 293.689 318.663C293.773 318.514 293.854 318.363 293.932 318.21C294.01 318.057 294.084 317.902 294.154 317.745C294.225 317.589 294.292 317.43 294.356 317.27C294.419 317.111 294.479 316.949 294.536 316.786C294.592 316.623 294.644 316.459 294.693 316.293C294.742 316.128 294.787 315.961 294.829 315.793C294.87 315.626 294.907 315.457 294.941 315.288C294.975 315.118 295.005 314.948 295.031 314.777C295.057 314.607 295.079 314.435 295.097 314.264C295.116 314.092 295.13 313.92 295.14 313.748C295.151 313.575 295.157 313.403 295.16 313.23L297.464 132.099L296.263 132.007Z"   fill="#FF8D1A" >
</path>
<path d="M204.079 307.389L265.13 261.017L213.85 251.975L204.079 307.389Z"   fill="#EFFAFE" >
</path>
<path d="M295.16 313.231L297.464 132.099L296.251 132.005L291.109 161.168L289.187 312.164C289.185 312.337 289.178 312.509 289.168 312.681C289.157 312.854 289.143 313.025 289.125 313.197C289.106 313.369 289.084 313.54 289.058 313.711C289.032 313.882 289.003 314.052 288.969 314.222C288.935 314.391 288.897 314.559 288.856 314.727C288.815 314.895 288.77 315.061 288.721 315.227C288.672 315.392 288.619 315.556 288.563 315.72C288.507 315.883 288.447 316.044 288.383 316.204C288.32 316.364 288.252 316.523 288.182 316.679C288.111 316.836 288.037 316.991 287.959 317.144C287.882 317.297 287.801 317.448 287.716 317.597C287.632 317.746 287.544 317.892 287.453 318.037C287.362 318.181 287.268 318.323 287.171 318.463C287.073 318.603 286.973 318.74 286.87 318.875C286.766 319.009 286.66 319.141 286.551 319.27C286.441 319.399 286.329 319.526 286.214 319.649C286.099 319.773 285.982 319.893 285.862 320.01C285.741 320.128 285.618 320.242 285.493 320.353C285.368 320.464 285.24 320.572 285.11 320.676C284.98 320.781 284.848 320.882 284.713 320.98C284.579 321.077 284.443 321.171 284.304 321.262C284.165 321.353 284.025 321.439 283.883 321.523C283.74 321.606 283.596 321.686 283.451 321.761C283.305 321.837 283.157 321.909 283.008 321.977C282.86 322.046 282.709 322.11 282.558 322.17C282.406 322.23 282.253 322.287 282.099 322.339C281.945 322.391 281.79 322.44 281.635 322.484C281.479 322.528 281.322 322.568 281.164 322.604C281.007 322.64 280.849 322.672 280.69 322.7C280.531 322.727 280.372 322.751 280.212 322.771C280.052 322.79 279.892 322.805 279.732 322.816C279.572 322.827 279.412 322.834 279.251 322.836L75.3076 326.739C75.7315 326.967 76.1697 327.16 76.6221 327.318C77.0744 327.476 77.5359 327.596 78.0067 327.68C78.5761 327.778 79.1504 327.822 79.7296 327.811L285.224 323.903C285.384 323.9 285.544 323.894 285.704 323.883C285.865 323.872 286.025 323.856 286.184 323.837C286.344 323.818 286.503 323.794 286.662 323.766C286.821 323.739 286.979 323.707 287.137 323.671C287.294 323.635 287.451 323.595 287.607 323.55C287.763 323.506 287.918 323.458 288.072 323.405C288.226 323.353 288.379 323.297 288.53 323.236C288.682 323.176 288.832 323.112 288.981 323.044C289.13 322.975 289.277 322.903 289.423 322.828C289.569 322.752 289.713 322.673 289.855 322.589C289.997 322.506 290.138 322.419 290.276 322.328C290.415 322.238 290.552 322.143 290.686 322.046C290.82 321.948 290.953 321.847 291.083 321.743C291.213 321.638 291.34 321.53 291.466 321.419C291.591 321.308 291.714 321.194 291.834 321.077C291.954 320.959 292.072 320.839 292.187 320.715C292.302 320.592 292.414 320.466 292.523 320.336C292.632 320.207 292.739 320.076 292.842 319.941C292.945 319.806 293.046 319.669 293.143 319.529C293.241 319.39 293.335 319.247 293.426 319.103C293.517 318.959 293.604 318.812 293.689 318.663C293.773 318.514 293.854 318.363 293.932 318.21C294.009 318.057 294.083 317.902 294.154 317.746C294.225 317.589 294.292 317.43 294.356 317.271C294.419 317.111 294.479 316.949 294.535 316.786C294.592 316.623 294.644 316.459 294.693 316.293C294.742 316.128 294.787 315.961 294.828 315.794C294.87 315.626 294.907 315.457 294.941 315.288C294.975 315.119 295.005 314.948 295.031 314.778C295.057 314.607 295.079 314.436 295.097 314.264C295.115 314.092 295.13 313.92 295.14 313.748C295.151 313.575 295.157 313.403 295.16 313.231Z"   fill="#2197F7" >
</path>
<path d="M259.167 259.965L205.215 300.946L204.079 307.389L265.13 261.017L259.167 259.965Z"   fill="#E4EBED" >
</path>
<path d="M32.3379 302.271L51.5974 305.667L51.2705 330.604C51.2674 330.842 51.2691 331.081 51.2757 331.319C51.2822 331.557 51.2935 331.795 51.3097 332.032C51.326 332.27 51.3472 332.506 51.3729 332.742C51.3986 332.978 51.4294 333.214 51.465 333.448C51.5002 333.682 51.5405 333.916 51.5853 334.148C51.6301 334.38 51.6797 334.611 51.7343 334.841C51.7888 335.07 51.8475 335.298 51.9112 335.525C51.9748 335.751 52.0431 335.976 52.1159 336.2C52.1888 336.423 52.2663 336.644 52.3481 336.863C52.4302 337.082 52.5165 337.3 52.6074 337.514C52.6983 337.729 52.7933 337.942 52.8927 338.152C52.9925 338.362 53.0963 338.57 53.2043 338.775C53.3123 338.98 53.4248 339.183 53.5412 339.382C53.6575 339.582 53.778 339.779 53.9025 339.972C54.0273 340.166 54.1557 340.357 54.288 340.544C54.4203 340.732 54.5566 340.916 54.6969 341.097C54.8368 341.278 54.9804 341.455 55.1278 341.629C55.2751 341.803 55.4261 341.973 55.5809 342.14C55.7353 342.307 55.8932 342.469 56.0545 342.628C56.2158 342.788 56.3803 342.943 56.5479 343.094C56.7158 343.245 56.8866 343.392 57.0603 343.535C57.2343 343.678 57.4112 343.817 57.591 343.951C57.7707 344.086 57.9531 344.216 58.1384 344.342C58.3238 344.468 58.5114 344.589 58.702 344.706C58.8922 344.823 59.0848 344.935 59.2801 345.043C59.4754 345.15 59.6727 345.254 59.8721 345.352C60.0718 345.45 60.2732 345.544 60.4768 345.632C60.6803 345.721 60.8859 345.805 61.093 345.884C61.3004 345.963 61.5093 346.037 61.7197 346.106C61.93 346.176 62.1419 346.24 62.3553 346.299C62.5686 346.358 62.7832 346.412 62.999 346.461C63.2147 346.51 63.4314 346.554 63.6493 346.593C64.5342 346.75 65.4268 346.824 66.328 346.812L277.782 343.902C278.032 343.898 278.281 343.888 278.531 343.871C278.78 343.854 279.029 343.83 279.278 343.8C279.527 343.77 279.775 343.734 280.022 343.691C280.269 343.648 280.516 343.598 280.761 343.542C281.007 343.486 281.251 343.424 281.494 343.355C281.737 343.286 281.978 343.211 282.218 343.13C282.458 343.048 282.696 342.961 282.932 342.867C283.168 342.773 283.402 342.673 283.634 342.567C283.866 342.461 284.095 342.349 284.322 342.231C284.55 342.113 284.774 341.989 284.996 341.859C285.217 341.73 285.436 341.594 285.652 341.453C285.868 341.312 286.08 341.166 286.29 341.013C286.499 340.862 286.705 340.704 286.908 340.541C287.11 340.379 287.309 340.211 287.504 340.038C287.699 339.865 287.891 339.687 288.078 339.504C288.265 339.321 288.448 339.134 288.627 338.941C288.806 338.749 288.981 338.553 289.151 338.351C289.321 338.15 289.487 337.945 289.648 337.735C289.809 337.526 289.966 337.312 290.117 337.094C290.269 336.877 290.415 336.655 290.557 336.43C290.699 336.205 290.835 335.977 290.967 335.745C291.098 335.513 291.224 335.278 291.345 335.039C291.466 334.801 291.581 334.56 291.692 334.316C291.801 334.072 291.906 333.825 292.005 333.576C292.104 333.326 292.197 333.075 292.285 332.821C292.372 332.567 292.454 332.311 292.53 332.054C292.606 331.796 292.676 331.536 292.741 331.275C292.805 331.014 292.863 330.751 292.916 330.487C292.968 330.223 293.014 329.958 293.055 329.692C293.095 329.426 293.13 329.16 293.158 328.892C293.186 328.625 293.208 328.357 293.224 328.088C293.241 327.82 293.25 327.551 293.254 327.283L296.027 109.188L299.788 87.8596C299.797 87.8068 299.805 87.754 299.812 87.7009C299.819 87.6478 299.825 87.5946 299.829 87.5413C299.834 87.4879 299.837 87.4346 299.839 87.3812C299.841 87.3278 299.842 87.2743 299.841 87.2209C299.841 87.1676 299.839 87.1142 299.836 87.061C299.834 87.0078 299.83 86.9547 299.824 86.9017C299.819 86.8487 299.812 86.796 299.805 86.7434C299.797 86.6909 299.788 86.6387 299.778 86.5867C299.768 86.5346 299.757 86.483 299.744 86.4316C299.732 86.3803 299.718 86.3293 299.703 86.2787C299.689 86.2282 299.673 86.1781 299.656 86.1285C299.638 86.0788 299.62 86.0297 299.601 85.9811C299.582 85.9324 299.561 85.8844 299.539 85.8369C299.518 85.7894 299.495 85.7426 299.471 85.6964C299.448 85.6502 299.423 85.6046 299.397 85.5598C299.371 85.5149 299.344 85.4708 299.316 85.4275C299.288 85.3841 299.259 85.3415 299.23 85.2998C299.2 85.258 299.169 85.217 299.137 85.1769C299.105 85.1368 299.072 85.0976 299.039 85.0593C299.005 85.021 298.971 84.9836 298.935 84.9471C298.9 84.9107 298.864 84.8752 298.826 84.8407C298.789 84.8062 298.751 84.7728 298.713 84.7403C298.674 84.7079 298.635 84.6765 298.595 84.6462C298.555 84.6159 298.514 84.5866 298.472 84.5585C298.431 84.5304 298.388 84.5034 298.346 84.4776C298.303 84.4517 298.26 84.427 298.216 84.4035C298.171 84.3799 298.127 84.3576 298.082 84.3364C298.037 84.3152 297.991 84.2953 297.945 84.2766C297.899 84.2578 297.853 84.2404 297.806 84.2241C297.759 84.2078 297.712 84.1929 297.664 84.1792C297.616 84.1654 297.568 84.153 297.52 84.1418C297.472 84.1306 297.423 84.1207 297.374 84.1121L124.909 53.7019C124.915 53.4167 124.914 53.1318 124.908 52.847C124.902 52.5622 124.89 52.2779 124.872 51.994C124.854 51.7101 124.831 51.427 124.801 51.1446C124.772 50.8621 124.737 50.5806 124.696 50.3002C124.655 50.0198 124.608 49.7406 124.556 49.4627C124.504 49.1847 124.446 48.9083 124.382 48.6335C124.318 48.3586 124.249 48.0856 124.174 47.8143C124.099 47.543 124.019 47.2738 123.933 47.0066C123.847 46.7394 123.755 46.4746 123.658 46.212C123.562 45.9495 123.459 45.6895 123.352 45.4321C123.244 45.1747 123.131 44.9201 123.013 44.6683C122.895 44.4164 122.772 44.1677 122.643 43.922C122.515 43.6762 122.381 43.4339 122.243 43.1948C122.105 42.9557 121.961 42.7201 121.813 42.488C121.665 42.2559 121.512 42.0276 121.354 41.803C121.196 41.5784 121.034 41.3577 120.867 41.141C120.7 40.9244 120.529 40.7119 120.353 40.5035C120.178 40.2952 119.997 40.0912 119.813 39.8916C119.629 39.692 119.44 39.4969 119.248 39.3064C119.055 39.1159 118.859 38.9301 118.659 38.7491C118.458 38.5681 118.254 38.3919 118.047 38.2207C117.839 38.0496 117.628 37.8835 117.413 37.7224C117.198 37.5614 116.98 37.4056 116.759 37.255C116.538 37.1044 116.313 36.9593 116.086 36.8195C115.858 36.6796 115.628 36.5453 115.395 36.4165C115.161 36.2877 114.925 36.1646 114.687 36.0471C114.449 35.9296 114.208 35.8179 113.964 35.7118C113.72 35.6058 113.475 35.5056 113.227 35.4113C112.98 35.317 112.73 35.2287 112.478 35.1462C112.226 35.0638 111.973 34.9874 111.718 34.917C111.463 34.8466 111.207 34.7823 110.949 34.7241C110.69 34.6659 110.431 34.6138 110.171 34.5679C109.911 34.5221 109.649 34.4823 109.387 34.4488C109.124 34.4152 108.862 34.3879 108.598 34.3668C108.334 34.3457 108.07 34.3309 107.805 34.3222C107.54 34.3136 107.276 34.3113 107.011 34.3151C106.746 34.319 106.481 34.3292 106.215 34.3455C105.95 34.3619 105.686 34.3845 105.421 34.4133C105.157 34.4422 104.893 34.4772 104.63 34.5185C104.367 34.5597 104.105 34.6071 103.843 34.6607C103.581 34.7142 103.321 34.7739 103.061 34.8397C102.802 34.9055 102.544 34.9774 102.287 35.0553C102.03 35.1331 101.774 35.217 101.521 35.3068C101.267 35.3966 101.015 35.4923 100.765 35.594C100.515 35.6956 100.267 35.803 100.021 35.9162C99.7748 36.0293 99.531 36.1482 99.2895 36.2727C99.0481 36.3973 98.8091 36.5273 98.5727 36.663C98.3364 36.7987 98.1028 36.9398 97.8719 37.0864C97.641 37.2329 97.4129 37.3847 97.1878 37.5418C96.9628 37.6989 96.7408 37.8611 96.5222 38.0286C96.3037 38.196 96.0882 38.3683 95.8765 38.5457C95.6645 38.723 95.4562 38.9051 95.2517 39.0921C95.0469 39.2791 94.8459 39.4706 94.6487 39.6668C94.4515 39.863 94.2584 40.0637 94.0695 40.2688C93.8802 40.4739 93.6952 40.6832 93.5145 40.8968C93.3336 41.1104 93.1571 41.328 92.985 41.5497C92.8127 41.7713 92.645 41.9968 92.4818 42.2261C92.3186 42.4554 92.1601 42.6883 92.0063 42.9248C91.8525 43.1613 91.7035 43.4012 91.5591 43.6444C91.415 43.8877 91.2757 44.1341 91.1413 44.3836C91.007 44.6332 90.8776 44.8856 90.7533 45.1409C90.6292 45.3963 90.5102 45.6543 90.3964 45.915C90.2826 46.1757 90.174 46.4387 90.0706 46.7042C89.9675 46.9697 89.8697 47.2373 89.7772 47.5071L77.6372 45.3665C77.3918 45.3235 77.1455 45.2869 76.8981 45.2569C76.6509 45.2269 76.403 45.2035 76.1543 45.1866C75.9056 45.1698 75.6565 45.1595 75.407 45.1558C75.1575 45.152 74.908 45.1549 74.6583 45.1644C74.4086 45.1738 74.1591 45.1899 73.9099 45.2124C73.6606 45.235 73.4118 45.2642 73.1635 45.2999C72.9153 45.3356 72.6678 45.3778 72.4212 45.4264C72.1745 45.4751 71.9289 45.5303 71.6845 45.5918C71.44 45.6534 71.1969 45.7214 70.9552 45.7957C70.7135 45.87 70.4735 45.9506 70.2352 46.0375C69.9969 46.1244 69.7605 46.2174 69.5262 46.3167C69.2918 46.4159 69.0596 46.5212 68.8298 46.6325C68.5999 46.7439 68.3725 46.8611 68.1477 46.9843C67.9229 47.1075 67.7008 47.2365 67.4816 47.3712C67.2624 47.5059 67.0462 47.6463 66.8331 47.7923C66.62 47.9382 66.4102 48.0897 66.2037 48.2465C65.9972 48.4033 65.7943 48.5654 65.5949 48.7327C65.3956 48.9001 65.2 49.0725 65.0083 49.2499C64.8166 49.4273 64.6289 49.6095 64.4452 49.7966C64.2615 49.9837 64.0821 50.1754 63.9069 50.3717C63.7318 50.568 63.5611 50.7688 63.3948 50.974C63.2286 51.179 63.067 51.3882 62.9102 51.6015C62.7533 51.8147 62.6012 52.032 62.454 52.2532C62.3068 52.4742 62.1647 52.6988 62.0275 52.9271C61.8904 53.1554 61.7585 53.387 61.6318 53.622C61.5051 53.8568 61.3837 54.0947 61.2676 54.3358C61.1516 54.5769 61.041 54.8207 60.936 55.0673C60.831 55.3136 60.7315 55.5626 60.6377 55.8143C60.5438 56.0657 60.4558 56.3193 60.3734 56.5749C60.291 56.8308 60.2145 57.0885 60.1437 57.348C60.073 57.6075 60.0082 57.8684 59.9494 58.1309C59.8905 58.3936 59.8375 58.6574 59.7906 58.9223L20.2041 283.429C20.1575 283.694 20.117 283.96 20.0825 284.227C20.048 284.494 20.0197 284.761 19.9974 285.029C19.9751 285.297 19.9589 285.566 19.9488 285.834C19.9387 286.103 19.9348 286.371 19.937 286.639C19.9391 286.908 19.9474 287.176 19.9618 287.444C19.9762 287.711 19.9967 287.978 20.0233 288.244C20.0498 288.511 20.0825 288.776 20.1213 289.04C20.16 289.304 20.2048 289.566 20.2556 289.828C20.3064 290.089 20.3631 290.349 20.4258 290.607C20.4885 290.865 20.5571 291.121 20.6316 291.375C20.706 291.63 20.7863 291.881 20.8724 292.131C20.9584 292.38 21.0502 292.627 21.1476 292.872C21.2451 293.116 21.3481 293.358 21.4567 293.596C21.5653 293.835 21.6794 294.07 21.7989 294.303C21.9184 294.535 22.0432 294.764 22.1733 294.989C22.3033 295.215 22.4386 295.436 22.579 295.655C22.7193 295.873 22.8647 296.087 23.0151 296.296C23.1654 296.507 23.3206 296.712 23.4805 296.914C23.6404 297.116 23.805 297.313 23.9741 297.505C24.1432 297.698 24.3168 297.886 24.4947 298.069C24.6726 298.253 24.8547 298.431 25.0411 298.604C25.2274 298.778 25.4177 298.946 25.6119 299.109C25.8062 299.272 26.0041 299.43 26.2058 299.582C26.4075 299.735 26.6127 299.882 26.8213 300.023C27.0299 300.165 27.2418 300.301 27.457 300.431C27.6721 300.561 27.8903 300.685 28.1113 300.804C28.3324 300.922 28.5562 301.035 28.7828 301.141C29.0092 301.248 29.2382 301.348 29.4696 301.442C29.7009 301.537 29.9345 301.625 30.1702 301.707C30.4059 301.789 30.6435 301.864 30.883 301.933C31.1224 302.002 31.3634 302.065 31.606 302.121C31.8487 302.178 32.0927 302.228 32.3379 302.271ZM265.639 276.225C265.718 276.162 265.794 276.095 265.868 276.024C265.941 275.953 266.011 275.879 266.078 275.801C266.145 275.723 266.209 275.642 266.269 275.558C266.33 275.475 266.386 275.388 266.439 275.299C266.492 275.209 266.542 275.118 266.587 275.024C266.632 274.93 266.673 274.834 266.71 274.736C266.747 274.638 266.78 274.539 266.809 274.438C266.837 274.337 266.862 274.235 266.881 274.132L289.434 146.228L287.118 327.357C287.115 327.519 287.11 327.681 287.1 327.842C287.09 328.004 287.077 328.166 287.06 328.327C287.043 328.488 287.022 328.649 286.998 328.809C286.974 328.97 286.946 329.129 286.914 329.288C286.883 329.447 286.847 329.605 286.809 329.763C286.77 329.92 286.728 330.077 286.682 330.232C286.636 330.387 286.587 330.542 286.534 330.695C286.481 330.848 286.425 330.999 286.365 331.15C286.306 331.3 286.242 331.448 286.176 331.595C286.11 331.742 286.04 331.888 285.967 332.031C285.895 332.175 285.818 332.317 285.739 332.457C285.66 332.596 285.578 332.734 285.492 332.87C285.407 333.005 285.319 333.139 285.227 333.27C285.136 333.401 285.042 333.53 284.945 333.656C284.848 333.782 284.748 333.906 284.645 334.027C284.542 334.148 284.437 334.267 284.329 334.383C284.221 334.498 284.11 334.611 283.998 334.721C283.885 334.832 283.77 334.939 283.652 335.043C283.534 335.147 283.414 335.248 283.292 335.346C283.17 335.444 283.046 335.539 282.92 335.631C282.793 335.722 282.665 335.811 282.535 335.895C282.405 335.98 282.273 336.062 282.139 336.14C282.006 336.218 281.87 336.292 281.733 336.363C281.596 336.434 281.458 336.502 281.318 336.565C281.178 336.629 281.037 336.689 280.895 336.746C280.753 336.802 280.609 336.855 280.465 336.904C280.32 336.952 280.175 336.998 280.028 337.039C279.882 337.08 279.735 337.118 279.587 337.151C279.439 337.185 279.29 337.215 279.141 337.24C278.992 337.266 278.842 337.288 278.693 337.306C278.543 337.324 278.392 337.338 278.242 337.348C278.092 337.358 277.941 337.364 277.791 337.366L66.4107 340.276C66.2604 340.278 66.1101 340.276 65.9599 340.27C65.81 340.265 65.6601 340.255 65.5107 340.241C65.3613 340.227 65.2122 340.21 65.0639 340.188C64.9152 340.166 64.7672 340.141 64.6203 340.111C64.4733 340.082 64.3271 340.048 64.1818 340.011C64.0362 339.974 63.8919 339.933 63.7486 339.887C63.6053 339.843 63.4632 339.794 63.3222 339.741C63.1814 339.689 63.0419 339.633 62.9038 339.572C62.7655 339.512 62.6289 339.449 62.4938 339.382C62.3587 339.315 62.2255 339.244 62.0938 339.169C61.9622 339.095 61.8324 339.017 61.7044 338.935C61.5764 338.854 61.4505 338.769 61.3265 338.681C61.2028 338.593 61.0809 338.502 60.9615 338.407C60.8419 338.312 60.7245 338.214 60.6096 338.113C60.4949 338.013 60.3823 337.908 60.2721 337.801C60.1621 337.694 60.0546 337.584 59.9497 337.471C59.8448 337.358 59.7426 337.242 59.6433 337.124C59.5439 337.006 59.4472 336.885 59.3535 336.761C59.2593 336.637 59.1685 336.511 59.0808 336.382C58.9928 336.254 58.9081 336.123 58.8261 335.989C58.7442 335.856 58.6657 335.72 58.5901 335.583C58.5145 335.445 58.4423 335.305 58.3732 335.164C58.3041 335.022 58.2384 334.878 58.1758 334.733C58.1132 334.588 58.0543 334.441 57.9988 334.292C57.9429 334.143 57.8907 333.993 57.8421 333.842C57.7934 333.69 57.7482 333.537 57.7065 333.383C57.6649 333.229 57.6268 333.074 57.5923 332.917C57.5577 332.761 57.5267 332.604 57.4993 332.445C57.4722 332.287 57.4486 332.128 57.4285 331.968C57.4084 331.809 57.3918 331.648 57.3792 331.488C57.3667 331.327 57.3576 331.166 57.3523 331.004C57.3469 330.843 57.3453 330.681 57.3474 330.519L57.6555 306.735L192.651 330.539C192.749 330.556 192.847 330.568 192.946 330.575C193.045 330.582 193.144 330.583 193.244 330.58C193.343 330.576 193.442 330.567 193.541 330.553C193.64 330.539 193.738 330.52 193.836 330.496C193.933 330.471 194.03 330.442 194.124 330.408C194.219 330.373 194.313 330.334 194.404 330.29C194.496 330.246 194.585 330.197 194.673 330.143C194.76 330.09 194.845 330.033 194.928 329.97L265.639 276.225ZM197.542 320.027L206.927 266.803L256.178 275.487L197.542 320.027ZM109.036 41.0036C109.199 41.0334 109.361 41.0668 109.522 41.1039C109.684 41.1409 109.844 41.1815 110.004 41.2257C110.164 41.2698 110.322 41.3174 110.48 41.3687C110.637 41.4199 110.794 41.4746 110.949 41.5327C111.105 41.5909 111.259 41.6525 111.412 41.7175C111.564 41.7825 111.716 41.8509 111.866 41.9228C112.016 41.9945 112.165 42.0696 112.312 42.1481C112.459 42.2265 112.604 42.3082 112.748 42.3931C112.892 42.478 113.034 42.5661 113.174 42.6574C113.314 42.7487 113.453 42.843 113.589 42.9406C113.726 43.0381 113.86 43.1386 113.993 43.2421C114.125 43.3457 114.256 43.4521 114.384 43.5615C114.512 43.671 114.639 43.7832 114.762 43.8983C114.886 44.0134 115.008 44.1313 115.127 44.2519C115.247 44.3724 115.363 44.4957 115.478 44.6215C115.592 44.7474 115.704 44.8759 115.814 45.0068C115.923 45.1378 116.03 45.2712 116.134 45.407C116.238 45.5428 116.34 45.681 116.439 45.8214C116.538 45.9619 116.634 46.1045 116.727 46.2493C116.821 46.3942 116.911 46.5411 116.999 46.6901C117.086 46.8391 117.171 46.9901 117.253 47.1429C117.335 47.2958 117.413 47.4506 117.489 47.6071C117.565 47.7637 117.638 47.9219 117.707 48.0818C117.777 48.2417 117.844 48.4032 117.907 48.5662C117.97 48.7292 118.031 48.8937 118.088 49.0596C118.145 49.2254 118.199 49.3926 118.249 49.561C118.3 49.7294 118.347 49.899 118.392 50.0697C118.436 50.2404 118.477 50.4122 118.514 50.5848C118.552 50.7575 118.586 50.9311 118.617 51.1055C118.648 51.2799 118.676 51.455 118.7 51.6308C118.724 51.8065 118.744 51.9829 118.762 52.1598C118.779 52.3367 118.793 52.5141 118.804 52.6918L95.8478 48.644C95.9187 48.4805 95.9925 48.3185 96.0696 48.1582C96.1465 47.9978 96.2264 47.839 96.3094 47.682C96.3922 47.5249 96.4782 47.3697 96.5671 47.2163C96.6559 47.063 96.7475 46.9115 96.8418 46.7619C96.9361 46.6123 97.0334 46.4649 97.1335 46.3195C97.2335 46.1741 97.3362 46.0309 97.4413 45.8898C97.5467 45.7488 97.6548 45.6101 97.7652 45.4737C97.8757 45.3373 97.9887 45.2033 98.1042 45.0717C98.2196 44.9401 98.3373 44.8111 98.4577 44.6846C98.5781 44.5581 98.7007 44.4342 98.8257 44.313C98.9507 44.1918 99.0776 44.0733 99.2068 43.9575C99.3361 43.8417 99.4673 43.7288 99.6007 43.6188C99.7342 43.5087 99.8696 43.4015 100.007 43.2973C100.144 43.1931 100.284 43.0919 100.425 42.9938C100.566 42.8956 100.709 42.8005 100.853 42.7085C100.998 42.6165 101.144 42.5277 101.292 42.4422C101.439 42.3565 101.589 42.2742 101.74 42.1951C101.89 42.1159 102.043 42.0402 102.196 41.9676C102.349 41.8952 102.504 41.8261 102.66 41.7603C102.816 41.6946 102.973 41.6323 103.131 41.5735C103.29 41.5146 103.449 41.4593 103.609 41.4074C103.769 41.3555 103.93 41.3071 104.091 41.2623C104.253 41.2174 104.416 41.1762 104.579 41.1384C104.742 41.1007 104.906 41.0666 105.07 41.0361C105.234 41.0056 105.399 40.9787 105.564 40.9554C105.729 40.9321 105.895 40.9125 106.061 40.8965C106.226 40.8805 106.392 40.8681 106.558 40.8594C106.724 40.8508 106.89 40.8458 107.056 40.8444C107.222 40.843 107.388 40.8453 107.554 40.8513C107.72 40.8573 107.885 40.8669 108.05 40.8802C108.215 40.8934 108.38 40.9104 108.545 40.931C108.709 40.9515 108.873 40.9758 109.036 41.0036ZM65.7578 59.948C65.7874 59.7896 65.8204 59.632 65.857 59.4752C65.8937 59.3182 65.9338 59.1623 65.9774 59.0074C66.0211 58.8526 66.0682 58.6988 66.1187 58.546C66.1693 58.3933 66.2232 58.2419 66.2806 58.0919C66.3379 57.9419 66.3986 57.7934 66.4626 57.6463C66.5266 57.4992 66.5938 57.3538 66.6643 57.2101C66.7348 57.0664 66.8084 56.9245 66.8853 56.7844C66.9621 56.6444 67.042 56.5064 67.125 56.3702C67.208 56.2342 67.2939 56.1004 67.3829 55.9689C67.4718 55.837 67.5636 55.7076 67.6583 55.5806C67.753 55.4535 67.8504 55.329 67.9506 55.2069C68.0508 55.0848 68.1536 54.9653 68.2591 54.8484C68.3646 54.7315 68.4726 54.6174 68.5831 54.5062C68.6936 54.3948 68.8065 54.2863 68.9219 54.1806C69.0371 54.0751 69.1547 53.9726 69.2744 53.873C69.3942 53.7735 69.5161 53.677 69.6401 53.5837C69.7641 53.4904 69.8901 53.4004 70.018 53.3135C70.1459 53.2269 70.2756 53.1434 70.4071 53.0632C70.5386 52.9832 70.6718 52.9066 70.8066 52.8334C70.9414 52.7601 71.0778 52.6905 71.2155 52.6244C71.3534 52.5582 71.4925 52.4955 71.633 52.4366C71.7734 52.3777 71.915 52.3223 72.0578 52.2707C72.2006 52.2192 72.3444 52.1714 72.4892 52.1272C72.6339 52.0831 72.7795 52.0428 72.9259 52.0062C73.0723 51.9698 73.2194 51.9371 73.3671 51.9082C73.5147 51.8794 73.6629 51.8543 73.8116 51.8331C73.9602 51.8119 74.1092 51.7947 74.2584 51.7814C74.4076 51.7681 74.557 51.7586 74.7064 51.7531C74.8559 51.7475 75.0053 51.746 75.1547 51.7484C75.3039 51.7506 75.453 51.7568 75.602 51.7671C75.7509 51.7772 75.8992 51.7912 76.0471 51.8091C76.1952 51.827 76.3427 51.8488 76.4896 51.8745L88.415 53.9773L83.3318 82.8056C83.2511 83.1319 83.1783 83.4599 83.1134 83.7896C83.0485 84.1197 82.9913 84.4507 82.9419 84.7832C82.8927 85.116 82.8514 85.4492 82.8181 85.7835C82.7847 86.1181 82.7592 86.4532 82.7418 86.7882C82.7244 87.1237 82.7151 87.4589 82.7138 87.7942C82.7122 88.1298 82.7188 88.4648 82.7336 88.7992C82.7481 89.134 82.7707 89.4675 82.8012 89.8001C82.8319 90.1331 82.8704 90.4647 82.9169 90.7948C82.9634 91.1253 83.0178 91.4538 83.0801 91.7803C83.1423 92.1075 83.2124 92.4322 83.2904 92.7545C83.3681 93.0772 83.4537 93.3969 83.547 93.714C83.6404 94.0314 83.7413 94.3459 83.8498 94.657C83.9582 94.9684 84.074 95.2765 84.1972 95.581C84.3205 95.8854 84.451 96.1861 84.589 96.4829C84.7269 96.7799 84.8717 97.0725 85.0238 97.3608C85.1758 97.6494 85.3347 97.9335 85.5007 98.2126C85.6663 98.4919 85.839 98.7662 86.0181 99.0353C86.1971 99.3047 86.3829 99.569 86.575 99.8275C86.7669 100.087 86.9651 100.34 87.1696 100.587C87.3741 100.834 87.5842 101.076 87.8006 101.311C88.017 101.547 88.2387 101.776 88.466 101.999C88.6935 102.222 88.9265 102.438 89.1646 102.648C89.4028 102.858 89.6458 103.061 89.8941 103.257C90.1423 103.453 90.3952 103.642 90.6527 103.823C90.9102 104.005 91.1721 104.18 91.4384 104.346C91.7044 104.514 91.9747 104.673 92.2489 104.825C92.5231 104.977 92.801 105.121 93.0826 105.257C93.364 105.394 93.6488 105.522 93.9368 105.643C94.2248 105.763 94.5158 105.875 94.8095 105.98C95.1031 106.084 95.3995 106.18 95.6982 106.267C95.9972 106.355 96.298 106.434 96.6008 106.505C96.904 106.577 97.2087 106.639 97.5149 106.693C97.8211 106.747 98.1287 106.792 98.4379 106.829C98.7468 106.866 99.0566 106.895 99.3676 106.914C99.6783 106.934 99.9895 106.946 100.301 106.948C100.613 106.95 100.925 106.945 101.236 106.93C101.548 106.915 101.86 106.892 102.171 106.86C102.482 106.828 102.793 106.788 103.102 106.739C103.412 106.69 103.72 106.632 104.027 106.566C104.335 106.501 104.641 106.426 104.945 106.343C105.249 106.261 105.551 106.17 105.851 106.07C106.152 105.971 106.45 105.864 106.745 105.748C107.041 105.632 107.334 105.508 107.624 105.377C107.913 105.245 108.2 105.106 108.484 104.958C108.768 104.811 109.048 104.656 109.325 104.494C109.601 104.331 109.874 104.161 110.143 103.983C110.412 103.806 110.677 103.621 110.937 103.429C111.198 103.238 111.454 103.039 111.705 102.833C111.956 102.628 112.203 102.415 112.444 102.196C112.686 101.977 112.922 101.751 113.153 101.52C113.384 101.288 113.61 101.05 113.83 100.806C114.05 100.562 114.264 100.313 114.472 100.057C114.681 99.8013 114.883 99.5404 115.079 99.274C115.276 99.0079 115.465 98.7368 115.649 98.4602C115.832 98.184 116.009 97.9029 116.18 97.6167C116.35 97.3311 116.513 97.041 116.67 96.7464C116.827 96.4521 116.976 96.1536 117.119 95.8512C117.261 95.5491 117.397 95.2435 117.525 94.9339C117.653 94.6246 117.774 94.3121 117.887 93.9962C118.001 93.6807 118.106 93.3625 118.205 93.0414C118.303 92.7205 118.394 92.397 118.477 92.0711C118.56 91.7456 118.635 91.4183 118.703 91.0888C118.77 90.7595 118.829 90.4288 118.881 90.0965C118.933 89.7644 118.977 89.4313 119.013 89.0971L121.842 73.0526C121.851 73.0001 121.859 72.9471 121.866 72.8938C121.873 72.8409 121.879 72.7877 121.883 72.7344C121.887 72.6814 121.891 72.6278 121.893 72.5743C121.895 72.5209 121.896 72.4675 121.895 72.414C121.895 72.3607 121.893 72.3073 121.89 72.254C121.888 72.201 121.883 72.1478 121.878 72.0947C121.873 72.042 121.866 71.989 121.859 71.9365C121.851 71.884 121.842 71.8319 121.832 71.7797C121.822 71.7277 121.811 71.6759 121.798 71.6245C121.786 71.5735 121.772 71.5226 121.757 71.4718C121.743 71.4214 121.726 71.3714 121.709 71.3215C121.692 71.272 121.674 71.2226 121.655 71.174C121.636 71.1254 121.615 71.0776 121.593 71.03C121.572 70.9827 121.549 70.9358 121.525 70.8894C121.501 70.8433 121.477 70.7978 121.451 70.7527C121.425 70.7083 121.398 70.664 121.37 70.6205C121.342 70.5771 121.313 70.5345 121.284 70.4927C121.254 70.4512 121.223 70.4102 121.191 70.37C121.159 70.3298 121.126 70.2908 121.093 70.2524C121.059 70.2142 121.024 70.1769 120.989 70.1401C120.954 70.104 120.918 70.0684 120.88 70.0339C120.843 69.9994 120.805 69.9662 120.767 69.9335C120.728 69.901 120.689 69.8695 120.649 69.8392C120.609 69.8089 120.568 69.7798 120.526 69.7515C120.485 69.7236 120.442 69.6966 120.4 69.6707C120.357 69.6449 120.313 69.6203 120.269 69.5966C120.225 69.5729 120.181 69.5507 120.136 69.5297C120.091 69.5084 120.045 69.4885 119.999 69.4697C119.953 69.4509 119.907 69.4335 119.86 69.4172C119.813 69.401 119.766 69.386 119.718 69.3723C119.67 69.3586 119.622 69.3461 119.574 69.335C119.526 69.3238 119.477 69.3139 119.428 69.3053C119.38 69.2967 119.331 69.2894 119.281 69.2833C119.232 69.2774 119.183 69.2727 119.133 69.2692C119.084 69.2658 119.035 69.2637 118.985 69.263C118.935 69.2622 118.886 69.2627 118.836 69.2646C118.786 69.2664 118.737 69.2697 118.687 69.2742C118.637 69.2785 118.588 69.2842 118.538 69.2914C118.489 69.2986 118.44 69.3069 118.391 69.3165C118.342 69.3262 118.293 69.3371 118.244 69.3492C118.196 69.3615 118.147 69.3749 118.099 69.3897C118.051 69.4045 118.003 69.4207 117.956 69.4378C117.909 69.4554 117.862 69.4737 117.815 69.4934C117.768 69.513 117.722 69.5341 117.676 69.556C117.63 69.5785 117.585 69.6017 117.541 69.6261C117.496 69.6507 117.452 69.6762 117.408 69.703C117.364 69.7298 117.321 69.7578 117.279 69.7866C117.237 69.8156 117.195 69.8458 117.154 69.8771C117.113 69.9084 117.072 69.9408 117.033 69.9737C116.993 70.0072 116.954 70.0416 116.916 70.0767C116.878 70.1121 116.84 70.1484 116.804 70.1855C116.768 70.2229 116.732 70.2608 116.697 70.2998C116.662 70.3388 116.628 70.3791 116.595 70.4197C116.562 70.4607 116.53 70.5022 116.499 70.5446C116.468 70.5873 116.437 70.6304 116.408 70.6741C116.379 70.7181 116.351 70.7629 116.323 70.8083C116.296 70.8539 116.27 70.8999 116.245 70.9466C116.22 70.9933 116.195 71.0408 116.172 71.0886C116.149 71.1367 116.127 71.1853 116.106 71.2341C116.085 71.2833 116.066 71.3329 116.047 71.3828C116.028 71.433 116.011 71.4834 115.994 71.5343C115.978 71.5852 115.963 71.6367 115.949 71.688C115.935 71.7397 115.922 71.7916 115.91 71.8437C115.899 71.8961 115.888 71.9487 115.879 72.0013L113.05 88.0457C113.029 88.2713 113.003 88.4959 112.972 88.7199C112.94 88.9442 112.903 89.1673 112.861 89.3897C112.819 89.6121 112.771 89.8333 112.718 90.0531C112.665 90.2734 112.607 90.492 112.544 90.7091C112.481 90.9261 112.412 91.1413 112.339 91.3549C112.265 91.5684 112.186 91.7801 112.102 91.9896C112.019 92.1991 111.93 92.406 111.836 92.6107C111.743 92.8158 111.644 93.018 111.541 93.2174C111.438 93.4171 111.33 93.6137 111.217 93.8074C111.105 94.0015 110.988 94.1921 110.866 94.3796C110.744 94.5671 110.619 94.7512 110.488 94.9322C110.358 95.1132 110.223 95.2901 110.085 95.4633C109.946 95.6369 109.803 95.8067 109.657 95.9725C109.51 96.1383 109.359 96.2998 109.205 96.4573C109.051 96.6152 108.893 96.7684 108.732 96.9173C108.57 97.0662 108.405 97.2109 108.237 97.3506C108.069 97.4907 107.897 97.6259 107.723 97.7566C107.548 97.8873 107.371 98.0131 107.191 98.1338C107.01 98.2548 106.827 98.3704 106.642 98.4812C106.456 98.5922 106.268 98.6979 106.077 98.7982C105.887 98.8988 105.694 98.9938 105.5 99.0837C105.305 99.1735 105.108 99.2578 104.909 99.3367C104.711 99.4159 104.51 99.4892 104.309 99.557C104.107 99.625 103.903 99.6872 103.699 99.7438C103.494 99.8004 103.288 99.8512 103.082 99.8964C102.875 99.9417 102.667 99.9811 102.459 100.015C102.25 100.048 102.041 100.076 101.832 100.098C101.622 100.12 101.413 100.137 101.203 100.147C100.993 100.157 100.783 100.162 100.573 100.16C100.363 100.159 100.154 100.152 99.9442 100.138C99.735 100.126 99.5262 100.107 99.3182 100.082C99.1102 100.057 98.9031 100.026 98.6968 99.99C98.4905 99.9536 98.2855 99.9114 98.0815 99.8635C97.8775 99.8159 97.6749 99.7623 97.4738 99.7029C97.2725 99.6438 97.073 99.5791 96.8755 99.5084C96.678 99.438 96.482 99.3619 96.2883 99.2802C96.0946 99.1989 95.903 99.112 95.7137 99.0195C95.5243 98.9273 95.3377 98.8296 95.1532 98.7267C94.9688 98.6237 94.7874 98.5157 94.6085 98.4024C94.4296 98.2891 94.2537 98.1711 94.0808 98.0479C93.9079 97.9247 93.7381 97.7968 93.5715 97.6638C93.4053 97.5311 93.242 97.3937 93.0823 97.2513C92.9227 97.1092 92.7668 96.9628 92.6145 96.8117C92.462 96.6606 92.3135 96.5055 92.1689 96.3458C92.0242 96.1864 91.8837 96.0228 91.747 95.8548C91.6105 95.6872 91.4781 95.5161 91.3501 95.3407C91.222 95.1656 91.0983 94.9867 90.979 94.8042C90.8596 94.6217 90.7448 94.436 90.6346 94.2468C90.5243 94.058 90.419 93.8657 90.3181 93.6705C90.2173 93.4753 90.1213 93.2773 90.0304 93.0763C89.9394 92.8755 89.8532 92.6723 89.7721 92.4663C89.691 92.2604 89.6149 92.0519 89.5438 91.8414C89.473 91.6313 89.4071 91.419 89.3463 91.2043C89.2858 90.9897 89.2304 90.7736 89.1803 90.5558C89.1302 90.3381 89.0852 90.1189 89.0458 89.898C89.0063 89.6774 88.9722 89.4558 88.9436 89.2328C88.9149 89.0102 88.8913 88.7865 88.8735 88.5617C88.8555 88.3373 88.8429 88.1125 88.836 87.8871C88.829 87.6616 88.8273 87.4358 88.8312 87.2099C88.835 86.984 88.8444 86.7584 88.859 86.5328C88.8738 86.3072 88.8939 86.0818 88.9197 85.8568C88.9452 85.6321 88.9761 85.408 89.0125 85.1846C89.0488 84.9611 89.0904 84.7389 89.1375 84.5173C89.1845 84.296 89.2368 84.076 89.2945 83.857L94.3777 55.0286L293.246 90.0944L261.553 269.831L205.122 259.881C205.073 259.872 205.024 259.865 204.975 259.859C204.926 259.853 204.877 259.848 204.827 259.845C204.778 259.841 204.728 259.839 204.679 259.838C204.629 259.838 204.579 259.838 204.53 259.84C204.48 259.842 204.43 259.845 204.381 259.85C204.331 259.854 204.282 259.86 204.232 259.867C204.183 259.874 204.134 259.882 204.085 259.892C204.036 259.902 203.987 259.913 203.938 259.925C203.889 259.937 203.841 259.95 203.793 259.965C203.745 259.98 203.697 259.996 203.65 260.013C203.602 260.031 203.555 260.049 203.509 260.069C203.462 260.089 203.416 260.11 203.37 260.131C203.324 260.154 203.279 260.177 203.234 260.202C203.19 260.226 203.146 260.252 203.102 260.279C203.058 260.305 203.015 260.333 202.973 260.362C202.93 260.391 202.889 260.421 202.848 260.453C202.807 260.484 202.766 260.516 202.726 260.549C202.687 260.583 202.648 260.617 202.61 260.652C202.572 260.688 202.534 260.724 202.498 260.761C202.462 260.798 202.426 260.836 202.391 260.875C202.356 260.914 202.322 260.955 202.289 260.995C202.256 261.036 202.224 261.078 202.193 261.12C202.161 261.163 202.131 261.206 202.102 261.25C202.073 261.294 202.044 261.338 202.017 261.384C201.99 261.429 201.963 261.475 201.938 261.522C201.913 261.569 201.889 261.616 201.866 261.664C201.843 261.712 201.821 261.761 201.8 261.81C201.779 261.859 201.759 261.908 201.741 261.958C201.722 262.008 201.705 262.059 201.688 262.11C201.672 262.161 201.657 262.212 201.643 262.264C201.629 262.315 201.616 262.367 201.604 262.419C201.593 262.472 201.582 262.524 201.573 262.577L190.818 323.572L33.4741 295.828C33.3264 295.802 33.1796 295.771 33.0335 295.737C32.8875 295.703 32.7423 295.665 32.598 295.624C32.4539 295.582 32.3109 295.536 32.169 295.487C32.0271 295.438 31.8864 295.385 31.7471 295.328C31.6078 295.271 31.47 295.21 31.3337 295.146C31.1972 295.082 31.0625 295.014 30.9295 294.943C30.7964 294.871 30.665 294.797 30.5355 294.718C30.406 294.64 30.2785 294.558 30.1528 294.473C30.0272 294.388 29.9036 294.299 29.7823 294.207C29.6608 294.115 29.5416 294.02 29.4247 293.922C29.3078 293.824 29.1932 293.722 29.081 293.618C28.9688 293.514 28.8592 293.406 28.7521 293.296C28.6449 293.186 28.5404 293.072 28.4386 292.956C28.3368 292.84 28.2377 292.721 28.1414 292.6C28.0451 292.479 27.9517 292.355 27.8612 292.228C27.7707 292.102 27.6832 291.973 27.5986 291.842C27.5141 291.711 27.4327 291.577 27.3543 291.441C27.276 291.305 27.2008 291.168 27.1289 291.028C27.0569 290.888 26.9882 290.746 26.9228 290.602C26.8574 290.459 26.7954 290.313 26.7367 290.166C26.678 290.019 26.6227 289.87 26.5709 289.72C26.519 289.57 26.4706 289.418 26.4258 289.265C26.3809 289.112 26.3396 288.958 26.3018 288.802C26.264 288.647 26.2298 288.491 26.1992 288.333C26.1686 288.176 26.1416 288.018 26.1182 287.859C26.0948 287.7 26.0751 287.54 26.0591 287.38C26.043 287.219 26.0306 287.059 26.0219 286.898C26.0131 286.737 26.0081 286.575 26.0067 286.414C26.0054 286.252 26.0077 286.09 26.0137 285.929C26.0197 285.767 26.0294 285.605 26.0427 285.444C26.0561 285.283 26.0731 285.122 26.0938 284.961C26.1145 284.8 26.1388 284.64 26.1667 284.48L65.7578 59.948Z"   fill="#263238" >
</path>
<path d="M40.5389 303.839L35.7687 302.998L36.6777 297.843C36.6851 297.801 36.6907 297.758 36.6943 297.716C36.6977 297.673 36.6993 297.63 36.699 297.588C36.6988 297.545 36.6966 297.502 36.6923 297.46C36.6881 297.418 36.682 297.376 36.674 297.334C36.6658 297.292 36.6558 297.251 36.6441 297.211C36.6322 297.17 36.6185 297.131 36.603 297.092C36.5875 297.053 36.5702 297.015 36.5511 296.978C36.5321 296.941 36.5114 296.905 36.489 296.87C36.4667 296.836 36.4428 296.802 36.4173 296.77C36.3919 296.738 36.365 296.707 36.3366 296.678C36.3083 296.649 36.2786 296.621 36.2477 296.595C36.2168 296.57 36.1847 296.545 36.1515 296.523C36.1182 296.5 36.084 296.479 36.0488 296.461C36.0136 296.442 35.9775 296.425 35.9406 296.41C35.9038 296.395 35.8663 296.382 35.8282 296.371C35.79 296.36 35.7514 296.351 35.7124 296.344C35.6733 296.337 35.634 296.332 35.5944 296.33C35.5548 296.327 35.5151 296.327 35.4753 296.328C35.4356 296.329 35.396 296.333 35.3564 296.339C35.3169 296.344 35.2777 296.352 35.2387 296.362C35.1998 296.372 35.1613 296.383 35.1234 296.397C35.0854 296.411 35.0481 296.427 35.0115 296.445C34.9749 296.462 34.9392 296.482 34.9042 296.503C34.8693 296.525 34.8354 296.548 34.8025 296.573C34.7697 296.598 34.738 296.624 34.7075 296.653C34.6769 296.681 34.6477 296.711 34.6198 296.742C34.5919 296.773 34.5655 296.806 34.5405 296.84C34.5156 296.874 34.4921 296.909 34.4703 296.945C34.4485 296.982 34.4284 297.019 34.4099 297.058C34.3914 297.096 34.3747 297.135 34.3598 297.175C34.3449 297.215 34.3319 297.256 34.3206 297.297C34.3094 297.339 34.3001 297.38 34.2926 297.423L33.3837 302.577L28.6135 301.736C28.5744 301.729 28.5351 301.725 28.4955 301.722C28.4559 301.719 28.4162 301.719 28.3765 301.72C28.3367 301.722 28.2971 301.725 28.2576 301.731C28.218 301.736 28.1788 301.744 28.1399 301.754C28.1009 301.764 28.0624 301.776 28.0245 301.789C27.9866 301.803 27.9493 301.819 27.9127 301.837C27.8761 301.854 27.8403 301.874 27.8054 301.896C27.7704 301.917 27.7365 301.94 27.7037 301.965C27.6708 301.99 27.6391 302.017 27.6086 302.045C27.5781 302.073 27.5488 302.103 27.5209 302.134C27.493 302.166 27.4666 302.198 27.4417 302.232C27.4167 302.266 27.3933 302.301 27.3715 302.338C27.3496 302.374 27.3295 302.411 27.311 302.45C27.2926 302.488 27.2759 302.527 27.2609 302.568C27.246 302.607 27.233 302.648 27.2217 302.69C27.2105 302.731 27.2011 302.773 27.1937 302.815C27.1863 302.857 27.1808 302.9 27.1772 302.942C27.1736 302.985 27.172 303.028 27.1723 303.07C27.1726 303.113 27.1749 303.156 27.1791 303.198C27.1833 303.24 27.1895 303.282 27.1975 303.324C27.2056 303.366 27.2156 303.407 27.2274 303.447C27.2392 303.488 27.2529 303.527 27.2685 303.566C27.284 303.605 27.3012 303.643 27.3202 303.68C27.3393 303.717 27.36 303.753 27.3824 303.788C27.4047 303.822 27.4286 303.856 27.4541 303.888C27.4795 303.92 27.5064 303.951 27.5348 303.98C27.5631 304.009 27.5928 304.037 27.6237 304.063C27.6546 304.088 27.6867 304.113 27.72 304.135C27.7532 304.158 27.7874 304.178 27.8226 304.197C27.8578 304.216 27.8939 304.233 27.9307 304.248C27.9676 304.263 28.0051 304.276 28.0432 304.287C28.0814 304.298 28.12 304.307 28.159 304.314L32.9292 305.155L32.0202 310.31C32.0128 310.352 32.0073 310.395 32.0037 310.437C32.0001 310.48 31.9985 310.523 31.9988 310.565C31.9991 310.608 32.0014 310.65 32.0056 310.693C32.0099 310.735 32.016 310.777 32.0241 310.819C32.0321 310.861 32.0421 310.902 32.0539 310.942C32.0658 310.983 32.0795 311.022 32.095 311.061C32.1105 311.1 32.1277 311.138 32.1467 311.175C32.1658 311.212 32.1865 311.248 32.2089 311.282C32.2312 311.317 32.2551 311.351 32.2806 311.383C32.306 311.415 32.333 311.446 32.3613 311.475C32.3896 311.504 32.4193 311.531 32.4502 311.558C32.4811 311.583 32.5133 311.608 32.5465 311.63C32.5797 311.653 32.6139 311.673 32.6492 311.692C32.6844 311.711 32.7204 311.728 32.7573 311.743C32.7941 311.758 32.8316 311.771 32.8697 311.782C32.9079 311.793 32.9465 311.802 32.9855 311.809C33.0246 311.816 33.0639 311.82 33.1035 311.823C33.1431 311.826 33.1828 311.826 33.2226 311.825C33.2623 311.824 33.302 311.82 33.3415 311.814C33.381 311.809 33.4203 311.801 33.4592 311.791C33.4982 311.781 33.5366 311.77 33.5745 311.756C33.6125 311.742 33.6498 311.726 33.6864 311.708C33.723 311.691 33.7587 311.671 33.7937 311.65C33.8286 311.628 33.8625 311.605 33.8954 311.58C33.9283 311.555 33.9599 311.528 33.9904 311.5C34.021 311.472 34.0503 311.442 34.0781 311.411C34.106 311.38 34.1324 311.347 34.1575 311.313C34.1823 311.279 34.2057 311.244 34.2277 311.208C34.2495 311.171 34.2696 311.134 34.2881 311.095C34.3065 311.057 34.3232 311.018 34.3381 310.978C34.3529 310.938 34.366 310.897 34.3774 310.856C34.3886 310.814 34.3979 310.773 34.4053 310.73L35.3143 305.575L40.0844 306.417C40.1236 306.423 40.1629 306.428 40.2024 306.431C40.2421 306.434 40.2817 306.434 40.3213 306.433C40.3612 306.431 40.4008 306.428 40.4403 306.422C40.4798 306.417 40.5191 306.409 40.5582 306.399C40.597 306.389 40.6354 306.377 40.6735 306.364C40.7114 306.35 40.7486 306.334 40.7852 306.316C40.8219 306.299 40.8577 306.279 40.8927 306.257C40.9274 306.236 40.9612 306.213 40.9941 306.188C41.027 306.163 41.0588 306.136 41.0893 306.108C41.1199 306.08 41.1491 306.05 41.177 306.019C41.2049 305.987 41.2313 305.955 41.2563 305.921C41.2812 305.887 41.3046 305.852 41.3266 305.815C41.3484 305.779 41.3685 305.742 41.387 305.703C41.4054 305.665 41.4221 305.626 41.4369 305.585C41.4517 305.545 41.4649 305.505 41.4763 305.463C41.4874 305.422 41.4967 305.38 41.5042 305.338C41.5116 305.296 41.5172 305.254 41.5208 305.211C41.5243 305.168 41.5258 305.125 41.5256 305.083C41.5253 305.04 41.5231 304.997 41.5189 304.955C41.5147 304.913 41.5086 304.871 41.5005 304.829C41.4923 304.787 41.4823 304.746 41.4706 304.706C41.4587 304.665 41.445 304.626 41.4295 304.587C41.414 304.548 41.3967 304.51 41.3777 304.473C41.3586 304.436 41.3378 304.4 41.3154 304.365C41.2931 304.331 41.2693 304.297 41.244 304.265C41.2185 304.233 41.1915 304.202 41.1631 304.173C41.1348 304.144 41.1052 304.116 41.0744 304.09C41.0433 304.064 41.0112 304.04 40.9781 304.018C40.9447 303.995 40.9105 303.974 40.8753 303.956C40.8401 303.937 40.804 303.92 40.7671 303.905C40.7303 303.89 40.6929 303.877 40.6547 303.866C40.6166 303.855 40.578 303.846 40.5389 303.839Z"   fill="#FFDD00" >
</path>
<path d="M322.549 181.262L317.779 180.421L318.688 175.266C318.695 175.224 318.701 175.181 318.704 175.139C318.708 175.096 318.709 175.053 318.709 175.011C318.709 174.968 318.706 174.925 318.702 174.883C318.698 174.841 318.692 174.798 318.684 174.757C318.676 174.715 318.666 174.674 318.654 174.634C318.642 174.593 318.628 174.554 318.613 174.515C318.597 174.476 318.58 174.438 318.561 174.401C318.542 174.364 318.521 174.328 318.499 174.293C318.476 174.259 318.453 174.225 318.427 174.193C318.402 174.161 318.375 174.13 318.346 174.101C318.318 174.072 318.289 174.044 318.258 174.018C318.227 173.992 318.195 173.968 318.161 173.945C318.128 173.923 318.094 173.902 318.059 173.883C318.023 173.865 317.987 173.848 317.95 173.833C317.914 173.818 317.876 173.805 317.838 173.794C317.8 173.783 317.761 173.774 317.722 173.767C317.683 173.76 317.644 173.755 317.604 173.753C317.565 173.75 317.525 173.749 317.485 173.751C317.446 173.752 317.406 173.756 317.366 173.761C317.327 173.767 317.288 173.775 317.249 173.784C317.21 173.794 317.171 173.806 317.133 173.82C317.095 173.834 317.058 173.85 317.022 173.867C316.985 173.885 316.949 173.905 316.914 173.926C316.879 173.948 316.845 173.971 316.813 173.996C316.78 174.021 316.748 174.047 316.717 174.076C316.687 174.104 316.658 174.134 316.63 174.165C316.602 174.196 316.575 174.229 316.55 174.263C316.525 174.297 316.502 174.332 316.48 174.368C316.458 174.405 316.438 174.442 316.42 174.48C316.401 174.519 316.385 174.558 316.37 174.598C316.355 174.638 316.342 174.679 316.33 174.72C316.319 174.762 316.31 174.803 316.302 174.845L315.394 180L310.623 179.159C310.584 179.152 310.545 179.148 310.505 179.145C310.466 179.142 310.426 179.142 310.386 179.143C310.347 179.144 310.307 179.148 310.267 179.154C310.228 179.159 310.189 179.167 310.15 179.177C310.111 179.187 310.072 179.198 310.034 179.212C309.996 179.226 309.959 179.242 309.923 179.26C309.886 179.277 309.85 179.297 309.815 179.318C309.78 179.34 309.747 179.363 309.714 179.388C309.681 179.413 309.649 179.44 309.618 179.468C309.588 179.496 309.559 179.526 309.531 179.557C309.503 179.588 309.477 179.621 309.451 179.655C309.427 179.689 309.403 179.724 309.381 179.76C309.359 179.797 309.339 179.834 309.321 179.873C309.302 179.911 309.286 179.95 309.271 179.99C309.256 180.03 309.243 180.071 309.232 180.112C309.22 180.154 309.211 180.196 309.204 180.238C309.196 180.28 309.191 180.322 309.187 180.365C309.183 180.408 309.182 180.45 309.182 180.493C309.182 180.536 309.185 180.578 309.189 180.621C309.193 180.663 309.199 180.705 309.207 180.747C309.216 180.788 309.225 180.829 309.237 180.87C309.249 180.91 309.263 180.95 309.278 180.989C309.294 181.028 309.311 181.066 309.33 181.103C309.349 181.14 309.37 181.176 309.392 181.21C309.415 181.245 309.439 181.279 309.464 181.311C309.489 181.343 309.516 181.374 309.545 181.403C309.573 181.432 309.603 181.459 309.633 181.485C309.665 181.511 309.697 181.535 309.73 181.558C309.763 181.581 309.797 181.601 309.833 181.62C309.868 181.639 309.904 181.656 309.941 181.671C309.977 181.686 310.015 181.699 310.053 181.71C310.091 181.721 310.13 181.73 310.169 181.737L314.939 182.578L314.03 187.733C314.023 187.775 314.017 187.817 314.014 187.86C314.01 187.903 314.008 187.945 314.009 187.988C314.009 188.031 314.011 188.073 314.015 188.116C314.02 188.158 314.026 188.2 314.034 188.242C314.042 188.283 314.052 188.324 314.064 188.365C314.076 188.405 314.089 188.445 314.105 188.484C314.12 188.523 314.138 188.561 314.157 188.598C314.176 188.635 314.197 188.671 314.219 188.705C314.241 188.74 314.265 188.773 314.29 188.806C314.316 188.838 314.343 188.868 314.371 188.898C314.4 188.927 314.429 188.954 314.46 188.98C314.491 189.006 314.523 189.03 314.556 189.053C314.59 189.076 314.624 189.096 314.659 189.115C314.694 189.134 314.73 189.151 314.767 189.166C314.804 189.181 314.841 189.194 314.88 189.205C314.918 189.216 314.956 189.225 314.995 189.232C315.035 189.238 315.074 189.243 315.113 189.246C315.153 189.249 315.193 189.249 315.232 189.248C315.272 189.246 315.312 189.243 315.351 189.237C315.391 189.232 315.43 189.224 315.469 189.214C315.508 189.204 315.546 189.192 315.585 189.179C315.622 189.165 315.66 189.149 315.696 189.131C315.733 189.114 315.769 189.094 315.804 189.072C315.838 189.051 315.872 189.028 315.905 189.003C315.938 188.978 315.97 188.951 316 188.923C316.031 188.895 316.06 188.865 316.088 188.834C316.116 188.802 316.142 188.77 316.167 188.736C316.192 188.702 316.216 188.667 316.237 188.63C316.259 188.594 316.28 188.557 316.298 188.518C316.316 188.48 316.333 188.441 316.348 188.4C316.363 188.36 316.376 188.32 316.387 188.278C316.398 188.237 316.408 188.195 316.415 188.153L317.324 182.998L322.094 183.839C322.133 183.846 322.173 183.851 322.212 183.854C322.252 183.856 322.292 183.857 322.331 183.856C322.371 183.854 322.411 183.851 322.45 183.845C322.49 183.839 322.529 183.832 322.568 183.822C322.607 183.812 322.645 183.8 322.683 183.786C322.721 183.773 322.759 183.757 322.795 183.739C322.832 183.721 322.868 183.702 322.903 183.68C322.937 183.659 322.971 183.635 323.004 183.61C323.037 183.585 323.069 183.559 323.099 183.531C323.13 183.503 323.159 183.473 323.187 183.441C323.215 183.41 323.241 183.378 323.266 183.344C323.291 183.31 323.314 183.274 323.336 183.238C323.358 183.202 323.378 183.164 323.397 183.126C323.415 183.088 323.432 183.048 323.447 183.008C323.462 182.968 323.475 182.928 323.486 182.886C323.497 182.845 323.507 182.803 323.514 182.761C323.522 182.719 323.527 182.676 323.531 182.634C323.534 182.591 323.536 182.548 323.535 182.506C323.535 182.463 323.533 182.42 323.529 182.378C323.525 182.336 323.518 182.293 323.51 182.252C323.502 182.21 323.492 182.169 323.48 182.129C323.469 182.088 323.455 182.049 323.439 182.01C323.424 181.971 323.407 181.933 323.388 181.896C323.368 181.859 323.348 181.823 323.325 181.788C323.303 181.754 323.279 181.72 323.254 181.688C323.228 181.656 323.201 181.625 323.173 181.596C323.145 181.567 323.115 181.539 323.084 181.513C323.053 181.487 323.021 181.463 322.988 181.44C322.955 181.418 322.92 181.397 322.885 181.378C322.85 181.36 322.814 181.343 322.777 181.328C322.74 181.313 322.703 181.3 322.665 181.289C322.627 181.278 322.588 181.269 322.549 181.262Z"   fill="#40BDFF" >
</path>
<path d="M281.036 358.324C280.919 358.303 280.802 358.279 280.686 358.252C280.571 358.226 280.456 358.196 280.341 358.163C280.227 358.13 280.113 358.094 280.001 358.055C279.888 358.016 279.777 357.974 279.666 357.929C279.556 357.884 279.446 357.836 279.338 357.785C279.23 357.735 279.123 357.681 279.018 357.624C278.912 357.568 278.808 357.509 278.705 357.447C278.603 357.384 278.501 357.32 278.402 357.252C278.302 357.185 278.204 357.114 278.108 357.042C278.011 356.969 277.917 356.894 277.824 356.816C277.731 356.738 277.641 356.658 277.552 356.575C277.463 356.492 277.376 356.407 277.291 356.32C277.206 356.232 277.123 356.142 277.042 356.05C276.961 355.958 276.883 355.864 276.806 355.768C276.73 355.672 276.656 355.573 276.584 355.473C276.512 355.373 276.443 355.271 276.376 355.167C276.309 355.063 276.244 354.957 276.182 354.849C276.12 354.741 276.06 354.632 276.004 354.521C275.946 354.411 275.892 354.298 275.84 354.184C275.788 354.07 275.739 353.955 275.693 353.838C275.646 353.721 275.602 353.603 275.561 353.484C275.52 353.365 275.482 353.245 275.446 353.124C275.411 353.002 275.378 352.88 275.348 352.757C275.318 352.634 275.291 352.51 275.267 352.385C275.243 352.26 275.222 352.134 275.203 352.008C275.185 351.882 275.169 351.756 275.156 351.629C275.144 351.502 275.134 351.374 275.127 351.246C275.121 351.118 275.117 350.991 275.116 350.862C275.115 350.734 275.117 350.606 275.122 350.478C275.126 350.35 275.134 350.222 275.145 350.094C275.156 349.966 275.169 349.838 275.186 349.711C275.203 349.583 275.222 349.456 275.244 349.33C275.267 349.203 275.292 349.077 275.32 348.952C275.348 348.826 275.379 348.702 275.412 348.578C275.446 348.454 275.482 348.331 275.522 348.209C275.561 348.087 275.603 347.966 275.648 347.846C275.692 347.726 275.74 347.606 275.79 347.489C275.84 347.371 275.893 347.255 275.948 347.139C276.003 347.024 276.061 346.911 276.122 346.799C276.182 346.686 276.245 346.576 276.311 346.467C276.376 346.358 276.444 346.251 276.514 346.145C276.584 346.039 276.657 345.936 276.732 345.834C276.807 345.732 276.884 345.632 276.963 345.534C277.042 345.436 277.124 345.34 277.208 345.246C277.291 345.153 277.377 345.061 277.464 344.972C277.552 344.883 277.642 344.796 277.733 344.711C277.825 344.626 277.918 344.544 278.013 344.464C278.109 344.384 278.205 344.307 278.304 344.232C278.403 344.157 278.503 344.085 278.605 344.015C278.706 343.945 278.81 343.878 278.914 343.814C279.019 343.75 279.125 343.688 279.232 343.629C279.339 343.57 279.448 343.514 279.558 343.461C279.668 343.408 279.778 343.358 279.891 343.31C280.002 343.263 280.115 343.219 280.229 343.177C280.343 343.136 280.457 343.097 280.573 343.062C280.688 343.027 280.804 342.994 280.921 342.965C281.038 342.935 281.155 342.909 281.273 342.886C281.39 342.863 281.509 342.843 281.627 342.826C281.746 342.809 281.864 342.795 281.983 342.784C282.102 342.774 282.222 342.766 282.341 342.762C282.46 342.757 282.579 342.756 282.698 342.758C282.817 342.76 282.936 342.765 283.055 342.773C283.174 342.781 283.292 342.792 283.41 342.807C283.528 342.821 283.646 342.839 283.763 342.859C283.88 342.88 283.996 342.904 284.112 342.93C284.228 342.957 284.343 342.987 284.457 343.02C284.572 343.053 284.686 343.089 284.798 343.128C284.911 343.167 285.022 343.209 285.133 343.254C285.243 343.299 285.352 343.347 285.461 343.397C285.569 343.448 285.676 343.502 285.781 343.558C285.887 343.615 285.991 343.674 286.094 343.736C286.196 343.798 286.298 343.863 286.397 343.931C286.497 343.998 286.595 344.068 286.691 344.141C286.788 344.214 286.882 344.289 286.975 344.367C287.068 344.445 287.158 344.525 287.247 344.608C287.336 344.69 287.423 344.776 287.508 344.863C287.593 344.951 287.676 345.04 287.757 345.132C287.838 345.224 287.916 345.319 287.992 345.415C288.069 345.511 288.143 345.609 288.215 345.709C288.287 345.81 288.356 345.912 288.423 346.016C288.49 346.12 288.555 346.226 288.617 346.333C288.679 346.441 288.738 346.551 288.795 346.661C288.852 346.772 288.907 346.885 288.959 346.999C289.011 347.112 289.06 347.228 289.106 347.345C289.153 347.461 289.196 347.579 289.238 347.698C289.279 347.817 289.317 347.938 289.353 348.059C289.388 348.181 289.421 348.303 289.451 348.426C289.481 348.549 289.508 348.673 289.532 348.798C289.556 348.923 289.577 349.048 289.596 349.174C289.614 349.3 289.63 349.427 289.643 349.554C289.655 349.681 289.665 349.809 289.672 349.936C289.678 350.064 289.682 350.192 289.683 350.32C289.684 350.448 289.682 350.577 289.677 350.705C289.672 350.833 289.665 350.961 289.654 351.089C289.643 351.217 289.629 351.345 289.613 351.472C289.596 351.6 289.577 351.726 289.555 351.853C289.532 351.98 289.507 352.105 289.479 352.231C289.451 352.356 289.42 352.481 289.387 352.605C289.353 352.729 289.316 352.852 289.277 352.974C289.238 353.096 289.196 353.217 289.151 353.337C289.107 353.457 289.059 353.576 289.009 353.694C288.959 353.812 288.906 353.928 288.851 354.043C288.796 354.159 288.738 354.272 288.677 354.384C288.617 354.496 288.554 354.607 288.488 354.716C288.423 354.825 288.355 354.932 288.285 355.038C288.215 355.143 288.142 355.247 288.067 355.349C287.992 355.451 287.915 355.551 287.836 355.649C287.756 355.747 287.675 355.842 287.591 355.936C287.508 356.03 287.422 356.121 287.334 356.211C287.247 356.3 287.157 356.387 287.066 356.472C286.974 356.557 286.881 356.639 286.786 356.719C286.69 356.799 286.593 356.876 286.495 356.951C286.396 357.026 286.296 357.098 286.194 357.168C286.093 357.237 285.989 357.305 285.885 357.369C285.78 357.433 285.674 357.495 285.567 357.554C285.459 357.612 285.351 357.668 285.241 357.721C285.131 357.775 285.02 357.825 284.908 357.872C284.797 357.919 284.684 357.964 284.57 358.005C284.456 358.047 284.342 358.085 284.226 358.121C284.111 358.156 283.995 358.189 283.878 358.218C283.761 358.247 283.644 358.273 283.526 358.297C283.409 358.32 283.29 358.34 283.172 358.357C283.053 358.374 282.934 358.388 282.815 358.399C282.696 358.409 282.577 358.417 282.458 358.421C282.339 358.426 282.22 358.427 282.101 358.425C281.982 358.423 281.863 358.418 281.744 358.41C281.625 358.402 281.507 358.391 281.389 358.376C281.271 358.362 281.153 358.344 281.036 358.324ZM283.308 345.437C283.23 345.423 283.152 345.411 283.073 345.401C282.995 345.392 282.916 345.385 282.837 345.379C282.757 345.374 282.678 345.37 282.599 345.369C282.519 345.368 282.44 345.368 282.36 345.371C282.281 345.374 282.201 345.38 282.122 345.386C282.043 345.394 281.963 345.403 281.884 345.414C281.806 345.426 281.727 345.439 281.648 345.454C281.57 345.47 281.492 345.488 281.414 345.507C281.336 345.527 281.258 345.548 281.182 345.572C281.105 345.595 281.028 345.621 280.953 345.649C280.877 345.676 280.801 345.706 280.727 345.737C280.652 345.769 280.578 345.803 280.505 345.838C280.432 345.873 280.359 345.911 280.288 345.95C280.216 345.989 280.146 346.03 280.076 346.073C280.006 346.116 279.937 346.161 279.869 346.207C279.802 346.253 279.735 346.302 279.669 346.352C279.604 346.401 279.539 346.453 279.475 346.506C279.412 346.56 279.35 346.614 279.289 346.671C279.228 346.728 279.168 346.785 279.11 346.845C279.051 346.905 278.994 346.966 278.938 347.028C278.882 347.09 278.828 347.154 278.775 347.22C278.722 347.285 278.671 347.352 278.621 347.42C278.571 347.488 278.523 347.557 278.476 347.627C278.429 347.698 278.384 347.769 278.34 347.842C278.297 347.914 278.255 347.988 278.214 348.063C278.174 348.138 278.135 348.213 278.099 348.29C278.062 348.367 278.027 348.444 277.993 348.523C277.96 348.601 277.928 348.681 277.898 348.761C277.868 348.841 277.841 348.922 277.814 349.003C277.788 349.084 277.764 349.166 277.741 349.249C277.719 349.332 277.698 349.415 277.68 349.498C277.661 349.582 277.644 349.666 277.629 349.75C277.614 349.835 277.601 349.919 277.59 350.004C277.579 350.089 277.57 350.174 277.563 350.26C277.556 350.345 277.551 350.43 277.547 350.516C277.544 350.601 277.543 350.686 277.544 350.772C277.544 350.857 277.547 350.943 277.551 351.028C277.556 351.113 277.562 351.198 277.571 351.283C277.579 351.368 277.59 351.452 277.602 351.536C277.614 351.62 277.629 351.704 277.645 351.787C277.661 351.87 277.679 351.953 277.699 352.035C277.719 352.117 277.74 352.199 277.764 352.279C277.788 352.36 277.813 352.441 277.841 352.52C277.868 352.599 277.897 352.678 277.928 352.756C277.959 352.834 277.992 352.911 278.027 352.987C278.061 353.063 278.098 353.138 278.136 353.211C278.173 353.285 278.213 353.358 278.255 353.43C278.296 353.502 278.339 353.572 278.384 353.642C278.428 353.711 278.475 353.779 278.523 353.846C278.57 353.913 278.62 353.978 278.671 354.043C278.722 354.107 278.774 354.169 278.828 354.231C278.882 354.292 278.937 354.352 278.994 354.41C279.05 354.469 279.108 354.525 279.167 354.581C279.227 354.636 279.287 354.689 279.349 354.741C279.411 354.793 279.474 354.843 279.538 354.892C279.602 354.94 279.668 354.987 279.734 355.032C279.801 355.077 279.868 355.12 279.937 355.162C280.005 355.203 280.075 355.242 280.145 355.28C280.215 355.318 280.286 355.354 280.359 355.387C280.431 355.421 280.504 355.453 280.578 355.483C280.651 355.513 280.725 355.541 280.8 355.567C280.875 355.593 280.951 355.617 281.027 355.639C281.104 355.661 281.18 355.681 281.258 355.699C281.335 355.717 281.412 355.732 281.491 355.746C281.569 355.76 281.647 355.772 281.726 355.781C281.804 355.791 281.883 355.798 281.962 355.804C282.042 355.809 282.121 355.813 282.2 355.814C282.28 355.815 282.359 355.814 282.439 355.811C282.518 355.808 282.598 355.803 282.677 355.796C282.756 355.789 282.835 355.78 282.914 355.768C282.993 355.757 283.072 355.744 283.151 355.728C283.229 355.713 283.307 355.695 283.385 355.676C283.463 355.656 283.54 355.635 283.617 355.611C283.694 355.587 283.771 355.562 283.846 355.534C283.922 355.507 283.998 355.477 284.072 355.445C284.147 355.414 284.221 355.38 284.294 355.345C284.367 355.309 284.439 355.272 284.511 355.233C284.583 355.194 284.653 355.153 284.723 355.11C284.793 355.067 284.862 355.022 284.929 354.976C284.997 354.929 285.064 354.881 285.13 354.831C285.195 354.781 285.26 354.73 285.323 354.676C285.387 354.623 285.449 354.568 285.51 354.512C285.571 354.455 285.631 354.397 285.689 354.338C285.748 354.278 285.805 354.217 285.861 354.155C285.917 354.092 285.971 354.028 286.024 353.963C286.077 353.898 286.128 353.831 286.178 353.763C286.228 353.695 286.276 353.626 286.323 353.556C286.37 353.485 286.415 353.414 286.459 353.341C286.502 353.268 286.544 353.195 286.585 353.12C286.625 353.045 286.663 352.969 286.7 352.893C286.737 352.816 286.772 352.738 286.806 352.66C286.839 352.581 286.871 352.502 286.901 352.422C286.931 352.342 286.958 352.261 286.985 352.18C287.011 352.098 287.035 352.016 287.058 351.934C287.08 351.851 287.101 351.768 287.119 351.684C287.138 351.601 287.155 351.517 287.17 351.433C287.185 351.348 287.198 351.263 287.209 351.179C287.219 351.094 287.228 351.009 287.236 350.923C287.243 350.838 287.248 350.752 287.251 350.667C287.255 350.581 287.256 350.496 287.255 350.411C287.255 350.325 287.252 350.24 287.247 350.155C287.243 350.069 287.236 349.985 287.228 349.9C287.22 349.815 287.209 349.731 287.197 349.647C287.185 349.563 287.17 349.479 287.154 349.396C287.138 349.313 287.12 349.23 287.1 349.148C287.08 349.065 287.059 348.984 287.035 348.903C287.011 348.822 286.986 348.742 286.958 348.663C286.931 348.583 286.902 348.505 286.871 348.427C286.84 348.349 286.807 348.272 286.772 348.196C286.738 348.12 286.701 348.045 286.663 347.971C286.625 347.897 286.586 347.825 286.544 347.753C286.503 347.681 286.46 347.61 286.415 347.541C286.371 347.472 286.324 347.403 286.276 347.337C286.229 347.27 286.179 347.204 286.128 347.14C286.077 347.076 286.025 347.013 285.971 346.952C285.917 346.891 285.862 346.831 285.805 346.772C285.749 346.714 285.691 346.658 285.631 346.602C285.572 346.547 285.512 346.493 285.45 346.442C285.388 346.39 285.325 346.34 285.261 346.291C285.196 346.243 285.131 346.196 285.065 346.151C284.998 346.106 284.931 346.062 284.862 346.021C284.794 345.98 284.724 345.94 284.654 345.903C284.584 345.865 284.512 345.829 284.44 345.795C284.368 345.762 284.295 345.729 284.221 345.7C284.148 345.67 284.073 345.642 283.999 345.616C283.923 345.59 283.848 345.566 283.771 345.544C283.695 345.522 283.619 345.502 283.541 345.484C283.464 345.466 283.387 345.45 283.308 345.437ZM326.842 91.569C326.725 91.5483 326.609 91.5246 326.493 91.4977C326.377 91.4709 326.262 91.441 326.148 91.408C326.033 91.3752 325.92 91.3392 325.807 91.3001C325.695 91.2612 325.583 91.2193 325.473 91.1743C325.362 91.1294 325.253 91.0815 325.145 91.0308C325.037 90.98 324.93 90.9264 324.824 90.8699C324.718 90.8134 324.614 90.7541 324.512 90.6919C324.409 90.63 324.308 90.5652 324.208 90.4976C324.108 90.4301 324.01 90.36 323.914 90.2873C323.818 90.2145 323.723 90.1391 323.63 90.0612C323.538 89.9833 323.447 89.9029 323.358 89.8201C323.269 89.7375 323.182 89.6525 323.097 89.5648C323.012 89.4774 322.929 89.3877 322.848 89.2958C322.768 89.2038 322.689 89.1097 322.613 89.0134C322.536 88.9171 322.462 88.8189 322.391 88.7188C322.319 88.6184 322.249 88.5162 322.182 88.4122C322.115 88.3081 322.051 88.2021 321.989 88.0944C321.926 87.9869 321.867 87.8776 321.81 87.7666C321.753 87.6558 321.698 87.5434 321.647 87.4295C321.595 87.3156 321.546 87.2003 321.499 87.0836C321.452 86.9669 321.409 86.8488 321.368 86.7296C321.327 86.6105 321.288 86.4904 321.253 86.3692C321.217 86.2477 321.185 86.1253 321.155 86.002C321.125 85.8789 321.098 85.7549 321.074 85.63C321.049 85.5052 321.028 85.3798 321.01 85.2536C320.991 85.1277 320.975 85.0011 320.963 84.874C320.95 84.7468 320.94 84.6195 320.934 84.4918C320.927 84.3639 320.923 84.2359 320.922 84.1077C320.921 83.9796 320.923 83.8514 320.928 83.7234C320.933 83.5951 320.941 83.467 320.952 83.3389C320.962 83.211 320.976 83.0834 320.992 82.9561C321.009 82.8286 321.028 82.7016 321.051 82.5751C321.073 82.4485 321.098 82.3225 321.126 82.197C321.154 82.0718 321.185 81.9472 321.219 81.8234C321.252 81.6993 321.289 81.5762 321.328 81.454C321.367 81.332 321.409 81.211 321.454 81.0908C321.499 80.9707 321.546 80.8517 321.596 80.7339C321.646 80.6163 321.699 80.4999 321.754 80.3847C321.81 80.2696 321.868 80.156 321.928 80.044C321.989 79.9317 322.052 79.8211 322.117 79.7121C322.182 79.6031 322.25 79.4958 322.32 79.3902C322.391 79.2846 322.463 79.1809 322.538 79.0791C322.613 78.9772 322.69 78.8773 322.77 78.7794C322.849 78.6814 322.93 78.5856 323.014 78.4919C323.098 78.3981 323.183 78.3066 323.271 78.2172C323.359 78.1279 323.448 78.0409 323.54 77.9562C323.631 77.8714 323.725 77.7891 323.82 77.7092C323.915 77.6293 324.012 77.5519 324.11 77.477C324.209 77.4021 324.309 77.3299 324.411 77.2602C324.513 77.1905 324.616 77.1235 324.721 77.0592C324.825 76.9949 324.931 76.9333 325.039 76.8745C325.146 76.8157 325.254 76.7597 325.364 76.7066C325.474 76.6535 325.585 76.6032 325.697 76.5559C325.809 76.5086 325.922 76.4641 326.035 76.4227C326.149 76.3813 326.264 76.3428 326.379 76.3074C326.495 76.2719 326.611 76.2395 326.727 76.2102C326.844 76.1809 326.961 76.1546 327.079 76.1314C327.197 76.1082 327.315 76.0881 327.434 76.0711C327.552 76.0542 327.671 76.0403 327.79 76.0296C327.909 76.0189 328.028 76.0113 328.147 76.0069C328.266 76.0024 328.386 76.0011 328.505 76.003C328.624 76.0048 328.743 76.0099 328.862 76.018C328.98 76.0262 329.098 76.0374 329.216 76.0518C329.335 76.0663 329.452 76.0838 329.569 76.1044C329.686 76.1251 329.803 76.1488 329.919 76.1757C330.035 76.2025 330.15 76.2324 330.264 76.2654C330.379 76.2983 330.492 76.3343 330.605 76.3733C330.717 76.4122 330.828 76.4542 330.939 76.4991C331.049 76.5441 331.159 76.5919 331.267 76.6427C331.375 76.6935 331.482 76.7471 331.588 76.8036C331.693 76.8601 331.797 76.9194 331.9 76.9814C332.003 77.0435 332.104 77.1083 332.204 77.1758C332.303 77.2433 332.401 77.3135 332.498 77.3862C332.594 77.459 332.689 77.5344 332.781 77.6122C332.874 77.6901 332.965 77.7704 333.054 77.8531C333.143 77.9359 333.23 78.021 333.315 78.1085C333.4 78.196 333.483 78.2857 333.563 78.3777C333.644 78.4696 333.723 78.5637 333.799 78.6599C333.875 78.7562 333.949 78.8545 334.021 78.9547C334.093 79.055 334.163 79.1572 334.23 79.2613C334.297 79.3654 334.361 79.4712 334.423 79.5789C334.485 79.6865 334.545 79.7957 334.602 79.9067C334.659 80.0176 334.713 80.13 334.765 80.244C334.817 80.3579 334.866 80.4732 334.913 80.5899C334.959 80.7066 335.003 80.8245 335.044 80.9437C335.085 81.0628 335.123 81.1831 335.159 81.3044C335.194 81.4258 335.227 81.548 335.257 81.6713C335.287 81.7945 335.314 81.9185 335.338 82.0433C335.363 82.1682 335.384 82.2937 335.402 82.4198C335.421 82.5458 335.436 82.6723 335.449 82.7995C335.462 82.9266 335.471 83.054 335.478 83.1816C335.485 83.3095 335.489 83.4375 335.49 83.5657C335.491 83.6939 335.489 83.822 335.484 83.95C335.479 84.0783 335.471 84.2064 335.46 84.3345C335.45 84.4624 335.436 84.59 335.419 84.7173C335.403 84.8449 335.383 84.9719 335.361 85.0984C335.339 85.2249 335.314 85.3509 335.286 85.4764C335.258 85.6017 335.227 85.7262 335.193 85.85C335.159 85.9741 335.123 86.0972 335.084 86.2194C335.044 86.3414 335.002 86.4625 334.958 86.5826C334.913 86.7027 334.866 86.8216 334.816 86.9392C334.765 87.057 334.713 87.1735 334.657 87.2887C334.602 87.4038 334.544 87.5174 334.484 87.6294C334.423 87.7417 334.36 87.8523 334.295 87.9612C334.229 88.0704 334.162 88.1777 334.091 88.2831C334.021 88.3888 333.948 88.4926 333.873 88.5945C333.799 88.6963 333.721 88.796 333.642 88.8939C333.563 88.992 333.481 89.0879 333.398 89.1817C333.314 89.2755 333.229 89.367 333.141 89.4563C333.053 89.5455 332.964 89.6325 332.872 89.7171C332.78 89.802 332.687 89.8843 332.592 89.9641C332.497 90.0441 332.4 90.1216 332.301 90.1965C332.203 90.2713 332.103 90.3435 332.001 90.4133C331.899 90.4828 331.796 90.5498 331.691 90.6141C331.586 90.6785 331.481 90.7401 331.373 90.7989C331.266 90.8577 331.157 90.9137 331.048 90.9667C330.938 91.02 330.827 91.0702 330.715 91.1173C330.603 91.1647 330.49 91.2092 330.376 91.2506C330.263 91.2922 330.148 91.3307 330.033 91.3661C329.917 91.4016 329.801 91.4339 329.684 91.4632C329.568 91.4926 329.45 91.5189 329.333 91.542C329.215 91.5653 329.097 91.5855 328.978 91.6024C328.86 91.6194 328.741 91.6332 328.622 91.6439C328.503 91.6546 328.384 91.6621 328.265 91.6666C328.145 91.671 328.026 91.6723 327.907 91.6704C327.788 91.6686 327.669 91.6636 327.55 91.6553C327.432 91.6472 327.313 91.636 327.195 91.6216C327.077 91.6071 326.96 91.5896 326.842 91.569ZM329.115 78.6819C329.037 78.6681 328.958 78.6564 328.88 78.6468C328.801 78.6372 328.722 78.6297 328.643 78.6242C328.564 78.6188 328.484 78.6155 328.405 78.6142C328.326 78.613 328.246 78.6139 328.167 78.6168C328.087 78.6198 328.008 78.6248 327.928 78.632C327.849 78.6391 327.77 78.6483 327.691 78.6597C327.612 78.671 327.533 78.6844 327.455 78.6998C327.376 78.7153 327.298 78.7328 327.22 78.7524C327.142 78.7719 327.065 78.7935 326.988 78.8172C326.911 78.8408 326.835 78.8664 326.759 78.894C326.683 78.9217 326.608 78.9512 326.533 78.9828C326.458 79.0144 326.385 79.0479 326.312 79.0833C326.238 79.1187 326.166 79.156 326.094 79.1953C326.023 79.2345 325.952 79.2755 325.882 79.3184C325.813 79.3612 325.744 79.4059 325.676 79.4524C325.608 79.4988 325.541 79.547 325.476 79.5969C325.41 79.6468 325.345 79.6984 325.282 79.7517C325.218 79.805 325.156 79.8598 325.095 79.9163C325.034 79.9728 324.974 80.0308 324.916 80.0904C324.858 80.15 324.8 80.211 324.744 80.2735C324.689 80.3359 324.634 80.3997 324.582 80.465C324.529 80.5303 324.477 80.597 324.427 80.665C324.377 80.7329 324.329 80.802 324.282 80.8723C324.235 80.9427 324.19 81.0142 324.147 81.0869C324.103 81.1596 324.061 81.2334 324.021 81.3082C323.98 81.3831 323.942 81.4588 323.905 81.5353C323.868 81.6121 323.833 81.6897 323.799 81.7682C323.766 81.8467 323.734 81.926 323.705 82.0062C323.675 82.0863 323.647 82.1669 323.621 82.2482C323.595 82.3298 323.57 82.4118 323.548 82.4945C323.525 82.5771 323.505 82.6602 323.486 82.7437C323.467 82.8272 323.451 82.9112 323.436 82.9956C323.421 83.08 323.408 83.1647 323.397 83.2495C323.386 83.3344 323.377 83.4195 323.37 83.5048C323.363 83.5902 323.357 83.6756 323.354 83.7612C323.351 83.8465 323.349 83.9319 323.35 84.0173C323.351 84.1029 323.353 84.1883 323.358 84.2735C323.362 84.3586 323.369 84.4436 323.377 84.5283C323.386 84.6129 323.396 84.6972 323.408 84.7813C323.421 84.8654 323.435 84.9491 323.451 85.0323C323.467 85.1156 323.485 85.1982 323.505 85.2804C323.525 85.3625 323.547 85.444 323.57 85.5248C323.594 85.6058 323.62 85.686 323.647 85.7655C323.674 85.845 323.704 85.9235 323.735 86.0012C323.766 86.0791 323.799 86.156 323.833 86.2318C323.868 86.3079 323.904 86.3828 323.942 86.4566C323.98 86.5307 324.02 86.6036 324.061 86.6753C324.103 86.7471 324.146 86.8177 324.19 86.8871C324.235 86.9563 324.281 87.0244 324.329 87.0913C324.377 87.1582 324.426 87.2237 324.477 87.2878C324.528 87.3519 324.58 87.4146 324.634 87.476C324.688 87.5373 324.743 87.5971 324.8 87.6554C324.857 87.7138 324.914 87.7706 324.974 87.8259C325.033 87.8811 325.094 87.9346 325.156 87.9865C325.217 88.0383 325.28 88.0885 325.345 88.1371C325.409 88.1856 325.474 88.2323 325.541 88.2773C325.607 88.3222 325.675 88.3654 325.743 88.407C325.812 88.4483 325.881 88.4878 325.951 88.5254C326.022 88.5631 326.093 88.5989 326.165 88.6329C326.237 88.6666 326.31 88.6985 326.384 88.7286C326.458 88.7584 326.532 88.7863 326.607 88.8124C326.682 88.8383 326.758 88.8622 326.834 88.8843C326.91 88.9062 326.987 88.9261 327.064 88.9442C327.141 88.962 327.219 88.9778 327.297 88.9916C327.375 89.0053 327.453 89.0171 327.532 89.0267C327.611 89.0362 327.69 89.0436 327.769 89.0492C327.848 89.0545 327.927 89.0579 328.007 89.0593C328.086 89.0604 328.165 89.0596 328.245 89.0567C328.324 89.0537 328.404 89.0486 328.483 89.0413C328.563 89.0343 328.642 89.0251 328.721 89.0138C328.8 89.0024 328.878 88.9891 328.957 88.9737C329.036 88.9581 329.114 88.9405 329.192 88.921C329.269 88.9015 329.347 88.88 329.424 88.8563C329.501 88.8327 329.577 88.807 329.653 88.7794C329.729 88.7519 329.804 88.7223 329.879 88.6907C329.953 88.6591 330.027 88.6255 330.1 88.5899C330.174 88.5546 330.246 88.5173 330.317 88.4781C330.389 88.4389 330.46 88.3979 330.529 88.355C330.599 88.3122 330.668 88.2675 330.736 88.221C330.804 88.1745 330.871 88.1264 330.936 88.0766C331.002 88.0266 331.066 87.975 331.13 87.9217C331.193 87.8685 331.256 87.8136 331.317 87.757C331.378 87.7006 331.437 87.6426 331.496 87.583C331.554 87.5235 331.611 87.4625 331.667 87.3999C331.723 87.3375 331.777 87.2737 331.83 87.2084C331.883 87.1431 331.935 87.0764 331.984 87.0084C332.034 86.9405 332.083 86.8715 332.129 86.8011C332.176 86.7307 332.222 86.6592 332.265 86.5865C332.309 86.5138 332.351 86.44 332.391 86.3652C332.431 86.2904 332.47 86.2147 332.507 86.1381C332.544 86.0613 332.579 85.9837 332.612 85.9052C332.646 85.8267 332.677 85.7474 332.707 85.6672C332.737 85.5872 332.765 85.5065 332.791 85.4252C332.817 85.3437 332.841 85.2616 332.864 85.1789C332.887 85.0963 332.907 85.0132 332.926 84.9297C332.944 84.8462 332.961 84.7622 332.976 84.6778C332.991 84.5934 333.004 84.5088 333.015 84.4239C333.026 84.3391 333.035 84.254 333.042 84.1686C333.049 84.0833 333.055 83.9978 333.058 83.9122C333.061 83.8269 333.062 83.7415 333.062 83.6562C333.061 83.5706 333.059 83.4852 333.054 83.4C333.049 83.3148 333.043 83.2298 333.035 83.1451C333.026 83.0605 333.016 82.9762 333.004 82.8921C332.991 82.808 332.977 82.7243 332.961 82.6411C332.945 82.5579 332.927 82.4752 332.907 82.3931C332.887 82.3109 332.865 82.2295 332.841 82.1487C332.818 82.0676 332.792 81.9874 332.765 81.9079C332.737 81.8285 332.708 81.7499 332.677 81.6722C332.646 81.5944 332.613 81.5175 332.579 81.4415C332.544 81.3656 332.508 81.2906 332.47 81.2167C332.432 81.1427 332.392 81.0699 332.351 80.9981C332.309 80.9264 332.266 80.8558 332.222 80.7865C332.177 80.717 332.131 80.6489 332.083 80.5821C332.035 80.5152 331.986 80.4497 331.935 80.3855C331.884 80.3214 331.831 80.2586 331.777 80.1973C331.724 80.136 331.668 80.0762 331.612 80.0179C331.555 79.9596 331.497 79.9028 331.438 79.8477C331.379 79.7925 331.318 79.7389 331.256 79.687C331.194 79.6351 331.131 79.5849 331.067 79.5364C331.003 79.4879 330.938 79.4411 330.871 79.3961C330.805 79.3511 330.737 79.3079 330.669 79.2665C330.6 79.2252 330.531 79.1857 330.461 79.148C330.39 79.1103 330.319 79.0746 330.247 79.0407C330.175 79.0069 330.102 78.975 330.028 78.945C329.954 78.915 329.88 78.8871 329.805 78.8611C329.73 78.8351 329.654 78.8111 329.578 78.7891C329.502 78.7671 329.425 78.7472 329.348 78.7293C329.271 78.7115 329.193 78.6956 329.115 78.6819Z"   fill="#FFDD00" >
</path>
</svg>
